<svg width="129" height="40" viewBox="0 0 129 40" fill="none" xmlns="http://www.w3.org/2000/svg">
<path d="M29.9133 7.79182C31.3095 9.1762 32.0075 11.2514 32.0075 14.0173V24.762H26.5151V14.8568C26.5151 13.3672 26.2035 12.2563 25.5805 11.5242C24.9575 10.792 24.0718 10.4259 22.9235 10.4259C21.6322 10.4259 20.6113 10.839 19.8608 11.6651C19.1104 12.4913 18.7344 13.7178 18.733 15.3449V24.762H13.2405V14.8568C13.2405 11.9029 12.0434 10.4259 9.64898 10.4259C8.37463 10.4259 7.36506 10.839 6.62027 11.6651C5.87548 12.4913 5.50025 13.7178 5.49459 15.3449V24.762H0V5.99719H5.24822V8.15791C5.9572 7.3637 6.84281 6.74356 7.83516 6.34644C8.90271 5.91784 10.0455 5.70331 11.1973 5.71526C12.4514 5.69662 13.6929 5.96519 14.825 6.50003C15.8887 7.01055 16.7903 7.80098 17.431 8.78487C18.211 7.80423 19.2198 7.02592 20.3705 6.51685C21.5939 5.97456 22.9214 5.7011 24.2616 5.71526C26.6319 5.71667 28.5158 6.40885 29.9133 7.79182Z" fill="#FBFBFB"/>
<path d="M50.0878 7.74615C51.6146 9.11169 52.3773 11.1704 52.3759 13.9222V24.4854H47.392V22.1797C46.3883 23.8994 44.5218 24.7593 41.7923 24.7593C40.5287 24.7908 39.2735 24.5444 38.1141 24.0371C37.1493 23.6162 36.3255 22.9237 35.7416 22.0428C35.1897 21.1822 34.9031 20.1763 34.9178 19.1519C34.9178 17.4322 35.5603 16.0791 36.8454 15.0926C38.1305 14.1062 40.1207 13.6164 42.8158 13.6233H47.0501C47.0501 12.4529 46.6972 11.5536 45.9915 10.9255C45.2858 10.2974 44.2272 9.98262 42.8158 9.98123C41.8365 9.98137 40.8634 10.1376 39.9326 10.444C39.063 10.7161 38.2485 11.1419 37.5271 11.7016L35.6139 7.94953C36.7119 7.19576 37.9303 6.63769 39.2159 6.29968C40.6246 5.90817 42.0795 5.7113 43.5408 5.71446C46.376 5.70477 48.5583 6.382 50.0878 7.74615ZM45.557 20.5112C46.2612 20.0875 46.7932 19.4256 47.0583 18.6434V16.7363H43.3966C41.2122 16.7363 40.12 17.4592 40.12 18.9049C40.1094 19.2227 40.177 19.5381 40.3168 19.8231C40.4566 20.108 40.6642 20.3537 40.9211 20.5382C41.4566 20.9408 42.1911 21.1421 43.1247 21.1421C43.9748 21.1588 44.8131 20.9406 45.5487 20.5112H45.557Z" fill="#FBFBFB"/>
<path d="M75.4258 7.80842C76.8726 9.20263 77.5954 11.2715 77.5939 14.015V24.7599H72.0916V14.8545C72.0916 13.3649 71.7625 12.2541 71.1044 11.5219C70.4462 10.7897 69.4937 10.4236 68.2468 10.4236C66.8595 10.4236 65.7545 10.8479 64.9318 11.6965C64.1091 12.5451 63.6977 13.8075 63.6977 15.4836V24.762H58.1954V5.99482H63.4509V8.19134C64.2034 7.38499 65.1319 6.75898 66.1659 6.36091C67.3006 5.92015 68.5108 5.7008 69.7299 5.715C72.0817 5.715 73.9803 6.41281 75.4258 7.80842Z" fill="#FBFBFB"/>
<path d="M106.679 12.3789H94.1534V17.1117H99.1282C98.1587 18.3351 96.8356 19.238 95.3346 19.7007C93.8336 20.1633 92.2257 20.1638 90.7244 19.702C89.2232 19.2402 87.8995 18.3381 86.9293 17.1153C85.9591 15.8926 85.3882 14.4071 85.2924 12.8561C85.1966 11.3051 85.5805 9.762 86.3931 8.43172C87.2057 7.10145 88.4085 6.04692 89.8418 5.40816C91.2751 4.7694 92.8711 4.57665 94.4179 4.85548C95.9647 5.13432 97.3891 5.87156 98.5019 6.9693L101.886 3.62494C100.133 1.89315 97.9002 0.714114 95.4693 0.237066C93.0383 -0.239983 90.5188 0.00639194 88.2296 0.945014C85.9403 1.88364 83.9843 3.47231 82.6091 5.50998C81.2338 7.54764 80.5012 9.9427 80.5038 12.392C80.5064 14.8414 81.2442 17.2349 82.6239 19.2697C84.0035 21.3045 85.9629 22.889 88.2541 23.8228C90.5454 24.7567 93.0654 24.9977 95.4953 24.5156C97.9253 24.0334 100.156 22.8497 101.905 21.1143V24.7619H106.692V12.383L106.679 12.3789Z" fill="url(#paint0_linear)"/>
<path d="M119.299 5.71436C117.38 5.71477 115.505 6.27368 113.911 7.32042C112.316 8.36716 111.073 9.85472 110.339 11.595C109.605 13.3353 109.414 15.2501 109.788 17.0974C110.163 18.9447 111.087 20.6415 112.443 21.9732C113.8 23.305 115.528 24.2118 117.409 24.5791C119.291 24.9464 121.241 24.7577 123.013 24.0368C124.785 23.3159 126.3 22.0952 127.366 20.5291C128.431 18.963 129 17.1217 129 15.2382C129 13.9873 128.749 12.7487 128.262 11.5931C127.774 10.4375 127.059 9.38747 126.158 8.50308C125.258 7.61868 124.188 6.91721 123.011 6.43872C121.834 5.96022 120.573 5.71408 119.299 5.71436ZM119.299 20.0938C118.321 20.0938 117.365 19.809 116.551 19.2754C115.738 18.7419 115.104 17.9836 114.73 17.0963C114.356 16.2091 114.258 15.2328 114.449 14.2909C114.639 13.349 115.11 12.4838 115.802 11.8047C116.494 11.1257 117.375 10.6632 118.334 10.4759C119.293 10.2885 120.287 10.3847 121.191 10.7522C122.095 11.1197 122.867 11.742 123.41 12.5405C123.954 13.339 124.244 14.2778 124.244 15.2382C124.244 16.5259 123.723 17.761 122.795 18.6716C121.868 19.5822 120.61 20.0938 119.299 20.0938Z" fill="url(#paint1_linear)"/>
<path d="M100.872 39.5672C100.674 39.7153 100.444 39.8249 100.197 39.8893C99.9282 39.9627 99.649 40 99.3682 39.9999C98.6754 39.9999 98.1397 39.8326 97.7612 39.498C97.3797 39.1621 97.1889 38.684 97.1889 38.0596V34.6591H96.0226V33.7363H97.1889V32.3809H98.4342V33.7363H100.407V34.6591H98.4342V38.0181C98.4133 38.2977 98.5131 38.5738 98.7127 38.7887C98.817 38.8818 98.9421 38.954 99.0797 39.0003C99.2172 39.0466 99.3642 39.0661 99.5107 39.0574C99.8632 39.0658 100.208 38.9623 100.484 38.765L100.872 39.5672Z" fill="#FBFBFB"/>
<path d="M104.107 33.6338C104.614 33.4237 105.166 33.3214 105.722 33.3346V34.4933C105.65 34.4933 105.549 34.4828 105.422 34.4828C105.115 34.4672 104.808 34.5105 104.52 34.6099C104.232 34.7093 103.971 34.8626 103.752 35.06C103.346 35.4476 103.145 35.9975 103.145 36.7116V40.0002H101.842V33.3978H103.097V34.5059C103.323 34.1243 103.677 33.8188 104.107 33.6338Z" fill="#FBFBFB"/>
<path d="M110.804 33.9945C111.295 34.4391 111.541 35.1004 111.541 35.9785V39.9217H110.394V39.0589C110.184 39.3704 109.883 39.6135 109.531 39.757C109.106 39.926 108.651 40.0076 108.192 39.9967C107.549 40.0284 106.914 39.8414 106.395 39.4673C106.187 39.2983 106.019 39.087 105.903 38.8481C105.786 38.6092 105.725 38.3485 105.722 38.084C105.719 37.8195 105.775 37.5575 105.886 37.3163C105.997 37.0751 106.161 36.8604 106.365 36.6871C106.791 36.3384 107.472 36.164 108.407 36.164H110.326V35.9285C110.34 35.7129 110.307 35.4969 110.229 35.2949C110.15 35.0929 110.029 34.9096 109.872 34.7572C109.569 34.4863 109.124 34.3508 108.535 34.3508C108.141 34.3509 107.749 34.4158 107.376 34.5426C107.026 34.6536 106.701 34.8267 106.416 35.0532L105.913 34.1674C106.279 33.8827 106.698 33.6703 107.147 33.5422C107.643 33.3986 108.157 33.3283 108.674 33.3338C109.603 33.3275 110.324 33.5505 110.804 33.9945ZM109.601 38.7879C109.935 38.5888 110.192 38.2877 110.333 37.9313V37.0206H108.465C107.44 37.0206 106.928 37.3575 106.928 38.0314C106.922 38.1824 106.955 38.3325 107.023 38.4682C107.091 38.6039 107.192 38.7209 107.318 38.8088C107.639 39.015 108.02 39.1144 108.403 39.0922C108.824 39.1005 109.24 38.9929 109.601 38.7817V38.7879Z" fill="#FBFBFB"/>
<path d="M120.271 30.4761V39.9218H119.133V38.8455C118.876 39.216 118.531 39.5125 118.132 39.7066C117.713 39.9053 117.256 40.0053 116.795 39.9993C116.2 40.0103 115.612 39.8619 115.089 39.5688C114.592 39.2861 114.182 38.8645 113.908 38.3525C113.628 37.7969 113.481 37.1801 113.481 36.554C113.481 35.928 113.628 35.3111 113.908 34.7555C114.184 34.2468 114.594 33.8277 115.089 33.5457C115.613 33.2536 116.2 33.1053 116.795 33.1152C117.242 33.1108 117.685 33.204 118.094 33.3886C118.485 33.5675 118.825 33.8461 119.083 34.198V30.4761H120.271ZM118.019 38.6302C118.355 38.4334 118.63 38.1423 118.811 37.7907C118.998 37.4054 119.096 36.9805 119.096 36.5497C119.096 36.1189 118.998 35.6941 118.811 35.3087C118.631 34.9575 118.356 34.6674 118.019 34.4735C117.672 34.2813 117.284 34.1807 116.891 34.1807C116.497 34.1807 116.109 34.2813 115.762 34.4735C115.428 34.6694 115.154 34.959 114.972 35.3087C114.781 35.6928 114.681 36.1182 114.681 36.5497C114.681 36.9812 114.781 37.4066 114.972 37.7907C115.155 38.1408 115.428 38.4315 115.762 38.6302C116.108 38.8266 116.496 38.9296 116.891 38.9296C117.285 38.9296 117.673 38.8266 118.019 38.6302Z" fill="#FBFBFB"/>
<path d="M128.98 37.0466H123.437C123.467 37.3172 123.552 37.5794 123.688 37.8182C123.824 38.057 124.008 38.2676 124.229 38.438C124.707 38.7965 125.302 38.9821 125.909 38.9624C126.276 38.9752 126.641 38.9112 126.979 38.7748C127.317 38.6384 127.621 38.433 127.868 38.1727L128.551 38.9373C128.239 39.2861 127.844 39.5577 127.4 39.7291C126.843 39.9315 126.249 40.0222 125.655 39.9956C125.061 39.969 124.478 39.8257 123.944 39.5745C123.409 39.3055 122.967 38.8951 122.668 38.3921C122.359 37.8646 122.201 37.2675 122.211 36.6622C122.2 36.0634 122.35 35.4719 122.646 34.9449C122.931 34.4462 123.355 34.0332 123.87 33.752C124.407 33.4666 125.012 33.3225 125.626 33.3342C126.235 33.3222 126.836 33.4664 127.367 33.752C127.875 34.0343 128.289 34.4476 128.564 34.9449C128.86 35.4856 129.01 36.0891 129 36.6999C128.999 36.8157 128.993 36.9315 128.98 37.0466ZM124.14 34.8405C123.736 35.1927 123.485 35.6773 123.437 36.1984H127.813C127.762 35.6803 127.512 35.1988 127.113 34.8468C126.697 34.5087 126.17 34.3232 125.626 34.3232C125.082 34.3232 124.555 34.5087 124.14 34.8468V34.8405Z" fill="#FBFBFB"/>
<defs>
<linearGradient id="paint0_linear" x1="81.2684" y1="22.3666" x2="122.618" y2="-2.7185" gradientUnits="userSpaceOnUse">
<stop stop-color="#00B8B0"/>
<stop offset="1" stop-color="#0795CF"/>
</linearGradient>
<linearGradient id="paint1_linear" x1="110.168" y1="22.9194" x2="141.408" y2="4.66912" gradientUnits="userSpaceOnUse">
<stop stop-color="#00B8B0"/>
<stop offset="1" stop-color="#0795CF"/>
</linearGradient>
</defs>
</svg>
