<svg width="100%" height="100%" viewBox="0 0 20 20" fill="none" xmlns="http://www.w3.org/2000/svg">
<circle cx="10" cy="10" r="9.5" fill="url(#paint0_linear)" stroke="url(#paint1_linear)"/>
<path d="M14.3022 2.10074L12.6632 3.80555C12.1645 4.31312 11.9085 4.86243 11.8951 5.4535C11.8817 6.04456 12.1345 6.60372 12.6535 7.13099C13.1716 7.65638 13.7229 7.91274 14.3075 7.90008C14.8922 7.88741 15.4336 7.62776 15.9318 7.12114L16.9074 6.13603L17.6753 5.37833C18.16 6.19309 18.5214 7.09167 18.7337 8.04757L17.6428 9.0611L17.6162 9.08788L17.5976 9.10663L17.5534 9.15057L17.5429 9.16117L17.4929 9.21097L16.6145 10.1011C16.0978 10.6257 15.4738 11.0288 14.7866 11.2821C14.0994 11.5353 13.3657 11.6325 12.6375 11.5668L10.4353 11.3698C10.6581 11.754 10.8219 12.1704 10.921 12.6047C11.1143 13.4711 11.0543 14.3759 10.7482 15.2082C10.4401 16.0868 9.90197 16.9157 9.13366 17.6948L8.0593 18.8635C7.11366 18.6465 6.225 18.277 5.41978 17.7819L7.22282 15.954C7.72147 15.4479 7.97749 14.8986 7.99087 14.3061C8.00432 13.7136 7.75149 13.1544 7.2325 12.6286C6.71449 12.1023 6.16308 11.8459 5.57846 11.8595C4.99378 11.8731 4.45212 12.1327 3.95347 12.6384L2.19786 14.4973C1.74639 13.6653 1.36884 12.9701 1.1958 11.8595L2.24049 10.6998L2.30358 10.6379L3.4491 9.47618C3.96731 8.95145 4.59286 8.54857 5.28151 8.29603C5.97022 8.04348 6.70513 7.94745 7.43446 8.0147L9.34042 8.18991C9.17317 7.86344 9.0473 7.51685 8.96575 7.15837C8.77179 6.29207 8.83157 5.38717 9.13782 4.55487C9.44634 3.67578 9.98449 2.84688 10.7524 2.06818L11.5637 1.13232C12.5401 1.30338 13.4621 1.6355 14.3022 2.10074Z" fill="#23BCFA"/>
<defs>
<linearGradient id="paint0_linear" x1="1" y1="1" x2="8.31783" y2="22.6163" gradientUnits="userSpaceOnUse">
<stop stop-color="#015D7B"/>
<stop offset="0.5" stop-color="#052B43"/>
<stop offset="1" stop-color="#4F3265"/>
</linearGradient>
<linearGradient id="paint1_linear" x1="10" y1="1" x2="10" y2="17.0714" gradientUnits="userSpaceOnUse">
<stop stop-color="white" stop-opacity="0.36"/>
<stop offset="1" stop-color="white" stop-opacity="0"/>
</linearGradient>
</defs>
</svg>
