<svg width="133" height="42" viewBox="0 0 133 42" fill="none" xmlns="http://www.w3.org/2000/svg">
<path d="M30.8409 8.18134C32.2803 9.63493 33 11.8138 33 14.7181V26H27.3372V15.5995C27.3372 14.0355 27.0161 12.8691 26.3737 12.1003C25.7314 11.3315 24.8182 10.9471 23.6343 10.9471C22.3029 10.9471 21.2504 11.3809 20.4766 12.2483C19.7029 13.1157 19.3153 14.4037 19.3139 16.112V26H13.6511V15.5995C13.6511 12.4979 12.4168 10.9471 9.94818 10.9471C8.63431 10.9471 7.59343 11.3809 6.82555 12.2483C6.05767 13.1157 5.6708 14.4037 5.66497 16.112V26H0V6.29697H5.41095V8.56573C6.14192 7.73181 7.05499 7.08067 8.0781 6.66369C9.17876 6.21366 10.357 5.9884 11.5445 6.00095C12.8375 5.98138 14.1175 6.26337 15.2847 6.82495C16.3814 7.36101 17.3109 8.19095 17.9715 9.22404C18.7757 8.19437 19.8157 7.37714 21.0022 6.84262C22.2635 6.27321 23.6321 5.98608 25.0139 6.00095C27.4577 6.00243 29.4 6.72922 30.8409 8.18134Z" fill="#FBFBFB"/>
<path d="M51.641 8.13339C53.2151 9.5672 54.0014 11.7288 54 14.6182V25.7096H48.8615V23.2886C47.8268 25.0943 45.9023 25.9972 43.0882 25.9972C41.7854 26.0303 40.4913 25.7715 39.296 25.2389C38.3013 24.7969 37.4519 24.0698 36.8499 23.1448C36.2809 22.2413 35.9854 21.1851 36.0006 20.1094C36.0006 18.3037 36.663 16.883 37.988 15.8472C39.3129 14.8114 41.3648 14.2972 44.1435 14.3044H48.5091C48.5091 13.0755 48.1453 12.1312 47.4177 11.4717C46.6901 10.8122 45.5987 10.4817 44.1435 10.4802C43.1339 10.4804 42.1306 10.6444 41.1709 10.9661C40.2744 11.2518 39.4346 11.6989 38.6908 12.2866L36.7182 8.34694C37.8503 7.55547 39.1065 6.9695 40.4319 6.61459C41.8843 6.20351 43.3843 5.99679 44.8909 6.00011C47.814 5.98994 50.0641 6.70103 51.641 8.13339ZM46.9697 21.5367C47.6957 21.0918 48.2443 20.3968 48.5176 19.5755V17.573H44.7423C42.4901 17.573 41.3641 18.332 41.3641 19.8501C41.3531 20.1837 41.4228 20.5149 41.567 20.8141C41.7111 21.1134 41.9252 21.3713 42.1901 21.565C42.7421 21.9877 43.4994 22.1991 44.462 22.1991C45.3384 22.2167 46.2027 21.9876 46.9612 21.5367H46.9697Z" fill="#FBFBFB"/>
<path d="M77.7646 8.19877C79.2563 9.66269 80.0015 11.835 80 14.7157V25.9978H74.3271V15.5972C74.3271 14.0331 73.9878 12.8667 73.3092 12.0979C72.6306 11.3291 71.6486 10.9447 70.3631 10.9447C68.9328 10.9447 67.7935 11.3902 66.9453 12.2813C66.097 13.1723 65.6729 14.4978 65.6729 16.2577V26H60V6.29449H65.4184V8.60083C66.1942 7.75417 67.1516 7.09685 68.2176 6.67889C69.3875 6.21608 70.6353 5.98577 71.8921 6.00068C74.3168 6.00068 76.2744 6.73337 77.7646 8.19877Z" fill="#FBFBFB"/>
<path d="M109.987 12.9978H97.0728V17.9673H102.202C101.202 19.2518 99.8383 20.1999 98.2907 20.6857C96.7432 21.1715 95.0854 21.172 93.5376 20.6871C91.9897 20.2022 90.6251 19.255 89.6248 17.9711C88.6244 16.6872 88.0358 15.1274 87.9371 13.4989C87.8384 11.8703 88.2342 10.2501 89.0719 8.85331C89.9097 7.45652 91.1498 6.34926 92.6276 5.67857C94.1053 5.00787 95.7508 4.80548 97.3456 5.09826C98.9404 5.39104 100.409 6.16514 101.556 7.31777L105.045 3.80619C103.238 1.9878 100.936 0.74982 98.4295 0.248919C95.9232 -0.251983 93.3255 0.00671155 90.9653 0.992264C88.6051 1.97782 86.5885 3.64593 85.1706 5.78548C83.7527 7.92502 82.9973 10.4398 83 13.0116C83.0027 15.5834 83.7634 18.0966 85.1858 20.2332C86.6082 22.3697 88.6284 24.0335 90.9907 25.014C93.353 25.9945 95.9511 26.2476 98.4564 25.7414C100.962 25.2351 103.261 23.9922 105.065 22.17V26H110V13.0022L109.987 12.9978Z" fill="#23BCFA"/>
<path d="M122.998 6C121.02 6.00043 119.087 6.58729 117.443 7.68637C115.799 8.78544 114.517 10.3474 113.761 12.1747C113.004 14.002 112.806 16.0126 113.192 17.9522C113.579 19.8919 114.531 21.6735 115.93 23.0718C117.328 24.4701 119.11 25.4223 121.05 25.808C122.99 26.1937 125 25.9955 126.827 25.2386C128.654 24.4816 130.216 23.1999 131.315 21.5555C132.414 19.911 133 17.9777 133 16C133 14.6866 132.741 13.3861 132.239 12.1727C131.736 10.9593 130.999 9.85677 130.07 8.92816C129.141 7.99955 128.039 7.263 126.825 6.76058C125.612 6.25816 124.311 5.99971 122.998 6ZM122.998 21.0984C121.989 21.0984 121.004 20.7994 120.165 20.2391C119.327 19.6789 118.673 18.8827 118.288 17.9511C117.902 17.0195 117.801 15.9943 117.997 15.0054C118.194 14.0164 118.68 13.1079 119.393 12.3949C120.106 11.6819 121.014 11.1963 122.003 10.9996C122.992 10.8029 124.017 10.9038 124.949 11.2897C125.88 11.6756 126.677 12.3291 127.237 13.1675C127.797 14.0059 128.096 14.9916 128.096 16C128.096 17.3522 127.559 18.649 126.603 19.6051C125.647 20.5612 124.35 21.0984 122.998 21.0984Z" fill="#23BCFA"/>
<path d="M104 41.5456C103.796 41.7011 103.559 41.8163 103.304 41.8838C103.027 41.961 102.739 42.0001 102.449 42C101.735 42 101.183 41.8243 100.792 41.473C100.399 41.1203 100.203 40.6183 100.203 39.9627V36.3921H99V35.4232H100.203V34H101.486V35.4232H103.521V36.3921H101.486V39.9191C101.465 40.2127 101.568 40.5026 101.774 40.7282C101.881 40.826 102.01 40.9018 102.152 40.9504C102.294 40.9991 102.445 41.0195 102.596 41.0104C102.96 41.0192 103.315 40.9105 103.6 40.7033L104 41.5456Z" fill="#FBFBFB"/>
<path d="M107.335 35.3153C107.857 35.0947 108.427 34.9873 109 35.0012V36.2178C108.926 36.2178 108.822 36.2067 108.691 36.2067C108.374 36.1904 108.058 36.2358 107.761 36.3402C107.464 36.4446 107.195 36.6056 106.969 36.8128C106.551 37.2198 106.344 37.7972 106.344 38.547V42H105V35.0675H106.294V36.2311C106.527 35.8304 106.892 35.5095 107.335 35.3153Z" fill="#FBFBFB"/>
<path d="M114.239 35.694C114.746 36.1609 115 36.8553 115 37.7773V41.9176H113.817V41.0116C113.601 41.3387 113.291 41.594 112.927 41.7447C112.489 41.9221 112.02 42.0078 111.547 41.9964C110.883 42.0297 110.229 41.8332 109.694 41.4405C109.479 41.263 109.306 41.0411 109.186 40.7903C109.067 40.5395 109.003 40.2657 109 39.988C108.997 39.7103 109.055 39.4352 109.169 39.182C109.284 38.9287 109.452 38.7033 109.663 38.5213C110.103 38.1551 110.805 37.972 111.769 37.972H113.747V37.7248C113.762 37.4984 113.727 37.2716 113.646 37.0595C113.566 36.8474 113.44 36.6549 113.279 36.4949C112.967 36.2105 112.507 36.0682 111.901 36.0682C111.494 36.0683 111.09 36.1364 110.705 36.2695C110.345 36.3862 110.01 36.5679 109.716 36.8057L109.197 35.8756C109.575 35.5766 110.007 35.3536 110.47 35.2191C110.981 35.0683 111.511 34.9946 112.044 35.0003C113.002 34.9937 113.745 35.2279 114.239 35.694ZM113 40.7271C113.344 40.5181 113.609 40.202 113.754 39.8277V38.8714H111.828C110.772 38.8714 110.244 39.2252 110.244 39.9328C110.237 40.0914 110.271 40.2489 110.341 40.3914C110.411 40.5339 110.516 40.6568 110.646 40.749C110.977 40.9655 111.369 41.0699 111.765 41.0466C112.199 41.0554 112.627 40.9424 113 40.7206V40.7271Z" fill="#FBFBFB"/>
<path d="M124 32V41.918H122.827V40.7879C122.562 41.1769 122.207 41.4882 121.795 41.692C121.363 41.9006 120.892 42.0057 120.417 41.9994C119.803 42.0109 119.197 41.8551 118.658 41.5474C118.145 41.2506 117.723 40.8079 117.44 40.2703C117.151 39.6869 117 39.0392 117 38.3819C117 37.7245 117.151 37.0768 117.44 36.4934C117.725 35.9592 118.147 35.5193 118.658 35.2231C119.197 34.9164 119.803 34.7607 120.417 34.7711C120.878 34.7665 121.334 34.8643 121.756 35.0581C122.159 35.246 122.51 35.5385 122.775 35.908V32H124ZM121.678 40.5619C122.025 40.3552 122.308 40.0495 122.495 39.6804C122.688 39.2757 122.788 38.8296 122.788 38.3773C122.788 37.925 122.688 37.4789 122.495 37.0743C122.309 36.7055 122.025 36.4009 121.678 36.1973C121.321 35.9955 120.921 35.8899 120.515 35.8899C120.109 35.8899 119.709 35.9955 119.352 36.1973C119.007 36.403 118.724 36.707 118.537 37.0743C118.34 37.4776 118.237 37.9242 118.237 38.3773C118.237 38.8304 118.34 39.2771 118.537 39.6804C118.725 40.048 119.007 40.3533 119.352 40.5619C119.708 40.7681 120.108 40.8762 120.515 40.8762C120.922 40.8762 121.322 40.7681 121.678 40.5619Z" fill="#FBFBFB"/>
<path d="M132.979 38.8988H127.264C127.295 39.1829 127.383 39.4582 127.523 39.7089C127.663 39.9596 127.853 40.1808 128.081 40.3598C128.574 40.7361 129.187 40.931 129.813 40.9104C130.191 40.9238 130.568 40.8565 130.916 40.7133C131.265 40.5701 131.578 40.3544 131.833 40.0812L132.537 40.884C132.216 41.2503 131.808 41.5355 131.35 41.7154C130.776 41.9279 130.164 42.0232 129.551 41.9952C128.938 41.9673 128.338 41.8168 127.787 41.5531C127.236 41.2706 126.78 40.8397 126.472 40.3115C126.153 39.7576 125.99 39.1308 126.001 38.4952C125.989 37.8664 126.144 37.2453 126.449 36.692C126.743 36.1683 127.18 35.7347 127.71 35.4395C128.264 35.1398 128.889 34.9884 129.521 35.0007C130.149 34.9881 130.769 35.1396 131.317 35.4395C131.84 35.7359 132.267 36.1698 132.551 36.692C132.856 37.2597 133.01 37.8934 132.999 38.5347C132.999 38.6563 132.992 38.7779 132.979 38.8988ZM127.989 36.5823C127.573 36.9521 127.314 37.4609 127.264 38.0082H131.777C131.723 37.4641 131.466 36.9586 131.054 36.5889C130.626 36.234 130.083 36.0392 129.521 36.0392C128.96 36.0392 128.417 36.234 127.989 36.5889V36.5823Z" fill="#FBFBFB"/>
</svg>
