<svg width="98" height="19" viewBox="0 0 98 19" fill="none" xmlns="http://www.w3.org/2000/svg">
<path d="M22.7248 5.91945C23.7855 6.97114 24.3158 8.54762 24.3158 10.6489V18.8115H20.1432V11.2866C20.1432 10.155 19.9066 9.31108 19.4333 8.75487C18.96 8.19865 18.2871 7.92055 17.4147 7.92055C16.4337 7.92055 15.6582 8.23435 15.088 8.86195C14.5179 9.48956 14.2323 10.4214 14.2313 11.6574V18.8115H10.0587V11.2866C10.0587 9.04256 9.14921 7.92055 7.33023 7.92055C6.36212 7.92055 5.59516 8.23435 5.02935 8.86195C4.46354 9.48956 4.17849 10.4214 4.17418 11.6574V18.8115H0V4.55608H3.98701V6.19756C4.52562 5.59421 5.19841 5.1231 5.95228 4.8214C6.76329 4.4958 7.63145 4.33282 8.50649 4.34191C9.45921 4.32774 10.4024 4.53177 11.2624 4.93808C12.0705 5.32593 12.7554 5.9264 13.2422 6.67385C13.8347 5.92887 14.6011 5.3376 15.4753 4.95087C16.4047 4.53889 17.4131 4.33115 18.4313 4.34191C20.232 4.34297 21.6631 4.86882 22.7248 5.91945Z" fill="#FBFBFB"/>
<path d="M38.0513 5.88475C39.2112 6.92213 39.7906 8.48609 39.7895 10.5766V18.6014H36.0033V16.8498C35.2408 18.1562 33.8228 18.8095 31.7493 18.8095C30.7893 18.8334 29.8358 18.6462 28.955 18.2608C28.222 17.941 27.5962 17.415 27.1526 16.7457C26.7334 16.092 26.5156 15.3278 26.5268 14.5496C26.5268 13.2431 27.0149 12.2152 27.9912 11.4658C28.9675 10.7164 30.4794 10.3443 32.5268 10.3496H35.7436C35.7436 9.46041 35.4755 8.77723 34.9394 8.30006C34.4033 7.82288 33.5991 7.58377 32.5268 7.58272C31.7829 7.58282 31.0436 7.70148 30.3365 7.93429C29.6759 8.14096 29.0571 8.46447 28.5091 8.88969L27.0556 6.03926C27.8898 5.46662 28.8154 5.04266 29.792 4.78588C30.8622 4.48846 31.9675 4.3389 33.0776 4.34129C35.2314 4.33394 36.8893 4.84842 38.0513 5.88475ZM34.6093 15.5822C35.1443 15.2603 35.5484 14.7575 35.7498 14.1633V12.7144H32.968C31.3086 12.7144 30.4788 13.2636 30.4788 14.362C30.4708 14.6033 30.5221 14.8429 30.6283 15.0594C30.7345 15.2759 30.8923 15.4626 31.0875 15.6027C31.4942 15.9086 32.0523 16.0615 32.7615 16.0615C33.4073 16.0742 34.0441 15.9085 34.603 15.5822H34.6093Z" fill="#FBFBFB"/>
<path d="M57.3002 5.93206C58.3993 6.99122 58.9484 8.56293 58.9473 10.6472V18.8099H54.7672V11.2849C54.7672 10.1533 54.5172 9.30936 54.0172 8.75313C53.5172 8.19691 52.7936 7.9188 51.8464 7.9188C50.7925 7.9188 49.953 8.24113 49.328 8.88579C48.703 9.53046 48.3905 10.4895 48.3905 11.7628V18.8115H44.2104V4.55429H48.203V6.22296C48.7746 5.61038 49.48 5.13481 50.2655 4.8324C51.1275 4.49755 52.047 4.33092 52.973 4.34171C54.7597 4.34171 56.2021 4.87182 57.3002 5.93206Z" fill="#FBFBFB"/>
<path d="M81.0432 9.40411H71.5274V12.9996H75.3067C74.5702 13.929 73.5651 14.6149 72.4248 14.9664C71.2845 15.3178 70.063 15.3182 68.9225 14.9674C67.782 14.6166 66.7764 13.9312 66.0394 13.0023C65.3023 12.0734 64.8686 10.9449 64.7958 9.76662C64.7231 8.58835 65.0147 7.41609 65.632 6.40549C66.2493 5.39489 67.1631 4.59378 68.2519 4.10852C69.3408 3.62327 70.5533 3.47683 71.7284 3.68866C72.9035 3.90049 73.9856 4.46056 74.831 5.29451L77.4018 2.75383C76.0703 1.4382 74.3738 0.542505 72.5271 0.180096C70.6803 -0.182313 68.7662 0.0048559 67.0272 0.717917C65.2881 1.43098 63.8021 2.63788 62.7573 4.18587C61.7126 5.73386 61.156 7.55336 61.158 9.4141C61.16 11.2748 61.7205 13.0932 62.7686 14.639C63.8166 16.1848 65.3052 17.3885 67.0458 18.098C68.7864 18.8074 70.7009 18.9905 72.5469 18.6242C74.3929 18.2579 76.0874 17.3587 77.4161 16.0403V18.8114H81.0527V9.40724L81.0432 9.40411Z" fill="url(#paint0_linear)"/>
<path d="M90.63 4.34122C89.1727 4.34153 87.7483 4.76613 86.5368 5.56133C85.3252 6.35652 84.3811 7.48661 83.8236 8.80868C83.2662 10.1308 83.1205 11.5855 83.405 12.9888C83.6895 14.3922 84.3914 15.6812 85.4219 16.6929C86.4525 17.7046 87.7654 18.3935 89.1947 18.6726C90.624 18.9516 92.1054 18.8083 93.4517 18.2606C94.7981 17.7129 95.9487 16.7856 96.7583 15.5958C97.5679 14.406 98 13.0073 98 11.5764C98 10.6261 97.8094 9.68513 97.439 8.80722C97.0686 7.92931 96.5257 7.13165 95.8413 6.45978C95.1569 5.78792 94.3444 5.25501 93.4503 4.89151C92.5561 4.528 91.5978 4.34101 90.63 4.34122ZM90.63 15.2651C89.887 15.2651 89.1607 15.0488 88.5429 14.6434C87.9251 14.2381 87.4436 13.662 87.1593 12.988C86.8749 12.3139 86.8005 11.5723 86.9455 10.8567C87.0904 10.1412 87.4482 9.4839 87.9736 8.96802C88.499 8.45213 89.1684 8.10081 89.8971 7.95848C90.6258 7.81615 91.3812 7.8892 92.0676 8.16839C92.7541 8.44759 93.3408 8.92038 93.7536 9.52699C94.1664 10.1336 94.3867 10.8468 94.3867 11.5764C94.3867 12.5547 93.9909 13.4929 93.2864 14.1847C92.5819 14.8765 91.6263 15.2651 90.63 15.2651Z" fill="url(#paint1_linear)"/>
<defs>
<linearGradient id="paint0_linear" x1="61.7389" y1="16.9917" x2="93.1518" y2="-2.06522" gradientUnits="userSpaceOnUse">
<stop stop-color="#00B8B0"/>
<stop offset="1" stop-color="#0795CF"/>
</linearGradient>
<linearGradient id="paint1_linear" x1="83.6935" y1="17.4117" x2="107.427" y2="3.54716" gradientUnits="userSpaceOnUse">
<stop stop-color="#00B8B0"/>
<stop offset="1" stop-color="#0795CF"/>
</linearGradient>
</defs>
</svg>
