<svg width="100%" height="100%" viewBox="0 0 15 16" fill="none" xmlns="http://www.w3.org/2000/svg">
<path fill-rule="evenodd" clip-rule="evenodd" d="M3.75 0C3.50136 0 3.2629 0.105357 3.08709 0.292893C2.91127 0.48043 2.8125 0.734784 2.8125 1V2H1.875C1.37772 2 0.900805 2.21071 0.549175 2.58579C0.197544 2.96086 0 3.46957 0 4V14C0 14.5304 0.197544 15.0391 0.549175 15.4142C0.900805 15.7893 1.37772 16 1.875 16H13.125C13.6223 16 14.0992 15.7893 14.4508 15.4142C14.8025 15.0391 15 14.5304 15 14V4C15 3.46957 14.8025 2.96086 14.4508 2.58579C14.0992 2.21071 13.6223 2 13.125 2H12.1875V1C12.1875 0.734784 12.0887 0.48043 11.9129 0.292893C11.7371 0.105357 11.4986 0 11.25 0C11.0014 0 10.7629 0.105357 10.5871 0.292893C10.4113 0.48043 10.3125 0.734784 10.3125 1V2H4.6875V1C4.6875 0.734784 4.58873 0.48043 4.41291 0.292893C4.2371 0.105357 3.99864 0 3.75 0ZM3.75 5C3.50136 5 3.2629 5.10536 3.08709 5.29289C2.91127 5.48043 2.8125 5.73478 2.8125 6C2.8125 6.26522 2.91127 6.51957 3.08709 6.70711C3.2629 6.89464 3.50136 7 3.75 7H11.25C11.4986 7 11.7371 6.89464 11.9129 6.70711C12.0887 6.51957 12.1875 6.26522 12.1875 6C12.1875 5.73478 12.0887 5.48043 11.9129 5.29289C11.7371 5.10536 11.4986 5 11.25 5H3.75Z" fill="#FBFBFB" fill-opacity="0.6"/>
</svg>
