<svg width="27" height="23" viewBox="0 0 27 23" fill="none" xmlns="http://www.w3.org/2000/svg">
<path d="M18 4.6C18 5.82 17.5259 6.99002 16.682 7.85269C15.8381 8.71536 14.6935 9.2 13.5 9.2C12.3065 9.2 11.1619 8.71536 10.318 7.85269C9.47411 6.99002 9 5.82 9 4.6C9 3.38 9.47411 2.20998 10.318 1.34731C11.1619 0.484642 12.3065 0 13.5 0C14.6935 0 15.8381 0.484642 16.682 1.34731C17.5259 2.20998 18 3.38 18 4.6ZM25.5 7.66667C25.5 8.48 25.1839 9.26002 24.6213 9.83513C24.0587 10.4102 23.2956 10.7333 22.5 10.7333C21.7044 10.7333 20.9413 10.4102 20.3787 9.83513C19.8161 9.26002 19.5 8.48 19.5 7.66667C19.5 6.85334 19.8161 6.07332 20.3787 5.49821C20.9413 4.92309 21.7044 4.6 22.5 4.6C23.2956 4.6 24.0587 4.92309 24.6213 5.49821C25.1839 6.07332 25.5 6.85334 25.5 7.66667ZM19.5 18.4C19.5 16.7733 18.8679 15.2133 17.7426 14.0631C16.6174 12.9129 15.0913 12.2667 13.5 12.2667C11.9087 12.2667 10.3826 12.9129 9.25736 14.0631C8.13214 15.2133 7.5 16.7733 7.5 18.4V23H19.5V18.4ZM7.5 7.66667C7.5 8.48 7.18393 9.26002 6.62132 9.83513C6.05871 10.4102 5.29565 10.7333 4.5 10.7333C3.70435 10.7333 2.94129 10.4102 2.37868 9.83513C1.81607 9.26002 1.5 8.48 1.5 7.66667C1.5 6.85334 1.81607 6.07332 2.37868 5.49821C2.94129 4.92309 3.70435 4.6 4.5 4.6C5.29565 4.6 6.05871 4.92309 6.62132 5.49821C7.18393 6.07332 7.5 6.85334 7.5 7.66667ZM22.5 23V18.4C22.5022 16.841 22.1149 15.3073 21.375 13.9441C22.04 13.7702 22.7351 13.7538 23.4073 13.8962C24.0795 14.0386 24.7109 14.336 25.2535 14.7659C25.7961 15.1957 26.2355 15.7465 26.5382 16.3763C26.8409 17.0061 26.9988 17.6983 27 18.4V23H22.5ZM5.625 13.9441C4.88512 15.3073 4.4979 16.841 4.5 18.4V23H3.9858e-07V18.4C-0.000288702 17.6978 0.156695 17.0048 0.458921 16.3743C0.761146 15.7437 1.20059 15.1922 1.74358 14.762C2.28656 14.3319 2.91867 14.0346 3.59146 13.8928C4.26426 13.751 4.95987 13.7686 5.625 13.9441Z" fill="url(#paint0_linear)"/>
<defs>
<linearGradient id="paint0_linear" x1="0.788357" y1="20.7751" x2="40.9151" y2="-6.24544" gradientUnits="userSpaceOnUse">
<stop stop-color="#00B8B0"/>
<stop offset="1" stop-color="#0795CF"/>
</linearGradient>
</defs>
</svg>
