<svg width="30" height="26" viewBox="0 0 30 26" fill="none" xmlns="http://www.w3.org/2000/svg">
<path d="M25.6842 14.0744H23.3685C23.579 14.719 23.6843 15.4711 23.6843 16.2231V25.1405C23.6843 25.4628 23.579 25.7851 23.579 26H27.3684C28.8421 26 30 24.8182 30 23.314V18.4793C30 16.0082 28.1053 14.0744 25.6842 14.0744Z" fill="#23BCFA" fill-opacity="0.7"/>
<path d="M6.31574 16.1158C6.31574 15.3637 6.421 14.6116 6.63152 13.967H4.31575C1.89472 13.967 0 15.9009 0 18.372V23.2067C0 24.7108 1.15789 25.8926 2.63156 25.8926H6.421C6.31574 25.5703 6.31574 25.3554 6.31574 25.0331V16.1158Z" fill="#23BCFA" fill-opacity="0.7"/>
<path d="M17.6842 11.7108H12.4211C10 11.7108 8.1053 13.6447 8.1053 16.1158V25.0332C8.1053 25.5704 8.52636 25.8927 8.94741 25.8927H21.1578C21.6841 25.8927 21.9999 25.4629 21.9999 25.0332V16.1158C21.9999 13.7522 20.1052 11.7108 17.6842 11.7108Z" fill="#23BCFA" fill-opacity="0.7"/>
<path d="M15.0524 0C12.2103 0 9.89451 2.36364 9.89451 5.26448C9.89451 7.19837 10.9471 9.02482 12.5261 9.88432C13.2629 10.3141 14.105 10.5289 15.0524 10.5289C15.9997 10.5289 16.8418 10.3141 17.5787 9.88432C19.1576 9.02482 20.2102 7.19837 20.2102 5.26448C20.2102 2.36364 17.8944 0 15.0524 0Z" fill="#23BCFA" fill-opacity="0.7"/>
<path d="M5.89474 4.94216C3.7895 4.94216 2.00004 6.76862 2.00004 8.91738C2.00004 11.0661 3.7895 12.8926 5.89474 12.8926C6.42105 12.8926 6.94737 12.7852 7.47368 12.5703C8.31578 12.248 8.94735 11.6033 9.3684 10.7438C9.68419 10.2066 9.78945 9.56201 9.78945 8.91738C9.78945 6.76862 7.99999 4.94216 5.89474 4.94216Z" fill="#23BCFA" fill-opacity="0.7"/>
<path d="M24.1054 4.94216C22.0002 4.94216 20.2107 6.76862 20.2107 8.91738C20.2107 9.56201 20.4212 10.2066 20.6317 10.7438C21.0528 11.4959 21.6844 12.1405 22.5265 12.5703C22.9475 12.7852 23.4738 12.8926 24.1054 12.8926C26.2106 12.8926 28.0001 11.0661 28.0001 8.91738C28.0001 6.76862 26.3159 4.94216 24.1054 4.94216Z" fill="#23BCFA" fill-opacity="0.7"/>
</svg>
