<svg width="21" height="17" viewBox="0 0 21 17" fill="none" xmlns="http://www.w3.org/2000/svg">
<path d="M19.9164 2.11983C18.6482 0.593627 16.8326 0.165065 15.145 1.48139C15.0622 0.959712 14.8484 0.460897 14.5054 0L13.5785 0.691404C14.3221 1.69057 13.9782 2.69863 13.6832 3.24018C11.5531 2.13777 6.34252 1.49086 3.92732 7.90897C2.95114 10.503 1.07649 11.2698 0.649362 12.3795C-0.461219 15.2649 6.14929 19.3385 12.4058 15.3132C18.0209 11.7004 17.2791 6.0727 14.6489 3.87865C14.7395 3.71982 14.8357 3.52827 14.9213 3.30951C16.762 4.92578 18.6983 4.4625 20.2106 2.47394L19.9164 2.11983Z" fill="url(#paint0_linear)"/>
<defs>
<linearGradient id="paint0_linear" x1="1.10111" y1="15.3555" x2="30.6048" y2="-4.24058" gradientUnits="userSpaceOnUse">
<stop stop-color="#00B8B0"/>
<stop offset="1" stop-color="#0795CF"/>
</linearGradient>
</defs>
</svg>
