<svg width="28" height="28" viewBox="0 0 28 28" fill="none" xmlns="http://www.w3.org/2000/svg">
<path d="M6.54989 0.000577374C7.8164 -0.0214883 9.14223 0.588391 10.341 1.92036C11.3429 3.03348 12.1862 4.57974 12.7716 6.43017H6.53826L6.53363 6.43016C5.681 6.43016 4.8633 6.09146 4.2604 5.48858C3.65751 4.8857 3.31881 4.06803 3.31881 3.21544C3.31881 2.36285 3.65751 1.54518 4.2604 0.942297C4.8633 0.339417 5.681 0.0007189 6.53363 0.0007189L6.54989 0.000577374Z" fill="#23BCFA" fill-opacity="0.7"/>
<path d="M13.0667 13.0671V8.29684H0.725926C0.324986 8.29684 0 8.62186 0 9.02273V12.3412C0 12.7421 0.324987 13.0671 0.725926 13.0671H2.37354L2.38548 13.067L2.39742 13.0671H13.0667Z" fill="#23BCFA" fill-opacity="0.7"/>
<path d="M22.2966 28H14.9333V14.9337H24.6818V25.6149C24.6818 26.2475 24.4305 26.8541 23.9832 27.3014C23.5359 27.7487 22.9292 28 22.2966 28Z" fill="#23BCFA" fill-opacity="0.7"/>
<path d="M13.0667 28V14.9337H3.31881V25.6149C3.31881 26.2475 3.5701 26.8541 4.01741 27.3014C4.46472 27.7487 5.0714 28 5.704 28H13.0667Z" fill="#23BCFA" fill-opacity="0.7"/>
<path d="M14.9333 8.29684V13.0671H25.6032L25.6151 13.067L25.6271 13.0671H27.2741C27.675 13.0671 28 12.7421 28 12.3412V9.02273C28 8.62186 27.675 8.29684 27.2741 8.29684H14.9333Z" fill="#23BCFA" fill-opacity="0.7"/>
<path d="M15.2284 6.43017H21.4623L21.467 6.43016C22.3196 6.43016 23.1373 6.09146 23.7402 5.48858C24.3431 4.8857 24.6818 4.06803 24.6818 3.21544C24.6818 2.36285 24.3431 1.54518 23.7402 0.942297C23.1373 0.339417 22.3196 0.0007189 21.467 0.0007189H21.4507C20.1842 -0.0213468 18.8584 0.588391 17.6596 1.92036C16.6577 3.03355 15.8139 4.57985 15.2284 6.43017Z" fill="#23BCFA" fill-opacity="0.7"/>
</svg>
