<svg width="515" height="523" viewBox="0 0 515 523" fill="none" xmlns="http://www.w3.org/2000/svg">
<path d="M280.335 445.374C302.026 403.275 329.637 356.95 359.198 347.763C388.758 338.576 410.284 358.374 384.291 377.677C360.307 395.497 357.069 398.704 357.069 398.704" stroke="#5CB8B2" stroke-width="1.7818" stroke-miterlimit="10" stroke-linecap="round" stroke-linejoin="round"/>
<path d="M356.62 423.614C377.096 415.851 401.8 414.427 426.428 418.833C451.057 423.239 485.279 433.491 499.325 427.166C513.386 420.826 524.223 408.237 498.156 393.1C472.088 377.963 435.887 375.175 400.93 383.943C365.974 392.71 337.703 407.368 331.407 411.085" stroke="#5CB8B2" stroke-width="1.7818" stroke-miterlimit="10" stroke-linecap="round" stroke-linejoin="round"/>
<path d="M356.62 423.613C388.009 422.923 433.803 433.369 452.496 438.78C471.983 444.415 491.05 455.595 500.569 469.338C510.447 483.591 497.346 500.122 478.668 488.942C459.991 477.761 417.644 453.077 377.98 451.654" stroke="#5CB8B2" stroke-width="1.7818" stroke-miterlimit="10" stroke-linecap="round" stroke-linejoin="round"/>
<path d="M205.745 355.107C207.724 316.17 208.414 286.54 252.484 222.77C296.54 158.999 382.208 88.8743 438.226 62.4219" stroke="#5CB8B2" stroke-width="1.7818" stroke-miterlimit="10" stroke-linecap="round" stroke-linejoin="round"/>
<path d="M237.135 246.435C246.549 199.42 258.151 164.02 291.324 135.2C324.497 106.38 353.038 86.6716 434.599 64.1758" stroke="#5CB8B2" stroke-width="1.7818" stroke-miterlimit="10" stroke-linecap="round" stroke-linejoin="round"/>
<path d="M237.135 246.435C260.279 243.422 316.042 240.56 365.674 194.039C402.715 159.329 413.358 116.93 419.803 102.857C425.994 89.3539 434.434 68.4317 438.211 62.4219" stroke="#5CB8B2" stroke-width="1.7818" stroke-miterlimit="10" stroke-linecap="round" stroke-linejoin="round"/>
<path d="M269.409 159.209C267.295 170.794 267.085 183.908 274.161 194.654C293.303 189.183 325.906 191.072 345.918 210.195" stroke="#5CB8B2" stroke-width="1.7818" stroke-miterlimit="10" stroke-linecap="round" stroke-linejoin="round"/>
<path d="M321.544 111.371C318.216 125.099 319.745 135.006 324.901 142.604C337.418 138.933 379.18 132.413 399.282 150.263" stroke="#5CB8B2" stroke-width="1.7818" stroke-miterlimit="10" stroke-linecap="round" stroke-linejoin="round"/>
<path d="M379.585 81.7998C371.415 92.7854 372.3 103.546 372.3 103.546C372.3 103.546 394.125 96.5022 419.129 104.371" stroke="#5CB8B2" stroke-width="1.7818" stroke-miterlimit="10" stroke-linecap="round" stroke-linejoin="round"/>
<path d="M190.261 369.045C202.343 344.166 211.022 325.012 257.476 295.593C303.93 266.158 379.315 244.127 423.221 242.373" stroke="#5CB8B2" stroke-width="1.7818" stroke-miterlimit="10" stroke-linecap="round" stroke-linejoin="round"/>
<path d="M240.897 306.788C260.084 278.687 277.473 258.799 307.123 249.177C336.773 239.555 360.877 234.594 420.373 242.508" stroke="#5CB8B2" stroke-width="1.7818" stroke-miterlimit="10" stroke-linecap="round" stroke-linejoin="round"/>
<path d="M240.897 306.787C256.847 311.238 294.052 324.817 339.367 308.196C373.184 295.802 391.892 271.058 400.001 263.654C407.781 256.55 419.099 245.235 423.236 242.357" stroke="#5CB8B2" stroke-width="1.7818" stroke-miterlimit="10" stroke-linecap="round" stroke-linejoin="round"/>
<path d="M286.152 258.77C281.565 265.754 277.787 274.251 279.436 283.229C293.452 284.967 314.228 295.233 321.978 313.263" stroke="#5CB8B2" stroke-width="1.7818" stroke-miterlimit="10" stroke-linecap="round" stroke-linejoin="round"/>
<path d="M333.46 241.983C327.479 250.032 325.74 256.926 326.999 263.31C336.188 264.374 365.269 271.703 373.453 288.923" stroke="#5CB8B2" stroke-width="1.7818" stroke-miterlimit="10" stroke-linecap="round" stroke-linejoin="round"/>
<path d="M379.57 238.762C371.191 243.678 368.778 250.946 368.778 250.946C368.778 250.946 384.982 252.4 399.132 264.465" stroke="#5CB8B2" stroke-width="1.7818" stroke-miterlimit="10" stroke-linecap="round" stroke-linejoin="round"/>
<path d="M34.8432 280.635C129.295 265.947 154.808 278.477 186.063 281.174C205.58 282.853 239.637 292.894 267.908 310.594C284.892 321.235 357.384 496.825 337.372 503.165C265.435 525.915 34.8432 511.64 34.8432 511.64V280.635Z" fill="url(#paint0_linear)"/>
<path d="M88.0131 342.308C93.7243 388.304 97.277 416.615 97.277 416.615L38.3317 512.912C38.3317 512.912 -16.5554 388.246 5.02836 307.628C11.1143 286.376 88.0131 342.308 88.0131 342.308Z" fill="url(#paint1_linear)"/>
<path d="M242.695 327.485C263.561 357.969 282.014 434.854 283.618 481.029" stroke="#CCCCCC" stroke-width="0.974" stroke-miterlimit="10" stroke-linecap="round" stroke-linejoin="round"/>
<path d="M88.0136 342.308C93.7248 388.303 97.2775 416.614 97.2775 416.614" stroke="#CCCCCC" stroke-width="0.974" stroke-miterlimit="10" stroke-linecap="round" stroke-linejoin="round"/>
<path d="M183.154 238.297L186.063 281.175C186.063 281.175 145.754 305.874 115.13 282.989C84.5051 260.103 85.5095 232.737 85.5095 232.737L168.764 204.815L183.154 238.297Z" fill="#FBFBFB"/>
<path d="M265.061 187.189C281.701 187.189 295.19 173.702 295.19 157.065C295.19 140.428 281.701 126.94 265.061 126.94C248.42 126.94 234.931 140.428 234.931 157.065C234.931 173.702 248.42 187.189 265.061 187.189Z" fill="#DEDEDE"/>
<path d="M159.695 22.0908C145.904 22.8702 131.514 30.1989 119.717 40.8698C105.011 43.8372 36.462 66.0333 42.8477 157.41C46.1156 211.244 71.6735 211.679 71.6735 211.679L164.687 75.9098L159.695 22.0908Z" fill="url(#paint2_linear)"/>
<path d="M116.015 121.261C120.197 117.559 117.679 101.313 117.679 101.313C117.679 101.313 134.378 96.6372 148.648 75.4453C172.287 78.9074 226.207 78.3379 226.207 78.3379C226.207 78.3379 247.807 90.5974 252.349 100.084C256.891 109.571 263.082 138.496 264.296 148.493C265.51 158.489 266.305 176.714 264.611 189.873C262.917 203.046 250.34 233.515 199.269 241.458C148.198 249.402 128.217 214.811 128.217 214.811L115.475 132.906L116.015 121.261Z" fill="#FBFBFB"/>
<path d="M199.238 241.444C148.167 249.387 128.186 214.797 128.186 214.797L115.444 132.892" stroke="#CCCCCC" stroke-width="0.974" stroke-miterlimit="10" stroke-linecap="round" stroke-linejoin="round"/>
<path d="M258.18 126.207C275.971 126.207 290.393 111.788 290.393 93.9999C290.393 76.2122 275.971 61.7924 258.18 61.7924C240.389 61.7924 225.966 76.2122 225.966 93.9999C225.966 111.788 240.389 126.207 258.18 126.207Z" fill="url(#paint3_linear)"/>
<path d="M180.472 102.692C198.263 102.692 212.686 88.2726 212.686 70.4849C212.686 52.6972 198.263 38.2774 180.472 38.2774C162.681 38.2774 148.258 52.6972 148.258 70.4849C148.258 88.2726 162.681 102.692 180.472 102.692Z" fill="url(#paint4_linear)"/>
<path d="M234.751 104.446C252.542 104.446 266.964 90.0263 266.964 72.2386C266.964 54.4509 252.542 40.0312 234.751 40.0312C216.96 40.0312 202.537 54.4509 202.537 72.2386C202.537 90.0263 216.96 104.446 234.751 104.446Z" fill="url(#paint5_linear)"/>
<path d="M186.409 64.415C204.2 64.415 218.622 49.9952 218.622 32.2075C218.622 14.4198 204.2 0 186.409 0C168.617 0 154.195 14.4198 154.195 32.2075C154.195 49.9952 168.617 64.415 186.409 64.415Z" fill="url(#paint6_linear)"/>
<path d="M235.47 84.9775C253.261 84.9775 267.684 70.5577 267.684 52.77C267.684 34.9823 253.261 20.5626 235.47 20.5626C217.679 20.5626 203.257 34.9823 203.257 52.77C203.257 70.5577 217.679 84.9775 235.47 84.9775Z" fill="url(#paint7_linear)"/>
<path d="M259.558 197.035C280.743 197.035 297.918 179.865 297.918 158.683C297.918 137.502 280.743 120.331 259.558 120.331C238.373 120.331 221.199 137.502 221.199 158.683C221.199 179.865 238.373 197.035 259.558 197.035Z" fill="url(#paint8_linear)"/>
<path d="M169.244 194.383C190.429 194.383 207.603 177.212 207.603 156.031C207.603 134.85 190.429 117.679 169.244 117.679C148.058 117.679 130.884 134.85 130.884 156.031C130.884 177.212 148.058 194.383 169.244 194.383Z" fill="url(#paint9_linear)"/>
<path d="M200.407 157.065C200.002 150.426 205.639 144.686 212.999 144.236C220.359 143.786 226.64 148.822 227.044 155.461" stroke="#021725" stroke-width="2.35" stroke-miterlimit="10" stroke-linecap="round" stroke-linejoin="round"/>
<path d="M2.40549 332.776C-2.64614 324.968 15.5068 269.605 25.5351 247.379C35.5634 225.138 66.9525 166.778 80.4286 149.408C93.9046 132.023 110.229 115.567 120.857 111.655C131.485 107.759 156.203 104.806 165.527 106.964C174.851 109.107 180.817 124.364 162.664 128.98C144.496 133.596 134.198 133.851 131.035 136.594C127.857 139.337 119.777 150.922 119.777 150.922C119.777 150.922 155.094 167.003 148.183 191.912C155.394 206.404 152.71 215.606 146.999 216.491C148.228 224.389 153.865 240.021 112.267 244.232C110.978 261.962 92.7803 289.508 79.4542 293.375C82.2424 305.53 90.9666 347.674 87.5488 354.148C84.4309 360.083 16.0164 350.896 2.40549 332.776Z" fill="#FBFBFB"/>
<path d="M112.267 244.232C110.978 261.962 92.78 289.509 79.4539 293.375C82.2421 305.53 90.9663 347.674 87.5485 354.148" stroke="#CCCCCC" stroke-width="0.974" stroke-miterlimit="10" stroke-linecap="round" stroke-linejoin="round"/>
<path d="M131.05 136.594C127.872 139.336 119.792 150.922 119.792 150.922C119.792 150.922 155.109 167.003 148.198 191.911" stroke="#CCCCCC" stroke-width="0.974" stroke-miterlimit="10" stroke-linecap="round" stroke-linejoin="round"/>
<path d="M80.4436 149.408C93.9196 132.023 110.244 115.567 120.872 111.655C131.5 107.759 156.218 104.806 165.542 106.964C174.866 109.107 180.832 124.364 162.679 128.98C144.511 133.597 134.213 133.851 131.05 136.594" stroke="#CCCCCC" stroke-width="0.974" stroke-miterlimit="10" stroke-linecap="round" stroke-linejoin="round"/>
<path d="M97.3063 152.509C108.024 149.017 115.879 148.898 119.791 150.936" stroke="#CCCCCC" stroke-width="0.974" stroke-miterlimit="10" stroke-linecap="round" stroke-linejoin="round"/>
<path d="M100.035 170.03C115.55 166.103 138.215 172.353 148.198 191.911C158.182 211.469 148.303 215.711 148.303 215.711" stroke="#CCCCCC" stroke-width="0.974" stroke-miterlimit="10" stroke-linecap="round" stroke-linejoin="round"/>
<path d="M99.3004 196.662C117.154 194.13 141.407 195.089 145.155 209.851C148.902 224.629 155.288 238.552 112.267 244.247C105.491 244.307 95.8677 233.336 114.32 222.86" stroke="#CCCCCC" stroke-width="0.974" stroke-miterlimit="10" stroke-linecap="round" stroke-linejoin="round"/>
<path d="M332.651 473.775C355.886 481.029 378.835 475.199 404.903 511.738C421.152 534.503 439.98 514.031 436.637 492.629C434.089 476.323 410 453.647 377.981 451.669" stroke="#5CB8B2" stroke-width="1.7818" stroke-miterlimit="10" stroke-linecap="round" stroke-linejoin="round"/>
<defs>
<linearGradient id="paint0_linear" x1="34.7933" y1="394.797" x2="340.801" y2="394.797" gradientUnits="userSpaceOnUse">
<stop stop-color="#015976"/>
<stop offset="1" stop-color="#042B42"/>
</linearGradient>
<linearGradient id="paint1_linear" x1="-0.0158701" y1="407.821" x2="97.266" y2="407.821" gradientUnits="userSpaceOnUse">
<stop stop-color="#015976"/>
<stop offset="1" stop-color="#042B42"/>
</linearGradient>
<linearGradient id="paint2_linear" x1="42.4593" y1="116.915" x2="164.779" y2="116.915" gradientUnits="userSpaceOnUse">
<stop stop-color="#FFDE44"/>
<stop offset="0.9995" stop-color="#F49A1A"/>
<stop offset="1" stop-color="#F49A1A"/>
</linearGradient>
<linearGradient id="paint3_linear" x1="148.294" y1="63.1236" x2="290.5" y2="63.1236" gradientUnits="userSpaceOnUse">
<stop stop-color="#F49A1A"/>
<stop offset="1" stop-color="#FFDE44"/>
</linearGradient>
<linearGradient id="paint4_linear" x1="148.294" y1="63.1236" x2="290.5" y2="63.1236" gradientUnits="userSpaceOnUse">
<stop stop-color="#F49A1A"/>
<stop offset="1" stop-color="#FFDE44"/>
</linearGradient>
<linearGradient id="paint5_linear" x1="148.294" y1="63.1236" x2="290.5" y2="63.1236" gradientUnits="userSpaceOnUse">
<stop stop-color="#F49A1A"/>
<stop offset="1" stop-color="#FFDE44"/>
</linearGradient>
<linearGradient id="paint6_linear" x1="148.294" y1="63.1236" x2="290.5" y2="63.1236" gradientUnits="userSpaceOnUse">
<stop stop-color="#F49A1A"/>
<stop offset="1" stop-color="#FFDE44"/>
</linearGradient>
<linearGradient id="paint7_linear" x1="148.294" y1="63.1236" x2="290.5" y2="63.1236" gradientUnits="userSpaceOnUse">
<stop stop-color="#F49A1A"/>
<stop offset="1" stop-color="#FFDE44"/>
</linearGradient>
<linearGradient id="paint8_linear" x1="221.209" y1="158.68" x2="297.907" y2="158.68" gradientUnits="userSpaceOnUse">
<stop stop-color="#4B3263"/>
<stop offset="1" stop-color="#042B42"/>
</linearGradient>
<linearGradient id="paint9_linear" x1="130.895" y1="156.027" x2="207.592" y2="156.027" gradientUnits="userSpaceOnUse">
<stop stop-color="#4B3263"/>
<stop offset="1" stop-color="#042B42"/>
</linearGradient>
</defs>
</svg>
