<svg width="28" height="28" viewBox="0 0 28 28" fill="none" xmlns="http://www.w3.org/2000/svg">
<path d="M23.0083 17.7164C21.4812 17.7164 20.0559 18.4291 19.1396 19.5491L10.1807 14.9673C10.1807 14.9673 10.1807 14.9673 10.0788 14.9673C10.1807 14.6618 10.1807 14.2545 10.1807 13.9491C10.1807 13.8473 10.1807 13.7455 10.1807 13.6436L19.5469 8.85818C20.4631 9.67272 21.583 10.1818 22.9065 10.1818C25.7571 10.1818 27.9968 7.94182 27.9968 5.09091C27.9968 2.24 25.7571 0 22.9065 0C20.0559 0 17.8161 2.24 17.8161 5.09091C17.8161 5.6 17.918 6.00727 18.0198 6.51637L9.16259 11.0982C8.24633 9.77455 6.71923 8.96 5.09033 8.96C2.23974 8.96 0 11.2 0 14.0509C0 16.9018 2.23974 19.1418 5.09033 19.1418C6.51562 19.1418 7.8391 18.5309 8.75536 17.5127C8.75536 17.5127 8.75536 17.5127 8.85717 17.5127L17.9179 22.1964C17.9179 22.4 17.8161 22.6036 17.8161 22.9091C17.8161 25.76 20.0559 28 22.9065 28C25.7571 28 27.9968 25.76 27.9968 22.9091C28.0986 20.0582 25.7571 17.7164 23.0083 17.7164Z" fill="#23BCFA" fill-opacity="0.7"/>
</svg>
