<svg width="23" height="23" viewBox="0 0 23 23" fill="none" xmlns="http://www.w3.org/2000/svg">
<path fill-rule="evenodd" clip-rule="evenodd" d="M6 0C2.68629 0 0 2.68629 0 6V17C0 20.3137 2.68629 23 6 23H17C20.3137 23 23 20.3137 23 17V6C23 5.99462 23 5.98923 23 5.98385L12.1322 16.5868C11.5675 17.1377 10.6597 17.1377 10.0951 16.5868L5.43143 12.0368C4.85905 11.4784 4.85575 10.566 5.42426 10.0036C5.98786 9.44598 6.90114 9.44291 7.46857 9.99652L11.1136 13.5528L22.0986 2.83548C21.0398 1.13319 19.1522 0 17 0H6Z" fill="#39D2D1"/>
</svg>
