<svg width="14" height="14" viewBox="0 0 14 14" fill="none" xmlns="http://www.w3.org/2000/svg">
<rect width="14" height="14" rx="7" fill="#E2923B"/>
<path d="M9.7089 6.40276C9.81575 5.637 9.24588 5.24522 8.46231 4.96029L8.71163 3.9274L8.08834 3.76713L7.83902 4.7822C7.67874 4.74659 7.50066 4.71097 7.34038 4.65754L7.5897 3.64247L6.96641 3.5L6.71709 4.53289C6.57462 4.49727 6.44997 4.47946 6.32531 4.44384L5.4527 4.21233L5.29242 4.88905C5.29242 4.88905 5.75544 4.9959 5.73763 4.9959C5.98695 5.06714 6.04037 5.22741 6.02256 5.35207L5.73763 6.52742C5.75544 6.52742 5.77325 6.54523 5.80886 6.54523C5.79106 6.54523 5.77325 6.52742 5.73763 6.52742L5.32804 8.16579C5.29242 8.23703 5.22119 8.36169 5.0431 8.30826C5.0431 8.32607 4.58009 8.20141 4.58009 8.20141L4.27734 8.91375L5.09653 9.10964C5.2568 9.14525 5.39927 9.18087 5.54174 9.21649L5.27461 10.2494L5.89791 10.4096L6.14722 9.37676C6.32531 9.43019 6.48558 9.46581 6.64586 9.50142L6.39654 10.5165L7.01983 10.6768L7.28696 9.64389C8.35546 9.83978 9.15684 9.76855 9.4952 8.8069C9.76232 8.02333 9.47739 7.57812 8.92533 7.29318C9.31711 7.22195 9.63766 6.95482 9.7089 6.40276ZM8.28423 8.3973C8.08834 9.18087 6.78832 8.75347 6.36092 8.64662L6.69928 7.27538C7.12668 7.38223 8.48012 7.59593 8.28423 8.3973ZM8.48012 6.38496C8.30204 7.09729 7.21572 6.74112 6.85956 6.65208L7.1623 5.4055C7.51847 5.49454 8.6582 5.65481 8.48012 6.38496Z" fill="white"/>
</svg>
