<svg width="24" height="24" viewBox="0 0 24 24" fill="none" xmlns="http://www.w3.org/2000/svg">
<path fill-rule="evenodd" clip-rule="evenodd" d="M6 0C5.60218 0 5.22064 0.158035 4.93934 0.43934C4.65804 0.720644 4.5 1.10218 4.5 1.5V3H3C2.20435 3 1.44129 3.31607 0.87868 3.87868C0.31607 4.44129 0 5.20435 0 6V21C0 21.7956 0.31607 22.5587 0.87868 23.1213C1.44129 23.6839 2.20435 24 3 24H21C21.7956 24 22.5587 23.6839 23.1213 23.1213C23.6839 22.5587 24 21.7956 24 21V6C24 5.20435 23.6839 4.44129 23.1213 3.87868C22.5587 3.31607 21.7956 3 21 3H19.5V1.5C19.5 1.10218 19.342 0.720644 19.0607 0.43934C18.7794 0.158035 18.3978 0 18 0C17.6022 0 17.2206 0.158035 16.9393 0.43934C16.658 0.720644 16.5 1.10218 16.5 1.5V3H7.5V1.5C7.5 1.10218 7.34196 0.720644 7.06066 0.43934C6.77936 0.158035 6.39782 0 6 0ZM6 7.5C5.60218 7.5 5.22064 7.65804 4.93934 7.93934C4.65804 8.22064 4.5 8.60218 4.5 9C4.5 9.39782 4.65804 9.77936 4.93934 10.0607C5.22064 10.342 5.60218 10.5 6 10.5H18C18.3978 10.5 18.7794 10.342 19.0607 10.0607C19.342 9.77936 19.5 9.39782 19.5 9C19.5 8.60218 19.342 8.22064 19.0607 7.93934C18.7794 7.65804 18.3978 7.5 18 7.5H6Z" fill="#23BCFA"/>
</svg>
