<svg width="36" height="36" viewBox="0 0 36 36" fill="none" xmlns="http://www.w3.org/2000/svg">
<rect width="36" height="36" rx="8" fill="#56B6B5" fill-opacity="0.1"/>
<path d="M10.1311 8H12.2624V10.1312C12.2624 10.4028 12.4826 10.623 12.7542 10.623C13.0258 10.623 13.246 10.4028 13.246 10.1312V8H22.7541V10.1312C22.7541 10.4028 22.9743 10.623 23.2459 10.623C23.5175 10.623 23.7377 10.4028 23.7377 10.1312V8H25.8689C27.0459 8 28 8.95415 28 10.1311V14.8852H8V10.1311C8 8.95415 8.95415 8 10.1311 8Z" fill="#39D2D1"/>
<path d="M13.246 22.7541V21.1148H14.8853V22.7541H13.246Z" fill="#39D2D1"/>
<path fill-rule="evenodd" clip-rule="evenodd" d="M8 15.8689H28V25.8689C28 27.0459 27.0459 28 25.8689 28H10.1311C8.95415 28 8 27.0459 8 25.8689V15.8689ZM12.7542 20.1312C12.4826 20.1312 12.2624 20.3514 12.2624 20.623V23.2459C12.2624 23.5175 12.4826 23.7377 12.7542 23.7377H15.3771C15.6488 23.7377 15.8689 23.5175 15.8689 23.2459V20.623C15.8689 20.3514 15.6488 20.1312 15.3771 20.1312H12.7542Z" fill="#39D2D1"/>
</svg>
