<svg width="20" height="20" viewBox="0 0 20 20" fill="none" xmlns="http://www.w3.org/2000/svg">
<path d="M2.13115 0H4.26238V2.13117C4.26238 2.40279 4.48257 2.62297 4.75418 2.62297C5.0258 2.62297 5.24599 2.40279 5.24599 2.13117V0H14.7541V2.13117C14.7541 2.40279 14.9743 2.62297 15.2459 2.62297C15.5175 2.62297 15.7377 2.40279 15.7377 2.13117V0H17.8689C19.0459 0 20 0.954147 20 2.13115V6.88525H0V2.13115C0 0.954147 0.954147 0 2.13115 0Z" fill="#39D2D1"/>
<path d="M5.24599 14.7541V13.1148H6.88533V14.7541H5.24599Z" fill="#39D2D1"/>
<path fill-rule="evenodd" clip-rule="evenodd" d="M0 7.86885H20V17.8689C20 19.0459 19.0459 20 17.8689 20H2.13115C0.954147 20 0 19.0459 0 17.8689V7.86885ZM4.75418 12.1312C4.48257 12.1312 4.26238 12.3514 4.26238 12.623V15.2459C4.26238 15.5175 4.48257 15.7377 4.75418 15.7377H7.37714C7.64875 15.7377 7.86894 15.5175 7.86894 15.2459V12.623C7.86894 12.3514 7.64875 12.1312 7.37714 12.1312H4.75418Z" fill="#39D2D1"/>
</svg>
