<svg width="25" height="30" viewBox="0 0 25 30" fill="none" xmlns="http://www.w3.org/2000/svg">
<path d="M25 13.1879H0V7.85236C0 6.14095 1.39442 4.73155 3.08765 4.73155H21.8128C23.506 4.73155 24.9004 6.14095 24.9004 7.85236V13.1879H25ZM20.2191 7.85236V1.51007C20.2191 0.704699 19.5219 0 18.7251 0C17.9283 0 17.2311 0.704699 17.2311 1.51007V7.85236C17.2311 8.65773 17.9283 9.36243 18.7251 9.36243C19.5219 9.36243 20.2191 8.65773 20.2191 7.85236ZM7.76893 7.85236V1.51007C7.76893 0.704699 7.07172 0 6.2749 0C5.47809 0 4.78088 0.704699 4.78088 1.51007V7.85236C4.78088 8.65773 5.47809 9.36243 6.2749 9.36243C7.07172 9.36243 7.76893 8.65773 7.76893 7.85236Z" fill="#23BCFA" fill-opacity="0.7"/>
<path d="M0 15.2013V26.8792C0 28.5906 1.39442 30 3.08765 30H21.8128C23.506 30 24.9004 28.5906 24.9004 26.8792V15.2013H0ZM13.9442 25.2684C13.9442 26.0738 13.247 26.7785 12.4502 26.7785C11.6534 26.7785 10.9562 26.0738 10.9562 25.2684V22.047H10.8566C10.0598 22.047 9.36255 21.3423 9.36255 20.5369C9.36255 19.7315 10.0598 19.0268 10.8566 19.0268H12.4502C13.247 19.0268 13.9442 19.7315 13.9442 20.5369V25.2684Z" fill="#23BCFA" fill-opacity="0.7"/>
</svg>
