<svg width="18" height="18" viewBox="0 0 18 18" fill="none" xmlns="http://www.w3.org/2000/svg">
<path fill-rule="evenodd" clip-rule="evenodd" d="M0 9C0 4.02944 4.02944 0 9 0C13.9706 0 18 4.02944 18 9C18 13.9706 13.9706 18 9 18C4.02944 18 0 13.9706 0 9ZM9 2.86364C9 2.6377 8.81684 2.45455 8.59091 2.45455C8.36497 2.45455 8.18182 2.6377 8.18182 2.86364V9.04002C8.18182 9.11206 8.20084 9.18282 8.23696 9.24515L9.87332 12.0688C9.98661 12.2642 10.2369 12.3309 10.4324 12.2176C10.6279 12.1043 10.6945 11.854 10.5812 11.6585L9 8.93005V2.86364Z" fill="#39D2D1"/>
</svg>
