<svg width="36" height="36" viewBox="0 0 36 36" fill="none" xmlns="http://www.w3.org/2000/svg">
<rect width="36" height="36" rx="8" fill="#56B6B5" fill-opacity="0.1"/>
<path fill-rule="evenodd" clip-rule="evenodd" d="M9 18C9 13.0294 13.0294 9 18 9C22.9706 9 27 13.0294 27 18C27 22.9706 22.9706 27 18 27C13.0294 27 9 22.9706 9 18ZM18 11.8636C18 11.6377 17.8168 11.4545 17.5909 11.4545C17.365 11.4545 17.1818 11.6377 17.1818 11.8636V18.04C17.1818 18.1121 17.2008 18.1828 17.237 18.2451L18.8733 21.0688C18.9866 21.2642 19.2369 21.3309 19.4324 21.2176C19.6279 21.1043 19.6945 20.854 19.5812 20.6585L18 17.93V11.8636Z" fill="#39D2D1"/>
</svg>
