<svg width="22" height="22" viewBox="0 0 22 22" fill="none" xmlns="http://www.w3.org/2000/svg">
<path fill-rule="evenodd" clip-rule="evenodd" d="M11 22C13.9174 22 16.7153 20.8411 18.7782 18.7782C20.8411 16.7153 22 13.9174 22 11C22 8.08262 20.8411 5.28473 18.7782 3.22183C16.7153 1.15893 13.9174 0 11 0C8.08262 0 5.28473 1.15893 3.22183 3.22183C1.15893 5.28473 0 8.08262 0 11C0 13.9174 1.15893 16.7153 3.22183 18.7782C5.28473 20.8411 8.08262 22 11 22ZM12.375 5.5C12.375 5.13533 12.2301 4.78559 11.9723 4.52773C11.7144 4.26987 11.3647 4.125 11 4.125C10.6353 4.125 10.2856 4.26987 10.0277 4.52773C9.76987 4.78559 9.625 5.13533 9.625 5.5V11C9.62508 11.3646 9.76999 11.7143 10.0279 11.9721L13.9164 15.862C14.0441 15.9898 14.1958 16.0911 14.3627 16.1602C14.5296 16.2294 14.7085 16.265 14.8892 16.265C15.0699 16.265 15.2488 16.2294 15.4157 16.1602C15.5826 16.0911 15.7342 15.9898 15.862 15.862C15.9898 15.7342 16.0911 15.5826 16.1602 15.4157C16.2294 15.2488 16.265 15.0699 16.265 14.8892C16.265 14.7085 16.2294 14.5296 16.1602 14.3627C16.0911 14.1958 15.9898 14.0441 15.862 13.9164L12.375 10.4308V5.5Z" fill="#23BCFA"/>
</svg>
