<svg width="30" height="22" viewBox="0 0 30 22" fill="none" xmlns="http://www.w3.org/2000/svg">
<path d="M6.55388 22C4.87487 21.9978 3.26056 21.3649 2.04314 20.2314C0.825718 19.0979 0.0977966 17.55 0.00915856 15.9064C-0.0794795 14.2627 0.477909 12.6483 1.56663 11.3953C2.65535 10.1422 4.19258 9.34595 5.86201 9.17025C5.37044 7.28051 5.66479 5.27674 6.6803 3.59975C7.69581 1.92275 9.3493 0.709912 11.277 0.228031C13.2047 -0.25385 15.2487 0.0347024 16.9594 1.03021C18.6701 2.02572 19.9073 3.64664 20.3989 5.53638C21.5454 5.37989 22.7124 5.45633 23.8274 5.76093C24.9425 6.06553 25.9817 6.59179 26.8803 7.30696C27.779 8.02214 28.518 8.91093 29.0512 9.91807C29.5845 10.9252 29.9007 12.0291 29.9801 13.1612C30.0595 14.2932 29.9005 15.4292 29.5129 16.4984C29.1253 17.5676 28.5174 18.5472 27.7271 19.3763C26.9367 20.2053 25.9808 20.8661 24.9188 21.3174C23.8568 21.7688 22.7114 22.0012 21.5539 22H6.55388Z" fill="#23BCFA"/>
</svg>
