<svg width="26" height="30" viewBox="0 0 26 30" fill="none" xmlns="http://www.w3.org/2000/svg">
<path d="M7.11207 7.21373C7.22866 7.09923 7.22866 6.98473 7.22866 6.87022V1.37404L1.0493 7.44274H6.76229C6.87888 7.32824 7.11207 7.21373 7.11207 7.21373Z" fill="#23BCFA" fill-opacity="0.7"/>
<path d="M22.0359 22.3283C24.2252 22.3283 26 20.5853 26 18.4351C26 16.285 24.2252 14.542 22.0359 14.542C19.8466 14.542 18.0718 16.285 18.0718 18.4351C18.0718 20.5853 19.8466 22.3283 22.0359 22.3283Z" fill="#23BCFA" fill-opacity="0.7"/>
<path d="M24.6008 21.4122H19.8206V21.5267C20.5201 21.9847 21.3363 22.3282 22.1524 22.3282C23.0852 22.3282 23.9013 21.9847 24.6008 21.4122Z" fill="#23BCFA" fill-opacity="0.7"/>
<path d="M18.0717 23.2443C16.6726 22.0992 15.7399 20.3817 15.7399 18.5496C15.7399 15.1145 18.5381 12.3664 22.0358 12.3664C22.6188 12.3664 23.2018 12.4809 23.7847 12.5954V3.43511C23.7847 2.51908 23.4349 1.71756 22.7354 1.03054C22.0358 0.343513 21.2197 0 20.287 0H9.56053V6.64122C9.56053 7.44275 9.21075 8.12977 8.74438 8.58779C8.16142 9.16031 7.46187 9.38931 6.76232 9.38931H0V26.5649C0 27.4809 0.349775 28.2824 1.04933 28.9695C1.63228 29.542 2.56502 30 3.49775 30H16.4394L18.0717 23.2443Z" fill="#23BCFA" fill-opacity="0.7"/>
<path d="M19.0045 29.313L21.8027 27.5954C22.1524 27.3664 22.6188 27.3664 22.9686 27.5954L25.7668 29.313L24.4843 24.1603C23.7847 24.5038 22.9686 24.6183 22.0359 24.6183C21.3363 24.6183 20.7533 24.5038 20.1704 24.2748L19.0045 29.313Z" fill="#23BCFA" fill-opacity="0.7"/>
</svg>
