<svg width="36" height="36" viewBox="0 0 36 36" fill="none" xmlns="http://www.w3.org/2000/svg">
<rect y="-0.000488281" width="36" height="36" rx="8" fill="#56B6B5" fill-opacity="0.1"/>
<path d="M13.9237 12.2896C14.0045 12.2056 14.0045 12.1216 14.0045 12.0377V8.00714L9.72644 12.4575H13.6816C13.7623 12.3736 13.9237 12.2896 13.9237 12.2896Z" fill="#F49A1A"/>
<path d="M24.2556 23.3736C25.7713 23.3736 27 22.0954 27 20.5186C27 18.9419 25.7713 17.6637 24.2556 17.6637C22.7399 17.6637 21.5112 18.9419 21.5112 20.5186C21.5112 22.0954 22.7399 23.3736 24.2556 23.3736Z" fill="#F49A1A"/>
<path d="M26.0314 22.7018H22.7219V22.7858C23.2062 23.1216 23.7713 23.3736 24.3363 23.3736C24.982 23.3736 25.5471 23.1216 26.0314 22.7018Z" fill="#F49A1A"/>
<path d="M21.5112 24.0453C20.5426 23.2056 19.8968 21.9461 19.8968 20.6026C19.8968 18.0835 21.8341 16.0682 24.2556 16.0682C24.6592 16.0682 25.0628 16.1522 25.4663 16.2362V9.5186C25.4663 8.84684 25.2242 8.25905 24.7399 7.75524C24.2556 7.25142 23.6906 6.99951 23.0448 6.99951H15.6188V11.8697C15.6188 12.4575 15.3767 12.9613 15.0538 13.2972C14.6502 13.7171 14.1659 13.885 13.6816 13.885H9V26.4804C9 27.1522 9.24215 27.74 9.72646 28.2438C10.13 28.6636 10.7758 28.9995 11.4215 28.9995H20.3812L21.5112 24.0453Z" fill="#F49A1A"/>
<path d="M22.1569 28.4957L24.0942 27.2362C24.3363 27.0682 24.6592 27.0682 24.9013 27.2362L26.8385 28.4957L25.9507 24.7171C25.4664 24.969 24.9013 25.053 24.2556 25.053C23.7713 25.053 23.3677 24.969 22.9641 24.8011L22.1569 28.4957Z" fill="#F49A1A"/>
</svg>
