<svg width="15" height="18" viewBox="0 0 15 18" fill="none" xmlns="http://www.w3.org/2000/svg">
<path d="M4.10312 4.32824C4.17038 4.25954 4.17038 4.19084 4.17038 4.12213V0.824424L0.605363 4.46564H3.90132C3.96859 4.39694 4.10312 4.32824 4.10312 4.32824Z" fill="#23BCFA" fill-opacity="0.7"/>
<path d="M12.713 13.397C13.9761 13.397 15 12.3512 15 11.0611C15 9.77101 13.9761 8.7252 12.713 8.7252C11.4499 8.7252 10.426 9.77101 10.426 11.0611C10.426 12.3512 11.4499 13.397 12.713 13.397Z" fill="#23BCFA" fill-opacity="0.7"/>
<path d="M14.1928 12.8473H11.435V12.916C11.8385 13.1908 12.3094 13.3969 12.7802 13.3969C13.3184 13.3969 13.7892 13.1908 14.1928 12.8473Z" fill="#23BCFA" fill-opacity="0.7"/>
<path d="M10.426 13.9466C9.61882 13.2595 9.08071 12.229 9.08071 11.1298C9.08071 9.0687 10.6951 7.41985 12.713 7.41985C13.0493 7.41985 13.3856 7.48855 13.722 7.55725V2.06107C13.722 1.51145 13.5202 1.03054 13.1166 0.618322C12.713 0.206108 12.2421 0 11.704 0H5.51569V3.98473C5.51569 4.46565 5.31389 4.87786 5.04484 5.15267C4.70851 5.49618 4.30493 5.63359 3.90134 5.63359H0V15.9389C0 16.4885 0.201794 16.9695 0.60538 17.3817C0.941703 17.7252 1.47982 18 2.01793 18H9.48429L10.426 13.9466Z" fill="#23BCFA" fill-opacity="0.7"/>
<path d="M10.9641 17.5878L12.5785 16.5573C12.7803 16.4199 13.0493 16.4199 13.2511 16.5573L14.8655 17.5878L14.1255 14.4962C13.722 14.7023 13.2511 14.771 12.713 14.771C12.3094 14.771 11.9731 14.7023 11.6368 14.5649L10.9641 17.5878Z" fill="#23BCFA" fill-opacity="0.7"/>
</svg>
