<svg width="15" height="17" viewBox="0 0 15 17" fill="none" xmlns="http://www.w3.org/2000/svg">
<path d="M4.22634 4.17111C4.28695 4.1105 4.28695 4.0499 4.28695 3.98929V1.0802L1.07483 4.29232H4.04453C4.10513 4.23171 4.22634 4.17111 4.22634 4.17111Z" fill="#FFC656"/>
<path d="M11.9839 12.1711C13.122 12.1711 14.0446 11.2486 14.0446 10.1105C14.0446 8.97249 13.122 8.04993 11.9839 8.04993C10.8459 8.04993 9.92334 8.97249 9.92334 10.1105C9.92334 11.2486 10.8459 12.1711 11.9839 12.1711Z" fill="#FFC656"/>
<path d="M13.3174 11.6863H10.8325V11.7469C11.1962 11.9893 11.6204 12.1711 12.0446 12.1711C12.5295 12.1711 12.9537 11.9893 13.3174 11.6863Z" fill="#FFC656"/>
<path d="M9.92336 12.656C9.19609 12.0499 8.71124 11.1408 8.71124 10.1711C8.71124 8.35297 10.1658 6.89842 11.984 6.89842C12.287 6.89842 12.59 6.95903 12.8931 7.01963V2.17115C12.8931 1.6863 12.7112 1.26206 12.3476 0.898422C11.984 0.534785 11.5597 0.352966 11.0749 0.352966H5.49912V3.86812C5.49912 4.29236 5.3173 4.656 5.07487 4.89842C4.77184 5.20145 4.40821 5.32266 4.04457 5.32266H0.529419V14.4136C0.529419 14.8984 0.711237 15.3227 1.07487 15.6863C1.3779 15.9893 1.86275 16.2318 2.3476 16.2318H9.07487L9.92336 12.656Z" fill="#FFC656"/>
<path d="M10.4082 15.8681L11.8627 14.959C12.0446 14.8378 12.287 14.8378 12.4688 14.959L13.9234 15.8681L13.2567 13.1408C12.8931 13.3226 12.4688 13.3832 11.984 13.3832C11.6203 13.3832 11.3173 13.3226 11.0143 13.2014L10.4082 15.8681Z" fill="#FFC656"/>
</svg>
