<svg width="14" height="17" viewBox="0 0 14 17" fill="none" xmlns="http://www.w3.org/2000/svg">
<path d="M3.82958 4.08778C3.89236 4.0229 3.89236 3.95801 3.89236 3.89313V0.778623L0.565005 4.21755H3.64123C3.70402 4.15267 3.82958 4.08778 3.82958 4.08778Z" fill="#23BCFA"/>
<path d="M11.8655 12.6527C13.0443 12.6527 14 11.665 14 10.4466C14 9.22818 13.0443 8.24047 11.8655 8.24047C10.6866 8.24047 9.73095 9.22818 9.73095 10.4466C9.73095 11.665 10.6866 12.6527 11.8655 12.6527Z" fill="#23BCFA"/>
<path d="M13.2466 12.1336H10.6726V12.1985C11.0493 12.458 11.4888 12.6527 11.9282 12.6527C12.4305 12.6527 12.8699 12.458 13.2466 12.1336Z" fill="#23BCFA"/>
<path d="M9.73093 13.1718C8.97757 12.5229 8.47533 11.5496 8.47533 10.5115C8.47533 8.56489 9.98205 7.00763 11.8655 7.00763C12.1794 7.00763 12.4933 7.07252 12.8072 7.1374V1.94656C12.8072 1.42748 12.6188 0.973283 12.2421 0.58397C11.8655 0.194657 11.426 0 10.9238 0H5.14798V3.76336C5.14798 4.21756 4.95963 4.60687 4.70851 4.86641C4.39461 5.19084 4.01793 5.32061 3.64125 5.32061H0V15.0534C0 15.5725 0.188341 16.0267 0.565022 16.416C0.878923 16.7405 1.38116 17 1.88341 17H8.85201L9.73093 13.1718Z" fill="#23BCFA"/>
<path d="M10.2332 16.6107L11.7399 15.6374C11.9282 15.5076 12.1794 15.5076 12.3677 15.6374L13.8744 16.6107L13.1838 13.6909C12.8072 13.8855 12.3677 13.9504 11.8655 13.9504C11.4888 13.9504 11.1749 13.8855 10.861 13.7557L10.2332 16.6107Z" fill="#23BCFA"/>
</svg>
