<svg width="32" height="29" viewBox="0 0 32 29" fill="none" xmlns="http://www.w3.org/2000/svg">
<path d="M16.0569 14.0043C14.713 14.0043 13.7356 15.1196 13.7356 16.359C13.7356 17.7222 14.8352 18.7137 16.0569 18.7137C17.2786 18.7137 18.3782 17.5983 18.3782 16.359C18.3782 14.9957 17.4008 14.0043 16.0569 14.0043Z" fill="#23BCFA"/>
<path d="M31.2059 10.906C30.1063 7.68376 28.0294 4.95727 25.3416 2.97436C22.6538 0.991453 19.3551 0 16.0565 0C12.7578 0 9.45916 0.991453 6.77136 2.97436C4.08356 4.95727 2.00663 7.68376 0.907076 10.906C-0.192477 14.1282 -0.31465 17.5983 0.662731 20.8205C1.64011 24.0427 3.4727 26.8932 6.03833 29H25.9525C28.5181 26.8932 30.4728 24.0427 31.3281 20.8205C32.1833 17.5983 32.3054 14.1282 31.2059 10.906ZM23.1425 10.906L20.2103 13.8803C20.5769 14.6239 20.8212 15.3675 20.8212 16.359C20.8212 19.0855 18.6221 21.1923 16.0565 21.1923C13.4909 21.1923 11.2917 18.9615 11.2917 16.359C11.2917 13.7564 13.4909 11.5256 16.0565 11.5256C16.9117 11.5256 17.7669 11.7735 18.4999 12.1453L21.4321 9.17094C21.9208 8.67521 22.6538 8.67521 23.1425 9.17094C23.6312 9.66667 23.6312 10.4103 23.1425 10.906Z" fill="#23BCFA"/>
</svg>
