<svg width="20" height="20" viewBox="0 0 20 20" fill="none" xmlns="http://www.w3.org/2000/svg">
<path d="M2.00305 5.884L10.0001 9.882L17.9971 5.884C17.9674 5.37444 17.7441 4.89549 17.3729 4.54523C17.0016 4.19497 16.5105 3.99991 16.0001 4H4.00005C3.48964 3.99991 2.9985 4.19497 2.62723 4.54523C2.25596 4.89549 2.03266 5.37444 2.00305 5.884V5.884Z" fill="#39D2D1"/>
<path d="M18 8.11719L10 12.1172L2 8.11719V13.9992C2 14.5296 2.21071 15.0383 2.58579 15.4134C2.96086 15.7885 3.46957 15.9992 4 15.9992H16C16.5304 15.9992 17.0391 15.7885 17.4142 15.4134C17.7893 15.0383 18 14.5296 18 13.9992V8.11719Z" fill="#39D2D1"/>
</svg>
