<svg width="16" height="16" viewBox="0 0 16 16" fill="none" xmlns="http://www.w3.org/2000/svg">
<path fill-rule="evenodd" clip-rule="evenodd" d="M8 16C10.1217 16 12.1566 15.1571 13.6569 13.6569C15.1571 12.1566 16 10.1217 16 8C16 5.87827 15.1571 3.84344 13.6569 2.34315C12.1566 0.842855 10.1217 0 8 0C5.87827 0 3.84344 0.842855 2.34315 2.34315C0.842855 3.84344 0 5.87827 0 8C0 10.1217 0.842855 12.1566 2.34315 13.6569C3.84344 15.1571 5.87827 16 8 16ZM9 5C9 4.73478 8.89464 4.48043 8.70711 4.29289C8.51957 4.10536 8.26522 4 8 4C7.73478 4 7.48043 4.10536 7.29289 4.29289C7.10536 4.48043 7 4.73478 7 5V8.586L5.707 7.293C5.5184 7.11084 5.2658 7.01005 5.0036 7.01233C4.7414 7.0146 4.49059 7.11977 4.30518 7.30518C4.11977 7.49059 4.0146 7.7414 4.01233 8.0036C4.01005 8.2658 4.11084 8.5184 4.293 8.707L7.293 11.707C7.48053 11.8945 7.73484 11.9998 8 11.9998C8.26516 11.9998 8.51947 11.8945 8.707 11.707L11.707 8.707C11.8892 8.5184 11.99 8.2658 11.9877 8.0036C11.9854 7.7414 11.8802 7.49059 11.6948 7.30518C11.5094 7.11977 11.2586 7.0146 10.9964 7.01233C10.7342 7.01005 10.4816 7.11084 10.293 7.293L9 8.586V5Z" fill="#2FC5A1"/>
</svg>
