<svg width="16" height="19" viewBox="0 0 16 19" fill="none" xmlns="http://www.w3.org/2000/svg">
<path fill-rule="evenodd" clip-rule="evenodd" d="M0 1.14285C0 0.83975 0.120407 0.549061 0.334734 0.334734C0.549061 0.120407 0.83975 0 1.14285 0H14.8571C15.1602 0 15.4509 0.120407 15.6652 0.334734C15.8795 0.549061 16 0.83975 16 1.14285V4.57141C15.9999 4.87449 15.8794 5.16513 15.6651 5.37941L10.2857 10.7588V14.8571C10.2856 15.1602 10.1652 15.4508 9.95083 15.6651L7.66512 17.9508C7.50529 18.1106 7.30167 18.2194 7.08001 18.2635C6.85835 18.3075 6.6286 18.2849 6.4198 18.1984C6.211 18.1119 6.03253 17.9655 5.90695 17.7776C5.78137 17.5897 5.71432 17.3688 5.71427 17.1428V10.7588L0.334856 5.37941C0.120515 5.16513 6.47283e-05 4.87449 0 4.57141V1.14285Z" fill="#39D2D1"/>
</svg>
