<svg width="34" height="34" viewBox="0 0 34 34" fill="none" xmlns="http://www.w3.org/2000/svg">
<path d="M7.0835 7.08334V29.75" stroke="#23BCFA" stroke-width="1.59375" stroke-linecap="round" stroke-linejoin="round"/>
<path d="M26.9165 7.08334V19.8333" stroke="#23BCFA" stroke-width="1.59375" stroke-linecap="round" stroke-linejoin="round"/>
<path d="M7.0835 7.08332C8.40758 5.78547 10.1877 5.0585 12.0418 5.0585C13.8959 5.0585 15.6761 5.78547 17.0002 7.08332C18.3242 8.38118 20.1044 9.10815 21.9585 9.10815C23.8126 9.10815 25.5927 8.38118 26.9168 7.08332" stroke="#23BCFA" stroke-width="1.59375" stroke-linecap="round" stroke-linejoin="round"/>
<path d="M7.0835 19.8333C8.40758 18.5355 10.1877 17.8085 12.0418 17.8085C13.8959 17.8085 15.6761 18.5355 17.0002 19.8333C18.3242 21.1312 20.1044 21.8581 21.9585 21.8581C23.8126 21.8581 25.5927 21.1312 26.9168 19.8333" stroke="#23BCFA" stroke-width="1.59375" stroke-linecap="round" stroke-linejoin="round"/>
</svg>
