<svg width="100%" height="100%" viewBox="0 0 176 52" fill="none" xmlns="http://www.w3.org/2000/svg">
<path fill-rule="evenodd" clip-rule="evenodd" d="M0 24C0 12.6863 0 7.02944 3.51472 3.51472C7.02944 0 12.6863 0 24 0H152C163.314 0 168.971 0 172.485 3.51472C176 7.02944 176 12.6863 176 24V28C176 39.3137 176 44.9706 172.485 48.4853C168.971 52 163.314 52 152 52H24C12.6863 52 7.02944 52 3.51472 48.4853C0 44.9706 0 39.3137 0 28V24ZM52.386 12.2H54.178V19.158L59.442 12.2H61.136V22H59.344V15.056L54.08 22H52.386V12.2ZM67.0897 22.098C66.3151 22.098 65.6197 21.9347 65.0037 21.608C64.3877 21.2813 63.9071 20.8287 63.5617 20.25C63.2164 19.662 63.0437 18.9993 63.0437 18.262C63.0437 17.5247 63.2164 16.8667 63.5617 16.288C63.9071 15.7093 64.383 15.2567 64.9897 14.93C65.6057 14.6033 66.3057 14.44 67.0897 14.44C67.827 14.44 68.4711 14.5893 69.0217 14.888C69.5817 15.1867 70.0017 15.616 70.2817 16.176L68.9377 16.96C68.7231 16.6147 68.4524 16.358 68.1257 16.19C67.8084 16.0127 67.4584 15.924 67.0757 15.924C66.4224 15.924 65.8811 16.1387 65.4517 16.568C65.0224 16.988 64.8077 17.5527 64.8077 18.262C64.8077 18.9713 65.0177 19.5407 65.4377 19.97C65.8671 20.39 66.4131 20.6 67.0757 20.6C67.4584 20.6 67.8084 20.516 68.1257 20.348C68.4524 20.1707 68.7231 19.9093 68.9377 19.564L70.2817 20.348C69.9924 20.908 69.5677 21.342 69.0077 21.65C68.4571 21.9487 67.8177 22.098 67.0897 22.098ZM77.6761 16.008H75.0581V22H73.3081V16.008H70.6761V14.524H77.6761V16.008ZM81.9494 22.098C81.1934 22.098 80.5121 21.9347 79.9054 21.608C79.2987 21.2813 78.8227 20.8287 78.4774 20.25C78.1414 19.662 77.9734 18.9993 77.9734 18.262C77.9734 17.5247 78.1414 16.8667 78.4774 16.288C78.8227 15.7093 79.2987 15.2567 79.9054 14.93C80.5121 14.6033 81.1934 14.44 81.9494 14.44C82.7147 14.44 83.4007 14.6033 84.0074 14.93C84.6141 15.2567 85.0854 15.7093 85.4214 16.288C85.7667 16.8667 85.9394 17.5247 85.9394 18.262C85.9394 18.9993 85.7667 19.662 85.4214 20.25C85.0854 20.8287 84.6141 21.2813 84.0074 21.608C83.4007 21.9347 82.7147 22.098 81.9494 22.098ZM81.9494 20.6C82.5934 20.6 83.1254 20.3853 83.5454 19.956C83.9654 19.5267 84.1754 18.962 84.1754 18.262C84.1754 17.562 83.9654 16.9973 83.5454 16.568C83.1254 16.1387 82.5934 15.924 81.9494 15.924C81.3054 15.924 80.7734 16.1387 80.3534 16.568C79.9427 16.9973 79.7374 17.562 79.7374 18.262C79.7374 18.962 79.9427 19.5267 80.3534 19.956C80.7734 20.3853 81.3054 20.6 81.9494 20.6ZM91.8122 14.44C92.5402 14.44 93.1889 14.5987 93.7582 14.916C94.3369 15.2333 94.7895 15.6813 95.1162 16.26C95.4429 16.8387 95.6062 17.506 95.6062 18.262C95.6062 19.018 95.4429 19.69 95.1162 20.278C94.7895 20.8567 94.3369 21.3047 93.7582 21.622C93.1889 21.9393 92.5402 22.098 91.8122 22.098C90.8042 22.098 90.0062 21.762 89.4182 21.09V24.716H87.6682V14.524H89.3342V15.504C89.6235 15.1493 89.9782 14.8833 90.3982 14.706C90.8275 14.5287 91.2989 14.44 91.8122 14.44ZM91.6162 20.6C92.2602 20.6 92.7875 20.3853 93.1982 19.956C93.6182 19.5267 93.8282 18.962 93.8282 18.262C93.8282 17.562 93.6182 16.9973 93.1982 16.568C92.7875 16.1387 92.2602 15.924 91.6162 15.924C91.1962 15.924 90.8182 16.022 90.4822 16.218C90.1462 16.4047 89.8802 16.6753 89.6842 17.03C89.4882 17.3847 89.3902 17.7953 89.3902 18.262C89.3902 18.7287 89.4882 19.1393 89.6842 19.494C89.8802 19.8487 90.1462 20.124 90.4822 20.32C90.8182 20.5067 91.1962 20.6 91.6162 20.6ZM97.3479 14.524H99.0979V19.452L103.228 14.524H104.824V22H103.074V17.072L98.9579 22H97.3479V14.524ZM113.492 22H111.924V19.746H109.95L108.424 22H106.548L108.312 19.508C107.771 19.3213 107.355 19.0367 107.066 18.654C106.786 18.262 106.646 17.7813 106.646 17.212C106.646 16.3533 106.949 15.6907 107.556 15.224C108.163 14.7573 108.998 14.524 110.062 14.524H113.492V22ZM110.118 15.994C108.989 15.994 108.424 16.4187 108.424 17.268C108.424 18.108 108.97 18.528 110.062 18.528H111.924V15.994H110.118ZM58.098 33.008H55.48V39H53.73V33.008H51.098V31.524H58.098V33.008ZM63.5114 31.44C64.2394 31.44 64.8881 31.5987 65.4574 31.916C66.0361 32.2333 66.4887 32.6813 66.8154 33.26C67.1421 33.8387 67.3054 34.506 67.3054 35.262C67.3054 36.018 67.1421 36.69 66.8154 37.278C66.4887 37.8567 66.0361 38.3047 65.4574 38.622C64.8881 38.9393 64.2394 39.098 63.5114 39.098C62.5034 39.098 61.7054 38.762 61.1174 38.09V41.716H59.3674V31.524H61.0334V32.504C61.3227 32.1493 61.6774 31.8833 62.0974 31.706C62.5267 31.5287 62.9981 31.44 63.5114 31.44ZM63.3154 37.6C63.9594 37.6 64.4867 37.3853 64.8974 36.956C65.3174 36.5267 65.5274 35.962 65.5274 35.262C65.5274 34.562 65.3174 33.9973 64.8974 33.568C64.4867 33.1387 63.9594 32.924 63.3154 32.924C62.8954 32.924 62.5174 33.022 62.1814 33.218C61.8454 33.4047 61.5794 33.6753 61.3834 34.03C61.1874 34.3847 61.0894 34.7953 61.0894 35.262C61.0894 35.7287 61.1874 36.1393 61.3834 36.494C61.5794 36.8487 61.8454 37.124 62.1814 37.32C62.5174 37.5067 62.8954 37.6 63.3154 37.6ZM71.7374 31.44C72.8387 31.44 73.6787 31.706 74.2574 32.238C74.8454 32.7607 75.1394 33.554 75.1394 34.618V39H73.4874V38.09C73.2727 38.4167 72.9647 38.6687 72.5634 38.846C72.1714 39.014 71.6954 39.098 71.1354 39.098C70.5754 39.098 70.0854 39.0047 69.6654 38.818C69.2454 38.622 68.9187 38.356 68.6854 38.02C68.4614 37.6747 68.3494 37.2873 68.3494 36.858C68.3494 36.186 68.5967 35.6493 69.0914 35.248C69.5954 34.8373 70.3841 34.632 71.4574 34.632H73.3894V34.52C73.3894 33.9973 73.2307 33.596 72.9134 33.316C72.6054 33.036 72.1434 32.896 71.5274 32.896C71.1074 32.896 70.6921 32.9613 70.2814 33.092C69.8801 33.2227 69.5394 33.4047 69.2594 33.638L68.5734 32.364C68.9654 32.0653 69.4367 31.8367 69.9874 31.678C70.5381 31.5193 71.1214 31.44 71.7374 31.44ZM71.4994 37.824C71.9381 37.824 72.3254 37.726 72.6614 37.53C73.0067 37.3247 73.2494 37.0353 73.3894 36.662V35.794H71.5834C70.5754 35.794 70.0714 36.1253 70.0714 36.788C70.0714 37.1053 70.1974 37.3573 70.4494 37.544C70.7014 37.7307 71.0514 37.824 71.4994 37.824ZM77.3049 31.524H79.0549V34.562H82.8209V31.524H84.5709V39H82.8209V36.046H79.0549V39H77.3049V31.524ZM91.2865 35.108C91.7532 35.2387 92.1125 35.4533 92.3645 35.752C92.6259 36.0413 92.7565 36.3913 92.7565 36.802C92.7565 37.2593 92.6025 37.6653 92.2945 38.02C91.9865 38.3653 91.5619 38.636 91.0205 38.832C90.4792 39.028 89.8632 39.126 89.1725 39.126C88.5939 39.126 88.0292 39.0607 87.4785 38.93C86.9279 38.79 86.4285 38.594 85.9805 38.342L86.4845 37.04C86.8485 37.2453 87.2592 37.404 87.7165 37.516C88.1739 37.628 88.6312 37.684 89.0885 37.684C89.6765 37.684 90.1339 37.5953 90.4605 37.418C90.7965 37.2313 90.9645 36.9793 90.9645 36.662C90.9645 36.3727 90.8339 36.1487 90.5725 35.99C90.3205 35.8313 89.9612 35.752 89.4945 35.752H88.0385V34.576H89.3545C89.7932 34.576 90.1339 34.5013 90.3765 34.352C90.6285 34.2027 90.7545 33.9927 90.7545 33.722C90.7545 33.4513 90.6052 33.2367 90.3065 33.078C90.0079 32.9193 89.5972 32.84 89.0745 32.84C88.3279 32.84 87.5392 33.022 86.7085 33.386L86.2605 32.098C87.2405 31.6407 88.2299 31.412 89.2285 31.412C89.8632 31.412 90.4325 31.5007 90.9365 31.678C91.4405 31.846 91.8325 32.0887 92.1125 32.406C92.4019 32.714 92.5465 33.0687 92.5465 33.47C92.5465 33.834 92.4345 34.1607 92.2105 34.45C91.9865 34.73 91.6785 34.9493 91.2865 35.108ZM97.3585 31.44C98.4598 31.44 99.2998 31.706 99.8785 32.238C100.466 32.7607 100.76 33.554 100.76 34.618V39H99.1085V38.09C98.8938 38.4167 98.5858 38.6687 98.1845 38.846C97.7925 39.014 97.3165 39.098 96.7565 39.098C96.1965 39.098 95.7065 39.0047 95.2865 38.818C94.8665 38.622 94.5398 38.356 94.3065 38.02C94.0825 37.6747 93.9705 37.2873 93.9705 36.858C93.9705 36.186 94.2178 35.6493 94.7125 35.248C95.2165 34.8373 96.0051 34.632 97.0785 34.632H99.0105V34.52C99.0105 33.9973 98.8518 33.596 98.5345 33.316C98.2265 33.036 97.7645 32.896 97.1485 32.896C96.7285 32.896 96.3131 32.9613 95.9025 33.092C95.5012 33.2227 95.1605 33.4047 94.8805 33.638L94.1945 32.364C94.5865 32.0653 95.0578 31.8367 95.6085 31.678C96.1591 31.5193 96.7425 31.44 97.3585 31.44ZM97.1205 37.824C97.5592 37.824 97.9465 37.726 98.2825 37.53C98.6278 37.3247 98.8705 37.0353 99.0105 36.662V35.794H97.2045C96.1965 35.794 95.6925 36.1253 95.6925 36.788C95.6925 37.1053 95.8185 37.3573 96.0705 37.544C96.3225 37.7307 96.6725 37.824 97.1205 37.824ZM106.034 36.004H104.676V39H102.926V31.524H104.676V34.548H106.076L108.288 31.524H110.164L107.448 35.122L110.346 39H108.288L106.034 36.004ZM119.784 37.516V40.722H118.146V39H111.58V31.524H113.33V37.516H116.9V31.524H118.65V37.516H119.784ZM121.342 31.524H123.092V36.452L127.222 31.524H128.818V39H127.068V34.072L122.952 39H121.342V31.524ZM131.172 31.524H132.922V36.452L137.052 31.524H138.648V39H136.898V34.072L132.782 39H131.172V31.524ZM134.798 30.642C134.042 30.642 133.463 30.4693 133.062 30.124C132.67 29.7693 132.469 29.256 132.46 28.584H133.622C133.631 28.92 133.734 29.186 133.93 29.382C134.135 29.578 134.42 29.676 134.784 29.676C135.139 29.676 135.419 29.578 135.624 29.382C135.839 29.186 135.951 28.92 135.96 28.584H137.15C137.141 29.256 136.935 29.7693 136.534 30.124C136.133 30.4693 135.554 30.642 134.798 30.642ZM25.8318 14.2508C28.7278 14.2178 31.5341 15.2494 33.7154 17.1481C35.8966 19.0466 37.3001 21.6791 37.659 24.543C38.0179 27.4068 37.3073 30.3024 35.6621 32.6776C34.0169 35.0528 31.5519 36.7415 28.7371 37.4206C25.9222 38.0996 22.9552 37.7211 20.4025 36.3577C18.3984 35.2872 16.7601 33.6687 15.668 31.7104H20.2409C20.9312 31.7104 21.4909 31.1507 21.4909 30.4604C21.4909 29.77 20.9312 29.2104 20.2409 29.2104H13.753C13.7337 29.2099 13.7143 29.2099 13.6949 29.2104H13C12.3096 29.2104 11.75 29.77 11.75 30.4604V37.6826C11.75 38.3729 12.3096 38.9326 13 38.9326C13.6904 38.9326 14.25 38.3729 14.25 37.6826V34.1506C15.5273 35.9779 17.2263 37.4954 19.2247 38.5628C22.3182 40.2151 25.913 40.6735 29.3233 39.8508C32.7337 39.0282 35.7219 36.9818 37.7173 34.1011C39.7126 31.2204 40.5751 27.7072 40.1396 24.2321C39.7041 20.757 38.0012 17.5641 35.3568 15.2624C32.7125 12.9607 29.3117 11.711 25.8033 11.7509C22.295 11.7909 18.9237 13.1177 16.3327 15.4791C13.7416 17.8406 12.1123 21.0715 11.7565 24.5556C11.6863 25.2424 12.1862 25.856 12.873 25.9261C13.5598 25.9963 14.1734 25.4964 14.2435 24.8096C14.5368 21.9383 15.8796 19.2746 18.0167 17.3269C20.1539 15.3791 22.9358 14.2838 25.8318 14.2508ZM27.2111 20.3493C27.2111 19.6589 26.6515 19.0993 25.9611 19.0993C25.2708 19.0993 24.7111 19.6589 24.7111 20.3493V26.127C24.7111 26.4591 24.8433 26.7775 25.0784 27.0121L27.9747 29.9009C28.4635 30.3885 29.255 30.3875 29.7425 29.8987C30.23 29.4099 30.229 28.6184 29.7402 28.1309L27.2111 25.6083V20.3493Z" fill="url(#paint0_linear)"/>
<defs>
<linearGradient id="paint0_linear" x1="5.13892" y1="46.9698" x2="84.8501" y2="-107.788" gradientUnits="userSpaceOnUse">
<stop stop-color="#00B8B0"/>
<stop offset="1" stop-color="#0795CF"/>
</linearGradient>
</defs>
</svg>
