<svg width="100%" height="100%" viewBox="0 0 52 52" fill="none" xmlns="http://www.w3.org/2000/svg">
<path fill-rule="evenodd" clip-rule="evenodd" d="M3.51472 3.51472C0 7.02944 0 12.6863 0 24V28C0 39.3137 0 44.9706 3.51472 48.4853C7.02944 52 12.6863 52 24 52H28C39.3137 52 44.9706 52 48.4853 48.4853C52 44.9706 52 39.3137 52 28V24C52 12.6863 52 7.02944 48.4853 3.51472C44.9706 0 39.3137 0 28 0H24C12.6863 0 7.02944 0 3.51472 3.51472ZM25.8318 14.2508C28.7278 14.2178 31.5341 15.2494 33.7154 17.1481C35.8966 19.0466 37.3001 21.6791 37.659 24.543C38.0179 27.4068 37.3073 30.3024 35.6621 32.6776C34.0169 35.0528 31.5519 36.7415 28.7371 37.4206C25.9222 38.0996 22.9552 37.7211 20.4025 36.3577C18.3984 35.2872 16.7601 33.6687 15.668 31.7104H20.2409C20.9312 31.7104 21.4909 31.1507 21.4909 30.4604C21.4909 29.77 20.9312 29.2104 20.2409 29.2104H13.753C13.7337 29.2099 13.7143 29.2099 13.6949 29.2104H13C12.3096 29.2104 11.75 29.77 11.75 30.4604V37.6826C11.75 38.3729 12.3096 38.9326 13 38.9326C13.6904 38.9326 14.25 38.3729 14.25 37.6826V34.1506C15.5273 35.9779 17.2263 37.4954 19.2247 38.5628C22.3182 40.2151 25.913 40.6735 29.3233 39.8508C32.7337 39.0282 35.7219 36.9818 37.7173 34.1011C39.7126 31.2204 40.5751 27.7072 40.1396 24.2321C39.7041 20.757 38.0012 17.5641 35.3568 15.2624C32.7125 12.9607 29.3117 11.711 25.8033 11.7509C22.295 11.7909 18.9237 13.1177 16.3327 15.4791C13.7416 17.8406 12.1123 21.0715 11.7565 24.5556C11.6863 25.2424 12.1862 25.856 12.873 25.9261C13.5598 25.9963 14.1734 25.4964 14.2435 24.8096C14.5368 21.9383 15.8796 19.2746 18.0167 17.3269C20.1539 15.3791 22.9358 14.2838 25.8318 14.2508ZM27.2111 20.3493C27.2111 19.6589 26.6515 19.0993 25.9611 19.0993C25.2708 19.0993 24.7111 19.6589 24.7111 20.3493V26.127C24.7111 26.4591 24.8433 26.7775 25.0784 27.0121L27.9747 29.9009C28.4635 30.3885 29.255 30.3875 29.7425 29.8987C30.23 29.4099 30.229 28.6184 29.7402 28.1309L27.2111 25.6083V20.3493Z" fill="url(#paint0_linear)"/>
<defs>
<linearGradient id="paint0_linear" x1="1.51832" y1="46.9698" x2="86.0331" y2="-1.50958" gradientUnits="userSpaceOnUse">
<stop stop-color="#00B8B0"/>
<stop offset="1" stop-color="#0795CF"/>
</linearGradient>
</defs>
</svg>
