<svg width="21" height="22" viewBox="0 0 21 22" fill="none" xmlns="http://www.w3.org/2000/svg">
<path fill-rule="evenodd" clip-rule="evenodd" d="M0.217875 4.10468C4.01774 4.05631 7.67132 2.59778 10.5 0C13.3285 2.59827 16.9821 4.05728 20.7821 4.10602C20.9265 4.97936 21 5.87957 21 6.79455C21 13.8148 16.6162 19.7871 10.5 22C4.38375 19.7858 0 13.8135 0 6.79321C0 5.87688 0.0748124 4.97936 0.217875 4.10468ZM15.3654 9.08672C15.6045 8.83332 15.7368 8.49392 15.7338 8.14164C15.7308 7.78935 15.5928 7.45236 15.3494 7.20325C15.1061 6.95413 14.7769 6.81283 14.4328 6.80977C14.0886 6.80671 13.7571 6.94213 13.5096 7.18688L9.1875 11.6113L7.49044 9.87407C7.2429 9.62932 6.91136 9.4939 6.56722 9.49696C6.22309 9.50002 5.8939 9.64132 5.65055 9.89044C5.4072 10.1395 5.26917 10.4765 5.26618 10.8288C5.26319 11.1811 5.39548 11.5205 5.63456 11.7739L8.25956 14.4611C8.50569 14.713 8.83947 14.8545 9.1875 14.8545C9.53553 14.8545 9.86931 14.713 10.1154 14.4611L15.3654 9.08672Z" fill="white" fill-opacity="0.6"/>
</svg>
