<svg width="27" height="27" viewBox="0 0 27 27" fill="none" xmlns="http://www.w3.org/2000/svg">
<path fill-rule="evenodd" clip-rule="evenodd" d="M13.5 27C20.9558 27 27 20.9558 27 13.5C27 6.04416 20.9558 0 13.5 0C6.04416 0 0 6.04416 0 13.5C0 20.9558 6.04416 27 13.5 27ZM17.5839 6.88314C17.3486 6.98421 17.1358 7.13113 16.9579 7.31533L16.1932 8.08001L18.9202 10.807L19.6849 10.0423C19.8691 9.86443 20.016 9.65162 20.1171 9.41633C20.2181 9.18103 20.2713 8.92797 20.2736 8.67189C20.2758 8.41582 20.227 8.16186 20.13 7.92485C20.0331 7.68784 19.8899 7.47251 19.7088 7.29143C19.5277 7.11035 19.3124 6.96715 19.0753 6.87018C18.8383 6.77321 18.5844 6.72441 18.3283 6.72664C18.0722 6.72886 17.8192 6.78206 17.5839 6.88314ZM14.8297 9.44351L6.74994 17.5233V20.2503H9.47694L17.5577 12.1705L14.8297 9.44351Z" fill="#23BCFA"/>
</svg>
