<svg width="38" height="38" viewBox="0 0 38 38" fill="none" xmlns="http://www.w3.org/2000/svg">
<path d="M14.7687 23.2312C15.4582 23.9348 16.2811 24.4938 17.1892 24.8755C18.0974 25.2571 19.0726 25.4536 20.0577 25.4536C21.0429 25.4536 22.0181 25.2571 22.9262 24.8755C23.8344 24.4938 24.6573 23.9348 25.3468 23.2312L33.8092 14.7688C35.212 13.366 36 11.4635 36 9.47978C36 7.49602 35.212 5.59351 33.8092 4.19078C32.4065 2.78805 30.504 2 28.5202 2C26.5364 2 24.6339 2.78805 23.2312 4.19078L22.1734 5.24858M23.2313 14.7688C22.5419 14.0652 21.7189 13.5062 20.8108 13.1245C19.9026 12.7429 18.9274 12.5464 17.9423 12.5464C16.9571 12.5464 15.9819 12.7429 15.0738 13.1245C14.1656 13.5062 13.3427 14.0652 12.6532 14.7688L4.19079 23.2312C2.78805 24.634 2 26.5365 2 28.5202C2 30.504 2.78805 32.4065 4.19079 33.8092C5.59352 35.212 7.49604 36 9.47981 36C11.4636 36 13.3661 35.212 14.7688 33.8092L15.8266 32.7514" stroke="#23BCFA" stroke-width="3" stroke-linecap="round" stroke-linejoin="round"/>
</svg>
