<svg width="24" height="15" viewBox="0 0 24 15" fill="none" xmlns="http://www.w3.org/2000/svg">
<path fill-rule="evenodd" clip-rule="evenodd" d="M3.35714 0C2.46677 0 1.61287 0.357099 0.983284 0.992739C0.353698 1.62838 0 2.49049 0 3.38942V11.6106C0 12.5095 0.353698 13.3716 0.983284 14.0073C1.61287 14.6429 2.46677 15 3.35714 15H18.2857C19.1761 15 20.03 14.6429 20.6596 14.0073C21.2892 13.3716 21.6429 12.5095 21.6429 11.6106V10.9255C21.6429 10.9159 21.6466 10.9067 21.6533 10.9C21.66 10.8932 21.6691 10.8894 21.6786 10.8894C22.029 10.8894 22.8651 10.8042 23.113 10.554C23.3608 10.3038 23.5 9.96441 23.5 9.61058V5.5C23.5 5.14617 23.3608 4.80682 23.113 4.55662C22.8651 4.30642 22.029 4.11058 21.6786 4.11058C21.6691 4.11058 21.66 4.10678 21.6533 4.10002C21.6466 4.09326 21.6429 4.08408 21.6429 4.07452V3.38942C21.6429 2.49049 21.2892 1.62838 20.6596 0.992739C20.03 0.357099 19.1761 0 18.2857 0H3.35714ZM5.89286 4.75962C5.89286 4.10245 5.36519 3.56971 4.71428 3.56971C4.06338 3.56971 3.53571 4.10245 3.53571 4.75962V10.2404C3.53571 10.8976 4.06338 11.4303 4.71428 11.4303C5.36519 11.4303 5.89286 10.8976 5.89286 10.2404V4.75962Z" fill="white" fill-opacity="0.6"/>
</svg>
