<svg width="16" height="19" viewBox="0 0 16 19" fill="none" xmlns="http://www.w3.org/2000/svg">
<path fill-rule="evenodd" clip-rule="evenodd" d="M2.34329 2.30509C3.84357 0.829165 5.87837 0 8.00008 0C10.1218 0 12.1566 0.829165 13.6569 2.30509C15.1572 3.78101 16 5.78279 16 7.87006C16 9.95733 15.1572 11.9591 13.6569 13.435L8.00008 19L2.34329 13.435C1.60038 12.7043 1.01107 11.8367 0.609004 10.8818C0.20694 9.92699 0 8.90358 0 7.87006C0 6.83653 0.20694 5.81313 0.609004 4.85829C1.01107 3.90344 1.60038 3.03586 2.34329 2.30509ZM8.00008 10.1185C8.60626 10.1185 9.1876 9.88164 9.61623 9.45997C10.0449 9.0383 10.2857 8.46639 10.2857 7.87006C10.2857 7.27373 10.0449 6.70182 9.61623 6.28015C9.1876 5.85848 8.60626 5.62158 8.00008 5.62158C7.39391 5.62158 6.81257 5.85848 6.38394 6.28015C5.95531 6.70182 5.71451 7.27373 5.71451 7.87006C5.71451 8.46639 5.95531 9.0383 6.38394 9.45997C6.81257 9.88164 7.39391 10.1185 8.00008 10.1185Z" fill="#39D2D1"/>
</svg>
