<svg width="32" height="32" viewBox="0 0 32 32" fill="none" xmlns="http://www.w3.org/2000/svg">
<circle cx="16" cy="16" r="16" fill="#23BCFA"/>
<circle cx="16" cy="16" r="16" fill="black" fill-opacity="0.5"/>
<path d="M16 9.59961C14.7269 9.59961 13.506 10.1053 12.6059 11.0055C11.7057 11.9057 11.2 13.1266 11.2 14.3996V17.2684L10.6344 17.834C10.5225 17.9459 10.4464 18.0884 10.4155 18.2436C10.3847 18.3987 10.4005 18.5596 10.461 18.7057C10.5216 18.8519 10.6241 18.9768 10.7556 19.0647C10.8871 19.1526 11.0418 19.1996 11.2 19.1996H20.8C20.9582 19.1996 21.1128 19.1526 21.2443 19.0647C21.3759 18.9768 21.4784 18.8519 21.5389 18.7057C21.5995 18.5596 21.6153 18.3987 21.5844 18.2436C21.5536 18.0884 21.4774 17.9459 21.3656 17.834L20.8 17.2684V14.3996C20.8 13.1266 20.2943 11.9057 19.3941 11.0055C18.4939 10.1053 17.273 9.59961 16 9.59961ZM16 22.3996C15.3635 22.3996 14.753 22.1468 14.3029 21.6967C13.8528 21.2466 13.6 20.6361 13.6 19.9996H18.4C18.4 20.6361 18.1471 21.2466 17.697 21.6967C17.2469 22.1468 16.6365 22.3996 16 22.3996Z" fill="#FBFBFB"/>
</svg>
