<svg width="32" height="32" viewBox="0 0 32 32" fill="none" xmlns="http://www.w3.org/2000/svg">
<g filter="url(#filter0_d)">
<path fill-rule="evenodd" clip-rule="evenodd" d="M16 28C22.6274 28 28 22.6274 28 16C28 9.37258 22.6274 4 16 4C9.37258 4 4 9.37258 4 16C4 22.6274 9.37258 28 16 28ZM19.0493 19.6843C20.723 19.9894 22.4499 19.7772 24 19.0761C23.4423 20.3101 22.5936 21.3905 21.5266 22.2244C20.4596 23.0583 19.2063 23.621 17.8741 23.864C16.5418 24.1071 15.1705 24.0234 13.8778 23.62C12.5851 23.2166 11.4095 22.5056 10.4519 21.5481C9.49436 20.5905 8.78339 19.4149 8.38001 18.1222C7.97663 16.8295 7.89289 15.4582 8.13596 14.1259C8.37904 12.7937 8.94168 11.5404 9.77561 10.4734C10.6095 9.40643 11.6899 8.55769 12.9239 8C12.2228 9.55008 12.0106 11.277 12.3157 12.9507C12.6208 14.6244 13.4287 16.1654 14.6317 17.3683C15.8346 18.5713 17.3756 19.3792 19.0493 19.6843Z" fill="#39D2D1"/>
</g>
<defs>
<filter id="filter0_d" x="0" y="0" width="32" height="32" filterUnits="userSpaceOnUse" color-interpolation-filters="sRGB">
<feFlood flood-opacity="0" result="BackgroundImageFix"/>
<feColorMatrix in="SourceAlpha" type="matrix" values="0 0 0 0 0 0 0 0 0 0 0 0 0 0 0 0 0 0 127 0" result="hardAlpha"/>
<feOffset/>
<feGaussianBlur stdDeviation="2"/>
<feComposite in2="hardAlpha" operator="out"/>
<feColorMatrix type="matrix" values="0 0 0 0 0.223529 0 0 0 0 0.823529 0 0 0 0 0.819608 0 0 0 0.4 0"/>
<feBlend mode="normal" in2="BackgroundImageFix" result="effect1_dropShadow"/>
<feBlend mode="normal" in="SourceGraphic" in2="effect1_dropShadow" result="shape"/>
</filter>
</defs>
</svg>
