<svg width="38" height="38" viewBox="0 0 38 38" fill="none" xmlns="http://www.w3.org/2000/svg">
<path fill-rule="evenodd" clip-rule="evenodd" d="M9.5 9.5V7.125C9.5 5.23533 10.2507 3.42306 11.5869 2.08686C12.9231 0.750668 14.7353 0 16.625 0H21.375C23.2647 0 25.0769 0.750668 26.4131 2.08686C27.7493 3.42306 28.5 5.23533 28.5 7.125V9.5H33.25C34.5098 9.5 35.718 10.0004 36.6088 10.8912C37.4996 11.782 38 12.9902 38 14.25V22.7287C31.9191 24.982 25.4849 26.1321 19 26.125C12.5151 26.1322 6.08087 24.9821 0 22.7287V14.25C0 12.9902 0.500445 11.782 1.39124 10.8912C2.28204 10.0004 3.49022 9.5 4.75 9.5H9.5ZM14.25 7.125C14.25 6.49511 14.5002 5.89102 14.9456 5.44562C15.391 5.00022 15.9951 4.75 16.625 4.75H21.375C22.0049 4.75 22.609 5.00022 23.0544 5.44562C23.4998 5.89102 23.75 6.49511 23.75 7.125V9.5H14.25V7.125ZM16.625 19C16.625 18.3701 16.8752 17.766 17.3206 17.3206C17.766 16.8752 18.3701 16.625 19 16.625H19.0238C19.6536 16.625 20.2577 16.8752 20.7031 17.3206C21.1485 17.766 21.3988 18.3701 21.3988 19C21.3988 19.6299 21.1485 20.234 20.7031 20.6794C20.2577 21.1248 19.6536 21.375 19.0238 21.375H19C18.3701 21.375 17.766 21.1248 17.3206 20.6794C16.8752 20.234 16.625 19.6299 16.625 19Z" fill="#39D2D1"/>
<path d="M0 27.7685V33.25C0 34.5098 0.500445 35.718 1.39124 36.6088C2.28204 37.4996 3.49022 38 4.75 38H33.25C34.5098 38 35.718 37.4996 36.6088 36.6088C37.4996 35.718 38 34.5098 38 33.25V27.7685C31.8781 29.8318 25.4602 30.8811 19 30.875C12.3595 30.875 5.96838 29.7825 0 27.7685Z" fill="#39D2D1"/>
</svg>
