<svg width="16" height="16" viewBox="0 0 16 16" fill="none" xmlns="http://www.w3.org/2000/svg">
<path d="M7.99997 1.59961C6.72693 1.59961 5.50603 2.10532 4.60586 3.0055C3.70568 3.90567 3.19997 5.12657 3.19997 6.39961V9.26841L2.63437 9.83401C2.52252 9.94589 2.44636 10.0884 2.4155 10.2436C2.38465 10.3987 2.40049 10.5596 2.46103 10.7057C2.52156 10.8519 2.62407 10.9768 2.7556 11.0647C2.88713 11.1526 3.04177 11.1996 3.19997 11.1996H12.8C12.9582 11.1996 13.1128 11.1526 13.2443 11.0647C13.3759 10.9768 13.4784 10.8519 13.5389 10.7057C13.5994 10.5596 13.6153 10.3987 13.5844 10.2436C13.5536 10.0884 13.4774 9.94589 13.3656 9.83401L12.8 9.26841V6.39961C12.8 5.12657 12.2943 3.90567 11.3941 3.0055C10.4939 2.10532 9.27301 1.59961 7.99997 1.59961V1.59961ZM7.99997 14.3996C7.36345 14.3996 6.753 14.1468 6.30291 13.6967C5.85282 13.2466 5.59997 12.6361 5.59997 11.9996H10.4C10.4 12.6361 10.1471 13.2466 9.69702 13.6967C9.24694 14.1468 8.63649 14.3996 7.99997 14.3996Z" fill="#FBFBFB"/>
</svg>
