<svg width="38" height="38" viewBox="0 0 38 38" fill="none" xmlns="http://www.w3.org/2000/svg">
<path fill-rule="evenodd" clip-rule="evenodd" d="M38 19C38 24.0391 35.9982 28.8718 32.435 32.435C28.8718 35.9982 24.0391 38 19 38C13.9609 38 9.12816 35.9982 5.56497 32.435C2.00178 28.8718 0 24.0391 0 19C0 13.9609 2.00178 9.12816 5.56497 5.56497C9.12816 2.00178 13.9609 0 19 0C24.0391 0 28.8718 2.00178 32.435 5.56497C35.9982 9.12816 38 13.9609 38 19ZM21.375 9.5C21.375 10.1299 21.1248 10.734 20.6794 11.1794C20.234 11.6248 19.6299 11.875 19 11.875C18.3701 11.875 17.766 11.6248 17.3206 11.1794C16.8752 10.734 16.625 10.1299 16.625 9.5C16.625 8.87011 16.8752 8.26602 17.3206 7.82062C17.766 7.37522 18.3701 7.125 19 7.125C19.6299 7.125 20.234 7.37522 20.6794 7.82062C21.1248 8.26602 21.375 8.87011 21.375 9.5ZM16.625 16.625C15.9951 16.625 15.391 16.8752 14.9456 17.3206C14.5002 17.766 14.25 18.3701 14.25 19C14.25 19.6299 14.5002 20.234 14.9456 20.6794C15.391 21.1248 15.9951 21.375 16.625 21.375V28.5C16.625 29.1299 16.8752 29.734 17.3206 30.1794C17.766 30.6248 18.3701 30.875 19 30.875H21.375C22.0049 30.875 22.609 30.6248 23.0544 30.1794C23.4998 29.734 23.75 29.1299 23.75 28.5C23.75 27.8701 23.4998 27.266 23.0544 26.8206C22.609 26.3752 22.0049 26.125 21.375 26.125V19C21.375 18.3701 21.1248 17.766 20.6794 17.3206C20.234 16.8752 19.6299 16.625 19 16.625H16.625Z" fill="#23BCFA"/>
</svg>
