<svg width="42" height="54" viewBox="0 0 42 54" fill="none" xmlns="http://www.w3.org/2000/svg">
<g filter="url(#filter0_d_715:6610)">
<path fill-rule="evenodd" clip-rule="evenodd" d="M4.19998 10.1996C4.19998 8.7144 4.78998 7.29001 5.84018 6.23981C6.89039 5.18961 8.31477 4.59961 9.79998 4.59961H22.6408C24.1259 4.59993 25.55 5.19013 26.6 6.24041L36.1592 15.7996C37.2095 16.8496 37.7997 18.2737 37.8 19.7588V43.7996C37.8 45.2848 37.21 46.7092 36.1598 47.7594C35.1096 48.8096 33.6852 49.3996 32.2 49.3996H9.79998C8.31477 49.3996 6.89039 48.8096 5.84018 47.7594C4.78998 46.7092 4.19998 45.2848 4.19998 43.7996V10.1996ZM9.79998 26.9996C9.79998 26.257 10.095 25.5448 10.6201 25.0197C11.1452 24.4946 11.8574 24.1996 12.6 24.1996H29.4C30.1426 24.1996 30.8548 24.4946 31.3799 25.0197C31.905 25.5448 32.2 26.257 32.2 26.9996C32.2 27.7422 31.905 28.4544 31.3799 28.9795C30.8548 29.5046 30.1426 29.7996 29.4 29.7996H12.6C11.8574 29.7996 11.1452 29.5046 10.6201 28.9795C10.095 28.4544 9.79998 27.7422 9.79998 26.9996ZM12.6 35.3996C11.8574 35.3996 11.1452 35.6946 10.6201 36.2197C10.095 36.7448 9.79998 37.457 9.79998 38.1996C9.79998 38.9422 10.095 39.6544 10.6201 40.1795C11.1452 40.7046 11.8574 40.9996 12.6 40.9996H29.4C30.1426 40.9996 30.8548 40.7046 31.3799 40.1795C31.905 39.6544 32.2 38.9422 32.2 38.1996C32.2 37.457 31.905 36.7448 31.3799 36.2197C30.8548 35.6946 30.1426 35.3996 29.4 35.3996H12.6Z" fill="#23BCFA"/>
</g>
<defs>
<filter id="filter0_d_715:6610" x="0.199982" y="0.599609" width="41.6" height="52.7998" filterUnits="userSpaceOnUse" color-interpolation-filters="sRGB">
<feFlood flood-opacity="0" result="BackgroundImageFix"/>
<feColorMatrix in="SourceAlpha" type="matrix" values="0 0 0 0 0 0 0 0 0 0 0 0 0 0 0 0 0 0 127 0" result="hardAlpha"/>
<feMorphology radius="1" operator="dilate" in="SourceAlpha" result="effect1_dropShadow_715:6610"/>
<feOffset/>
<feGaussianBlur stdDeviation="1.5"/>
<feColorMatrix type="matrix" values="0 0 0 0 0.137255 0 0 0 0 0.737255 0 0 0 0 0.980392 0 0 0 0.4 0"/>
<feBlend mode="normal" in2="BackgroundImageFix" result="effect1_dropShadow_715:6610"/>
<feBlend mode="normal" in="SourceGraphic" in2="effect1_dropShadow_715:6610" result="shape"/>
</filter>
</defs>
</svg>
