<svg width="19" height="22" viewBox="0 0 19 22" fill="none" xmlns="http://www.w3.org/2000/svg">
<path d="M9.5 0C7.34031 0 5.26908 0.869194 3.74196 2.41637C2.21483 3.96354 1.35689 6.06196 1.35689 8.25V13.1808L0.397366 14.1529C0.207619 14.3452 0.0784059 14.5901 0.0260627 14.8568C-0.0262806 15.1235 0.000595737 15.3999 0.103294 15.6511C0.205992 15.9024 0.379901 16.1171 0.603035 16.2682C0.82617 16.4193 1.08851 16.4999 1.35689 16.5H17.6431C17.9115 16.4999 18.1738 16.4193 18.397 16.2682C18.6201 16.1171 18.794 15.9024 18.8967 15.6511C18.9994 15.3999 19.0263 15.1235 18.9739 14.8568C18.9216 14.5901 18.7924 14.3452 18.6026 14.1529L17.6431 13.1808V8.25C17.6431 6.06196 16.7852 3.96354 15.258 2.41637C13.7309 0.869194 11.6597 0 9.5 0ZM9.5 22C8.42016 22 7.38454 21.5654 6.62098 20.7918C5.85741 20.0182 5.42845 18.969 5.42845 17.875H13.5716C13.5716 18.969 13.1426 20.0182 12.379 20.7918C11.6155 21.5654 10.5798 22 9.5 22Z" fill="white" fill-opacity="0.6"/>
</svg>
