<svg width="23" height="25" viewBox="0 0 23 25" fill="none" xmlns="http://www.w3.org/2000/svg">
<path fill-rule="evenodd" clip-rule="evenodd" d="M11.5 10C12.8071 10 14.0607 9.47322 14.985 8.53553C15.9093 7.59785 16.4286 6.32608 16.4286 5C16.4286 3.67392 15.9093 2.40215 14.985 1.46447C14.0607 0.526784 12.8071 0 11.5 0C10.1929 0 8.93926 0.526784 8.01497 1.46447C7.09069 2.40215 6.57143 3.67392 6.57143 5C6.57143 6.32608 7.09069 7.59785 8.01497 8.53553C8.93926 9.47322 10.1929 10 11.5 10ZM0 25C-2.25038e-08 23.4679 0.297456 21.9508 0.875386 20.5354C1.45331 19.1199 2.3004 17.8338 3.36827 16.7504C4.43615 15.6671 5.7039 14.8077 7.09914 14.2214C8.49439 13.6351 9.9898 13.3333 11.5 13.3333C13.0102 13.3333 14.5056 13.6351 15.9009 14.2214C17.2961 14.8077 18.5639 15.6671 19.6317 16.7504C20.6996 17.8338 21.5467 19.1199 22.1246 20.5354C22.7025 21.9508 23 23.4679 23 25H0Z" fill="white" fill-opacity="0.6"/>
</svg>
