<svg width="13" height="15" viewBox="0 0 13 15" fill="none" xmlns="http://www.w3.org/2000/svg">
<path fill-rule="evenodd" clip-rule="evenodd" d="M0 0.937513C0 0.688869 0.0978313 0.450409 0.271972 0.274591C0.446113 0.0987733 0.682299 0 0.928571 0H12.0714C12.3177 0 12.5539 0.0987733 12.728 0.274591C12.9022 0.450409 13 0.688869 13 0.937513V3.75005C12.9999 3.99867 12.9021 4.23709 12.7279 4.41287L8.35714 8.82574V12.1877C8.35709 12.4363 8.25922 12.6747 8.08507 12.8505L6.22793 14.7255C6.09807 14.8566 5.93263 14.9458 5.75253 14.982C5.57243 15.0182 5.38576 14.9996 5.21611 14.9286C5.04646 14.8577 4.90145 14.7376 4.79941 14.5834C4.69738 14.4293 4.6429 14.2481 4.64286 14.0627V8.82574L0.272071 4.41287C0.0979184 4.23709 5.25919e-05 3.99867 0 3.75005V0.937513Z" fill="#23BCFA"/>
</svg>
