<svg width="36" height="38" viewBox="0 0 36 38" fill="none" xmlns="http://www.w3.org/2000/svg">
<path fill-rule="evenodd" clip-rule="evenodd" d="M0 7.6C0 5.58435 0.812753 3.65127 2.25946 2.22599C3.70617 0.800712 5.66833 0 7.71428 0H33.4286C33.9061 0 34.3742 0.13101 34.7804 0.378351C35.1867 0.625692 35.515 0.979591 35.7285 1.40039C35.9421 1.82119 36.0325 2.29227 35.9896 2.76084C35.9467 3.22941 35.7722 3.67696 35.4857 4.05333L28.9286 12.6667L35.4857 21.28C35.7722 21.6564 35.9467 22.1039 35.9896 22.5725C36.0325 23.0411 35.9421 23.5121 35.7285 23.9329C35.515 24.3537 35.1867 24.7076 34.7804 24.955C34.3742 25.2023 33.9061 25.3333 33.4286 25.3333H7.71428C7.0323 25.3333 6.37825 25.6002 5.89601 26.0753C5.41377 26.5504 5.14286 27.1948 5.14286 27.8667V35.4667C5.14286 36.1385 4.87194 36.7829 4.3897 37.258C3.90747 37.7331 3.25341 38 2.57143 38C1.88944 38 1.23539 37.7331 0.753154 37.258C0.270917 36.7829 0 36.1385 0 35.4667V7.6Z" fill="#23BCFA"/>
</svg>
