<svg width="130" height="130" viewBox="0 0 130 130" fill="none" xmlns="http://www.w3.org/2000/svg">
    <path d="M35.2415 117.655C22.6217 117.655 12.3914 107.424 12.3914 94.8046L12.3914 35.1956C12.3914 22.5759 22.6217 12.3455 35.2415 12.3455L94.8504 12.3455C107.47 12.3455 117.701 22.5759 117.701 35.1956V94.8046C117.701 107.424 107.47 117.655 94.8504 117.655H35.2415Z"
          fill="#23BCFA" fill-opacity="0.2"/>
    <path d="M22.629 108.146C10.4393 104.88 3.20535 92.3505 6.47159 80.1608L21.8995 22.5829C25.1658 10.3932 37.6953 3.15925 49.8851 6.42549L107.463 21.8534C119.653 25.1197 126.887 37.6492 123.62 49.839L108.192 107.417C104.926 119.607 92.3966 126.84 80.2069 123.574L22.629 108.146Z"
          fill="#23BCFA" fill-opacity="0.2"/>
    <path d="M49.8851 123.574C37.6953 126.84 25.1658 119.607 21.8995 107.417L6.47159 49.839C3.20535 37.6492 10.4393 25.1197 22.629 21.8534L80.2069 6.42549C92.3966 3.15925 104.926 10.3932 108.192 22.583L123.62 80.1608C126.887 92.3505 119.653 104.88 107.463 108.146L49.8851 123.574Z"
          fill="#23BCFA" fill-opacity="0.2"/>
    <path d="M6.69264 81.1575C-2.23088 72.2339 -2.23088 57.7661 6.69264 48.8425L48.8425 6.69264C57.7661 -2.23088 72.2339 -2.23088 81.1575 6.69264L123.307 48.8425C132.231 57.7661 132.231 72.2339 123.307 81.1575L81.1575 123.307C72.2339 132.231 57.7661 132.231 48.8425 123.307L6.69264 81.1575Z"
          fill="url(#paint0_diamond)"/>
    <path d="M7.04619 80.8039C-1.68206 72.0756 -1.68206 57.9244 7.04619 49.1961L49.1961 7.04619C57.9244 -1.68207 72.0757 -1.68206 80.8039 7.04619L122.954 49.1961C131.682 57.9244 131.682 72.0757 122.954 80.8039L80.8039 122.954C72.0756 131.682 57.9244 131.682 49.1961 122.954L7.04619 80.8039Z"
          stroke="url(#paint1_linear)" stroke-opacity="0.4"/>
    <defs>
        <radialGradient id="paint0_diamond" cx="0" cy="0" r="1" gradientUnits="userSpaceOnUse"
                        gradientTransform="translate(64.9994 65.0464) rotate(90) scale(96.8646)">
            <stop stop-color="#3FFFF7"/>
            <stop offset="1" stop-color="#23ADE6"/>
        </radialGradient>
        <linearGradient id="paint1_linear" x1="27.7672" y1="27.7677" x2="102.232" y2="102.233"
                        gradientUnits="userSpaceOnUse">
            <stop stop-color="white"/>
            <stop offset="1" stop-color="white" stop-opacity="0"/>
        </linearGradient>
        <linearGradient id="paint2_linear" x1="43.1893" y1="21.3332" x2="97.517" y2="101.573"
                        gradientUnits="userSpaceOnUse">
            <stop stop-color="#015D7B"/>
            <stop offset="0.5" stop-color="#052B43"/>
            <stop offset="1" stop-color="#4F3265"/>
        </linearGradient>
    </defs>
</svg>
