<svg width="21" height="20" viewBox="0 0 21 20" fill="none" xmlns="http://www.w3.org/2000/svg">
<path fill-rule="evenodd" clip-rule="evenodd" d="M21 1.24937C20.9999 1.03638 20.9426 0.826944 20.8336 0.640944C20.7247 0.454944 20.5676 0.298548 20.3774 0.186596C20.1871 0.074644 19.97 0.0108496 19.7466 0.00126614C19.5231 -0.00831734 19.3009 0.0366279 19.1008 0.131837L8.87644 4.9995H3.9375C2.89321 4.9995 1.89169 5.3946 1.15327 6.09789C0.414843 6.80117 0 7.75503 0 8.74963C0 9.74422 0.414843 10.6981 1.15327 11.4014C1.89169 12.1046 2.89321 12.4997 3.9375 12.4997H4.305L6.62944 19.145C6.71652 19.394 6.88369 19.6106 7.10725 19.764C7.33081 19.9175 7.59942 20.0001 7.875 20H9.1875C9.5356 20 9.86944 19.8683 10.1156 19.6339C10.3617 19.3994 10.5 19.0815 10.5 18.75V13.2723L19.1008 17.3674C19.3009 17.4626 19.5231 17.5076 19.7466 17.498C19.97 17.4884 20.1871 17.4246 20.3774 17.3127C20.5676 17.2007 20.7247 17.0443 20.8336 16.8583C20.9426 16.6723 20.9999 16.4629 21 16.2499V1.24937Z" fill="white" fill-opacity="0.6"/>
</svg>
