<svg width="22" height="20" viewBox="0 0 22 20" fill="none" xmlns="http://www.w3.org/2000/svg">
<path d="M1.50815 0.193359C1.10816 0.193359 0.724558 0.352253 0.441726 0.635085C0.265414 0.811396 0.137265 1.02687 0.0657467 1.26106L9.95376 7.85306L19.8418 1.26106C19.7703 1.02687 19.6421 0.811397 19.4658 0.635084C19.183 0.352252 18.7994 0.193359 18.3994 0.193359H1.50815Z" fill="#39D2D1"/>
<path d="M19.9075 3.3923L10.4557 9.69351C10.1517 9.89615 9.75577 9.89615 9.45182 9.69351L0 3.3923V13.7667C0 14.1666 0.158893 14.5502 0.441726 14.8331C0.724559 15.1159 1.10816 15.2748 1.50815 15.2748L11.6191 15.2748C11.7196 14.2843 12.5561 13.5113 13.5732 13.5113H16.0702L15.8038 13.245C15.0367 12.4779 15.0367 11.2342 15.8038 10.4671C16.5709 9.69998 17.8146 9.69998 18.5817 10.4671L19.9075 11.7929V3.3923Z" fill="#39D2D1"/>
<path d="M19.9075 13.2911L17.8326 11.2162C17.4792 10.8628 16.9063 10.8628 16.5529 11.2162C16.1995 11.5695 16.1995 12.1425 16.5529 12.4959L18.6277 14.5707H13.5732C13.1424 14.5707 12.782 14.8717 12.6907 15.2748L18.1799 15.2749C18.4657 15.2748 18.6637 15.2529 18.8461 15.1939C19.0233 15.1366 19.2365 15.0275 19.5147 14.7876C19.735 14.5977 19.8173 14.4297 19.8571 14.2967C19.9032 14.1425 19.9075 13.9905 19.9075 13.7667V13.2911Z" fill="#39D2D1"/>
<path fill-rule="evenodd" clip-rule="evenodd" d="M16.5529 11.2162C16.9063 10.8628 17.4792 10.8628 17.8326 11.2162L21.4522 14.8358C21.8055 15.1891 21.8055 15.7621 21.4522 16.1155L17.8326 19.735C17.4792 20.0884 16.9063 20.0884 16.5529 19.735C16.1995 19.3816 16.1995 18.8087 16.5529 18.4553L18.6277 16.3805H13.5732C13.0735 16.3805 12.6683 15.9754 12.6683 15.4756C12.6683 14.9759 13.0735 14.5707 13.5732 14.5707H18.6277L16.5529 12.4959C16.1995 12.1425 16.1995 11.5696 16.5529 11.2162Z" fill="white"/>
</svg>
