<svg width="16" height="16" viewBox="0 0 16 16" fill="none" xmlns="http://www.w3.org/2000/svg">
<path d="M10.0588 4.5V2.75C10.0588 2.28587 9.88531 1.84075 9.57643 1.51256C9.26754 1.18437 8.84861 1 8.41178 1H2.64706C2.21023 1 1.7913 1.18437 1.48241 1.51256C1.17353 1.84075 1 2.28587 1 2.75V13.25C1 13.7141 1.17353 14.1592 1.48241 14.4874C1.7913 14.8156 2.21023 15 2.64706 15H8.41178C8.84861 15 9.26754 14.8156 9.57643 14.4874C9.88531 14.1592 10.0588 13.7141 10.0588 13.25V11.5M15 8.00003H4.2941M4.2941 8.00003L6.76469 5.37503M4.2941 8.00003L6.76469 10.625" stroke="#FBFBFB" stroke-width="1.5" stroke-linecap="round" stroke-linejoin="round"/>
</svg>
