<svg width="24" height="24" viewBox="0 0 24 24" fill="none" xmlns="http://www.w3.org/2000/svg">
<path d="M6.50614 21.721C4.17634 21.721 2.28766 19.8323 2.28766 17.5025L2.28766 6.49778C2.28766 4.16798 4.17634 2.2793 6.50614 2.2793L17.5109 2.2793C19.8407 2.2793 21.7293 4.16797 21.7293 6.49778V17.5025C21.7293 19.8323 19.8407 21.721 17.5109 21.721H6.50614Z" fill="#23BCFA" fill-opacity="0.2"/>
<path d="M4.17739 19.9655C1.92697 19.3625 0.591474 17.0494 1.19447 14.799L4.04271 4.16921C4.6457 1.91879 6.95885 0.583295 9.20927 1.18629L19.839 4.03453C22.0894 4.63752 23.4249 6.95067 22.8219 9.20109L19.9737 19.8308C19.3707 22.0813 17.0576 23.4168 14.8071 22.8138L4.17739 19.9655Z" fill="#23BCFA" fill-opacity="0.2"/>
<path d="M9.20927 22.8138C6.95885 23.4168 4.6457 22.0813 4.04271 19.8308L1.19447 9.20109C0.591474 6.95067 1.92697 4.63752 4.17739 4.03453L14.8071 1.18629C17.0576 0.583295 19.3707 1.91879 19.9737 4.16921L22.8219 14.799C23.4249 17.0494 22.0894 19.3625 19.839 19.9655L9.20927 22.8138Z" fill="#23BCFA" fill-opacity="0.2"/>
<path d="M1.23556 14.9829C-0.411855 13.3355 -0.411855 10.6645 1.23556 9.01708L9.01708 1.23556C10.6645 -0.411855 13.3355 -0.411855 14.9829 1.23556L22.7644 9.01708C24.4119 10.6645 24.4119 13.3355 22.7644 14.9829L14.9829 22.7644C13.3355 24.4119 10.6645 24.4119 9.01708 22.7644L1.23556 14.9829Z" fill="url(#paint0_diamond_707:3780)"/>
<path d="M1.58912 14.6294C0.136961 13.1772 0.136961 10.8228 1.58912 9.37064L9.37064 1.58912C10.8228 0.136961 13.1772 0.136961 14.6294 1.58912L22.4109 9.37064C23.863 10.8228 23.863 13.1772 22.4109 14.6294L14.6294 22.4109C13.1772 23.863 10.8228 23.863 9.37064 22.4109L1.58912 14.6294Z" stroke="url(#paint1_linear_707:3780)" stroke-opacity="0.4"/>
<defs>
<radialGradient id="paint0_diamond_707:3780" cx="0" cy="0" r="1" gradientUnits="userSpaceOnUse" gradientTransform="translate(11.9999 12.0086) rotate(90) scale(17.8827)">
<stop stop-color="#2FCCFD"/>
<stop offset="1" stop-color="#2365E6"/>
</radialGradient>
<linearGradient id="paint1_linear_707:3780" x1="5.12624" y1="5.12634" x2="18.8736" y2="18.8737" gradientUnits="userSpaceOnUse">
<stop stop-color="white"/>
<stop offset="1" stop-color="white" stop-opacity="0"/>
</linearGradient>
</defs>
</svg>
