<svg width="15" height="15" viewBox="0 0 15 15" fill="none" xmlns="http://www.w3.org/2000/svg">
<path fill-rule="evenodd" clip-rule="evenodd" d="M15 7.5C15 9.48912 14.2098 11.3968 12.8033 12.8033C11.3968 14.2098 9.48912 15 7.5 15C5.51088 15 3.60322 14.2098 2.1967 12.8033C0.790176 11.3968 0 9.48912 0 7.5C0 5.51088 0.790176 3.60322 2.1967 2.1967C3.60322 0.790176 5.51088 0 7.5 0C9.48912 0 11.3968 0.790176 12.8033 2.1967C14.2098 3.60322 15 5.51088 15 7.5ZM7.5 4.6875C7.33528 4.68734 7.17342 4.73058 7.03073 4.81287C6.88804 4.89516 6.76955 5.0136 6.68719 5.15625C6.62772 5.26676 6.54667 5.3642 6.44884 5.44281C6.35101 5.52141 6.2384 5.57957 6.11767 5.61384C5.99695 5.64812 5.87057 5.6578 5.74604 5.64233C5.6215 5.62686 5.50134 5.58654 5.39267 5.52376C5.28401 5.46098 5.18905 5.37703 5.11344 5.27688C5.03782 5.17672 4.98308 5.06241 4.95246 4.9407C4.92185 4.819 4.91598 4.69239 4.9352 4.56838C4.95442 4.44436 4.99835 4.32547 5.06437 4.21875C5.37395 3.68261 5.85179 3.26359 6.42377 3.02668C6.99576 2.78978 7.62993 2.74822 8.22794 2.90846C8.82595 3.0687 9.35437 3.42178 9.73127 3.91294C10.1082 4.4041 10.3125 5.0059 10.3125 5.625C10.3127 6.20683 10.1324 6.7744 9.79665 7.24955C9.46086 7.7247 8.98601 8.08405 8.4375 8.27812V8.4375C8.4375 8.68614 8.33873 8.9246 8.16291 9.10041C7.9871 9.27623 7.74864 9.375 7.5 9.375C7.25136 9.375 7.0129 9.27623 6.83709 9.10041C6.66127 8.9246 6.5625 8.68614 6.5625 8.4375V7.5C6.5625 7.25136 6.66127 7.0129 6.83709 6.83709C7.0129 6.66127 7.25136 6.5625 7.5 6.5625C7.74864 6.5625 7.9871 6.46373 8.16291 6.28791C8.33873 6.1121 8.4375 5.87364 8.4375 5.625C8.4375 5.37636 8.33873 5.1379 8.16291 4.96209C7.9871 4.78627 7.74864 4.6875 7.5 4.6875ZM7.5 12.1875C7.74864 12.1875 7.9871 12.0887 8.16291 11.9129C8.33873 11.7371 8.4375 11.4986 8.4375 11.25C8.4375 11.0014 8.33873 10.7629 8.16291 10.5871C7.9871 10.4113 7.74864 10.3125 7.5 10.3125C7.25136 10.3125 7.0129 10.4113 6.83709 10.5871C6.66127 10.7629 6.5625 11.0014 6.5625 11.25C6.5625 11.4986 6.66127 11.7371 6.83709 11.9129C7.0129 12.0887 7.25136 12.1875 7.5 12.1875Z" fill="#23BCFA"/>
</svg>
