<svg width="20" height="17" viewBox="0 0 20 17" fill="none" xmlns="http://www.w3.org/2000/svg">
<path d="M7.5 7.28571C8.49456 7.28571 9.44839 6.90192 10.1517 6.21875C10.8549 5.53558 11.25 4.609 11.25 3.64286C11.25 2.67671 10.8549 1.75014 10.1517 1.06697C9.44839 0.3838 8.49456 0 7.5 0C6.50544 0 5.55161 0.3838 4.84835 1.06697C4.14509 1.75014 3.75 2.67671 3.75 3.64286C3.75 4.609 4.14509 5.53558 4.84835 6.21875C5.55161 6.90192 6.50544 7.28571 7.5 7.28571ZM7.5 9.71429C9.48912 9.71429 11.3968 10.4819 12.8033 11.8482C14.2098 13.2146 15 15.0677 15 17H0C0 15.0677 0.790176 13.2146 2.1967 11.8482C3.60322 10.4819 5.51088 9.71429 7.5 9.71429ZM17.5 4.85714C17.5 4.53509 17.3683 4.22624 17.1339 3.99851C16.8995 3.77079 16.5815 3.64286 16.25 3.64286C15.9185 3.64286 15.6005 3.77079 15.3661 3.99851C15.1317 4.22624 15 4.53509 15 4.85714V6.07143H13.75C13.4185 6.07143 13.1005 6.19936 12.8661 6.42708C12.6317 6.65481 12.5 6.96367 12.5 7.28571C12.5 7.60776 12.6317 7.91662 12.8661 8.14434C13.1005 8.37207 13.4185 8.5 13.75 8.5H15V9.71429C15 10.0363 15.1317 10.3452 15.3661 10.5729C15.6005 10.8006 15.9185 10.9286 16.25 10.9286C16.5815 10.9286 16.8995 10.8006 17.1339 10.5729C17.3683 10.3452 17.5 10.0363 17.5 9.71429V8.5H18.75C19.0815 8.5 19.3995 8.37207 19.6339 8.14434C19.8683 7.91662 20 7.60776 20 7.28571C20 6.96367 19.8683 6.65481 19.6339 6.42708C19.3995 6.19936 19.0815 6.07143 18.75 6.07143H17.5V4.85714Z" fill="#39D2D1"/>
</svg>
