<svg width="20" height="20" viewBox="0 0 20 20" fill="none" xmlns="http://www.w3.org/2000/svg">
<path d="M7.84297 0.00690378C6.08212 0.414969 4.46255 1.28655 3.15224 2.53125C1.84194 3.77594 0.888628 5.34842 0.391188 7.08557C-0.106252 8.82272 -0.129703 10.6613 0.323267 12.4105C0.776237 14.1598 1.68913 15.7561 2.96726 17.0338C4.24539 18.3115 5.8422 19.224 7.59207 19.6768C9.34194 20.1297 11.1811 20.1062 12.9189 19.6089C14.6566 19.1117 16.2297 18.1587 17.4748 16.8488C18.7199 15.539 19.5918 13.92 20 12.1597C20 11.8613 19.8814 11.5751 19.6703 11.3641C19.4592 11.153 19.1729 11.0345 18.8743 11.0345H14.5969C14.3922 11.821 13.9834 12.5396 13.4117 13.1174C12.84 13.6953 12.1257 14.1119 11.3412 14.3252C10.5566 14.5384 9.7297 14.5407 8.944 14.3318C8.15831 14.1229 7.44177 13.7102 6.86688 13.1355C6.292 12.5608 5.87918 11.8445 5.6702 11.0591C5.46122 10.2737 5.4635 9.447 5.67681 8.66274C5.89012 7.87848 6.30688 7.16447 6.88493 6.59297C7.46297 6.02146 8.18179 5.61274 8.96862 5.40817V0.907114C8.95463 0.773798 8.91431 0.644585 8.84999 0.526965C8.78567 0.409345 8.69864 0.30566 8.59393 0.221922C8.48922 0.138184 8.36892 0.0760587 8.24001 0.0391488C8.1111 0.00223884 7.97615 -0.00872131 7.84297 0.00690378Z" fill="#39D2D1"/>
<path d="M13.4712 0.344475C14.9005 0.847562 16.1986 1.66474 17.2701 2.73584C18.3416 3.80693 19.159 5.10465 19.6623 6.53342H14.5969C14.2518 6.1294 13.8754 5.75315 13.4712 5.40816V0.344475Z" fill="#39D2D1"/>
</svg>
