<svg width="36" height="36" viewBox="0 0 36 36" fill="none" xmlns="http://www.w3.org/2000/svg">
<rect width="36" height="36" rx="8" fill="#56B6B5" fill-opacity="0.1"/>
<path d="M15.843 8.0069C14.0821 8.41497 12.4625 9.28655 11.1522 10.5312C9.84194 11.7759 8.88863 13.3484 8.39119 15.0856C7.89375 16.8227 7.8703 18.6613 8.32327 20.4105C8.77624 22.1598 9.68913 23.7561 10.9673 25.0338C12.2454 26.3115 13.8422 27.224 15.5921 27.6768C17.3419 28.1297 19.1811 28.1062 20.9189 27.6089C22.6566 27.1117 24.2297 26.1587 25.4748 24.8488C26.7199 23.539 27.5918 21.92 28 20.1597C28 19.8613 27.8814 19.5751 27.6703 19.3641C27.4592 19.153 27.1729 19.0345 26.8743 19.0345H22.5969C22.3922 19.821 21.9834 20.5396 21.4117 21.1174C20.84 21.6953 20.1257 22.1119 19.3412 22.3252C18.5566 22.5384 17.7297 22.5407 16.944 22.3318C16.1583 22.1229 15.4418 21.7102 14.8669 21.1355C14.292 20.5608 13.8792 19.8445 13.6702 19.0591C13.4612 18.2737 13.4635 17.447 13.6768 16.6627C13.8901 15.8785 14.3069 15.1645 14.8849 14.593C15.463 14.0215 16.1818 13.6127 16.9686 13.4082V8.90711C16.9546 8.7738 16.9143 8.64458 16.85 8.52697C16.7857 8.40935 16.6986 8.30566 16.5939 8.22192C16.4892 8.13818 16.3689 8.07606 16.24 8.03915C16.1111 8.00224 15.9761 7.99128 15.843 8.0069Z" fill="#39D2D1"/>
<path d="M21.4712 8.34448C22.9005 8.84756 24.1986 9.66474 25.2701 10.7358C26.3416 11.8069 27.159 13.1047 27.6623 14.5334H22.5969C22.2518 14.1294 21.8754 13.7531 21.4712 13.4082V8.34448Z" fill="#39D2D1"/>
</svg>
