<svg width="36" height="36" viewBox="0 0 36 36" fill="none" xmlns="http://www.w3.org/2000/svg">
<rect width="36" height="36" rx="8" fill="#56B6B5" fill-opacity="0.1"/>
<path d="M15.1043 14.465C14.3585 13.7656 13.4083 13.2892 12.3738 13.0962C11.3393 12.9031 10.267 13.0021 9.29241 13.3805C8.31787 13.7589 7.48491 14.3997 6.89886 15.222C6.31281 16.0443 6 17.011 6 18C6 18.989 6.31281 19.9557 6.89886 20.778C7.48491 21.6003 8.31787 22.2411 9.29241 22.6195C10.267 22.9979 11.3393 23.0969 12.3738 22.9038C13.4083 22.7108 14.3585 22.2344 15.1043 21.535C16.2876 20.5288 17.2684 19.3315 18 18C18.7316 16.6685 19.7124 15.4712 20.8957 14.465C21.6415 13.7656 22.5917 13.2892 23.6262 13.0962C24.6607 12.9031 25.733 13.0021 26.7076 13.3805C27.6821 13.7589 28.5151 14.3997 29.1011 15.222C29.6872 16.0443 30 17.011 30 18C30 18.989 29.6872 19.9557 29.1011 20.778C28.5151 21.6003 27.6821 22.2411 26.7076 22.6195C25.733 22.9979 24.6607 23.0969 23.6262 22.9038C22.5917 22.7108 21.6415 22.2344 20.8957 21.535C19.7124 20.5288 18.7316 19.3315 18 18C17.2684 16.6685 16.2876 15.4712 15.1043 14.465Z" fill="#39D2D1"/>
</svg>
