<svg width="24" height="10" viewBox="0 0 24 10" fill="none" xmlns="http://www.w3.org/2000/svg">
<path d="M9.10428 1.465C8.35853 0.765588 7.40831 0.289235 6.3738 0.0961863C5.33929 -0.0968621 4.26695 0.00206623 3.29241 0.38046C2.31787 0.758853 1.48491 1.39972 0.898855 2.22199C0.312806 3.04427 0 4.01103 0 5C0 5.98897 0.312806 6.95573 0.898855 7.77801C1.48491 8.60028 2.31787 9.24115 3.29241 9.61954C4.26695 9.99793 5.33929 10.0969 6.3738 9.90381C7.40831 9.71077 8.35853 9.23441 9.10428 8.535C10.2876 7.52884 11.2684 6.33147 12 5C12.7316 3.66853 13.7124 2.47116 14.8957 1.465C15.6415 0.765588 16.5917 0.289235 17.6262 0.0961863C18.6607 -0.0968621 19.733 0.00206623 20.7076 0.38046C21.6821 0.758853 22.5151 1.39972 23.1011 2.22199C23.6872 3.04427 24 4.01103 24 5C24 5.98897 23.6872 6.95573 23.1011 7.77801C22.5151 8.60028 21.6821 9.24115 20.7076 9.61954C19.733 9.99793 18.6607 10.0969 17.6262 9.90381C16.5917 9.71077 15.6415 9.23441 14.8957 8.535C13.7124 7.52884 12.7316 6.33147 12 5C11.2684 3.66853 10.2876 2.47116 9.10428 1.465" fill="#39D2D1"/>
</svg>
