<svg width="41" height="41" viewBox="0 0 41 41" fill="none" xmlns="http://www.w3.org/2000/svg">
<path fill-rule="evenodd" clip-rule="evenodd" d="M41 20.5C41 25.9369 38.8402 31.1512 34.9957 34.9957C31.1512 38.8402 25.9369 41 20.5 41C15.0631 41 9.84881 38.8402 6.00431 34.9957C2.15982 31.1512 0 25.9369 0 20.5C0 15.0631 2.15982 9.84881 6.00431 6.00431C9.84881 2.15982 15.0631 0 20.5 0C25.9369 0 31.1512 2.15982 34.9957 6.00431C38.8402 9.84881 41 15.0631 41 20.5ZM23.0625 10.25C23.0625 10.9296 22.7925 11.5814 22.312 12.062C21.8314 12.5425 21.1796 12.8125 20.5 12.8125C19.8204 12.8125 19.1686 12.5425 18.688 12.062C18.2075 11.5814 17.9375 10.9296 17.9375 10.25C17.9375 9.57038 18.2075 8.9186 18.688 8.43804C19.1686 7.95748 19.8204 7.6875 20.5 7.6875C21.1796 7.6875 21.8314 7.95748 22.312 8.43804C22.7925 8.9186 23.0625 9.57038 23.0625 10.25ZM17.9375 17.9375C17.2579 17.9375 16.6061 18.2075 16.1255 18.688C15.645 19.1686 15.375 19.8204 15.375 20.5C15.375 21.1796 15.645 21.8314 16.1255 22.312C16.6061 22.7925 17.2579 23.0625 17.9375 23.0625V30.75C17.9375 31.4296 18.2075 32.0814 18.688 32.562C19.1686 33.0425 19.8204 33.3125 20.5 33.3125H23.0625C23.7421 33.3125 24.3939 33.0425 24.8745 32.562C25.355 32.0814 25.625 31.4296 25.625 30.75C25.625 30.0704 25.355 29.4186 24.8745 28.938C24.3939 28.4575 23.7421 28.1875 23.0625 28.1875V20.5C23.0625 19.8204 22.7925 19.1686 22.312 18.688C21.8314 18.2075 21.1796 17.9375 20.5 17.9375H17.9375Z" fill="url(#paint0_linear)"/>
<defs>
<linearGradient id="paint0_linear" x1="1.19713" y1="37.0339" x2="67.8338" y2="-1.19025" gradientUnits="userSpaceOnUse">
<stop stop-color="#00B8B0"/>
<stop offset="1" stop-color="#0795CF"/>
</linearGradient>
</defs>
</svg>
