<svg width="54" height="51" viewBox="0 0 54 51" fill="none" xmlns="http://www.w3.org/2000/svg">
<g filter="url(#filter0_d_2466:10556)">
<path fill-rule="evenodd" clip-rule="evenodd" d="M7.67992 4.68018C6.94792 4.68018 6.24591 4.97096 5.72831 5.48856C5.21071 6.00616 4.91992 6.70818 4.91992 7.44018C4.91992 8.17217 5.21071 8.87419 5.72831 9.39179C6.24591 9.90939 6.94792 10.2002 7.67992 10.2002V32.2802C7.67992 33.7442 8.26149 35.1482 9.29669 36.1834C10.3319 37.2186 11.7359 37.8002 13.1999 37.8002H20.3373L16.7686 41.3689C16.505 41.6235 16.2947 41.928 16.1501 42.2647C16.0054 42.6015 15.9293 42.9636 15.9261 43.3301C15.9229 43.6966 15.9928 44.06 16.1315 44.3992C16.2703 44.7384 16.4752 45.0466 16.7344 45.3057C16.9935 45.5648 17.3017 45.7698 17.6409 45.9086C17.9801 46.0473 18.3435 46.1172 18.71 46.114C19.0765 46.1108 19.4386 46.0347 19.7754 45.89C20.1121 45.7454 20.4166 45.5351 20.6712 45.2715L26.9999 38.9428L33.3286 45.2715C33.8491 45.7743 34.5463 46.0524 35.27 46.0462C35.9937 46.0399 36.6859 45.7496 37.1976 45.2379C37.7093 44.7261 37.9996 44.0339 38.0059 43.3102C38.0122 42.5866 37.734 41.8894 37.2312 41.3689L33.6626 37.8002H40.7999C42.2639 37.8002 43.6679 37.2186 44.7032 36.1834C45.7384 35.1482 46.3199 33.7442 46.3199 32.2802V10.2002C47.0519 10.2002 47.7539 9.90939 48.2715 9.39179C48.7891 8.87419 49.0799 8.17217 49.0799 7.44018C49.0799 6.70818 48.7891 6.00616 48.2715 5.48856C47.7539 4.97096 47.0519 4.68018 46.3199 4.68018H7.67992ZM38.0399 15.7202C38.0399 14.9882 37.7491 14.2862 37.2315 13.7686C36.7139 13.251 36.0119 12.9602 35.2799 12.9602C34.5479 12.9602 33.8459 13.251 33.3283 13.7686C32.8107 14.2862 32.5199 14.9882 32.5199 15.7202V26.7602C32.5199 27.4922 32.8107 28.1942 33.3283 28.7118C33.8459 29.2294 34.5479 29.5202 35.2799 29.5202C36.0119 29.5202 36.7139 29.2294 37.2315 28.7118C37.7491 28.1942 38.0399 27.4922 38.0399 26.7602V15.7202ZM29.7599 18.4802C29.7599 17.7482 29.4691 17.0462 28.9515 16.5286C28.4339 16.011 27.7319 15.7202 26.9999 15.7202C26.2679 15.7202 25.5659 16.011 25.0483 16.5286C24.5307 17.0462 24.2399 17.7482 24.2399 18.4802V26.7602C24.2399 27.4922 24.5307 28.1942 25.0483 28.7118C25.5659 29.2294 26.2679 29.5202 26.9999 29.5202C27.7319 29.5202 28.4339 29.2294 28.9515 28.7118C29.4691 28.1942 29.7599 27.4922 29.7599 26.7602V18.4802ZM21.4799 21.2402C21.4799 20.5082 21.1891 19.8062 20.6715 19.2886C20.1539 18.771 19.4519 18.4802 18.7199 18.4802C17.9879 18.4802 17.2859 18.771 16.7683 19.2886C16.2507 19.8062 15.9599 20.5082 15.9599 21.2402V26.7602C15.9599 27.4922 16.2507 28.1942 16.7683 28.7118C17.2859 29.2294 17.9879 29.5202 18.7199 29.5202C19.4519 29.5202 20.1539 29.2294 20.6715 28.7118C21.1891 28.1942 21.4799 27.4922 21.4799 26.7602V21.2402Z" fill="#23BCFA"/>
</g>
<defs>
<filter id="filter0_d_2466:10556" x="0.919922" y="0.680176" width="52.1602" height="49.4339" filterUnits="userSpaceOnUse" color-interpolation-filters="sRGB">
<feFlood flood-opacity="0" result="BackgroundImageFix"/>
<feColorMatrix in="SourceAlpha" type="matrix" values="0 0 0 0 0 0 0 0 0 0 0 0 0 0 0 0 0 0 127 0" result="hardAlpha"/>
<feMorphology radius="1" operator="dilate" in="SourceAlpha" result="effect1_dropShadow_2466:10556"/>
<feOffset/>
<feGaussianBlur stdDeviation="1.5"/>
<feColorMatrix type="matrix" values="0 0 0 0 0.137255 0 0 0 0 0.737255 0 0 0 0 0.980392 0 0 0 0.4 0"/>
<feBlend mode="normal" in2="BackgroundImageFix" result="effect1_dropShadow_2466:10556"/>
<feBlend mode="normal" in="SourceGraphic" in2="effect1_dropShadow_2466:10556" result="shape"/>
</filter>
</defs>
</svg>
