<svg width="4" height="20" viewBox="0 0 4 20" fill="none" xmlns="http://www.w3.org/2000/svg">
<path d="M2.08333 11.125C2.68164 11.125 3.16666 10.6213 3.16666 10C3.16666 9.37871 2.68164 8.87503 2.08333 8.87503C1.48502 8.87503 1 9.37871 1 10C1 10.6213 1.48502 11.125 2.08333 11.125Z" stroke="#FBFBFB" stroke-width="1.5" stroke-linecap="round" stroke-linejoin="round"/>
<path d="M2.08333 19C2.68164 19 3.16666 18.4963 3.16666 17.875C3.16666 17.2537 2.68164 16.75 2.08333 16.75C1.48502 16.75 1 17.2537 1 17.875C1 18.4963 1.48502 19 2.08333 19Z" stroke="#FBFBFB" stroke-width="1.5" stroke-linecap="round" stroke-linejoin="round"/>
<path d="M2.08333 3.25C2.68164 3.25 3.16666 2.74632 3.16666 2.125C3.16666 1.50368 2.68164 1 2.08333 1C1.48502 1 1 1.50368 1 2.125C1 2.74632 1.48502 3.25 2.08333 3.25Z" stroke="#FBFBFB" stroke-width="1.5" stroke-linecap="round" stroke-linejoin="round"/>
</svg>
