<svg width="100%" height="100%" viewBox="0 0 19 14" fill="none" xmlns="http://www.w3.org/2000/svg">
<path d="M9.50032 9C10.0284 9 10.5349 8.78928 10.9083 8.41421C11.2817 8.03914 11.4915 7.53043 11.4915 7C11.4915 6.46957 11.2817 5.96086 10.9083 5.58579C10.5349 5.21071 10.0284 5 9.50032 5C8.97222 5 8.46575 5.21071 8.09233 5.58579C7.71891 5.96086 7.50912 6.46957 7.50912 7C7.50912 7.53043 7.71891 8.03914 8.09233 8.41421C8.46575 8.78928 8.97222 9 9.50032 9Z" fill="#FBFBFB" fill-opacity="0.6"/>
<path fill-rule="evenodd" clip-rule="evenodd" d="M0 7C1.26839 2.943 5.04171 0 9.5 0C13.9583 0 17.7316 2.943 19 7C17.7316 11.057 13.9583 14 9.5 14C5.04171 14 1.26839 11.057 0 7ZM13.4824 7C13.4824 8.06087 13.0628 9.07828 12.316 9.82843C11.5691 10.5786 10.5562 11 9.5 11C8.4438 11 7.43087 10.5786 6.68402 9.82843C5.93718 9.07828 5.51761 8.06087 5.51761 7C5.51761 5.93913 5.93718 4.92172 6.68402 4.17157C7.43087 3.42143 8.4438 3 9.5 3C10.5562 3 11.5691 3.42143 12.316 4.17157C13.0628 4.92172 13.4824 5.93913 13.4824 7Z" fill="#FBFBFB" fill-opacity="0.6"/>
</svg>
