<svg width="100%" height="100%" viewBox="0 0 19 25" fill="none" xmlns="http://www.w3.org/2000/svg">
<path d="M7.91667 0C7.49674 0 7.09402 0.16462 6.79709 0.457646C6.50015 0.750671 6.33334 1.1481 6.33334 1.5625C6.33334 1.9769 6.50015 2.37433 6.79709 2.66735C7.09402 2.96038 7.49674 3.125 7.91667 3.125H11.0833C11.5033 3.125 11.906 2.96038 12.2029 2.66735C12.4999 2.37433 12.6667 1.9769 12.6667 1.5625C12.6667 1.1481 12.4999 0.750671 12.2029 0.457646C11.906 0.16462 11.5033 0 11.0833 0H7.91667Z" fill="url(#paint0_linear)"/>
<path fill-rule="evenodd" clip-rule="evenodd" d="M0 4.6875C0 3.85869 0.33363 3.06384 0.927495 2.47779C1.52136 1.89174 2.32681 1.5625 3.16667 1.5625C3.16667 2.8057 3.66711 3.99798 4.55791 4.87706C5.44871 5.75614 6.65689 6.25 7.91667 6.25H11.0833C12.3431 6.25 13.5513 5.75614 14.4421 4.87706C15.3329 3.99798 15.8333 2.8057 15.8333 1.5625C16.6732 1.5625 17.4786 1.89174 18.0725 2.47779C18.6664 3.06384 19 3.85869 19 4.6875V21.875C19 22.7038 18.6664 23.4987 18.0725 24.0847C17.4786 24.6708 16.6732 25 15.8333 25H3.16667C2.32681 25 1.52136 24.6708 0.927495 24.0847C0.33363 23.4987 0 22.7038 0 21.875V4.6875ZM4.75 10.9375C4.33007 10.9375 3.92735 11.1021 3.63041 11.3951C3.33348 11.6882 3.16667 12.0856 3.16667 12.5C3.16667 12.9144 3.33348 13.3118 3.63041 13.6049C3.92735 13.8979 4.33007 14.0625 4.75 14.0625H4.76583C5.18576 14.0625 5.58849 13.8979 5.88542 13.6049C6.18235 13.3118 6.34917 12.9144 6.34917 12.5C6.34917 12.0856 6.18235 11.6882 5.88542 11.3951C5.58849 11.1021 5.18576 10.9375 4.76583 10.9375H4.75ZM9.5 10.9375C9.08007 10.9375 8.67735 11.1021 8.38041 11.3951C8.08348 11.6882 7.91667 12.0856 7.91667 12.5C7.91667 12.9144 8.08348 13.3118 8.38041 13.6049C8.67735 13.8979 9.08007 14.0625 9.5 14.0625H14.25C14.6699 14.0625 15.0727 13.8979 15.3696 13.6049C15.6665 13.3118 15.8333 12.9144 15.8333 12.5C15.8333 12.0856 15.6665 11.6882 15.3696 11.3951C15.0727 11.1021 14.6699 10.9375 14.25 10.9375H9.5ZM4.75 17.1875C4.33007 17.1875 3.92735 17.3521 3.63041 17.6451C3.33348 17.9382 3.16667 18.3356 3.16667 18.75C3.16667 19.1644 3.33348 19.5618 3.63041 19.8549C3.92735 20.1479 4.33007 20.3125 4.75 20.3125H4.76583C5.18576 20.3125 5.58849 20.1479 5.88542 19.8549C6.18235 19.5618 6.34917 19.1644 6.34917 18.75C6.34917 18.3356 6.18235 17.9382 5.88542 17.6451C5.58849 17.3521 5.18576 17.1875 4.76583 17.1875H4.75ZM9.5 17.1875C9.08007 17.1875 8.67735 17.3521 8.38041 17.6451C8.08348 17.9382 7.91667 18.3356 7.91667 18.75C7.91667 19.1644 8.08348 19.5618 8.38041 19.8549C8.67735 20.1479 9.08007 20.3125 9.5 20.3125H14.25C14.6699 20.3125 15.0727 20.1479 15.3696 19.8549C15.6665 19.5618 15.8333 19.1644 15.8333 18.75C15.8333 18.3356 15.6665 17.9382 15.3696 17.6451C15.0727 17.3521 14.6699 17.1875 14.25 17.1875H9.5Z" fill="url(#paint1_linear)"/>
<defs>
<linearGradient id="paint0_linear" x1="0.55477" y1="22.5817" x2="35.0417" y2="7.54702" gradientUnits="userSpaceOnUse">
<stop stop-color="#00B8B0"/>
<stop offset="1" stop-color="#0795CF"/>
</linearGradient>
<linearGradient id="paint1_linear" x1="0.55477" y1="22.5817" x2="35.0417" y2="7.54702" gradientUnits="userSpaceOnUse">
<stop stop-color="#00B8B0"/>
<stop offset="1" stop-color="#0795CF"/>
</linearGradient>
</defs>
</svg>
