<svg width="20" height="23" viewBox="0 0 20 23" fill="none" xmlns="http://www.w3.org/2000/svg">
<path d="M10 0C7.72665 0 5.5464 0.908703 3.9389 2.5262C2.3314 4.14371 1.42831 6.33751 1.42831 8.625V13.7799L0.41828 14.7962C0.218546 14.9972 0.0825326 15.2533 0.0274344 15.5321C-0.0276638 15.811 0.000627092 16.0999 0.10873 16.3626C0.216834 16.6252 0.399896 16.8497 0.634774 17.0076C0.869653 17.1656 1.1458 17.2499 1.42831 17.25H18.5717C18.8542 17.2499 19.1303 17.1656 19.3652 17.0076C19.6001 16.8497 19.7832 16.6252 19.8913 16.3626C19.9994 16.0999 20.0277 15.811 19.9726 15.5321C19.9175 15.2533 19.7815 14.9972 19.5817 14.7962L18.5717 13.7799V8.625C18.5717 6.33751 17.6686 4.14371 16.0611 2.5262C14.4536 0.908703 12.2734 0 10 0ZM10 23C8.86332 23 7.7732 22.5456 6.96945 21.7369C6.1657 20.9281 5.71416 19.8312 5.71416 18.6875H14.2858C14.2858 19.8312 13.8343 20.9281 13.0306 21.7369C12.2268 22.5456 11.1367 23 10 23Z" fill="#39D2D1" fill-opacity="0.4"/>
</svg>
