<svg width="42" height="42" viewBox="0 0 42 42" fill="none" xmlns="http://www.w3.org/2000/svg">
<path d="M14.3062 18.6175C19.0006 18.6175 22.8062 14.8119 22.8062 10.1175C22.8062 5.42308 19.0006 1.61751 14.3062 1.61751C9.61173 1.61751 5.80615 5.42308 5.80615 10.1175C5.80615 14.8119 9.61173 18.6175 14.3062 18.6175Z" stroke="#23BCFA" stroke-width="3" stroke-linecap="round" stroke-linejoin="round"/>
<path d="M1.55615 39.8675V35.6175C1.55615 33.3632 2.45169 31.2012 4.04574 29.6071C5.6398 28.013 7.80181 27.1175 10.0562 27.1175H18.5562C20.8105 27.1175 22.9725 28.013 24.5666 29.6071C26.1606 31.2012 27.0562 33.3632 27.0562 35.6175V39.8675" stroke="#23BCFA" stroke-width="3" stroke-linecap="round" stroke-linejoin="round"/>
<path d="M29.1807 1.89367C31.009 2.36181 32.6296 3.42516 33.7869 4.91608C34.9441 6.407 35.5723 8.24068 35.5723 10.128C35.5723 12.0154 34.9441 13.8491 33.7869 15.34C32.6296 16.8309 31.009 17.8943 29.1807 18.3624" stroke="#23BCFA" stroke-width="3" stroke-linecap="round" stroke-linejoin="round"/>
<path d="M39.8062 39.8674V35.6174C39.7954 33.7414 39.1642 31.9216 38.0111 30.4418C36.858 28.9619 35.2477 27.9052 33.4312 27.4362" stroke="#23BCFA" stroke-width="3" stroke-linecap="round" stroke-linejoin="round"/>
</svg>
