<svg width="22" height="18" viewBox="0 0 22 18" fill="none" xmlns="http://www.w3.org/2000/svg">
<path fill-rule="evenodd" clip-rule="evenodd" d="M3.74544 0.316287C3.52802 0.111043 3.23682 -0.00252457 2.93456 4.25934e-05C2.6323 0.00260976 2.34317 0.121107 2.12943 0.330012C1.91569 0.538917 1.79445 0.821515 1.79182 1.11694C1.7892 1.41236 1.90539 1.69698 2.11538 1.90948L18.2546 17.6837C18.472 17.889 18.7632 18.0025 19.0654 18C19.3677 17.9974 19.6568 17.8789 19.8706 17.67C20.0843 17.4611 20.2056 17.1785 20.2082 16.8831C20.2108 16.5876 20.0946 16.303 19.8846 16.0905L18.1865 14.4308C19.9821 13.0316 21.3098 11.1407 22 9C20.5313 4.42885 16.1622 1.11288 11 1.11288C9.19291 1.11049 7.41077 1.5251 5.79857 2.32299L3.74544 0.316287ZM8.65751 5.11616L10.4029 6.82316C10.7938 6.72169 11.2051 6.72237 11.5956 6.8251C11.9862 6.92784 12.3423 7.12904 12.6283 7.40857C12.9142 7.68809 13.1201 8.03613 13.2252 8.41785C13.3303 8.79957 13.331 9.20158 13.2272 9.58364L14.9725 11.2895C15.4924 10.4287 15.7048 9.42342 15.5762 8.43176C15.4476 7.44011 14.9854 6.51837 14.2622 5.81155C13.539 5.10474 12.596 4.65295 11.5814 4.52727C10.5668 4.40159 9.53823 4.60802 8.65751 5.11616Z" fill="#FBFBFB" fill-opacity="0.4"/>
<path d="M13.829 16.5457L10.7118 13.4979C9.59092 13.4293 8.5342 12.9632 7.73995 12.1871C6.94571 11.411 6.46855 10.3783 6.39803 9.28281L2.1638 5.14433C1.18993 6.27783 0.454605 7.58811 0 9C1.46866 13.5711 5.83892 16.8871 11 16.8871C11.9764 16.8871 12.924 16.7688 13.829 16.5457Z" fill="#FBFBFB" fill-opacity="0.4"/>
</svg>
