<svg width="22" height="16" viewBox="0 0 22 16" fill="none" xmlns="http://www.w3.org/2000/svg">
<path d="M11 10.2857C11.6115 10.2857 12.1979 10.0449 12.6303 9.61624C13.0627 9.18759 13.3056 8.60621 13.3056 8C13.3056 7.39379 13.0627 6.81241 12.6303 6.38376C12.1979 5.9551 11.6115 5.71429 11 5.71429C10.3885 5.71429 9.80205 5.9551 9.36967 6.38376C8.93729 6.81241 8.69438 7.39379 8.69438 8C8.69438 8.60621 8.93729 9.18759 9.36967 9.61624C9.80205 10.0449 10.3885 10.2857 11 10.2857Z" fill="#23BCFA"/>
<path fill-rule="evenodd" clip-rule="evenodd" d="M0 8C1.46866 3.36343 5.83777 0 11 0C16.1622 0 20.5313 3.36343 22 8C20.5313 12.6366 16.1622 16 11 16C5.83777 16 1.46866 12.6366 0 8ZM15.6112 8C15.6112 9.21242 15.1254 10.3752 14.2606 11.2325C13.3958 12.0898 12.223 12.5714 11 12.5714C9.77703 12.5714 8.60416 12.0898 7.73939 11.2325C6.87463 10.3752 6.38881 9.21242 6.38881 8C6.38881 6.78758 6.87463 5.62482 7.73939 4.76751C8.60416 3.9102 9.77703 3.42857 11 3.42857C12.223 3.42857 13.3958 3.9102 14.2606 4.76751C15.1254 5.62482 15.6112 6.78758 15.6112 8Z" fill="#23BCFA"/>
</svg>
