<svg width="25" height="25" viewBox="0 0 25 25" fill="none" xmlns="http://www.w3.org/2000/svg">
<path fill-rule="evenodd" clip-rule="evenodd" d="M4.6875 4.69C4.68752 3.78523 4.94945 2.89981 5.44166 2.14061C5.93388 1.38141 6.63534 0.780882 7.46138 0.411522C8.28743 0.0421615 9.20273 -0.0802451 10.0968 0.0590774C10.9909 0.1984 11.8255 0.593496 12.5 1.19667C13.2756 0.50161 14.2607 0.0846294 15.2996 0.0115563C16.3386 -0.0615168 17.3723 0.21348 18.2376 0.793136C19.1029 1.37279 19.7505 2.22409 20.0781 3.21264C20.4057 4.20119 20.3947 5.27069 20.0469 6.25231H21.875C22.7038 6.25231 23.4987 6.58151 24.0847 7.16749C24.6708 7.75347 25 8.54822 25 9.37693C25 10.2056 24.6708 11.0004 24.0847 11.5864C23.4987 12.1723 22.7038 12.5015 21.875 12.5015H14.0625V10.9392C14.0625 10.5249 13.8979 10.1275 13.6049 9.83451C13.3118 9.54152 12.9144 9.37693 12.5 9.37693C12.0856 9.37693 11.6882 9.54152 11.3951 9.83451C11.1021 10.1275 10.9375 10.5249 10.9375 10.9392V12.5015H3.125C2.2962 12.5015 1.50134 12.1723 0.915291 11.5864C0.32924 11.0004 0 10.2056 0 9.37693C0 8.54822 0.32924 7.75347 0.915291 7.16749C1.50134 6.58151 2.2962 6.25231 3.125 6.25231H4.95312C4.78125 5.7633 4.6875 5.23681 4.6875 4.69ZM10.9375 6.25231V4.69C10.9375 4.381 10.8459 4.07895 10.6742 3.82202C10.5025 3.5651 10.2585 3.36486 9.97294 3.24661C9.68743 3.12836 9.37327 3.09743 9.07017 3.15771C8.76708 3.21799 8.48867 3.36679 8.27015 3.58528C8.05163 3.80377 7.90281 4.08215 7.84252 4.38521C7.78223 4.68826 7.81318 5.00239 7.93144 5.28787C8.0497 5.57334 8.24997 5.81734 8.50692 5.98901C8.76387 6.16068 9.06597 6.25231 9.375 6.25231H10.9375ZM15.625 6.25231C15.934 6.25231 16.2361 6.16068 16.4931 5.98901C16.75 5.81734 16.9503 5.57334 17.0686 5.28787C17.1868 5.00239 17.2178 4.68826 17.1575 4.38521C17.0972 4.08215 16.9484 3.80377 16.7299 3.58528C16.5113 3.36679 16.2329 3.21799 15.9298 3.15771C15.6267 3.09743 15.3126 3.12836 15.0271 3.24661C14.7415 3.36486 14.4975 3.5651 14.3258 3.82202C14.1541 4.07895 14.0625 4.381 14.0625 4.69V6.25231H15.625Z" fill="url(#paint0_linear)"/>
<path d="M10.9375 14.0638H1.5625V21.8754C1.5625 22.7041 1.89174 23.4988 2.47779 24.0848C3.06384 24.6708 3.8587 25 4.6875 25H10.9375V14.0638ZM14.0625 25H20.3125C21.1413 25 21.9362 24.6708 22.5222 24.0848C23.1083 23.4988 23.4375 22.7041 23.4375 21.8754V14.0638H14.0625V25Z" fill="url(#paint1_linear)"/>
<defs>
<linearGradient id="paint0_linear" x1="0.72996" y1="22.5817" x2="41.362" y2="-0.725761" gradientUnits="userSpaceOnUse">
<stop stop-color="#00B8B0"/>
<stop offset="1" stop-color="#0795CF"/>
</linearGradient>
<linearGradient id="paint1_linear" x1="0.72996" y1="22.5817" x2="41.362" y2="-0.725761" gradientUnits="userSpaceOnUse">
<stop stop-color="#00B8B0"/>
<stop offset="1" stop-color="#0795CF"/>
</linearGradient>
</defs>
</svg>
