<svg width="100%" height="100%" viewBox="0 0 20 20" fill="none" xmlns="http://www.w3.org/2000/svg">
<path d="M10 19.5C15.2467 19.5 19.5 15.2467 19.5 10C19.5 4.7533 15.2467 0.5 10 0.5C4.7533 0.5 0.5 4.7533 0.5 10C0.5 15.2467 4.7533 19.5 10 19.5Z" fill="url(#paint0_linear)" stroke="url(#paint1_linear)"/>
<path fill-rule="evenodd" clip-rule="evenodd" d="M10.7924 12.1159L12.4366 14.5H15.1429L12.701 10.9872C13.4165 10.675 13.966 10.2274 14.3497 9.64456C14.7437 9.05129 14.9407 8.34874 14.9407 7.5369C14.9407 6.72507 14.7488 6.02252 14.3652 5.42925C13.9816 4.83599 13.432 4.37803 12.7166 4.05537C12.2818 3.85641 11.7977 3.71879 11.2644 3.64252L11.273 5.82498C11.4744 5.90335 11.6497 6.00563 11.799 6.1318C12.193 6.45446 12.39 6.92282 12.39 7.5369C12.39 8.14058 12.193 8.60894 11.799 8.94201C11.6503 9.06771 11.4757 9.16968 11.2753 9.24794C11.3267 10.1603 11.1881 11.0779 10.8649 11.9328C10.8416 11.9943 10.8174 12.0553 10.7924 12.1159ZM10.6296 5.66643L10.6213 3.58144C10.4933 3.57502 10.3628 3.57168 10.2298 3.57141H5.50004V9.11577H7.47521L7.46615 6.92254C7.67381 7.09601 7.85941 7.29562 8.01959 7.51606V5.63221H10.0726C10.2707 5.63221 10.4563 5.64362 10.6296 5.66643ZM8.68942 9.4416H10.0726C10.2743 9.4416 10.4631 9.42977 10.6391 9.40611C10.6641 10.1058 10.5656 10.8064 10.3469 11.4699L10.337 11.4556H8.19983C8.33428 11.2274 8.44389 10.9815 8.52547 10.7225C8.65597 10.3084 8.71075 9.8735 8.68942 9.4416ZM8.01959 11.7306C7.83636 11.9827 7.62008 12.2073 7.37606 12.3966C6.84068 12.8119 6.15944 13.2117 5.50004 13.2143L5.5 13.2042V13.2143H5.50004V14.5H7.9159C7.9507 14.4804 7.98526 14.4604 8.01959 14.4399V11.7306ZM5.5 12.5714C5.93234 12.5687 6.46609 12.2889 6.98204 11.8887C7.40951 11.5571 7.73768 11.0837 7.91233 10.5294C7.99112 10.2793 8.03641 10.0197 8.04803 9.75863H5.5V12.5714Z" fill="#FBFBFB"/>
<path d="M5.5 15.1428C6.51326 15.1376 7.54902 14.8082 8.38866 14.1963C9.22831 13.5844 9.8808 12.7175 10.2635 11.7054C10.6463 10.6932 10.742 9.58133 10.5387 8.51043C10.3354 7.43953 9.84214 6.45778 9.12137 5.68946L10.6296 5.68269L10.6212 3.57141H5.5V4.09622V5.66202V6.14284V9.11577H7.47517L7.46611 6.92254C7.98748 7.35807 8.36981 7.95834 8.55971 8.63958C8.74962 9.32081 8.73764 10.049 8.52543 10.7225C8.31323 11.3961 7.9114 11.9813 7.37602 12.3966C6.84064 12.8119 6.1594 13.2117 5.5 13.2143" fill="#23BCFA"/>
<defs>
<linearGradient id="paint0_linear" x1="1" y1="1" x2="8.31783" y2="22.6163" gradientUnits="userSpaceOnUse">
<stop stop-color="#015D7B"/>
<stop offset="0.5" stop-color="#052B43"/>
<stop offset="1" stop-color="#4F3265"/>
</linearGradient>
<linearGradient id="paint1_linear" x1="10" y1="1" x2="10" y2="17.0714" gradientUnits="userSpaceOnUse">
<stop stop-color="white" stop-opacity="0.36"/>
<stop offset="1" stop-color="white" stop-opacity="0"/>
</linearGradient>
</defs>
</svg>
