<svg width="312" height="21" viewBox="0 0 312 21" fill="none" xmlns="http://www.w3.org/2000/svg">
<rect x="290" width="22" height="21" rx="5" fill="url(#paint0_linear)"/>
<path d="M298.251 6.6V15H297.387V7.368H295.407V6.6H298.251ZM306.187 6.6V7.212L302.671 15H301.735L305.191 7.368H300.871V8.94H300.019V6.6H306.187Z" fill="#FBFBFB"/>
<path d="M66.6098 10.596C67.1378 10.772 67.5418 11.036 67.8218 11.388C68.1098 11.74 68.2538 12.164 68.2538 12.66C68.2538 13.148 68.1218 13.576 67.8578 13.944C67.5938 14.304 67.2138 14.584 66.7178 14.784C66.2298 14.976 65.6538 15.072 64.9898 15.072C63.9818 15.072 63.1898 14.856 62.6138 14.424C62.0378 13.992 61.7498 13.404 61.7498 12.66C61.7498 12.156 61.8858 11.732 62.1578 11.388C62.4378 11.036 62.8418 10.772 63.3698 10.596C62.9378 10.428 62.6098 10.188 62.3858 9.876C62.1618 9.556 62.0498 9.18 62.0498 8.748C62.0498 8.068 62.3138 7.528 62.8418 7.128C63.3778 6.728 64.0938 6.528 64.9898 6.528C65.5818 6.528 66.0978 6.62 66.5378 6.804C66.9858 6.98 67.3338 7.236 67.5818 7.572C67.8298 7.908 67.9538 8.3 67.9538 8.748C67.9538 9.18 67.8378 9.556 67.6058 9.876C67.3738 10.188 67.0418 10.428 66.6098 10.596ZM62.9138 8.772C62.9138 9.236 63.0978 9.604 63.4658 9.876C63.8338 10.148 64.3418 10.284 64.9898 10.284C65.6378 10.284 66.1458 10.148 66.5138 9.876C66.8898 9.604 67.0778 9.24 67.0778 8.784C67.0778 8.312 66.8858 7.94 66.5018 7.668C66.1258 7.396 65.6218 7.26 64.9898 7.26C64.3498 7.26 63.8418 7.396 63.4658 7.668C63.0978 7.94 62.9138 8.308 62.9138 8.772ZM64.9898 14.34C65.7338 14.34 66.3138 14.188 66.7298 13.884C67.1538 13.58 67.3658 13.168 67.3658 12.648C67.3658 12.128 67.1538 11.72 66.7298 11.424C66.3138 11.12 65.7338 10.968 64.9898 10.968C64.2538 10.968 63.6738 11.12 63.2498 11.424C62.8338 11.72 62.6258 12.128 62.6258 12.648C62.6258 13.176 62.8338 13.592 63.2498 13.896C63.6658 14.192 64.2458 14.34 64.9898 14.34Z" fill="#FBFBFB" fill-opacity="0.6"/>
<path d="M45.0188 6.6V7.212L41.5028 15H40.5668L44.0228 7.368H39.7028V8.94H38.8508V6.6H45.0188Z" fill="#FBFBFB" fill-opacity="0.6"/>
<path d="M19.4478 9.972C19.9998 9.972 20.4878 10.076 20.9118 10.284C21.3438 10.492 21.6798 10.788 21.9198 11.172C22.1598 11.548 22.2798 11.988 22.2798 12.492C22.2798 13.004 22.1558 13.456 21.9078 13.848C21.6598 14.24 21.3158 14.544 20.8758 14.76C20.4438 14.968 19.9558 15.072 19.4118 15.072C18.2998 15.072 17.4478 14.708 16.8558 13.98C16.2638 13.244 15.9678 12.208 15.9678 10.872C15.9678 9.936 16.1278 9.144 16.4478 8.496C16.7678 7.848 17.2158 7.36 17.7918 7.032C18.3678 6.696 19.0398 6.528 19.8078 6.528C20.6398 6.528 21.3038 6.68 21.7998 6.984L21.4518 7.68C21.0518 7.416 20.5078 7.284 19.8198 7.284C18.8918 7.284 18.1638 7.58 17.6358 8.172C17.1078 8.756 16.8438 9.608 16.8438 10.728C16.8438 10.928 16.8558 11.156 16.8798 11.412C17.0878 10.956 17.4198 10.604 17.8758 10.356C18.3318 10.1 18.8558 9.972 19.4478 9.972ZM19.3758 14.34C19.9838 14.34 20.4758 14.176 20.8518 13.848C21.2358 13.512 21.4278 13.068 21.4278 12.516C21.4278 11.964 21.2358 11.524 20.8518 11.196C20.4758 10.868 19.9638 10.704 19.3158 10.704C18.8918 10.704 18.5158 10.784 18.1878 10.944C17.8678 11.104 17.6158 11.324 17.4318 11.604C17.2478 11.884 17.1558 12.196 17.1558 12.54C17.1558 12.86 17.2398 13.156 17.4078 13.428C17.5838 13.7 17.8398 13.92 18.1758 14.088C18.5118 14.256 18.9118 14.34 19.3758 14.34Z" fill="#FBFBFB" fill-opacity="0.6"/>
<path d="M87.5838 6.528C88.6958 6.528 89.5478 6.896 90.1398 7.632C90.7318 8.36 91.0278 9.392 91.0278 10.728C91.0278 11.664 90.8678 12.456 90.5478 13.104C90.2278 13.752 89.7798 14.244 89.2038 14.58C88.6278 14.908 87.9558 15.072 87.1878 15.072C86.3558 15.072 85.6918 14.92 85.1958 14.616L85.5438 13.92C85.9438 14.184 86.4878 14.316 87.1758 14.316C88.1038 14.316 88.8318 14.024 89.3598 13.44C89.8878 12.848 90.1518 11.992 90.1518 10.872C90.1518 10.664 90.1398 10.436 90.1158 10.188C89.9078 10.644 89.5758 11 89.1198 11.256C88.6638 11.504 88.1398 11.628 87.5478 11.628C86.9958 11.628 86.5038 11.524 86.0718 11.316C85.6478 11.108 85.3158 10.816 85.0758 10.44C84.8358 10.056 84.7158 9.612 84.7158 9.108C84.7158 8.596 84.8398 8.144 85.0878 7.752C85.3358 7.36 85.6758 7.06 86.1077 6.852C86.5478 6.636 87.0398 6.528 87.5838 6.528ZM87.6798 10.896C88.1038 10.896 88.4758 10.816 88.7958 10.656C89.1238 10.496 89.3798 10.276 89.5638 9.996C89.7478 9.716 89.8398 9.404 89.8398 9.06C89.8398 8.74 89.7518 8.444 89.5758 8.172C89.4078 7.9 89.1558 7.68 88.8198 7.512C88.4838 7.344 88.0838 7.26 87.6198 7.26C87.0118 7.26 86.5158 7.428 86.1318 7.764C85.7558 8.092 85.5678 8.532 85.5678 9.084C85.5678 9.636 85.7558 10.076 86.1318 10.404C86.5158 10.732 87.0318 10.896 87.6798 10.896Z" fill="#FBFBFB" fill-opacity="0.6"/>
<path d="M110.311 6.6V15H109.447V7.368H107.467V6.6H110.311ZM115.667 15.072C115.019 15.072 114.439 14.9 113.927 14.556C113.423 14.212 113.027 13.72 112.739 13.08C112.459 12.432 112.319 11.672 112.319 10.8C112.319 9.928 112.459 9.172 112.739 8.532C113.027 7.884 113.423 7.388 113.927 7.044C114.439 6.7 115.019 6.528 115.667 6.528C116.315 6.528 116.891 6.7 117.395 7.044C117.907 7.388 118.307 7.884 118.595 8.532C118.883 9.172 119.027 9.928 119.027 10.8C119.027 11.672 118.883 12.432 118.595 13.08C118.307 13.72 117.907 14.212 117.395 14.556C116.891 14.9 116.315 15.072 115.667 15.072ZM115.667 14.28C116.155 14.28 116.583 14.144 116.951 13.872C117.327 13.6 117.619 13.204 117.827 12.684C118.035 12.164 118.139 11.536 118.139 10.8C118.139 10.064 118.035 9.436 117.827 8.916C117.619 8.396 117.327 8 116.951 7.728C116.583 7.456 116.155 7.32 115.667 7.32C115.179 7.32 114.747 7.456 114.371 7.728C114.003 8 113.715 8.396 113.507 8.916C113.299 9.436 113.195 10.064 113.195 10.8C113.195 11.536 113.299 12.164 113.507 12.684C113.715 13.204 114.003 13.6 114.371 13.872C114.747 14.144 115.179 14.28 115.667 14.28Z" fill="#FBFBFB" fill-opacity="0.6"/>
<path d="M138.116 6.6V15H137.252V7.368H135.272V6.6H138.116ZM142.452 6.6V15H141.588V7.368H139.608V6.6H142.452Z" fill="#FBFBFB"/>
<path d="M162.374 6.6V15H161.51V7.368H159.53V6.6H162.374ZM170.118 14.232V15H164.226V14.388L167.718 10.968C168.158 10.536 168.454 10.164 168.606 9.852C168.766 9.532 168.846 9.212 168.846 8.892C168.846 8.396 168.674 8.012 168.33 7.74C167.994 7.46 167.51 7.32 166.878 7.32C165.894 7.32 165.13 7.632 164.586 8.256L163.974 7.728C164.302 7.344 164.718 7.048 165.222 6.84C165.734 6.632 166.31 6.528 166.95 6.528C167.806 6.528 168.482 6.732 168.978 7.14C169.482 7.54 169.734 8.092 169.734 8.796C169.734 9.228 169.638 9.644 169.446 10.044C169.254 10.444 168.89 10.904 168.354 11.424L165.498 14.232H170.118Z" fill="#FBFBFB" fill-opacity="0.6"/>
<path d="M189.397 6.6V15H188.533V7.368H186.553V6.6H189.397ZM194.261 10.2C195.141 10.248 195.809 10.488 196.265 10.92C196.729 11.344 196.961 11.9 196.961 12.588C196.961 13.068 196.845 13.496 196.613 13.872C196.381 14.24 196.037 14.532 195.581 14.748C195.125 14.964 194.569 15.072 193.913 15.072C193.305 15.072 192.729 14.976 192.185 14.784C191.649 14.584 191.217 14.32 190.889 13.992L191.309 13.308C191.589 13.596 191.961 13.832 192.425 14.016C192.889 14.192 193.385 14.28 193.913 14.28C194.601 14.28 195.133 14.132 195.509 13.836C195.885 13.532 196.073 13.116 196.073 12.588C196.073 12.068 195.885 11.66 195.509 11.364C195.133 11.068 194.565 10.92 193.805 10.92H193.205V10.284L195.533 7.368H191.237V6.6H196.637V7.212L194.261 10.2Z" fill="#FBFBFB" fill-opacity="0.6"/>
<path d="M216.317 6.6V15H215.453V7.368H213.473V6.6H216.317ZM225.465 12.792H223.785V15H222.921V12.792H218.181V12.168L222.633 6.6H223.593L219.297 12.024H222.945V10.08H223.785V12.024H225.465V12.792Z" fill="#FBFBFB" fill-opacity="0.6"/>
<path d="M244.386 6.6V15H243.522V7.368H241.542V6.6H244.386ZM248.602 10.044C249.818 10.044 250.702 10.264 251.254 10.704C251.814 11.136 252.094 11.744 252.094 12.528C252.094 13.016 251.978 13.452 251.746 13.836C251.522 14.22 251.182 14.524 250.726 14.748C250.27 14.964 249.71 15.072 249.046 15.072C248.446 15.072 247.874 14.976 247.33 14.784C246.794 14.584 246.362 14.32 246.034 13.992L246.454 13.308C246.734 13.596 247.102 13.832 247.558 14.016C248.014 14.192 248.506 14.28 249.034 14.28C249.73 14.28 250.266 14.124 250.642 13.812C251.026 13.5 251.218 13.084 251.218 12.564C251.218 11.988 251.002 11.552 250.57 11.256C250.146 10.96 249.426 10.812 248.41 10.812H246.622L247.054 6.6H251.65V7.368H247.81L247.522 10.044H248.602Z" fill="#FBFBFB" fill-opacity="0.6"/>
<path d="M271.128 6.6V15H270.264V7.368H268.284V6.6H271.128ZM276.616 9.972C277.168 9.972 277.656 10.076 278.08 10.284C278.512 10.492 278.848 10.788 279.088 11.172C279.328 11.548 279.448 11.988 279.448 12.492C279.448 13.004 279.324 13.456 279.076 13.848C278.828 14.24 278.484 14.544 278.044 14.76C277.612 14.968 277.124 15.072 276.58 15.072C275.468 15.072 274.616 14.708 274.024 13.98C273.432 13.244 273.136 12.208 273.136 10.872C273.136 9.936 273.296 9.144 273.616 8.496C273.936 7.848 274.384 7.36 274.96 7.032C275.536 6.696 276.208 6.528 276.976 6.528C277.808 6.528 278.472 6.68 278.968 6.984L278.62 7.68C278.22 7.416 277.676 7.284 276.988 7.284C276.06 7.284 275.332 7.58 274.804 8.172C274.276 8.756 274.012 9.608 274.012 10.728C274.012 10.928 274.024 11.156 274.048 11.412C274.256 10.956 274.588 10.604 275.044 10.356C275.5 10.1 276.024 9.972 276.616 9.972ZM276.544 14.34C277.152 14.34 277.644 14.176 278.02 13.848C278.404 13.512 278.596 13.068 278.596 12.516C278.596 11.964 278.404 11.524 278.02 11.196C277.644 10.868 277.132 10.704 276.484 10.704C276.06 10.704 275.684 10.784 275.356 10.944C275.036 11.104 274.784 11.324 274.6 11.604C274.416 11.884 274.324 12.196 274.324 12.54C274.324 12.86 274.408 13.156 274.576 13.428C274.752 13.7 275.008 13.92 275.344 14.088C275.68 14.256 276.08 14.34 276.544 14.34Z" fill="#FBFBFB" fill-opacity="0.6"/>
<rect y="1" width="57" height="19" fill="url(#paint1_linear)"/>
<defs>
<linearGradient id="paint0_linear" x1="290.642" y1="18.9686" x2="325.556" y2="-2.01215" gradientUnits="userSpaceOnUse">
<stop stop-color="#00B8B0"/>
<stop offset="1" stop-color="#0795CF"/>
</linearGradient>
<linearGradient id="paint1_linear" x1="0" y1="11.0278" x2="57" y2="11.0278" gradientUnits="userSpaceOnUse">
<stop stop-color="#0C4349"/>
<stop offset="1" stop-color="#10434B" stop-opacity="0"/>
</linearGradient>
</defs>
</svg>
