<svg width="322" height="104" viewBox="0 0 322 104" fill="none" xmlns="http://www.w3.org/2000/svg">
<path d="M27.145 46.4408C9.46951 46.4408 11.3107 103 1 103H321V46.4408C312.162 46.4408 304.429 56.109 293.75 56.109C283.071 56.109 275.338 1 266.501 1C257.663 1 251.771 30.0047 240.356 30.0047C228.94 30.0047 220.471 13.0853 213.474 13.0853C206.478 13.0853 195.062 32.4218 186.593 32.4218C178.123 32.4218 170.39 51.7583 160.079 51.7583C149.769 51.7583 144.982 32.4218 134.303 32.4218C123.624 32.4218 119.573 9.21801 106.685 9.21801C93.7963 9.21801 90.1139 32.4218 79.8032 32.4218C69.4925 32.4218 63.2325 61.91 54.0265 61.91C44.8205 61.91 44.8205 46.4408 27.145 46.4408Z" fill="url(#paint0_linear)"/>
<path d="M1 103C11.3107 103 9.46951 46.4408 27.145 46.4408C44.8205 46.4408 44.8205 61.91 54.0265 61.91C63.2324 61.91 69.4925 32.4218 79.8032 32.4218C90.1139 32.4218 93.7963 9.21801 106.685 9.21801C119.573 9.21801 123.624 32.4218 134.303 32.4218C144.982 32.4218 149.769 51.7583 160.079 51.7583C170.39 51.7583 178.123 32.4218 186.593 32.4218C195.062 32.4218 206.478 13.0853 213.474 13.0853C220.471 13.0853 228.94 30.0047 240.356 30.0047C251.771 30.0047 257.663 1 266.501 1C275.338 1 283.071 56.109 293.75 56.109C304.429 56.109 312.162 46.4408 321 46.4408" stroke="url(#paint1_linear)" stroke-width="2" stroke-linecap="round" stroke-linejoin="round"/>
<defs>
<linearGradient id="paint0_linear" x1="137.617" y1="103" x2="137.878" y2="1.30974" gradientUnits="userSpaceOnUse">
<stop stop-color="#57B6B2" stop-opacity="0"/>
<stop offset="1" stop-color="#3CB4E5" stop-opacity="0.25"/>
</linearGradient>
<linearGradient id="paint1_linear" x1="310.078" y1="-10.6373" x2="-36.3031" y2="43.3357" gradientUnits="userSpaceOnUse">
<stop stop-color="#70DCF0"/>
<stop offset="1" stop-color="#3CB4E5" stop-opacity="0"/>
</linearGradient>
</defs>
</svg>
