<svg width="772" height="470" viewBox="0 0 772 470" fill="none" xmlns="http://www.w3.org/2000/svg">
<g clip-path="url(#clip0)">
<path d="M38.3339 429.636C37.2408 429.636 36.1478 429.636 35.1329 429.558C34.7425 429.558 34.5083 429.246 34.5083 428.855C34.5083 428.465 34.8206 428.231 35.2109 428.231C36.2259 428.231 37.3189 428.309 38.3339 428.309C42.3156 428.309 46.4535 428.075 50.5913 427.528C50.9817 427.45 51.294 427.762 51.294 428.075C51.3721 428.465 51.0598 428.777 50.7475 428.777C46.5315 429.324 42.3937 429.636 38.3339 429.636ZM19.7525 427.684C19.6744 427.684 19.6744 427.684 19.5963 427.684C14.4435 426.513 9.44683 424.874 4.76244 422.844C4.45015 422.688 4.29401 422.297 4.45015 421.985C4.6063 421.673 4.99666 421.517 5.30896 421.673C9.91527 423.703 14.8339 425.342 19.9086 426.435C20.2209 426.513 20.4551 426.826 20.3771 427.216C20.3771 427.45 20.0648 427.684 19.7525 427.684ZM65.8937 425.889C65.5814 425.889 65.3472 425.732 65.2691 425.42C65.191 425.108 65.3472 424.718 65.7375 424.639C70.5781 423.39 75.5747 421.751 80.4153 419.877C80.7276 419.721 81.1179 419.877 81.2741 420.267C81.4302 420.658 81.2741 420.97 80.8837 421.126C75.9651 423.078 70.9684 424.639 66.0498 425.967C65.9717 425.889 65.9717 425.889 65.8937 425.889ZM-8.35383 415.036C-8.50998 415.036 -8.58805 414.958 -8.7442 414.88C-12.8821 411.914 -16.7857 408.4 -20.3771 404.497C-20.6113 404.262 -20.6113 403.794 -20.3771 403.56C-20.1429 403.326 -19.6744 403.326 -19.4402 403.56C-15.8488 407.385 -12.0233 410.82 -7.96347 413.787C-7.65118 414.022 -7.5731 414.412 -7.80732 414.724C-7.96347 414.958 -8.11961 415.036 -8.35383 415.036ZM94.7807 414.724C94.5465 414.724 94.3123 414.568 94.2342 414.412C94.078 414.1 94.1561 413.709 94.5465 413.553C99.1528 411.211 103.603 408.556 107.897 405.746C108.209 405.512 108.6 405.668 108.756 405.902C108.99 406.214 108.834 406.605 108.6 406.761C104.306 409.571 99.7774 412.226 95.1711 414.646C94.9369 414.646 94.8588 414.724 94.7807 414.724ZM120.623 397.626C120.467 397.626 120.233 397.548 120.154 397.392C119.92 397.08 119.998 396.689 120.233 396.455C122.497 394.581 124.605 392.629 126.635 390.756C128.196 389.272 129.836 387.633 131.475 385.915C131.709 385.681 132.1 385.681 132.412 385.915C132.646 386.149 132.646 386.54 132.412 386.852C130.694 388.57 129.055 390.209 127.493 391.693C125.463 393.644 123.277 395.596 121.013 397.47C120.935 397.548 120.779 397.626 120.623 397.626ZM142.561 375.688C142.405 375.688 142.249 375.61 142.093 375.531C141.859 375.297 141.781 374.907 142.015 374.595C145.606 370.613 149.198 366.475 152.321 362.962C152.555 362.727 152.945 362.649 153.257 362.884C153.492 363.118 153.57 363.508 153.336 363.82C150.291 367.334 146.621 371.472 143.03 375.453C142.874 375.609 142.718 375.688 142.561 375.688ZM163.017 352.344C162.86 352.344 162.704 352.266 162.626 352.188C162.392 351.953 162.314 351.563 162.548 351.251C166.452 346.801 169.731 343.053 172.854 339.618C173.088 339.384 173.478 339.306 173.791 339.54C174.025 339.774 174.103 340.164 173.869 340.477C170.746 343.912 167.545 347.659 163.563 352.11C163.407 352.266 163.251 352.344 163.017 352.344ZM183.784 329.156C183.628 329.156 183.472 329.078 183.316 329C183.081 328.766 183.003 328.375 183.316 328.063C186.985 324.081 190.498 320.412 194.012 316.82C194.246 316.586 194.636 316.586 194.948 316.82C195.183 317.055 195.183 317.445 194.948 317.757C191.435 321.349 187.922 325.018 184.252 329C184.096 329.078 183.94 329.156 183.784 329.156ZM205.41 306.905C205.254 306.905 205.098 306.827 204.942 306.671C204.708 306.437 204.708 305.968 204.942 305.734C208.767 302.065 212.593 298.473 216.262 295.116C216.497 294.882 216.965 294.882 217.199 295.194C217.434 295.507 217.434 295.897 217.121 296.131C213.374 299.488 209.626 303.08 205.801 306.749C205.801 306.905 205.644 306.905 205.41 306.905ZM228.52 286.138C228.364 286.138 228.13 286.06 228.051 285.904C227.817 285.591 227.895 285.201 228.13 284.967C232.189 281.61 236.249 278.33 240.309 275.286C240.621 275.051 241.012 275.129 241.246 275.442C241.48 275.754 241.402 276.144 241.09 276.379C237.03 279.423 232.97 282.703 228.988 285.982C228.832 286.138 228.676 286.138 228.52 286.138ZM253.269 267.478C253.035 267.478 252.879 267.4 252.723 267.166C252.488 266.854 252.566 266.463 252.879 266.229C257.173 263.262 261.623 260.452 265.995 257.797C266.307 257.641 266.698 257.719 266.854 258.031C267.01 258.344 266.932 258.734 266.62 258.89C262.247 261.467 257.875 264.355 253.581 267.244C253.503 267.4 253.425 267.478 253.269 267.478ZM279.892 251.473C279.658 251.473 279.424 251.317 279.345 251.161C279.189 250.849 279.267 250.458 279.58 250.302C284.186 247.882 288.87 245.618 293.555 243.51C293.867 243.354 294.257 243.51 294.414 243.822C294.57 244.134 294.414 244.525 294.101 244.681C289.417 246.711 284.733 249.053 280.204 251.395C280.048 251.473 279.97 251.473 279.892 251.473ZM507.007 240.933C501.854 240.855 496.623 240.699 491.47 240.309C491.08 240.309 490.846 239.997 490.846 239.606C490.846 239.216 491.158 238.982 491.548 238.982C496.701 239.372 501.932 239.528 507.007 239.606C507.397 239.606 507.631 239.919 507.631 240.231C507.631 240.621 507.319 240.933 507.007 240.933ZM522.543 240.543C522.231 240.543 521.919 240.309 521.919 239.918C521.919 239.528 522.153 239.294 522.543 239.216C527.696 238.904 532.849 238.435 537.924 237.811C538.236 237.732 538.626 238.045 538.626 238.357C538.704 238.747 538.392 239.06 538.08 239.06C532.927 239.762 527.774 240.231 522.543 240.543ZM308.154 238.904C307.92 238.904 307.608 238.747 307.53 238.513C307.374 238.201 307.608 237.811 307.92 237.654C312.761 235.859 317.757 234.219 322.676 232.814C322.988 232.736 323.379 232.892 323.457 233.282C323.535 233.673 323.379 233.985 322.988 234.063C318.07 235.468 313.151 237.108 308.311 238.904C308.311 238.826 308.233 238.904 308.154 238.904ZM476.09 238.669H476.012C470.937 237.967 465.784 237.186 460.631 236.171C460.241 236.093 460.085 235.781 460.085 235.39C460.163 235 460.475 234.844 460.865 234.844C465.94 235.781 471.093 236.639 476.168 237.342C476.558 237.42 476.792 237.732 476.714 238.045C476.636 238.435 476.402 238.669 476.09 238.669ZM553.226 236.639C552.914 236.639 552.679 236.405 552.601 236.093C552.523 235.781 552.757 235.39 553.07 235.312C558.145 234.297 563.219 233.048 568.06 231.721C568.372 231.643 568.762 231.799 568.84 232.189C568.919 232.502 568.762 232.892 568.372 232.97C563.453 234.375 558.301 235.624 553.226 236.639C553.304 236.639 553.382 236.639 553.226 236.639ZM445.563 232.892C445.485 232.892 445.485 232.892 445.407 232.892C440.332 231.643 435.257 230.55 430.261 229.691C429.87 229.613 429.714 229.301 429.714 228.91C429.714 228.52 430.105 228.364 430.495 228.364C435.492 229.301 440.645 230.394 445.719 231.565C446.032 231.643 446.266 232.033 446.188 232.345C446.11 232.736 445.875 232.892 445.563 232.892ZM337.978 230.237C337.666 230.237 337.432 230.003 337.354 229.691C337.276 229.379 337.51 228.988 337.822 228.91C342.897 227.817 348.05 226.88 353.125 226.178C353.515 226.1 353.827 226.412 353.827 226.724C353.905 227.115 353.593 227.427 353.281 227.427C348.206 228.129 343.053 229.066 338.056 230.159C338.056 230.237 337.978 230.237 337.978 230.237ZM583.128 228.208C582.894 228.208 582.581 228.051 582.503 227.817C582.347 227.505 582.581 227.115 582.894 226.958C587.734 225.163 592.497 223.211 597.181 221.025C597.493 220.869 597.884 221.025 598.04 221.337C598.196 221.649 598.04 222.04 597.728 222.196C593.043 224.382 588.203 226.334 583.362 228.129C583.206 228.208 583.128 228.208 583.128 228.208ZM415.036 227.271H414.958C409.806 226.646 404.653 226.1 399.578 225.787C399.188 225.787 398.953 225.475 398.953 225.085C398.953 224.694 399.266 224.46 399.656 224.46C404.731 224.772 409.962 225.241 415.115 225.943C415.505 226.021 415.739 226.334 415.661 226.646C415.661 227.036 415.427 227.271 415.036 227.271ZM368.661 225.943C368.349 225.943 368.037 225.709 368.037 225.319C368.037 224.928 368.271 224.616 368.661 224.616C373.814 224.226 378.967 224.07 384.198 224.07C384.588 224.07 384.822 224.382 384.822 224.694C384.822 225.085 384.51 225.319 384.198 225.319C378.967 225.397 373.736 225.553 368.661 225.943ZM611.234 215.247C611 215.247 610.766 215.091 610.688 214.935C610.532 214.623 610.61 214.232 610.922 214.076C615.372 211.578 619.822 208.845 624.038 205.957C624.35 205.722 624.741 205.801 624.975 206.113C625.209 206.425 625.131 206.816 624.819 206.972C620.525 209.86 616.075 212.593 611.546 215.169C611.468 215.247 611.312 215.247 611.234 215.247ZM636.92 197.837C636.764 197.837 636.53 197.759 636.452 197.603C636.218 197.291 636.296 196.9 636.53 196.666C640.512 193.465 644.415 190.03 648.163 186.438C648.397 186.204 648.865 186.204 649.1 186.438C649.334 186.673 649.334 187.141 649.1 187.375C645.352 190.967 641.448 194.402 637.389 197.603C637.154 197.837 636.998 197.837 636.92 197.837ZM659.327 176.445C659.171 176.445 659.015 176.367 658.937 176.289C658.703 176.055 658.625 175.664 658.859 175.352C662.294 171.526 665.573 167.467 668.618 163.407C668.852 163.095 669.242 163.095 669.555 163.251C669.867 163.485 669.867 163.875 669.711 164.188C666.588 168.325 663.309 172.385 659.874 176.211C659.64 176.367 659.483 176.445 659.327 176.445ZM677.909 151.696C677.752 151.696 677.674 151.696 677.596 151.618C677.284 151.462 677.206 150.993 677.362 150.759C680.095 146.465 682.671 141.937 685.091 137.409C685.247 137.096 685.638 136.94 685.95 137.174C686.262 137.33 686.419 137.721 686.184 138.033C683.764 142.639 681.188 147.168 678.377 151.54C678.377 151.54 678.143 151.696 677.909 151.696ZM692.352 124.214C692.274 124.214 692.196 124.214 692.118 124.136C691.806 123.98 691.649 123.59 691.806 123.277C693.835 118.593 695.709 113.752 697.349 108.834C697.427 108.521 697.817 108.287 698.208 108.443C698.52 108.521 698.754 108.912 698.598 109.302C696.88 114.221 695.007 119.061 692.977 123.824C692.821 124.136 692.586 124.214 692.352 124.214ZM702.502 94.9368C702.424 94.9368 702.424 94.9368 702.345 94.9368C702.033 94.8587 701.799 94.4683 701.877 94.156C703.204 89.2374 704.375 84.1627 705.312 79.0879C705.39 78.7757 705.703 78.5414 706.093 78.5414C706.405 78.6195 706.639 78.9318 706.639 79.3222C705.703 84.3969 704.532 89.5497 703.204 94.4683C703.048 94.7806 702.736 94.9368 702.502 94.9368ZM708.279 64.4883H708.201C707.811 64.4102 707.576 64.0979 707.654 63.7856C708.279 58.7109 708.747 53.558 708.982 48.4052C708.982 48.0149 709.294 47.7806 709.684 47.7806C710.075 47.7806 710.309 48.0929 710.309 48.4833C709.997 53.6361 709.528 58.867 708.904 63.9418C708.904 64.2541 708.591 64.4883 708.279 64.4883ZM710.075 33.5713C709.684 33.5713 709.45 33.259 709.45 32.9467C709.45 27.872 709.216 22.6411 708.904 17.4883C708.904 17.0979 709.138 16.7856 709.528 16.7856C709.919 16.7856 710.231 17.0198 710.231 17.4102C710.543 22.563 710.777 27.7939 710.777 32.9467C710.699 33.259 710.387 33.4933 710.075 33.5713ZM707.967 2.57631C707.654 2.57631 707.342 2.34209 707.342 2.0298C706.718 -3.04495 705.937 -8.19777 705 -13.2725C704.922 -13.6629 705.156 -13.9752 705.546 -14.0533C705.937 -14.1313 706.249 -13.8971 706.327 -13.5067C707.264 -8.35392 708.045 -3.2011 708.669 1.87366C708.747 2.26402 708.435 2.57631 708.123 2.57631C708.045 2.57631 708.045 2.57631 707.967 2.57631ZM702.502 -27.9503C702.189 -27.9503 701.955 -28.1845 701.877 -28.4187C700.706 -33.4154 699.379 -38.4121 697.973 -43.4087C697.895 -43.721 698.051 -44.1114 698.442 -44.1895C698.754 -44.2675 699.144 -44.1114 699.223 -43.721C700.628 -38.7244 702.033 -33.6496 703.204 -28.6529C703.282 -28.3406 703.048 -27.9503 702.736 -27.8722C702.58 -27.9503 702.502 -27.9503 702.502 -27.9503Z" fill="#243647"/>
<path d="M153.179 276.457C152.086 261.467 151.618 250.068 134.13 225.944C116.641 201.819 83.1478 175.508 61.3654 165.749" stroke="#39D2D1" stroke-width="1.3852" stroke-miterlimit="10" stroke-linecap="round" stroke-linejoin="round"/>
<path d="M140.219 234.922C136.238 216.887 131.475 203.38 118.437 192.528C105.477 181.676 94.3123 174.337 62.6927 166.374" stroke="#39D2D1" stroke-width="1.3852" stroke-miterlimit="10" stroke-linecap="round" stroke-linejoin="round"/>
<path d="M140.219 234.922C131.319 233.985 109.849 233.282 90.3306 215.794C75.809 202.756 71.3588 186.517 68.7824 181.13C66.2841 175.977 62.8488 168.013 61.3654 165.749" stroke="#39D2D1" stroke-width="1.3852" stroke-miterlimit="10" stroke-linecap="round" stroke-linejoin="round"/>
<path d="M127.103 201.663C128.04 206.113 128.196 211.11 125.542 215.326C118.125 213.374 105.633 214.389 98.0598 221.884" stroke="#39D2D1" stroke-width="1.3852" stroke-miterlimit="10" stroke-linecap="round" stroke-linejoin="round"/>
<path d="M106.648 183.628C108.053 188.859 107.507 192.684 105.633 195.651C100.792 194.324 84.6312 192.216 77.0581 199.243" stroke="#39D2D1" stroke-width="1.3852" stroke-miterlimit="10" stroke-linecap="round" stroke-linejoin="round"/>
<path d="M84.0067 172.776C87.2077 176.914 86.9734 181.052 86.9734 181.052C86.9734 181.052 78.5415 178.553 68.9386 181.754" stroke="#39D2D1" stroke-width="1.3852" stroke-miterlimit="10" stroke-linecap="round" stroke-linejoin="round"/>
<path d="M172.854 328.375C164.5 310.965 158.566 297.537 126.244 276.847C93.9219 256.158 41.4568 240.387 10.8522 238.982" stroke="#39D2D1" stroke-width="1.7818" stroke-miterlimit="10" stroke-linecap="round" stroke-linejoin="round"/>
<path d="M137.799 284.733C124.527 265.058 112.503 251.083 91.8139 244.213C71.2027 237.342 54.3389 233.829 12.804 239.06" stroke="#39D2D1" stroke-width="1.7818" stroke-miterlimit="10" stroke-linecap="round" stroke-linejoin="round"/>
<path d="M137.799 284.733C126.635 287.777 100.636 297.068 69.0947 285.279C45.5166 276.457 32.6346 259.125 27.0133 253.972C21.6262 248.975 13.7409 241.012 10.9302 238.982" stroke="#39D2D1" stroke-width="1.7818" stroke-miterlimit="10" stroke-linecap="round" stroke-linejoin="round"/>
<path d="M106.414 251.005C109.615 255.924 112.191 261.857 111.02 268.103C101.261 269.274 86.6611 276.301 81.196 288.871" stroke="#39D2D1" stroke-width="1.7818" stroke-miterlimit="10" stroke-linecap="round" stroke-linejoin="round"/>
<path d="M73.4668 239.138C77.6047 244.759 78.7758 249.6 77.9169 254.05C71.515 254.753 51.216 259.749 45.3605 271.694" stroke="#39D2D1" stroke-width="1.7818" stroke-miterlimit="10" stroke-linecap="round" stroke-linejoin="round"/>
<path d="M41.3007 236.64C47.1561 240.075 48.7957 245.228 48.7957 245.228C48.7957 245.228 37.4751 246.165 27.5598 254.518" stroke="#39D2D1" stroke-width="1.7818" stroke-miterlimit="10" stroke-linecap="round" stroke-linejoin="round"/>
<path d="M57.696 115.548C70.1142 115.548 80.1811 105.481 80.1811 93.0632C80.1811 80.645 70.1142 70.5781 57.696 70.5781C45.2779 70.5781 35.211 80.645 35.211 93.0632C35.211 105.481 45.2779 115.548 57.696 115.548Z" fill="url(#paint0_linear)"/>
<path d="M57.696 115.548C70.1096 115.548 80.1811 105.477 80.1811 93.0632C80.1811 91.1895 79.9469 89.3938 79.5565 87.6762C78.7758 87.9104 78.0731 88.4569 77.6047 89.1596C76.7459 90.5649 76.8239 92.3606 76.0432 93.844C75.3405 95.3273 72.8422 96.1862 72.1395 94.7028C71.6711 93.7659 72.2176 92.7509 72.5299 91.736C73.5449 88.1446 69.4851 84.241 65.9718 85.4901C63.7077 86.2709 62.3023 88.4569 61.5216 90.721C60.7409 92.9851 60.5067 95.3273 59.804 97.5915C59.1013 99.8556 57.618 102.042 55.4319 102.822C53.1678 103.603 50.201 102.276 50.0449 99.9337C49.7326 96.4204 55.1196 94.0782 54.2608 90.721C53.7143 88.6911 51.1379 87.9885 49.1861 88.6911C47.2342 89.3938 45.907 91.1114 44.6578 92.7509C42.2376 96.03 39.8954 99.3871 37.6312 102.822C41.0665 110.395 48.7957 115.548 57.696 115.548Z" fill="url(#paint1_linear)"/>
<path d="M671.429 351.173C690.616 351.173 706.171 335.618 706.171 316.43C706.171 297.243 690.616 281.688 671.429 281.688C652.241 281.688 636.686 297.243 636.686 316.43C636.686 335.618 652.241 351.173 671.429 351.173Z" fill="url(#paint2_linear)"/>
<path d="M706.249 316.43C706.249 313.385 705.859 310.341 705.078 307.53C703.204 308.233 701.487 309.56 700.316 311.121C698.208 313.854 697.115 317.133 695.397 320.1C694.46 321.739 693.367 323.301 691.962 324.472C690.4 325.799 688.058 324.628 688.292 322.598L689.776 307.374C689.932 305.89 688.995 304.173 687.98 303.08C686.106 301.05 682.593 301.909 680.719 303.86C674.786 310.028 673.927 313.307 668.774 326.658C667.915 328.844 667.369 331.264 665.963 333.06C664.168 335.402 660.654 336.729 658.234 334.231C656.985 332.982 656.595 331.186 656.751 329.39C657.219 325.331 660.264 322.364 661.357 318.538C662.372 314.947 660.576 309.872 656.048 310.887C654.877 311.121 653.862 311.824 653.003 312.605C647.929 317.679 643.244 323.145 639.028 328.922C644.103 341.882 656.673 351.017 671.429 351.017C690.635 351.251 706.249 335.636 706.249 316.43Z" fill="url(#paint3_linear)"/>
<path d="M114.299 332.904C95.4834 314.088 88.4568 311.98 83.5382 318.07C78.6196 324.159 92.985 346.723 103.369 353.671C81.4302 337.9 63.7076 324.94 48.3272 322.676C32.9468 320.412 20.6113 335.324 40.2857 349.767C59.9601 364.133 61.8339 353.749 94.3904 366.553C76.902 362.259 56.9934 360.385 39.6611 369.91C22.3289 379.435 12.4917 390.443 22.5631 402.467C32.6346 414.49 44.3455 402.154 49.6545 397.626C54.9635 393.098 70.0316 381.309 81.4302 379.123C92.8289 376.937 102.978 377.874 102.978 377.874C102.978 377.874 78.7758 377.483 70.2658 400.203C61.7558 422.922 77.2924 421.595 83.6944 416.52C90.0963 411.445 99.3871 398.251 106.648 395.05C113.909 391.927 126.947 389.975 131.787 390.053" stroke="#39D2D1" stroke-width="1.7818" stroke-miterlimit="10" stroke-linecap="round" stroke-linejoin="round"/>
<path d="M165.671 137.799C139.751 147.246 122.106 171.214 124.605 193.309C127.103 215.404 132.646 225.709 132.646 225.709C132.646 225.709 113.284 233.126 110.083 257.173C106.96 281.141 110.083 409.415 110.083 429.012C110.083 448.608 136.003 465.003 153.023 463.754C170.043 462.505 192.841 441.659 195.651 429.012C198.462 416.364 223.133 377.249 223.133 377.249L281.141 320.412L337.51 306.671L388.023 254.128C388.023 254.128 441.503 153.336 426.201 125.542C410.899 97.7475 416.52 86.2708 398.797 90.6428C381.075 94.9369 368.427 114.846 362.806 118.827C357.106 122.809 350.158 106.96 328.063 109.537C305.968 112.113 295.741 122.575 295.741 122.575H268.728L165.671 137.799Z" fill="url(#paint4_linear)"/>
<path d="M515.595 289.495H323.301C316.586 289.495 311.121 284.03 311.121 277.316V173.791C311.121 167.076 316.586 161.611 323.301 161.611H515.595C522.309 161.611 527.774 167.076 527.774 173.791V277.238C527.774 284.03 522.309 289.495 515.595 289.495Z" fill="url(#paint5_linear)"/>
<path d="M515.595 161.611H323.301C316.586 161.611 311.121 167.076 311.121 173.791V184.331H527.774V173.791C527.774 167.076 522.309 161.611 515.595 161.611Z" fill="url(#paint6_linear)"/>
<path d="M512.55 258.578H454.542V272.787H512.55V258.578Z" fill="url(#paint7_linear)"/>
<path d="M514.267 414.958H258.5C251.005 414.958 244.915 408.869 244.915 401.374V313.932C244.915 306.437 251.005 300.347 258.5 300.347H514.267C521.762 300.347 527.852 306.437 527.852 313.932V401.452C527.774 408.869 521.762 414.958 514.267 414.958Z" fill="url(#paint8_linear)"/>
<path d="M244.993 389.116C286.762 389.116 307.608 394.425 318.929 379.904C330.249 365.382 336.027 330.171 360.698 330.171C385.369 330.171 399.344 390.053 429.792 390.053C460.241 390.053 463.13 321.427 489.206 321.427C515.282 321.427 527.852 321.427 527.852 321.427" stroke="url(#paint9_linear)" stroke-width="1.1238" stroke-miterlimit="10"/>
<path d="M527.774 348.987C511.379 348.987 502.713 348.987 494.983 348.987C487.254 348.987 477.105 381.387 456.806 381.387C436.507 381.387 424.249 348.987 403.638 348.987C383.027 348.987 369.832 404.106 337.9 404.106C305.968 404.106 313.776 357.731 291.993 357.731C270.211 357.731 244.915 357.731 244.915 357.731" stroke="url(#paint10_linear)" stroke-width="1.1238" stroke-miterlimit="10"/>
<path d="M298.63 143.889C298.63 134.208 290.744 126.322 281.063 126.322C272.397 126.322 265.214 132.646 263.731 140.922C259.125 142.483 255.299 145.919 253.347 150.291C245.306 151.93 239.294 159.035 239.294 167.545C239.294 177.226 247.179 185.111 256.86 185.111C263.965 185.111 270.055 180.895 272.865 174.806C279.97 173.4 285.435 167.701 286.684 160.518C293.633 158.176 298.63 151.618 298.63 143.889Z" fill="url(#paint11_linear)"/>
<path d="M250.068 169.809L256.939 190.577C256.939 190.577 254.596 196.276 248.741 198.93C240.855 197.369 221.337 191.513 221.337 191.513L214.467 161.455L250.068 169.809Z" fill="white"/>
<path d="M232.502 177.304C259.321 177.304 281.063 155.562 281.063 128.743C281.063 101.923 259.321 80.1812 232.502 80.1812C205.682 80.1812 183.94 101.923 183.94 128.743C183.94 155.562 205.682 177.304 232.502 177.304Z" fill="white"/>
<path d="M225.085 63.7077C212.203 65.5815 197.993 71.2808 186.282 78.6978C180.505 66.9868 168.404 58.8672 154.351 58.8672C134.676 58.8672 118.749 74.7941 118.749 94.4685C118.749 114.143 134.676 130.07 154.351 130.07C155.678 130.07 156.927 129.992 158.176 129.836C157.786 139.126 158.254 147.949 158.254 154.194C158.254 154.272 158.254 154.429 158.254 154.507C149.276 156.146 142.405 164.032 142.405 173.478C142.405 184.174 151.071 192.841 161.767 192.841C162.86 192.841 163.953 192.763 165.047 192.528C167.233 200.804 174.806 206.894 183.706 206.894C189.561 206.894 194.87 204.239 198.384 200.101C201.429 202.209 205.176 203.38 209.158 203.38C219.854 203.38 228.52 194.714 228.52 184.018C228.52 174.571 221.728 166.686 212.749 165.047C206.894 150.213 203.615 143.733 212.671 139.204C222.352 134.364 231.253 107.819 226.412 80.1031C226.412 80.1031 237.342 78.932 249.678 83.3041C262.013 87.6762 271.929 98.6845 278.565 113.596C279.111 82.9137 248.819 60.1944 225.085 63.7077Z" fill="url(#paint12_linear)"/>
<path d="M204.395 167.467C212.588 167.467 219.229 160.825 219.229 152.633C219.229 144.44 212.588 137.799 204.395 137.799C196.203 137.799 189.561 144.44 189.561 152.633C189.561 160.825 196.203 167.467 204.395 167.467Z" fill="white"/>
<path d="M426.123 94.1561C423.156 87.7541 400.983 87.1295 389.351 94.1561C377.718 101.183 367.256 126.166 370.691 143.108C374.204 159.972 400.671 160.362 416.208 161.455C431.744 162.548 446.578 159.894 446.578 159.894L426.123 94.1561Z" fill="url(#paint13_linear)"/>
<path d="M180.817 344.38C172.229 340.399 165.203 342.741 155.365 350.939C145.45 359.058 132.646 367.802 132.646 374.204C132.646 380.606 180.427 436.507 194.949 438.849C209.47 441.191 214.545 421.985 219.307 412.07C224.07 402.155 214.779 390.522 210.095 384.12C205.41 377.718 180.817 344.38 180.817 344.38Z" fill="url(#paint14_linear)"/>
<path d="M174.259 351.095C200.804 323.925 219.698 304.095 234.844 293.321C249.99 282.547 268.493 282.469 268.493 282.469C268.493 282.469 285.201 271.07 296.912 264.824C308.623 258.656 318.538 270.992 308.935 277.16C299.332 283.327 290.12 293.243 285.435 298.474C298.083 300.66 305.5 300.035 312.761 297.849C320.022 295.663 352.734 269.821 356.794 286.763C365.772 284.264 370.379 294.726 365.148 301.206C359.917 307.686 335.948 325.331 323.223 329.625C310.497 333.919 278.721 337.042 270.836 339.54C262.95 342.038 227.115 388.648 218.761 398.876C216.262 401.999 200.257 385.291 191.279 374.439C182.301 363.743 174.259 351.095 174.259 351.095Z" fill="white"/>
<path d="M285.513 298.552C299.566 306.437 314.713 307.764 322.52 305.734C330.327 303.704 348.987 285.826 358.59 286.841" stroke="#CCCCCC" stroke-width="2.7939" stroke-miterlimit="10" stroke-linecap="round" stroke-linejoin="round"/>
<path d="M314.4 283.405L433.852 162.626L492.563 207.284L541.515 156.38L532.693 149.276C530.897 147.792 531.365 144.904 533.552 144.045L568.216 131.163L566.264 167.857C566.108 170.356 563.297 171.605 561.346 170.043L552.055 162.626L498.887 231.955L436.819 188.781L329.781 295.507L314.4 283.405Z" fill="url(#paint15_linear)"/>
<path d="M496.779 97.045C485.771 94.0002 473.357 99.9337 463.832 99.4653C454.385 98.9968 424.483 95.1713 405.746 98.138C387.008 101.183 379.435 113.284 381.465 130.616C382.324 137.955 386.618 130.851 390.053 142.874C393.488 154.897 403.794 168.716 414.802 172.776C425.811 176.836 430.261 172.542 431.978 170.746C435.57 177.773 444.236 176.68 450.169 170.746C456.025 164.812 452.277 139.204 452.277 139.204C452.277 139.204 466.018 148.027 478.978 158.801C487.41 165.827 495.764 160.128 496.155 151.93C504.508 150.837 503.025 140.063 494.827 130.616C486.63 121.17 473.123 111.02 473.123 111.02C473.123 111.02 486.864 108.678 491.626 109.693C496.389 110.786 507.944 117.032 511.223 111.41C514.424 105.867 507.787 100.09 496.779 97.045ZM435.258 144.435C436.351 149.432 436.741 153.023 433.462 159.894C431.9 156.146 426.201 157.396 421.282 153.102C416.364 148.807 414.256 136.94 418.706 135.925C423.234 134.91 434.243 139.517 435.258 144.435Z" fill="white"/>
<path d="M438.458 122.575C451.184 129.836 452.356 135.301 453.058 146.7C453.761 158.098 456.103 176.523 437.287 176.211C429.636 176.211 430.417 162.861 433.462 158.645" stroke="#CCCCCC" stroke-width="2.7939" stroke-miterlimit="10" stroke-linecap="round" stroke-linejoin="round"/>
<path d="M458.289 118.671C470.703 127.65 489.284 141.391 496.155 151.931" stroke="#CCCCCC" stroke-width="2.7939" stroke-miterlimit="10" stroke-linecap="round" stroke-linejoin="round"/>
<path d="M132.568 225.709C149.432 222.196 177.382 223.992 186.126 225.709C194.87 227.427 204.395 231.565 204.395 231.565" stroke="#CCCCCC" stroke-width="2.7939" stroke-miterlimit="10" stroke-linecap="round" stroke-linejoin="round"/>
<path d="M194.324 277.55C196.666 300.816 195.495 324.94 194.324 331.264" stroke="#CCCCCC" stroke-width="2.7939" stroke-miterlimit="10" stroke-linecap="round" stroke-linejoin="round"/>
</g>
<defs>
<linearGradient id="paint0_linear" x1="35.2083" y1="93.0903" x2="80.1137" y2="93.0903" gradientUnits="userSpaceOnUse">
<stop stop-color="#015976"/>
<stop offset="1" stop-color="#042B42"/>
</linearGradient>
<linearGradient id="paint1_linear" x1="37.4382" y1="100.446" x2="80.1136" y2="100.446" gradientUnits="userSpaceOnUse">
<stop stop-color="#4B3263"/>
<stop offset="1" stop-color="#042B42"/>
</linearGradient>
<linearGradient id="paint2_linear" x1="636.687" y1="316.435" x2="706.243" y2="316.435" gradientUnits="userSpaceOnUse">
<stop stop-color="#015976"/>
<stop offset="1" stop-color="#042B42"/>
</linearGradient>
<linearGradient id="paint3_linear" x1="639.084" y1="326.607" x2="706.242" y2="326.607" gradientUnits="userSpaceOnUse">
<stop stop-color="#4B3263"/>
<stop offset="1" stop-color="#042B42"/>
</linearGradient>
<linearGradient id="paint4_linear" x1="108.643" y1="276.709" x2="428.918" y2="276.709" gradientUnits="userSpaceOnUse">
<stop stop-color="#015976"/>
<stop offset="1" stop-color="#042B42"/>
</linearGradient>
<linearGradient id="paint5_linear" x1="311.09" y1="225.542" x2="527.812" y2="225.542" gradientUnits="userSpaceOnUse">
<stop stop-color="#4B3263"/>
<stop offset="1" stop-color="#042B42"/>
</linearGradient>
<linearGradient id="paint6_linear" x1="311.09" y1="172.983" x2="527.812" y2="172.983" gradientUnits="userSpaceOnUse">
<stop stop-color="#015976"/>
<stop offset="1" stop-color="#042B42"/>
</linearGradient>
<linearGradient id="paint7_linear" x1="454.554" y1="265.706" x2="512.55" y2="265.706" gradientUnits="userSpaceOnUse">
<stop stop-color="#015976"/>
<stop offset="1" stop-color="#042B42"/>
</linearGradient>
<linearGradient id="paint8_linear" x1="244.954" y1="357.647" x2="527.812" y2="357.647" gradientUnits="userSpaceOnUse">
<stop stop-color="#4B3263"/>
<stop offset="1" stop-color="#042B42"/>
</linearGradient>
<linearGradient id="paint9_linear" x1="244.954" y1="355.736" x2="527.812" y2="355.736" gradientUnits="userSpaceOnUse">
<stop stop-color="#5CB8B2"/>
<stop offset="1" stop-color="#41B6E6"/>
</linearGradient>
<linearGradient id="paint10_linear" x1="244.954" y1="376.52" x2="527.812" y2="376.52" gradientUnits="userSpaceOnUse">
<stop stop-color="#FFDE44"/>
<stop offset="0.9995" stop-color="#F49A1A"/>
<stop offset="1" stop-color="#F49A1A"/>
</linearGradient>
<linearGradient id="paint11_linear" x1="239.322" y1="155.675" x2="298.668" y2="155.675" gradientUnits="userSpaceOnUse">
<stop stop-color="#FFDE44"/>
<stop offset="0.9995" stop-color="#F49A1A"/>
<stop offset="1" stop-color="#F49A1A"/>
</linearGradient>
<linearGradient id="paint12_linear" x1="118.789" y1="132.904" x2="278.692" y2="132.904" gradientUnits="userSpaceOnUse">
<stop stop-color="#FFDE44"/>
<stop offset="0.9995" stop-color="#F49A1A"/>
<stop offset="1" stop-color="#F49A1A"/>
</linearGradient>
<linearGradient id="paint13_linear" x1="370.067" y1="125.401" x2="446.601" y2="125.401" gradientUnits="userSpaceOnUse">
<stop stop-color="#015976"/>
<stop offset="1" stop-color="#042B42"/>
</linearGradient>
<linearGradient id="paint14_linear" x1="132.582" y1="390.8" x2="220.568" y2="390.8" gradientUnits="userSpaceOnUse">
<stop stop-color="#015976"/>
<stop offset="1" stop-color="#042B42"/>
</linearGradient>
<linearGradient id="paint15_linear" x1="314.416" y1="213.322" x2="568.235" y2="213.322" gradientUnits="userSpaceOnUse">
<stop stop-color="#F49A1A"/>
<stop offset="0.000510365" stop-color="#F49A1A"/>
<stop offset="1" stop-color="#FFDE44"/>
</linearGradient>
<clipPath id="clip0">
<rect width="771.362" height="470" fill="white"/>
</clipPath>
</defs>
</svg>
