<svg width="772" height="470" viewBox="0 0 772 470" fill="none" xmlns="http://www.w3.org/2000/svg">
<g clip-path="url(#clip0)">
<path d="M416.52 432.759C430.885 419.877 441.581 409.806 479.369 403.169C517.156 396.455 571.651 402.233 600.46 412.694" stroke="#39D2D1" stroke-width="1.7818" stroke-miterlimit="10" stroke-linecap="round" stroke-linejoin="round"/>
<path d="M465.706 405.98C485.537 392.942 502.01 384.666 523.714 386.306C545.419 387.945 562.282 391.146 598.586 411.992" stroke="#39D2D1" stroke-width="1.7818" stroke-miterlimit="10" stroke-linecap="round" stroke-linejoin="round"/>
<path d="M465.706 405.98C474.84 413.085 495.218 431.744 528.867 432.993C554.007 433.93 572.588 422.922 579.771 420.267C586.641 417.769 596.947 413.397 600.382 412.694" stroke="#39D2D1" stroke-width="1.7818" stroke-miterlimit="10" stroke-linecap="round" stroke-linejoin="round"/>
<path d="M507.631 386.93C502.791 390.209 498.106 394.737 496.779 400.905C505.367 405.746 516.063 417.847 516.297 431.588" stroke="#39D2D1" stroke-width="1.7818" stroke-miterlimit="10" stroke-linecap="round" stroke-linejoin="round"/>
<path d="M542.686 388.648C536.674 392.239 533.708 396.221 532.849 400.671C538.47 403.794 555.334 416.208 556.037 429.48" stroke="#39D2D1" stroke-width="1.7818" stroke-miterlimit="10" stroke-linecap="round" stroke-linejoin="round"/>
<path d="M573.291 398.797C566.576 399.734 563.063 403.794 563.063 403.794C563.063 403.794 573.135 409.025 579.068 420.58" stroke="#39D2D1" stroke-width="1.7818" stroke-miterlimit="10" stroke-linecap="round" stroke-linejoin="round"/>
<path d="M38.3339 429.636C37.2408 429.636 36.1478 429.636 35.1329 429.558C34.7425 429.558 34.5083 429.246 34.5083 428.855C34.5083 428.465 34.8206 428.231 35.2109 428.231C36.2259 428.231 37.3189 428.309 38.3339 428.309C42.3156 428.309 46.4535 428.075 50.5913 427.528C50.9817 427.45 51.294 427.762 51.294 428.075C51.3721 428.465 51.0598 428.777 50.7475 428.777C46.5315 429.324 42.3937 429.636 38.3339 429.636ZM19.7525 427.684C19.6744 427.684 19.6744 427.684 19.5963 427.684C14.4435 426.513 9.44683 424.874 4.76244 422.844C4.45015 422.688 4.29401 422.297 4.45015 421.985C4.6063 421.673 4.99666 421.517 5.30896 421.673C9.91527 423.703 14.8339 425.342 19.9086 426.435C20.2209 426.513 20.4551 426.826 20.3771 427.216C20.3771 427.45 20.0648 427.684 19.7525 427.684ZM65.8937 425.889C65.5814 425.889 65.3472 425.732 65.2691 425.42C65.191 425.108 65.3472 424.718 65.7375 424.639C70.5781 423.39 75.5747 421.751 80.4153 419.877C80.7276 419.721 81.1179 419.877 81.2741 420.267C81.4302 420.658 81.2741 420.97 80.8837 421.126C75.9651 423.078 70.9684 424.639 66.0498 425.967C65.9717 425.889 65.9717 425.889 65.8937 425.889ZM-8.35383 415.036C-8.50998 415.036 -8.58805 414.958 -8.7442 414.88C-12.8821 411.914 -16.7857 408.4 -20.3771 404.497C-20.6113 404.262 -20.6113 403.794 -20.3771 403.56C-20.1429 403.326 -19.6744 403.326 -19.4402 403.56C-15.8488 407.385 -12.0233 410.82 -7.96347 413.787C-7.65118 414.022 -7.5731 414.412 -7.80732 414.724C-7.96347 414.958 -8.11961 415.036 -8.35383 415.036ZM94.7807 414.724C94.5465 414.724 94.3123 414.568 94.2342 414.412C94.078 414.1 94.1561 413.709 94.5465 413.553C99.1528 411.211 103.603 408.556 107.897 405.746C108.209 405.512 108.6 405.668 108.756 405.902C108.99 406.214 108.834 406.605 108.6 406.761C104.306 409.571 99.7774 412.226 95.1711 414.646C94.9369 414.646 94.8588 414.724 94.7807 414.724ZM120.623 397.626C120.467 397.626 120.233 397.548 120.154 397.392C119.92 397.08 119.998 396.689 120.233 396.455C122.497 394.581 124.605 392.629 126.635 390.756C128.196 389.272 129.836 387.633 131.475 385.915C131.709 385.681 132.1 385.681 132.412 385.915C132.646 386.149 132.646 386.54 132.412 386.852C130.694 388.57 129.055 390.209 127.493 391.693C125.463 393.644 123.277 395.596 121.013 397.47C120.935 397.548 120.779 397.626 120.623 397.626ZM142.561 375.688C142.405 375.688 142.249 375.61 142.093 375.531C141.859 375.297 141.781 374.907 142.015 374.595C145.606 370.613 149.198 366.475 152.321 362.962C152.555 362.727 152.945 362.649 153.257 362.884C153.492 363.118 153.57 363.508 153.336 363.82C150.291 367.334 146.621 371.472 143.03 375.453C142.874 375.609 142.718 375.688 142.561 375.688ZM163.017 352.344C162.86 352.344 162.704 352.266 162.626 352.188C162.392 351.953 162.314 351.563 162.548 351.251C166.452 346.801 169.731 343.053 172.854 339.618C173.088 339.384 173.478 339.306 173.791 339.54C174.025 339.774 174.103 340.164 173.869 340.477C170.746 343.912 167.545 347.659 163.563 352.11C163.407 352.266 163.251 352.344 163.017 352.344ZM183.784 329.156C183.628 329.156 183.472 329.078 183.316 329C183.081 328.766 183.003 328.375 183.316 328.063C186.985 324.081 190.498 320.412 194.012 316.82C194.246 316.586 194.636 316.586 194.948 316.82C195.183 317.055 195.183 317.445 194.948 317.757C191.435 321.349 187.922 325.018 184.252 329C184.096 329.078 183.94 329.156 183.784 329.156ZM205.41 306.905C205.254 306.905 205.098 306.827 204.942 306.671C204.708 306.437 204.708 305.968 204.942 305.734C208.767 302.065 212.593 298.473 216.262 295.116C216.497 294.882 216.965 294.882 217.199 295.194C217.434 295.507 217.434 295.897 217.121 296.131C213.374 299.488 209.626 303.08 205.801 306.749C205.801 306.905 205.644 306.905 205.41 306.905ZM228.52 286.138C228.364 286.138 228.13 286.06 228.051 285.904C227.817 285.591 227.895 285.201 228.13 284.967C232.189 281.61 236.249 278.33 240.309 275.286C240.621 275.051 241.012 275.129 241.246 275.442C241.48 275.754 241.402 276.144 241.09 276.379C237.03 279.423 232.97 282.703 228.988 285.982C228.832 286.138 228.676 286.138 228.52 286.138ZM253.269 267.478C253.035 267.478 252.879 267.4 252.723 267.166C252.488 266.854 252.566 266.463 252.879 266.229C257.173 263.262 261.623 260.452 265.995 257.797C266.307 257.641 266.698 257.719 266.854 258.031C267.01 258.344 266.932 258.734 266.62 258.89C262.247 261.467 257.875 264.355 253.581 267.244C253.503 267.4 253.425 267.478 253.269 267.478ZM279.892 251.473C279.658 251.473 279.424 251.317 279.345 251.161C279.189 250.849 279.267 250.458 279.58 250.302C284.186 247.882 288.87 245.618 293.555 243.51C293.867 243.354 294.257 243.51 294.414 243.822C294.57 244.134 294.414 244.525 294.101 244.681C289.417 246.711 284.733 249.053 280.204 251.395C280.048 251.473 279.97 251.473 279.892 251.473ZM507.007 240.933C501.854 240.855 496.623 240.699 491.47 240.309C491.08 240.309 490.846 239.997 490.846 239.606C490.846 239.216 491.158 238.982 491.548 238.982C496.701 239.372 501.932 239.528 507.007 239.606C507.397 239.606 507.631 239.919 507.631 240.231C507.631 240.621 507.319 240.933 507.007 240.933ZM522.543 240.543C522.231 240.543 521.919 240.309 521.919 239.918C521.919 239.528 522.153 239.294 522.543 239.216C527.696 238.904 532.849 238.435 537.924 237.811C538.236 237.732 538.626 238.045 538.626 238.357C538.704 238.747 538.392 239.06 538.08 239.06C532.927 239.762 527.774 240.231 522.543 240.543ZM308.154 238.904C307.92 238.904 307.608 238.747 307.53 238.513C307.374 238.201 307.608 237.811 307.92 237.654C312.761 235.859 317.757 234.219 322.676 232.814C322.988 232.736 323.379 232.892 323.457 233.282C323.535 233.673 323.379 233.985 322.988 234.063C318.07 235.468 313.151 237.108 308.311 238.904C308.311 238.826 308.233 238.904 308.154 238.904ZM476.09 238.669H476.012C470.937 237.967 465.784 237.186 460.631 236.171C460.241 236.093 460.085 235.781 460.085 235.39C460.163 235 460.475 234.844 460.865 234.844C465.94 235.781 471.093 236.639 476.168 237.342C476.558 237.42 476.792 237.732 476.714 238.045C476.636 238.435 476.402 238.669 476.09 238.669ZM553.226 236.639C552.914 236.639 552.679 236.405 552.601 236.093C552.523 235.781 552.757 235.39 553.07 235.312C558.145 234.297 563.219 233.048 568.06 231.721C568.372 231.643 568.762 231.799 568.84 232.189C568.919 232.502 568.762 232.892 568.372 232.97C563.453 234.375 558.301 235.624 553.226 236.639C553.304 236.639 553.382 236.639 553.226 236.639ZM445.563 232.892C445.485 232.892 445.485 232.892 445.407 232.892C440.332 231.643 435.257 230.55 430.261 229.691C429.87 229.613 429.714 229.301 429.714 228.91C429.714 228.52 430.105 228.364 430.495 228.364C435.492 229.301 440.645 230.394 445.719 231.565C446.032 231.643 446.266 232.033 446.188 232.345C446.11 232.736 445.875 232.892 445.563 232.892ZM337.978 230.237C337.666 230.237 337.432 230.003 337.354 229.691C337.276 229.379 337.51 228.988 337.822 228.91C342.897 227.817 348.05 226.88 353.125 226.178C353.515 226.1 353.827 226.412 353.827 226.724C353.905 227.115 353.593 227.427 353.281 227.427C348.206 228.129 343.053 229.066 338.056 230.159C338.056 230.237 337.978 230.237 337.978 230.237ZM583.128 228.208C582.894 228.208 582.581 228.051 582.503 227.817C582.347 227.505 582.581 227.115 582.894 226.958C587.734 225.163 592.497 223.211 597.181 221.025C597.493 220.869 597.884 221.025 598.04 221.337C598.196 221.649 598.04 222.04 597.728 222.196C593.043 224.382 588.203 226.334 583.362 228.129C583.206 228.208 583.128 228.208 583.128 228.208ZM415.036 227.271H414.958C409.806 226.646 404.653 226.1 399.578 225.787C399.188 225.787 398.953 225.475 398.953 225.085C398.953 224.694 399.266 224.46 399.656 224.46C404.731 224.772 409.962 225.241 415.115 225.943C415.505 226.021 415.739 226.334 415.661 226.646C415.661 227.036 415.427 227.271 415.036 227.271ZM368.661 225.943C368.349 225.943 368.037 225.709 368.037 225.319C368.037 224.928 368.271 224.616 368.661 224.616C373.814 224.226 378.967 224.07 384.198 224.07C384.588 224.07 384.822 224.382 384.822 224.694C384.822 225.085 384.51 225.319 384.198 225.319C378.967 225.397 373.736 225.553 368.661 225.943ZM611.234 215.247C611 215.247 610.766 215.091 610.688 214.935C610.532 214.623 610.61 214.232 610.922 214.076C615.372 211.578 619.822 208.845 624.038 205.957C624.35 205.722 624.741 205.801 624.975 206.113C625.209 206.425 625.131 206.816 624.819 206.972C620.525 209.86 616.075 212.593 611.546 215.169C611.468 215.247 611.312 215.247 611.234 215.247ZM636.92 197.837C636.764 197.837 636.53 197.759 636.452 197.603C636.218 197.291 636.296 196.9 636.53 196.666C640.512 193.465 644.415 190.03 648.163 186.438C648.397 186.204 648.865 186.204 649.1 186.438C649.334 186.673 649.334 187.141 649.1 187.375C645.352 190.967 641.448 194.402 637.389 197.603C637.154 197.837 636.998 197.837 636.92 197.837ZM659.327 176.445C659.171 176.445 659.015 176.367 658.937 176.289C658.703 176.055 658.625 175.664 658.859 175.352C662.294 171.526 665.573 167.467 668.618 163.407C668.852 163.095 669.242 163.095 669.555 163.251C669.867 163.485 669.867 163.875 669.711 164.188C666.588 168.325 663.309 172.385 659.874 176.211C659.64 176.367 659.483 176.445 659.327 176.445ZM677.909 151.696C677.752 151.696 677.674 151.696 677.596 151.618C677.284 151.462 677.206 150.993 677.362 150.759C680.095 146.465 682.671 141.937 685.091 137.409C685.247 137.096 685.638 136.94 685.95 137.174C686.262 137.33 686.419 137.721 686.184 138.033C683.764 142.639 681.188 147.168 678.377 151.54C678.377 151.54 678.143 151.696 677.909 151.696ZM692.352 124.214C692.274 124.214 692.196 124.214 692.118 124.136C691.806 123.98 691.649 123.59 691.806 123.277C693.835 118.593 695.709 113.752 697.349 108.834C697.427 108.521 697.817 108.287 698.208 108.443C698.52 108.521 698.754 108.912 698.598 109.302C696.88 114.221 695.007 119.061 692.977 123.824C692.821 124.136 692.586 124.214 692.352 124.214ZM702.502 94.9368C702.424 94.9368 702.424 94.9368 702.345 94.9368C702.033 94.8587 701.799 94.4683 701.877 94.156C703.204 89.2374 704.375 84.1627 705.312 79.0879C705.39 78.7757 705.703 78.5414 706.093 78.5414C706.405 78.6195 706.639 78.9318 706.639 79.3222C705.703 84.3969 704.532 89.5497 703.204 94.4683C703.048 94.7806 702.736 94.9368 702.502 94.9368ZM708.279 64.4883H708.201C707.811 64.4102 707.576 64.0979 707.654 63.7856C708.279 58.7109 708.747 53.558 708.982 48.4052C708.982 48.0149 709.294 47.7806 709.684 47.7806C710.075 47.7806 710.309 48.0929 710.309 48.4833C709.997 53.6361 709.528 58.867 708.904 63.9418C708.904 64.2541 708.591 64.4883 708.279 64.4883ZM710.075 33.5713C709.684 33.5713 709.45 33.259 709.45 32.9467C709.45 27.872 709.216 22.6411 708.904 17.4883C708.904 17.0979 709.138 16.7856 709.528 16.7856C709.919 16.7856 710.231 17.0198 710.231 17.4102C710.543 22.563 710.777 27.7939 710.777 32.9467C710.699 33.259 710.387 33.4933 710.075 33.5713ZM707.967 2.57631C707.654 2.57631 707.342 2.34209 707.342 2.0298C706.718 -3.04495 705.937 -8.19777 705 -13.2725C704.922 -13.6629 705.156 -13.9752 705.546 -14.0533C705.937 -14.1313 706.249 -13.8971 706.327 -13.5067C707.264 -8.35392 708.045 -3.2011 708.669 1.87366C708.747 2.26402 708.435 2.57631 708.123 2.57631C708.045 2.57631 708.045 2.57631 707.967 2.57631ZM702.502 -27.9503C702.189 -27.9503 701.955 -28.1845 701.877 -28.4187C700.706 -33.4154 699.379 -38.4121 697.973 -43.4087C697.895 -43.721 698.051 -44.1114 698.442 -44.1895C698.754 -44.2675 699.144 -44.1114 699.223 -43.721C700.628 -38.7244 702.033 -33.6496 703.204 -28.6529C703.282 -28.3406 703.048 -27.9503 702.736 -27.8722C702.58 -27.9503 702.502 -27.9503 702.502 -27.9503Z" fill="#243647"/>
<path d="M454.698 392.396C461.49 378.967 466.331 368.661 491.782 353.125C517.234 337.588 558.301 326.19 582.113 325.643" stroke="#39D2D1" stroke-width="1.3852" stroke-miterlimit="10" stroke-linecap="round" stroke-linejoin="round"/>
<path d="M482.648 359.058C493.266 343.99 502.869 333.294 519.03 328.376C535.191 323.379 548.307 320.88 580.473 325.721" stroke="#39D2D1" stroke-width="1.3852" stroke-miterlimit="10" stroke-linecap="round" stroke-linejoin="round"/>
<path d="M482.648 359.058C491.236 361.635 511.301 369.286 536.05 360.62C554.475 354.14 564.859 340.945 569.309 336.964C573.603 333.138 579.849 327.126 582.113 325.643" stroke="#39D2D1" stroke-width="1.3852" stroke-miterlimit="10" stroke-linecap="round" stroke-linejoin="round"/>
<path d="M507.631 333.45C505.055 337.198 502.947 341.804 503.806 346.645C511.379 347.738 522.543 353.437 526.603 363.274" stroke="#39D2D1" stroke-width="1.3852" stroke-miterlimit="10" stroke-linecap="round" stroke-linejoin="round"/>
<path d="M533.395 324.706C530.116 329 529.101 332.748 529.726 336.261C534.723 336.885 550.415 341.101 554.709 350.548" stroke="#39D2D1" stroke-width="1.3852" stroke-miterlimit="10" stroke-linecap="round" stroke-linejoin="round"/>
<path d="M558.457 323.379C553.85 325.955 552.523 329.937 552.523 329.937C552.523 329.937 561.267 330.874 568.841 337.51" stroke="#39D2D1" stroke-width="1.3852" stroke-miterlimit="10" stroke-linecap="round" stroke-linejoin="round"/>
<path d="M58.6329 93.1412C71.051 93.1412 81.1179 83.0743 81.1179 70.6562C81.1179 58.238 71.051 48.1711 58.6329 48.1711C46.2147 48.1711 36.1478 58.238 36.1478 70.6562C36.1478 83.0743 46.2147 93.1412 58.6329 93.1412Z" fill="url(#paint0_linear)"/>
<path d="M58.6329 93.0632C71.0465 93.0632 81.1179 82.9917 81.1179 70.5781C81.1179 68.7044 80.8837 66.9087 80.4933 65.1911C79.7126 65.4253 79.01 65.9718 78.5415 66.6745C77.6827 68.0798 77.7608 69.8755 76.9801 71.3588C76.2774 72.8422 73.7791 73.701 73.0764 72.2176C72.608 71.2808 73.1545 70.2658 73.4668 69.2509C74.4817 65.6595 70.4219 61.7559 66.9086 63.005C64.6445 63.7858 63.2392 65.9718 62.4585 68.2359C61.6777 70.5 61.4435 72.8422 60.7409 75.1064C60.0382 77.3705 58.5548 79.5565 56.3688 80.3372C54.1046 81.118 51.1379 79.7907 50.9817 77.4485C50.6694 73.9353 56.0565 71.5931 55.1977 68.2359C54.6512 66.206 52.0747 65.5034 50.1229 66.206C48.1711 66.9087 46.8438 68.6263 45.5947 70.2658C43.1744 73.5449 40.8322 76.902 38.5681 80.3372C42.0033 87.9103 49.7325 93.0632 58.6329 93.0632Z" fill="url(#paint1_linear)"/>
<path d="M671.429 351.173C690.616 351.173 706.171 335.618 706.171 316.43C706.171 297.243 690.616 281.688 671.429 281.688C652.241 281.688 636.686 297.243 636.686 316.43C636.686 335.618 652.241 351.173 671.429 351.173Z" fill="url(#paint2_linear)"/>
<path d="M706.249 316.43C706.249 313.385 705.859 310.341 705.078 307.53C703.204 308.233 701.487 309.56 700.316 311.121C698.208 313.854 697.115 317.133 695.397 320.1C694.46 321.739 693.367 323.301 691.962 324.472C690.4 325.799 688.058 324.628 688.292 322.598L689.776 307.374C689.932 305.89 688.995 304.173 687.98 303.08C686.106 301.05 682.593 301.909 680.719 303.86C674.786 310.028 673.927 313.307 668.774 326.658C667.915 328.844 667.369 331.264 665.963 333.06C664.168 335.402 660.654 336.729 658.234 334.231C656.985 332.982 656.595 331.186 656.751 329.39C657.219 325.331 660.264 322.364 661.357 318.538C662.372 314.947 660.576 309.872 656.048 310.887C654.877 311.121 653.862 311.824 653.003 312.605C647.929 317.679 643.244 323.145 639.028 328.922C644.103 341.882 656.673 351.017 671.429 351.017C690.635 351.251 706.249 335.636 706.249 316.43Z" fill="url(#paint3_linear)"/>
<path d="M143.498 338.056C138.346 311.98 133.739 306.281 126.244 308.545C118.749 310.809 118.125 337.588 122.809 349.143C113.362 323.847 105.867 303.158 94.3904 292.696C82.9136 282.234 64.2542 287.777 72.608 310.731C80.8837 333.684 88.3007 326.033 108.131 354.842C96.0299 341.492 80.5714 328.922 60.8189 327.126C41.0664 325.331 26.7791 329.078 28.4967 344.615C30.1362 360.151 46.7658 356.56 53.7143 355.701C60.6628 354.842 79.7126 353.515 90.4086 358.043C101.105 362.571 108.99 369.051 108.99 369.051C108.99 369.051 89.0814 355.233 69.3289 369.364C49.5764 383.495 63.2392 391.068 71.4369 390.365C79.6346 389.663 94.7027 383.963 102.432 385.369C110.239 386.774 122.106 392.473 126.088 395.206" stroke="#39D2D1" stroke-width="1.7818" stroke-miterlimit="10" stroke-linecap="round" stroke-linejoin="round"/>
<path d="M339.774 251.864C367.646 253.347 383.339 285.435 383.963 310.184C384.588 335.012 388.882 361.947 388.882 361.947C388.882 361.947 396.611 291.681 402.623 286.294C408.635 280.907 450.872 289.261 461.88 291.369C472.889 293.477 470.234 306.593 470.39 315.337C470.547 324.081 467.033 391.38 461.568 414.178C456.103 436.975 426.669 452.199 407.464 452.199C388.258 452.199 372.018 445.407 363.04 417.769C353.905 390.209 339.774 251.864 339.774 251.864Z" fill="url(#paint4_linear)"/>
<path d="M324.862 250.771C355.233 251.161 361.478 259.671 362.884 273.022C364.289 286.372 365.07 452.277 365.07 452.277H189.327C189.327 452.277 206.738 302.143 208.377 285.123C210.017 268.103 209.392 260.608 216.028 255.845C222.664 251.083 242.339 250.693 242.339 250.693H324.862V250.771Z" fill="url(#paint5_linear)"/>
<path d="M222.196 253.269C212.281 255.845 208.299 256.938 183.316 279.58C158.332 302.221 118.827 362.337 115.782 403.091C112.738 443.845 140.063 459.929 157.083 462.193C174.103 464.457 226.958 436.038 245.774 391.927C247.648 384.276 234.219 372.252 234.219 372.252L210.875 339.384C210.875 339.384 211.11 301.362 216.028 279.658C220.947 257.797 222.196 253.269 222.196 253.269Z" fill="url(#paint6_linear)"/>
<path d="M329 205.254C336.848 205.254 343.209 198.893 343.209 191.045C343.209 183.197 336.848 176.836 329 176.836C321.152 176.836 314.791 183.197 314.791 191.045C314.791 198.893 321.152 205.254 329 205.254Z" fill="#243647"/>
<path d="M290.666 172.151C298.514 172.151 304.875 165.79 304.875 157.942C304.875 150.094 298.514 143.733 290.666 143.733C282.818 143.733 276.457 150.094 276.457 157.942C276.457 165.79 282.818 172.151 290.666 172.151Z" fill="#243647"/>
<path d="M261.935 244.213C269.783 244.213 276.145 237.851 276.145 230.004C276.145 222.156 269.783 215.794 261.935 215.794C254.088 215.794 247.726 222.156 247.726 230.004C247.726 237.851 254.088 244.213 261.935 244.213Z" fill="#243647"/>
<path d="M242.417 220.322C250.265 220.322 256.626 213.961 256.626 206.113C256.626 198.266 250.265 191.904 242.417 191.904C234.569 191.904 228.208 198.266 228.208 206.113C228.208 213.961 234.569 220.322 242.417 220.322Z" fill="#243647"/>
<path d="M267.869 167.077C275.716 167.077 282.078 160.715 282.078 152.867C282.078 145.02 275.716 138.658 267.869 138.658C260.021 138.658 253.659 145.02 253.659 152.867C253.659 160.715 260.021 167.077 267.869 167.077Z" fill="#243647"/>
<path d="M255.846 186.673C265.892 186.673 274.037 178.528 274.037 168.482C274.037 158.435 265.892 150.291 255.846 150.291C245.799 150.291 237.654 158.435 237.654 168.482C237.654 178.528 245.799 186.673 255.846 186.673Z" fill="#243647"/>
<path d="M248.429 207.596C258.475 207.596 266.62 199.452 266.62 189.405C266.62 179.359 258.475 171.214 248.429 171.214C238.382 171.214 230.238 179.359 230.238 189.405C230.238 199.452 238.382 207.596 248.429 207.596Z" fill="#243647"/>
<path d="M245.852 240.856C255.899 240.856 264.043 232.711 264.043 222.665C264.043 212.618 255.899 204.474 245.852 204.474C235.805 204.474 227.661 212.618 227.661 222.665C227.661 232.711 235.805 240.856 245.852 240.856Z" fill="#243647"/>
<path d="M320.412 190.577C328.26 190.577 334.621 184.215 334.621 176.367C334.621 168.52 328.26 162.158 320.412 162.158C312.564 162.158 306.203 168.52 306.203 176.367C306.203 184.215 312.564 190.577 320.412 190.577Z" fill="#243647"/>
<path d="M313.385 181.598C323.734 181.598 332.123 173.209 332.123 162.861C332.123 152.512 323.734 144.123 313.385 144.123C303.037 144.123 294.648 152.512 294.648 162.861C294.648 173.209 303.037 181.598 313.385 181.598Z" fill="#243647"/>
<path d="M299.957 244.994L302.221 264.356C302.221 264.356 299.176 268.962 293.555 270.211C286.919 267.479 270.992 258.813 270.992 258.813L270.367 231.331L299.957 244.994Z" fill="white"/>
<path d="M291.993 249.288C315.838 249.288 335.168 229.958 335.168 206.113C335.168 182.269 315.838 162.939 291.993 162.939C268.149 162.939 248.819 182.269 248.819 206.113C248.819 229.958 268.149 249.288 291.993 249.288Z" fill="white"/>
<path d="M276.066 192.84C285.337 192.84 292.852 185.325 292.852 176.055C292.852 166.784 285.337 159.269 276.066 159.269C266.796 159.269 259.281 166.784 259.281 176.055C259.281 185.325 266.796 192.84 276.066 192.84Z" fill="#243647"/>
<path d="M308.467 181.208C313.469 181.208 317.523 177.153 317.523 172.151C317.523 167.149 313.469 163.095 308.467 163.095C303.465 163.095 299.41 167.149 299.41 172.151C299.41 177.153 303.465 181.208 308.467 181.208Z" fill="#243647"/>
<path d="M289.261 185.111C294.263 185.111 298.317 181.057 298.317 176.055C298.317 171.053 294.263 166.998 289.261 166.998C284.259 166.998 280.204 171.053 280.204 176.055C280.204 181.057 284.259 185.111 289.261 185.111Z" fill="#243647"/>
<path d="M320.412 176.055C325.414 176.055 329.468 172 329.468 166.998C329.468 161.997 325.414 157.942 320.412 157.942C315.41 157.942 311.355 161.997 311.355 166.998C311.355 172 315.41 176.055 320.412 176.055Z" fill="#243647"/>
<path d="M298.239 176.055C303.241 176.055 307.296 172 307.296 166.998C307.296 161.997 303.241 157.942 298.239 157.942C293.237 157.942 289.183 161.997 289.183 166.998C289.183 172 293.237 176.055 298.239 176.055Z" fill="#243647"/>
<path d="M259.359 198.228C264.361 198.228 268.415 194.173 268.415 189.171C268.415 184.169 264.361 180.115 259.359 180.115C254.357 180.115 250.302 184.169 250.302 189.171C250.302 194.173 254.357 198.228 259.359 198.228Z" fill="#243647"/>
<path d="M259.359 185.111C264.361 185.111 268.415 181.057 268.415 176.055C268.415 171.053 264.361 166.998 259.359 166.998C254.357 166.998 250.302 171.053 250.302 176.055C250.302 181.057 254.357 185.111 259.359 185.111Z" fill="#243647"/>
<path d="M248.819 203.146C253.821 203.146 257.875 199.091 257.875 194.09C257.875 189.088 253.821 185.033 248.819 185.033C243.817 185.033 239.762 189.088 239.762 194.09C239.762 199.091 243.817 203.146 248.819 203.146Z" fill="#243647"/>
<path d="M286.997 173.478C291.998 173.478 296.053 169.424 296.053 164.422C296.053 159.42 291.998 155.365 286.997 155.365C281.995 155.365 277.94 159.42 277.94 164.422C277.94 169.424 281.995 173.478 286.997 173.478Z" fill="#243647"/>
<path d="M254.284 212.125C259.286 212.125 263.34 208.07 263.34 203.068C263.34 198.066 259.286 194.012 254.284 194.012C249.282 194.012 245.228 198.066 245.228 203.068C245.228 208.07 249.282 212.125 254.284 212.125Z" fill="#243647"/>
<path d="M252.332 221.884C257.334 221.884 261.389 217.829 261.389 212.827C261.389 207.825 257.334 203.771 252.332 203.771C247.33 203.771 243.276 207.825 243.276 212.827C243.276 217.829 247.33 221.884 252.332 221.884Z" fill="#243647"/>
<path d="M250.849 238.123C258.136 238.123 264.043 232.216 264.043 224.929C264.043 217.642 258.136 211.734 250.849 211.734C243.562 211.734 237.654 217.642 237.654 224.929C237.654 232.216 243.562 238.123 250.849 238.123Z" fill="white"/>
<path d="M300.659 250.771H324.862C324.862 250.771 313.151 282.781 283.015 279.346C252.879 275.911 242.417 250.771 242.417 250.771H300.659Z" fill="white"/>
<path d="M213.686 291.447C213.061 311.98 210.953 339.384 210.953 339.384" stroke="#CCCCCC" stroke-width="2.4861" stroke-miterlimit="10" stroke-linecap="round" stroke-linejoin="round"/>
<path d="M208.377 341.492C208.377 333.294 224.694 321.661 226.724 316.352C228.754 311.121 233.048 300.035 237.108 294.336C241.09 288.714 250.38 291.056 247.257 301.987C244.135 312.917 244.369 317.757 244.681 326.346C244.993 334.934 208.377 341.492 208.377 341.492Z" fill="white"/>
<path d="M258.968 269.977L252.332 283.405C251.864 284.342 250.927 285.045 249.834 285.201L235 287.387C232.346 287.777 231.253 291.057 233.204 293.008L243.978 303.47C244.759 304.251 245.071 305.344 244.915 306.359L242.417 321.115C241.949 323.769 244.759 325.799 247.179 324.55L260.452 317.601C261.389 317.133 262.56 317.133 263.497 317.601L276.769 324.55C279.189 325.799 282 323.769 281.532 321.115L279.033 306.359C278.877 305.266 279.189 304.173 279.97 303.47L290.744 293.008C292.696 291.135 291.603 287.777 288.949 287.387L274.115 285.201C273.022 285.045 272.085 284.342 271.616 283.405L264.98 269.977C263.653 267.557 260.14 267.557 258.968 269.977Z" fill="url(#paint7_linear)"/>
<path d="M206.113 343.366C220.322 331.733 234.141 320.334 240.465 316.04C249.99 309.56 264.199 300.347 272.085 292.15C280.282 283.562 289.417 295.038 284.967 299.489C289.651 294.492 297.302 302.69 291.837 310.497C295.741 309.013 299.879 318.148 294.336 323.535C298.161 322.91 301.518 327.283 298.239 333.997C295.507 339.54 288.324 350.314 265.136 365.148C257.719 369.91 249.053 376.312 241.246 382.012C237.03 385.057 225.865 382.168 215.638 369.52C208.767 360.932 202.287 346.41 206.113 343.366Z" fill="white"/>
<path d="M264.121 333.763C263.653 333.997 263.497 334.621 263.731 335.09C263.965 335.558 264.59 335.714 265.058 335.48C273.802 330.64 284.889 319.866 293.086 310.341C292.618 310.263 292.149 310.263 291.681 310.419C292.462 309.326 291.369 311.512 291.681 310.419C283.64 319.475 273.256 328.766 264.121 333.763Z" fill="#CCCCCC"/>
<path d="M284.811 299.489C274.739 311.278 261.935 319.241 256.002 323.145C255.533 323.457 255.377 324.082 255.689 324.55C256.002 325.019 256.626 325.175 257.095 324.862C263.106 320.959 277.003 311.2 287.231 298.161C286.372 298.239 285.591 298.708 284.811 299.489C285.748 298.63 284.733 299.645 284.811 299.489Z" fill="#CCCCCC"/>
<path d="M294.257 323.535C288.48 330.874 279.111 338.837 270.445 344.771C269.977 345.083 269.899 345.708 270.211 346.176C270.523 346.645 271.148 346.723 271.616 346.41C279.189 341.18 289.027 331.733 295.585 323.535C295.194 323.457 294.726 323.457 294.257 323.535C295.741 322.052 294.257 323.535 294.257 323.535Z" fill="#CCCCCC"/>
<path d="M384.666 62.1463L378.03 75.5748C377.561 76.5117 376.625 77.2144 375.532 77.3705L360.698 79.5566C358.043 79.9469 356.95 83.226 358.902 85.1778L369.676 95.6396C370.457 96.4203 370.769 97.5134 370.613 98.5283L368.115 113.284C367.646 115.939 370.457 117.969 372.877 116.719L386.149 109.771C387.086 109.302 388.257 109.302 389.194 109.771L402.467 116.719C404.887 117.969 407.698 115.939 407.229 113.284L404.731 98.5283C404.575 97.4353 404.887 96.3423 405.668 95.6396L416.442 85.1778C418.394 83.3041 417.301 79.9469 414.646 79.5566L399.812 77.3705C398.719 77.2144 397.782 76.5117 397.314 75.5748L390.678 62.1463C389.35 59.726 385.915 59.726 384.666 62.1463Z" fill="url(#paint8_linear)"/>
<path d="M197.135 57.1495L190.498 70.6562C190.03 71.5931 189.093 72.2957 188 72.4519L173.166 74.6379C170.512 75.0283 169.419 78.3074 171.37 80.2592L182.145 90.721C182.925 91.5017 183.238 92.5947 183.081 93.6097L180.583 108.366C180.115 111.02 182.925 113.05 185.346 111.801L198.618 104.852C199.555 104.384 200.726 104.384 201.663 104.852L214.935 111.801C217.355 113.05 220.166 111.02 219.698 108.366L217.199 93.6097C217.043 92.5167 217.355 91.4236 218.136 90.721L228.91 80.2592C230.862 78.3854 229.769 75.0283 227.115 74.6379L212.281 72.4519C211.188 72.2957 210.251 71.5931 209.782 70.6562L203.146 57.2276C201.819 54.7293 198.384 54.7293 197.135 57.1495Z" fill="url(#paint9_linear)"/>
<path d="M102.198 177.226L95.5615 190.655C95.093 191.592 94.1561 192.294 93.0631 192.45L78.2292 194.636C75.5747 195.027 74.4817 198.306 76.4336 200.258L87.2076 210.719C87.9884 211.5 88.3007 212.593 88.1445 213.608L85.6462 228.364C85.1777 231.018 87.9884 233.048 90.4086 231.799L103.681 224.851C104.618 224.382 105.789 224.382 106.726 224.851L119.998 231.799C122.419 233.048 125.229 231.018 124.761 228.364L122.262 213.608C122.106 212.515 122.419 211.422 123.199 210.719L133.973 200.258C135.925 198.384 134.832 195.027 132.178 194.636L117.344 192.45C116.251 192.294 115.314 191.592 114.846 190.655L108.209 177.226C106.882 174.806 103.369 174.806 102.198 177.226Z" fill="url(#paint10_linear)"/>
<path d="M461.802 291.447C448.686 296.209 424.64 295.038 411.914 289.105C410.821 273.568 408.713 251.942 416.52 242.261C424.327 232.58 438.771 235.156 445.485 231.409C452.199 227.661 475.934 207.128 481.945 209.626C485.302 211.032 486.942 204.708 492.251 209.704C494.437 211.734 491.704 215.794 491.704 215.794C491.704 215.794 499.277 210.719 504.664 213.686C508.178 215.638 510.754 219.307 508.49 222.821C512.706 222.587 515.907 226.646 511.301 235.781C506.694 244.993 490.455 262.326 473.279 267.947C456.181 273.49 461.802 291.447 461.802 291.447Z" fill="white"/>
<path d="M508.49 222.665C500.683 218.605 492.953 234.532 483.741 242.183C474.528 249.834 457.899 242.027 446.578 244.915C435.257 247.726 430.651 258.344 430.651 258.344" stroke="#CCCCCC" stroke-width="2.4861" stroke-miterlimit="10" stroke-linecap="round" stroke-linejoin="round"/>
<path d="M491.704 215.638C481.633 220.791 475.621 238.513 470.312 241.012C465.003 243.51 453.292 244.291 449.779 244.369" stroke="#CCCCCC" stroke-width="2.4861" stroke-miterlimit="10" stroke-linecap="round" stroke-linejoin="round"/>
<path d="M476.324 217.199C470.703 227.349 470.312 231.799 465.316 236.249C460.943 240.153 449.857 244.369 446.656 244.837" stroke="#CCCCCC" stroke-width="2.4861" stroke-miterlimit="10" stroke-linecap="round" stroke-linejoin="round"/>
<path d="M466.643 177.226L460.007 190.655C459.538 191.592 458.601 192.294 457.508 192.45L442.674 194.636C440.02 195.027 438.927 198.306 440.879 200.258L451.653 210.719C452.434 211.5 452.746 212.593 452.59 213.608L450.091 228.364C449.623 231.018 452.434 233.048 454.854 231.799L468.126 224.851C469.063 224.382 470.234 224.382 471.171 224.851L484.444 231.799C486.864 233.048 489.674 231.018 489.206 228.364L486.708 213.608C486.552 212.515 486.864 211.422 487.645 210.719L498.419 200.258C500.37 198.384 499.277 195.027 496.623 194.636L481.789 192.45C480.696 192.294 479.759 191.592 479.291 190.655L472.655 177.226C471.327 174.806 467.892 174.806 466.643 177.226Z" fill="url(#paint11_linear)"/>
<path d="M402.545 286.372C391.536 313.151 386.852 380.216 388.804 391.927" stroke="#CCCCCC" stroke-width="2.4861" stroke-miterlimit="10" stroke-linecap="round" stroke-linejoin="round"/>
<path d="M362.884 298.083C366.475 341.882 365.07 436.429 365.07 452.277" stroke="#CCCCCC" stroke-width="2.4861" stroke-miterlimit="10" stroke-linecap="round" stroke-linejoin="round"/>
<path d="M206.113 343.366C198.071 336.964 190.03 338.447 179.256 346.645C168.56 354.842 135.925 379.904 135.925 379.904" stroke="#CCCCCC" stroke-width="2.4861" stroke-miterlimit="10" stroke-linecap="round" stroke-linejoin="round"/>
<path d="M241.168 381.934C248.507 389.663 244.915 398.095 235.078 411.992C225.241 425.811 195.573 448.061 180.739 456.103C160.518 467.033 137.174 462.505 121.56 436.585" stroke="#CCCCCC" stroke-width="2.4861" stroke-miterlimit="10" stroke-linecap="round" stroke-linejoin="round"/>
</g>
<defs>
<linearGradient id="paint0_linear" x1="36.1784" y1="70.6377" x2="81.0838" y2="70.6377" gradientUnits="userSpaceOnUse">
<stop stop-color="#015976"/>
<stop offset="1" stop-color="#042B42"/>
</linearGradient>
<linearGradient id="paint1_linear" x1="38.4083" y1="77.9934" x2="81.0837" y2="77.9934" gradientUnits="userSpaceOnUse">
<stop stop-color="#4B3263"/>
<stop offset="1" stop-color="#042B42"/>
</linearGradient>
<linearGradient id="paint2_linear" x1="636.687" y1="316.435" x2="706.243" y2="316.435" gradientUnits="userSpaceOnUse">
<stop stop-color="#015976"/>
<stop offset="1" stop-color="#042B42"/>
</linearGradient>
<linearGradient id="paint3_linear" x1="639.084" y1="326.607" x2="706.242" y2="326.607" gradientUnits="userSpaceOnUse">
<stop stop-color="#4B3263"/>
<stop offset="1" stop-color="#042B42"/>
</linearGradient>
<linearGradient id="paint4_linear" x1="354.165" y1="382.207" x2="444.318" y2="294.732" gradientUnits="userSpaceOnUse">
<stop stop-color="#015976"/>
<stop offset="1" stop-color="#042B42"/>
</linearGradient>
<linearGradient id="paint5_linear" x1="365.114" y1="351.52" x2="189.341" y2="351.52" gradientUnits="userSpaceOnUse">
<stop stop-color="#015976"/>
<stop offset="1" stop-color="#042B42"/>
</linearGradient>
<linearGradient id="paint6_linear" x1="139.559" y1="414.297" x2="248.062" y2="309.017" gradientUnits="userSpaceOnUse">
<stop stop-color="#015976"/>
<stop offset="1" stop-color="#042B42"/>
</linearGradient>
<linearGradient id="paint7_linear" x1="291.597" y1="296.572" x2="232.197" y2="296.572" gradientUnits="userSpaceOnUse">
<stop stop-color="#F49A1A"/>
<stop offset="0.000510365" stop-color="#F49A1A"/>
<stop offset="1" stop-color="#FFDE44"/>
</linearGradient>
<linearGradient id="paint8_linear" x1="417.319" y1="88.7571" x2="357.919" y2="88.7571" gradientUnits="userSpaceOnUse">
<stop stop-color="#F49A1A"/>
<stop offset="0.000510365" stop-color="#F49A1A"/>
<stop offset="1" stop-color="#FFDE44"/>
</linearGradient>
<linearGradient id="paint9_linear" x1="229.805" y1="83.7569" x2="170.405" y2="83.7569" gradientUnits="userSpaceOnUse">
<stop stop-color="#5CB8B2"/>
<stop offset="1" stop-color="#41B6E6"/>
</linearGradient>
<linearGradient id="paint10_linear" x1="134.839" y1="203.812" x2="75.4389" y2="203.812" gradientUnits="userSpaceOnUse">
<stop stop-color="#5CB8B2"/>
<stop offset="1" stop-color="#41B6E6"/>
</linearGradient>
<linearGradient id="paint11_linear" x1="499.308" y1="203.812" x2="439.908" y2="203.812" gradientUnits="userSpaceOnUse">
<stop stop-color="#5CB8B2"/>
<stop offset="1" stop-color="#41B6E6"/>
</linearGradient>
<clipPath id="clip0">
<rect width="771.362" height="470" fill="white"/>
</clipPath>
</defs>
</svg>
