<svg width="772" height="470" viewBox="0 0 772 470" fill="none" xmlns="http://www.w3.org/2000/svg">
<g clip-path="url(#clip0)">
<path d="M129.445 420.814C124.448 420.502 119.218 419.721 113.987 418.628C113.674 418.55 113.44 418.238 113.518 417.847C113.596 417.535 113.909 417.301 114.299 417.379C119.53 418.472 124.683 419.253 129.523 419.565C129.914 419.565 130.148 419.877 130.148 420.267C130.07 420.58 129.679 420.814 129.445 420.814ZM144.904 420.424C144.591 420.424 144.279 420.189 144.279 419.877C144.201 419.487 144.513 419.174 144.826 419.174C150.135 418.55 155.131 417.301 159.738 415.505C160.05 415.349 160.44 415.505 160.596 415.895C160.752 416.286 160.596 416.598 160.206 416.754C155.522 418.55 150.369 419.799 144.982 420.502C144.904 420.424 144.904 420.424 144.904 420.424ZM99.0747 414.568C98.9967 414.568 98.9186 414.568 98.8405 414.568C94.0781 413.007 89.1595 411.055 84.3189 408.947C84.0066 408.791 83.8505 408.4 84.0066 408.088C84.1628 407.776 84.5531 407.62 84.8654 407.776C89.706 409.884 94.5465 411.758 99.309 413.397C99.6212 413.475 99.8555 413.865 99.6993 414.178C99.6212 414.412 99.309 414.568 99.0747 414.568ZM173.635 409.728C173.4 409.728 173.244 409.65 173.088 409.415C172.932 409.103 173.01 408.713 173.244 408.556C177.226 405.98 181.286 403.013 185.658 399.344C185.97 399.11 186.36 399.188 186.595 399.422C186.829 399.656 186.751 400.125 186.517 400.359C182.145 404.028 178.085 407.073 174.025 409.65C173.947 409.65 173.791 409.728 173.635 409.728ZM70.7342 402.076C70.6561 402.076 70.5 402.076 70.4219 401.998C65.9717 399.578 61.4435 396.924 56.9933 394.113C56.681 393.957 56.603 393.488 56.7591 393.254C56.9153 392.942 57.3837 392.864 57.6179 393.02C61.99 395.831 66.5183 398.485 70.9684 400.905C71.2807 401.061 71.4369 401.452 71.2026 401.764C71.2026 401.998 70.8904 402.076 70.7342 402.076ZM197.603 390.053C197.447 390.053 197.291 389.975 197.135 389.819C196.9 389.585 196.9 389.116 197.135 388.882C200.492 385.603 204.083 382.012 207.987 377.796C208.221 377.561 208.611 377.561 208.924 377.796C209.158 378.03 209.158 378.42 208.924 378.733C204.942 382.87 201.429 386.54 197.993 389.819C197.993 389.975 197.837 390.053 197.603 390.053ZM44.5016 385.447C44.3455 385.447 44.2674 385.369 44.1113 385.291C39.9734 382.246 35.8355 378.967 31.8538 375.688C31.5415 375.454 31.5415 375.063 31.7757 374.751C32.01 374.439 32.4003 374.439 32.7126 374.673C36.6163 378.03 40.7541 381.231 44.892 384.276C45.2043 384.51 45.2043 384.9 45.0482 385.213C44.892 385.369 44.6578 385.447 44.5016 385.447ZM218.995 367.568C218.839 367.568 218.683 367.49 218.527 367.412C218.292 367.178 218.214 366.787 218.448 366.475C221.962 362.65 225.475 358.668 228.832 354.92C229.066 354.686 229.457 354.608 229.769 354.842C230.003 355.076 230.081 355.467 229.847 355.779C226.49 359.527 222.977 363.508 219.463 367.334C219.385 367.49 219.229 367.568 218.995 367.568ZM20.6894 365.46C20.5332 365.46 20.3771 365.382 20.2209 365.304C16.4734 361.713 12.804 357.887 9.36876 354.14C9.13454 353.905 9.13454 353.437 9.44683 353.203C9.68105 352.968 10.1495 352.968 10.3837 353.281C13.8189 357.028 17.4103 360.776 21.1578 364.367C21.392 364.601 21.392 364.992 21.1578 365.304C21.0797 365.382 21.0016 365.46 20.6894 365.46ZM239.684 344.38C239.528 344.38 239.372 344.302 239.216 344.224C238.982 343.99 238.904 343.6 239.138 343.287C243.042 338.915 246.399 335.246 249.6 331.811C249.834 331.576 250.224 331.498 250.537 331.811C250.771 332.045 250.849 332.435 250.537 332.748C247.336 336.261 244.056 339.852 240.075 344.224C240.075 344.302 239.997 344.38 239.684 344.38ZM-1.14441e-05 342.351C-0.156158 342.351 -0.390377 342.272 -0.546524 342.116C-3.74752 337.9 -6.79237 333.684 -9.52493 329.39C-9.68108 329.078 -9.603 328.688 -9.36878 328.532C-9.05649 328.375 -8.66612 328.454 -8.50998 328.688C-5.77742 332.904 -2.81064 337.12 0.390354 341.336C0.624573 341.648 0.546501 342.038 0.312283 342.272C0.234209 342.351 0.156136 342.351 -1.14441e-05 342.351ZM260.764 321.583C260.608 321.583 260.452 321.505 260.296 321.427C260.061 321.193 260.061 320.802 260.296 320.49C264.043 316.586 267.635 312.917 271.148 309.404C271.382 309.169 271.772 309.169 272.085 309.404C272.319 309.638 272.319 310.028 272.085 310.341C268.493 313.854 264.98 317.523 261.233 321.427C261.154 321.505 260.92 321.583 260.764 321.583ZM-16.7077 316.274C-16.9419 316.274 -17.1761 316.118 -17.2542 315.884C-19.6744 311.121 -21.7824 306.281 -23.5 301.596C-23.6562 301.284 -23.4219 300.894 -23.1096 300.738C-22.7974 300.581 -22.407 300.816 -22.2508 301.128C-20.5332 305.812 -18.5033 310.575 -16.0831 315.259C-15.9269 315.571 -16.0831 315.962 -16.3954 316.118C-16.4734 316.196 -16.5515 316.274 -16.7077 316.274ZM282.781 299.723C282.625 299.723 282.468 299.645 282.312 299.488C282.078 299.254 282.078 298.786 282.312 298.552C286.216 294.96 290.042 291.447 293.867 288.168C294.101 287.934 294.57 287.934 294.804 288.246C295.038 288.48 295.038 288.949 294.726 289.183C290.9 292.462 287.075 295.975 283.171 299.488C283.249 299.645 283.015 299.723 282.781 299.723ZM-27.1694 287.153C-27.4817 287.153 -27.716 286.919 -27.794 286.606C-28.8871 281.375 -29.4336 276.145 -29.4336 271.07C-29.4336 270.679 -29.1213 270.445 -28.809 270.445C-28.4186 270.445 -28.1844 270.758 -28.1844 271.07C-28.1063 275.988 -27.5598 281.141 -26.5449 286.372C-26.4668 286.684 -26.701 287.075 -27.0133 287.153C-27.0914 287.153 -27.0914 287.153 -27.1694 287.153ZM306.437 279.502C306.281 279.502 306.047 279.424 305.89 279.267C305.656 278.955 305.734 278.565 305.968 278.331C310.106 275.052 314.244 271.929 318.382 268.962C318.694 268.728 319.085 268.806 319.319 269.118C319.553 269.43 319.475 269.821 319.163 270.055C315.025 273.022 310.887 276.145 306.827 279.346C306.671 279.424 306.515 279.502 306.437 279.502ZM331.654 261.467C331.42 261.467 331.264 261.389 331.108 261.155C330.952 260.842 331.03 260.452 331.342 260.296C335.714 257.485 340.243 254.753 344.615 252.254C344.927 252.098 345.317 252.176 345.473 252.488C345.63 252.801 345.552 253.191 345.239 253.347C340.789 255.846 336.339 258.578 331.967 261.311C331.811 261.389 331.811 261.467 331.654 261.467ZM358.668 246.164C358.434 246.164 358.199 246.008 358.121 245.774C357.965 245.462 358.121 245.071 358.434 244.915C363.118 242.651 367.802 240.465 372.565 238.435C372.877 238.279 373.267 238.435 373.424 238.748C373.58 239.06 373.424 239.45 373.111 239.606C368.427 241.558 363.664 243.744 359.058 246.008C358.746 246.164 358.746 246.164 358.668 246.164ZM387.243 234.141C387.008 234.141 386.696 233.985 386.618 233.673C386.462 233.36 386.696 232.97 387.008 232.814C391.849 231.096 396.846 229.535 401.842 228.13C402.155 228.052 402.545 228.208 402.623 228.598C402.701 228.91 402.545 229.301 402.154 229.379C397.236 230.784 392.239 232.346 387.399 234.063C387.243 234.141 387.243 234.141 387.243 234.141ZM416.91 225.631C416.598 225.631 416.364 225.397 416.286 225.163C416.208 224.851 416.442 224.46 416.754 224.382C421.751 223.289 426.904 222.274 431.978 221.493C432.369 221.415 432.681 221.65 432.759 222.04C432.837 222.43 432.603 222.743 432.213 222.743C427.138 223.601 421.985 224.538 417.066 225.631C417.066 225.631 417.066 225.631 416.91 225.631ZM447.515 220.713C447.203 220.713 446.89 220.478 446.89 220.166C446.89 219.776 447.125 219.464 447.437 219.464C452.512 218.917 457.743 218.527 462.895 218.214C463.286 218.214 463.52 218.449 463.598 218.839C463.598 219.229 463.364 219.464 462.973 219.542C457.899 219.776 452.668 220.166 447.515 220.713ZM478.432 218.839C478.12 218.839 477.807 218.605 477.807 218.214C477.807 217.824 478.042 217.59 478.432 217.512C483.663 217.277 488.816 216.887 493.89 216.419C494.281 216.419 494.593 216.653 494.593 217.043C494.593 217.434 494.359 217.746 493.968 217.746C488.972 218.292 483.819 218.605 478.432 218.839C478.588 218.839 478.432 218.839 478.432 218.839ZM509.427 216.106C509.115 216.106 508.802 215.872 508.802 215.56C508.724 215.169 509.037 214.857 509.349 214.857C514.502 214.155 519.655 213.374 524.651 212.437C525.042 212.359 525.354 212.593 525.432 212.983C525.51 213.374 525.276 213.686 524.885 213.764C519.889 214.701 514.736 215.482 509.505 216.184C509.427 216.106 509.427 216.106 509.427 216.106ZM539.875 210.563C539.563 210.563 539.329 210.329 539.251 210.095C539.173 209.782 539.407 209.392 539.719 209.314C544.794 208.143 549.869 206.738 554.631 205.332C554.944 205.254 555.334 205.41 555.412 205.801C555.49 206.113 555.334 206.503 554.944 206.581C550.103 208.065 545.028 209.392 539.875 210.563C540.032 210.563 539.875 210.563 539.875 210.563ZM569.543 201.663C569.309 201.663 568.997 201.507 568.919 201.272C568.762 200.96 568.997 200.57 569.309 200.414C574.228 198.618 578.99 196.588 583.596 194.48C583.909 194.324 584.299 194.48 584.455 194.792C584.611 195.105 584.455 195.495 584.143 195.651C579.537 197.759 574.696 199.789 569.777 201.585C569.777 201.585 569.699 201.663 569.543 201.663ZM597.65 188.625C597.415 188.625 597.181 188.468 597.103 188.312C596.947 188 597.025 187.61 597.337 187.454C601.865 184.877 606.316 182.145 610.454 179.256C610.766 179.022 611.156 179.1 611.39 179.412C611.625 179.724 611.547 180.115 611.234 180.349C607.018 183.238 602.646 186.048 598.04 188.625C597.884 188.625 597.884 188.625 597.65 188.625ZM623.179 170.98C623.023 170.98 622.789 170.902 622.711 170.746C622.477 170.512 622.477 170.043 622.789 169.809C626.771 166.452 630.518 162.939 634.032 159.191C634.266 158.957 634.656 158.957 634.968 159.191C635.203 159.425 635.203 159.816 634.968 160.128C631.455 163.797 627.63 167.389 623.648 170.824C623.414 170.98 623.257 170.98 623.179 170.98ZM644.493 148.573C644.337 148.573 644.181 148.495 644.103 148.417C643.791 148.183 643.791 147.792 643.947 147.48C647.07 143.42 649.959 139.126 652.613 134.676C652.769 134.364 653.159 134.286 653.472 134.442C653.784 134.598 653.862 134.988 653.706 135.301C651.051 139.751 648.163 144.045 644.962 148.183C644.884 148.495 644.728 148.573 644.493 148.573ZM660.342 122.028C660.264 122.028 660.186 122.028 660.108 121.95C659.796 121.794 659.639 121.404 659.796 121.091C661.904 116.485 663.777 111.645 665.417 106.726C665.495 106.414 665.885 106.179 666.198 106.336C666.51 106.414 666.744 106.804 666.588 107.116C664.949 112.035 663.075 116.953 660.967 121.638C660.889 121.872 660.655 122.028 660.342 122.028ZM670.023 92.5947C669.945 92.5947 669.945 92.5947 669.867 92.5947C669.555 92.5166 669.321 92.2043 669.399 91.814C670.492 86.8954 671.35 81.7425 671.975 76.5897C672.053 76.1993 672.365 75.9651 672.678 76.0432C673.068 76.1213 673.302 76.4336 673.224 76.7458C672.6 81.9768 671.741 87.1296 670.648 92.1263C670.648 92.4385 670.414 92.5947 670.023 92.5947ZM673.927 61.912C673.537 61.912 673.302 61.5997 673.302 61.2093C673.38 58.9452 673.458 56.6811 673.458 54.3389C673.458 51.5282 673.38 48.6395 673.302 45.7508C673.302 45.3605 673.537 45.1263 673.927 45.0482C674.239 45.0482 674.551 45.2824 674.63 45.6728C674.786 48.5615 674.786 51.4502 674.786 54.3389C674.786 56.6811 674.708 58.9452 674.63 61.2093C674.551 61.5997 674.161 61.912 673.927 61.912ZM672.6 30.9169C672.287 30.9169 671.975 30.6827 671.975 30.3704C671.429 25.3738 670.648 20.2209 669.711 15.0681C669.633 14.6777 669.867 14.3654 670.257 14.2874C670.648 14.2093 670.96 14.4435 671.038 14.8339C671.975 19.9867 672.756 25.2176 673.302 30.2143C673.224 30.5266 672.99 30.8389 672.6 30.9169ZM667.135 0.390366C666.822 0.390366 666.588 0.156143 666.51 -0.0780754C665.339 -4.99668 664.012 -9.99335 662.528 -15.0681C662.45 -15.3804 662.606 -15.7708 662.997 -15.8488C663.309 -15.9269 663.699 -15.7708 663.777 -15.3804C665.261 -10.3837 666.666 -5.30897 667.837 -0.390366C667.915 -0.0780716 667.681 0.312294 667.369 0.390366C667.291 0.312294 667.135 0.390366 667.135 0.390366ZM658.312 -29.3555C658.078 -29.3555 657.766 -29.5116 657.688 -29.8239C656.048 -34.5864 654.174 -39.505 652.223 -44.3455C652.066 -44.6578 652.223 -45.0482 652.613 -45.2043C652.925 -45.3605 653.316 -45.2043 653.472 -44.814C655.424 -39.9734 657.219 -35.0548 658.937 -30.2924C659.093 -29.9801 658.859 -29.5897 658.547 -29.4336C658.547 -29.4336 658.39 -29.3555 658.312 -29.3555Z" fill="#243647"/>
<path d="M318.929 432.447C329.546 418.004 337.354 406.761 370.457 393.489C403.56 380.216 454.229 374.985 482.492 379.045" stroke="#39D2D1" stroke-width="1.6565" stroke-miterlimit="10" stroke-linecap="round" stroke-linejoin="round"/>
<path d="M358.512 398.719C374.048 383.027 387.477 372.409 407.542 369.754C427.606 367.1 443.533 366.787 480.54 378.811" stroke="#39D2D1" stroke-width="1.6565" stroke-miterlimit="10" stroke-linecap="round" stroke-linejoin="round"/>
<path d="M358.512 398.719C368.193 403.404 390.287 416.52 421.126 411.211C444.158 407.307 458.992 393.723 465.081 389.897C470.859 386.306 479.447 380.372 482.414 379.045" stroke="#39D2D1" stroke-width="1.6565" stroke-miterlimit="10" stroke-linecap="round" stroke-linejoin="round"/>
<path d="M393.098 373.423C389.35 377.327 385.915 382.324 385.915 388.257C394.659 390.99 406.683 400.046 409.493 412.46" stroke="#39D2D1" stroke-width="1.6565" stroke-miterlimit="10" stroke-linecap="round" stroke-linejoin="round"/>
<path d="M425.264 368.271C420.502 372.721 418.55 376.859 418.628 381.153C424.327 382.949 442.05 390.99 445.251 402.935" stroke="#39D2D1" stroke-width="1.6565" stroke-miterlimit="10" stroke-linecap="round" stroke-linejoin="round"/>
<path d="M455.01 371.628C449.076 373.736 446.656 378.108 446.656 378.108C446.656 378.108 456.806 380.919 464.457 390.287" stroke="#39D2D1" stroke-width="1.6565" stroke-miterlimit="10" stroke-linecap="round" stroke-linejoin="round"/>
<path d="M291.056 447.047C306.281 437.522 317.601 429.949 353.281 429.714C388.96 429.48 437.99 443.299 462.739 457.43" stroke="#39D2D1" stroke-width="1.6565" stroke-miterlimit="10" stroke-linecap="round" stroke-linejoin="round"/>
<path d="M340.321 430.182C360.542 421.36 376.937 416.364 396.533 421.282C416.13 426.201 431.12 431.744 461.1 456.571" stroke="#39D2D1" stroke-width="1.6565" stroke-miterlimit="10" stroke-linecap="round" stroke-linejoin="round"/>
<path d="M340.321 430.183C347.581 438.146 363.352 458.367 393.957 464.847C416.832 469.688 435.648 462.505 442.596 461.178C449.311 459.928 459.46 457.586 462.739 457.43" stroke="#39D2D1" stroke-width="1.6565" stroke-miterlimit="10" stroke-linecap="round" stroke-linejoin="round"/>
<path d="M381.699 419.331C376.781 421.595 371.784 424.952 369.598 430.495C376.703 436.272 384.588 449.076 382.636 461.646" stroke="#39D2D1" stroke-width="1.6565" stroke-miterlimit="10" stroke-linecap="round" stroke-linejoin="round"/>
<path d="M413.397 426.357C407.307 428.699 404.028 431.9 402.467 435.882C407.151 439.629 420.658 453.683 419.174 465.94" stroke="#39D2D1" stroke-width="1.6565" stroke-miterlimit="10" stroke-linecap="round" stroke-linejoin="round"/>
<path d="M439.942 440.41C433.618 440.254 429.792 443.377 429.792 443.377C429.792 443.377 438.224 449.779 441.816 461.256" stroke="#39D2D1" stroke-width="1.6565" stroke-miterlimit="10" stroke-linecap="round" stroke-linejoin="round"/>
<path d="M114.924 407.541C105.164 404.34 97.8256 401.764 77.9169 406.605C58.0864 411.445 32.7907 425.889 21.0797 437.209" stroke="#39D2D1" stroke-width="1.6565" stroke-miterlimit="10" stroke-linecap="round" stroke-linejoin="round"/>
<path d="M85.2558 405.043C72.7641 402.935 63.005 402.467 52.7774 407.932C42.5498 413.397 35.0548 418.55 21.7824 436.507" stroke="#39D2D1" stroke-width="1.6565" stroke-miterlimit="10" stroke-linecap="round" stroke-linejoin="round"/>
<path d="M85.2558 405.043C82.3671 410.43 76.3555 423.937 60.2724 431.744C48.2492 437.599 36.7724 436.194 32.7126 436.506C28.809 436.741 22.8754 436.897 21.0017 437.209" stroke="#39D2D1" stroke-width="1.6565" stroke-miterlimit="10" stroke-linecap="round" stroke-linejoin="round"/>
<path d="M60.7408 404.731C63.7857 405.277 67.0648 406.449 69.0166 409.259C65.8937 413.475 63.2392 421.673 66.0498 428.387" stroke="#39D2D1" stroke-width="1.6565" stroke-miterlimit="10" stroke-linecap="round" stroke-linejoin="round"/>
<path d="M44.1113 413.085C47.7807 413.553 50.1229 414.881 51.4502 416.833C49.3422 419.565 43.799 429.246 46.2973 435.882" stroke="#39D2D1" stroke-width="1.6565" stroke-miterlimit="10" stroke-linecap="round" stroke-linejoin="round"/>
<path d="M31.3854 424.562C34.8206 423.625 37.397 424.796 37.397 424.796C37.397 424.796 33.5714 429.48 33.181 436.429" stroke="#39D2D1" stroke-width="1.6565" stroke-miterlimit="10" stroke-linecap="round" stroke-linejoin="round"/>
<path d="M147.636 419.643C140.61 406.683 135.535 396.612 110.083 382.012C84.6312 367.412 43.8771 357.341 20.4552 357.419" stroke="#39D2D1" stroke-width="1.6565" stroke-miterlimit="10" stroke-linecap="round" stroke-linejoin="round"/>
<path d="M119.14 387.633C108.287 373.112 98.5282 362.884 82.5233 358.434C66.5183 353.984 53.4801 351.876 21.9385 357.497" stroke="#39D2D1" stroke-width="1.6565" stroke-miterlimit="10" stroke-linecap="round" stroke-linejoin="round"/>
<path d="M119.14 387.633C110.708 390.366 91.1894 398.485 66.6744 390.678C48.3273 384.823 37.7874 372.097 33.3372 368.349C29.0432 364.758 22.7193 358.98 20.4552 357.497" stroke="#39D2D1" stroke-width="1.6565" stroke-miterlimit="10" stroke-linecap="round" stroke-linejoin="round"/>
<path d="M93.8439 363.04C96.4203 366.631 98.6844 371.082 97.9818 375.922C90.5648 377.171 79.7126 383.105 75.9651 392.942" stroke="#39D2D1" stroke-width="1.6565" stroke-miterlimit="10" stroke-linecap="round" stroke-linejoin="round"/>
<path d="M68.2359 355.233C71.593 359.371 72.6861 363.04 72.1396 366.475C67.299 367.256 51.9186 371.862 47.9369 381.231" stroke="#39D2D1" stroke-width="1.6565" stroke-miterlimit="10" stroke-linecap="round" stroke-linejoin="round"/>
<path d="M43.5648 354.53C48.1711 356.951 49.5764 360.776 49.5764 360.776C49.5764 360.776 40.9884 361.947 33.7276 368.661" stroke="#39D2D1" stroke-width="1.6565" stroke-miterlimit="10" stroke-linecap="round" stroke-linejoin="round"/>
<path d="M68.0017 291.759C72.0548 291.759 75.3405 288.473 75.3405 284.42C75.3405 280.367 72.0548 277.081 68.0017 277.081C63.9485 277.081 60.6628 280.367 60.6628 284.42C60.6628 288.473 63.9485 291.759 68.0017 291.759Z" stroke="#39D2D1" stroke-width="1.6565" stroke-miterlimit="10" stroke-linecap="round" stroke-linejoin="round"/>
<path d="M71.9834 290.588L94.3123 325.174" stroke="#39D2D1" stroke-width="1.6565" stroke-miterlimit="10" stroke-linecap="round" stroke-linejoin="round"/>
<path d="M61.8339 275.754L63.5515 278.565" stroke="#39D2D1" stroke-width="1.6565" stroke-miterlimit="10" stroke-linecap="round" stroke-linejoin="round"/>
<path d="M84.0067 267.634C88.0598 267.634 91.3455 264.349 91.3455 260.295C91.3455 256.242 88.0598 252.957 84.0067 252.957C79.9535 252.957 76.6678 256.242 76.6678 260.295C76.6678 264.349 79.9535 267.634 84.0067 267.634Z" stroke="#39D2D1" stroke-width="1.6565" stroke-miterlimit="10" stroke-linecap="round" stroke-linejoin="round"/>
<path d="M85.7243 267.4L98.9186 319.085" stroke="#39D2D1" stroke-width="1.6565" stroke-miterlimit="10" stroke-linecap="round" stroke-linejoin="round"/>
<path d="M80.8837 250.146L81.6645 253.347" stroke="#39D2D1" stroke-width="1.6565" stroke-miterlimit="10" stroke-linecap="round" stroke-linejoin="round"/>
<path d="M169.262 214.857C130.772 248.194 99.309 297.146 92.6728 317.835C86.0366 338.525 177.85 346.332 177.85 346.332L169.262 214.857Z" fill="url(#paint0_linear)"/>
<path d="M275.442 377.327L98.0598 433.462L63.005 322.598L240.387 266.542L275.442 377.327Z" fill="url(#paint1_linear)"/>
<path d="M155.287 305.734L78.7758 329.937" stroke="white" stroke-width="2.429" stroke-miterlimit="10" stroke-linecap="round" stroke-linejoin="round"/>
<path d="M269.04 183.081L263.809 198.383H234.219L247.023 171.995L269.04 183.081Z" fill="white"/>
<path d="M269.04 183.081C299.395 183.081 324.003 158.473 324.003 128.118C324.003 97.7623 299.395 73.1543 269.04 73.1543C238.684 73.1543 214.076 97.7623 214.076 128.118C214.076 158.473 238.684 183.081 269.04 183.081Z" fill="white"/>
<path d="M238.513 196.198C277.238 195.573 296.6 198.618 314.791 221.025C332.982 243.432 331.186 357.575 326.97 400.124C322.754 442.674 319.085 457.04 319.085 457.04H114.533C114.533 457.04 162.158 361.556 163.407 347.581C164.656 333.684 165.203 241.636 165.203 241.636C165.203 241.636 160.987 222.274 172.463 210.797C183.94 199.242 238.513 196.198 238.513 196.198Z" fill="url(#paint2_linear)"/>
<path d="M114.611 456.962C114.611 456.962 162.236 361.478 163.485 347.503C164.422 337.354 164.968 285.748 165.203 258.5" stroke="#CCCCCC" stroke-width="2.429" stroke-miterlimit="10" stroke-linecap="round" stroke-linejoin="round"/>
<path d="M309.248 90.6427C297.458 77.9948 289.729 77.8387 267.713 83.8503C268.806 102.978 269.977 113.44 258.734 128.352C253.503 143.264 253.503 150.369 253.503 150.369C253.503 150.369 255.767 189.952 227.349 204.551C198.93 219.151 171.292 227.739 130.929 202.287C90.5648 176.835 53.4801 203.38 39.2708 209.001C-48.4053 243.9 -28.0282 104.462 -9.60298 81.2739C28.2625 33.4931 92.5166 33.8835 114.533 45.8287C136.55 57.7739 152.243 65.8935 179.49 64.0197C206.738 62.146 202.287 42.0031 244.837 42.7058C287.387 43.4084 306.515 63.0048 309.169 76.8237C311.824 90.6427 309.248 90.6427 309.248 90.6427Z" fill="url(#paint3_linear)"/>
<path d="M247.023 149.432C256.294 149.432 263.809 141.917 263.809 132.646C263.809 123.376 256.294 115.86 247.023 115.86C237.753 115.86 230.238 123.376 230.238 132.646C230.238 141.917 237.753 149.432 247.023 149.432Z" fill="white"/>
<path d="M431.588 214.935C406.136 254.284 371.628 300.269 371.628 300.269C371.628 300.269 317.914 217.668 303.236 209.548C288.558 201.429 244.525 307.218 265.995 336.105C287.465 364.914 314.713 412.382 377.093 407.542C439.473 402.701 464.301 336.105 486.083 244.056C473.357 234.922 431.588 214.935 431.588 214.935Z" fill="url(#paint4_linear)"/>
<path d="M266.073 336.104C287.543 364.913 314.791 412.382 377.171 407.541C439.551 402.701 464.379 336.104 486.161 244.056" stroke="#CCCCCC" stroke-width="2.429" stroke-miterlimit="10" stroke-linecap="round" stroke-linejoin="round"/>
<path d="M371.628 300.347C371.628 300.347 367.958 338.525 366.787 350.002" stroke="#CCCCCC" stroke-width="2.429" stroke-miterlimit="10" stroke-linecap="round" stroke-linejoin="round"/>
<path d="M445.407 186.126C453.917 168.794 459.148 161.377 464.066 160.05C468.985 158.723 494.827 158.957 494.827 158.957L457.977 193.309L445.407 186.126Z" fill="white"/>
<path d="M506.694 162.314L408.556 200.726L404.809 191.045L502.947 152.711L512.784 154.429L506.694 162.314Z" fill="url(#paint5_linear)"/>
<path d="M480.149 240.153C491.08 227.895 493.812 224.069 495.452 219.385C497.091 214.701 495.452 204.551 495.452 204.551C495.452 204.551 500.214 193.309 496.154 183.94C504.742 177.616 508.646 169.653 504.742 162.782C500.917 155.912 492.407 155.365 484.678 162.782C476.948 170.199 451.731 182.847 445.407 186.126C440.723 196.041 435.101 211.422 433.696 215.95C432.291 220.478 480.149 240.153 480.149 240.153Z" fill="white"/>
<path d="M496.154 183.94C489.362 188.312 483.897 191.045 483.897 191.045" stroke="#CCCCCC" stroke-width="2.429" stroke-miterlimit="10" stroke-linecap="round" stroke-linejoin="round"/>
<path d="M571.651 127.415H568.841H559.784H556.973H540.422V139.36H552.836C549.322 143.889 543.779 146.777 537.611 146.777C526.915 146.777 518.249 138.111 518.249 127.415C518.249 116.719 526.915 108.053 537.611 108.053C542.92 108.053 547.761 110.239 551.274 113.674L559.706 105.242C554.007 99.5431 546.199 96.1079 537.533 96.1079C520.201 96.1079 506.226 110.161 506.226 127.415C506.226 144.669 520.279 158.723 537.533 158.723C546.199 158.723 554.085 155.209 559.706 149.51V158.723H571.651V127.415Z" fill="url(#paint6_linear)"/>
<path d="M399.032 118.593C411.45 118.593 421.517 108.526 421.517 96.1081C421.517 83.6899 411.45 73.623 399.032 73.623C386.613 73.623 376.546 83.6899 376.546 96.1081C376.546 108.526 386.613 118.593 399.032 118.593Z" fill="url(#paint7_linear)"/>
<path d="M399.032 118.593C411.445 118.593 421.517 108.522 421.517 96.1079C421.517 94.2341 421.282 92.4385 420.892 90.7209C420.111 90.9551 419.409 91.5016 418.94 92.2042C418.081 93.6096 418.159 95.4052 417.379 96.8886C416.676 98.372 414.178 99.2308 413.475 97.7474C413.007 96.8106 413.553 95.7956 413.865 94.7807C414.88 91.1893 410.821 87.2856 407.307 88.5348C405.043 89.3155 403.638 91.5016 402.857 93.7657C402.076 96.0298 401.842 98.372 401.14 100.636C400.437 102.9 398.953 105.086 396.767 105.867C394.503 106.648 391.537 105.321 391.38 102.978C391.068 99.465 396.455 97.1228 395.596 93.7657C395.05 91.7358 392.473 91.0331 390.522 91.7358C388.57 92.4385 387.243 94.1561 385.993 95.7956C383.573 99.0747 381.231 102.432 378.967 105.867C382.48 113.362 390.209 118.593 399.032 118.593Z" fill="url(#paint8_linear)"/>
<path d="M651.754 415.817C670.942 415.817 686.497 400.262 686.497 381.075C686.497 361.887 670.942 346.332 651.754 346.332C632.566 346.332 617.012 361.887 617.012 381.075C617.012 400.262 632.566 415.817 651.754 415.817Z" fill="url(#paint9_linear)"/>
<path d="M686.419 381.074C686.419 378.029 686.028 374.985 685.248 372.174C683.374 372.877 681.656 374.204 680.485 375.765C678.377 378.498 677.284 381.777 675.566 384.744C674.63 386.383 673.537 387.945 672.131 389.116C670.57 390.443 668.228 389.272 668.462 387.242L669.945 372.018C670.101 370.534 669.164 368.817 668.15 367.724C666.276 365.694 662.762 366.553 660.889 368.505C654.955 374.672 654.096 377.951 648.944 391.302C648.085 393.488 647.538 395.908 646.133 397.704C644.337 400.046 640.824 401.373 638.404 398.875C637.154 397.626 636.764 395.83 636.92 394.034C637.389 389.975 640.434 387.008 641.527 383.182C642.542 379.591 640.746 374.516 636.218 375.531C635.047 375.765 634.032 376.468 633.173 377.249C628.098 382.324 623.414 387.789 619.198 393.566C624.272 406.526 636.842 415.661 651.598 415.661C670.882 415.895 686.419 400.358 686.419 381.074Z" fill="url(#paint10_linear)"/>
</g>
<defs>
<linearGradient id="paint0_linear" x1="92.2906" y1="280.594" x2="177.811" y2="280.594" gradientUnits="userSpaceOnUse">
<stop stop-color="#015976"/>
<stop offset="1" stop-color="#042B42"/>
</linearGradient>
<linearGradient id="paint1_linear" x1="80.4884" y1="378.032" x2="257.899" y2="321.952" gradientUnits="userSpaceOnUse">
<stop stop-color="#5CB8B2"/>
<stop offset="1" stop-color="#41B6E6"/>
</linearGradient>
<linearGradient id="paint2_linear" x1="114.572" y1="326.583" x2="329.805" y2="326.583" gradientUnits="userSpaceOnUse">
<stop stop-color="#015976"/>
<stop offset="1" stop-color="#042B42"/>
</linearGradient>
<linearGradient id="paint3_linear" x1="-25.67" y1="128.81" x2="310.409" y2="128.81" gradientUnits="userSpaceOnUse">
<stop stop-color="#FFDE44"/>
<stop offset="0.9995" stop-color="#F49A1A"/>
<stop offset="1" stop-color="#F49A1A"/>
</linearGradient>
<linearGradient id="paint4_linear" x1="397.289" y1="223.75" x2="316.343" y2="403.63" gradientUnits="userSpaceOnUse">
<stop stop-color="#015976"/>
<stop offset="1" stop-color="#042B42"/>
</linearGradient>
<linearGradient id="paint5_linear" x1="406.705" y1="195.892" x2="512.739" y2="154.414" gradientUnits="userSpaceOnUse">
<stop stop-color="#F49A1A"/>
<stop offset="0.000510365" stop-color="#F49A1A"/>
<stop offset="1" stop-color="#FFDE44"/>
</linearGradient>
<linearGradient id="paint6_linear" x1="506.263" y1="127.415" x2="571.766" y2="127.415" gradientUnits="userSpaceOnUse">
<stop stop-color="#5CB8B2"/>
<stop offset="1" stop-color="#41B6E6"/>
</linearGradient>
<linearGradient id="paint7_linear" x1="376.586" y1="96.1081" x2="421.491" y2="96.1081" gradientUnits="userSpaceOnUse">
<stop stop-color="#015976"/>
<stop offset="1" stop-color="#042B42"/>
</linearGradient>
<linearGradient id="paint8_linear" x1="378.831" y1="103.445" x2="421.506" y2="103.445" gradientUnits="userSpaceOnUse">
<stop stop-color="#4B3263"/>
<stop offset="1" stop-color="#042B42"/>
</linearGradient>
<linearGradient id="paint9_linear" x1="616.973" y1="381.075" x2="686.528" y2="381.075" gradientUnits="userSpaceOnUse">
<stop stop-color="#015976"/>
<stop offset="1" stop-color="#042B42"/>
</linearGradient>
<linearGradient id="paint10_linear" x1="619.237" y1="391.111" x2="686.458" y2="391.111" gradientUnits="userSpaceOnUse">
<stop stop-color="#4B3263"/>
<stop offset="1" stop-color="#042B42"/>
</linearGradient>
<clipPath id="clip0">
<rect width="771.362" height="470" fill="white"/>
</clipPath>
</defs>
</svg>
