<svg width="772" height="470" viewBox="0 0 772 470" fill="none" xmlns="http://www.w3.org/2000/svg">
<g clip-path="url(#clip0)">
<path d="M89.2375 341.882C88.0664 341.882 86.8953 341.882 85.7242 341.804C85.3339 341.804 85.0997 341.492 85.0997 341.101C85.0997 340.711 85.4119 340.477 85.8023 340.477C89.1595 340.633 92.4385 340.555 95.6395 340.243C97.4352 340.008 99.2309 339.774 101.027 339.384C101.339 339.306 101.729 339.54 101.807 339.93C101.885 340.243 101.651 340.633 101.261 340.711C99.387 341.101 97.5133 341.336 95.7176 341.57C93.6096 341.726 91.4236 341.882 89.2375 341.882ZM70.4219 339.228C70.3438 339.228 70.3438 339.228 70.2658 339.228C65.5033 337.9 60.5066 336.105 55.588 333.919C55.2757 333.762 55.1196 333.372 55.2757 333.06C55.4319 332.748 55.8222 332.591 56.1345 332.748C61.0531 334.934 65.8937 336.729 70.5781 337.978C70.8904 338.056 71.1246 338.447 71.0465 338.759C70.9684 339.071 70.7342 339.228 70.4219 339.228ZM116.017 336.339C115.782 336.339 115.548 336.183 115.392 335.948C115.236 335.636 115.47 335.246 115.782 335.09C120.233 333.372 124.839 331.342 129.914 328.844C130.226 328.688 130.616 328.844 130.772 329.156C130.929 329.468 130.772 329.859 130.46 330.015C125.385 332.591 120.701 334.621 116.251 336.339C116.173 336.339 116.095 336.339 116.017 336.339ZM42.1595 326.658C42.0814 326.658 41.9252 326.658 41.8472 326.58C37.5532 324.003 33.2591 321.037 28.9651 317.757C28.6528 317.523 28.6528 317.133 28.809 316.821C29.0432 316.508 29.4335 316.508 29.7458 316.664C33.9618 319.865 38.2558 322.832 42.4718 325.409C42.784 325.565 42.8621 325.955 42.706 326.267C42.6279 326.58 42.3937 326.658 42.1595 326.658ZM143.889 322.676C143.654 322.676 143.42 322.598 143.342 322.364C143.186 322.051 143.264 321.661 143.576 321.505C147.636 319.163 152.008 316.586 156.849 313.542C157.161 313.385 157.551 313.463 157.708 313.776C157.864 314.088 157.786 314.478 157.473 314.635C152.555 317.679 148.183 320.334 144.123 322.676C144.123 322.676 143.967 322.676 143.889 322.676ZM17.4103 307.998C17.2541 307.998 17.098 307.92 16.9419 307.842C13.1943 304.407 9.36877 300.816 5.7774 296.99C5.54319 296.756 5.54319 296.287 5.7774 296.053C6.01162 295.819 6.48006 295.819 6.71428 296.053C10.3056 299.801 14.0532 303.47 17.8007 306.827C18.0349 307.061 18.1129 307.452 17.8787 307.764C17.8007 307.92 17.5664 307.998 17.4103 307.998ZM170.277 306.359C170.043 306.359 169.887 306.281 169.731 306.047C169.575 305.734 169.653 305.344 169.887 305.188C173.088 303.158 176.289 301.05 179.568 298.942L182.925 296.756C183.238 296.6 183.628 296.678 183.784 296.912C183.94 297.224 183.862 297.615 183.628 297.771L180.271 299.957C176.992 302.065 173.791 304.173 170.59 306.203C170.512 306.359 170.434 306.359 170.277 306.359ZM196.354 289.495C196.12 289.495 195.963 289.417 195.807 289.183C195.651 288.87 195.729 288.48 196.042 288.324C200.804 285.279 205.098 282.547 209.236 280.048C209.548 279.892 209.939 279.97 210.095 280.282C210.251 280.595 210.173 280.985 209.86 281.141C205.801 283.64 201.507 286.372 196.744 289.417C196.588 289.495 196.51 289.495 196.354 289.495ZM-4.05981 285.591C-4.21595 285.591 -4.45017 285.513 -4.52824 285.357C-7.80731 281.375 -11.0083 277.238 -14.1312 273.1C-14.3655 272.787 -14.2874 272.397 -13.9751 272.163C-13.6628 271.929 -13.2724 272.007 -13.0382 272.319C-9.99336 276.457 -6.79236 280.595 -3.51329 284.498C-3.27908 284.811 -3.35715 285.201 -3.59137 285.435C-3.74751 285.591 -3.90366 285.591 -4.05981 285.591ZM222.821 273.256C222.586 273.256 222.352 273.178 222.274 272.944C222.118 272.631 222.196 272.241 222.508 272.085C227.115 269.352 231.643 266.776 236.015 264.434C236.327 264.277 236.718 264.355 236.874 264.668C237.03 264.98 236.952 265.37 236.64 265.527C232.267 267.947 227.739 270.523 223.133 273.178C223.055 273.256 222.899 273.256 222.821 273.256ZM-22.3289 260.53C-22.5631 260.53 -22.7193 260.452 -22.8754 260.218C-25.686 255.767 -28.3405 251.317 -30.7608 246.789C-30.9169 246.477 -30.8389 246.086 -30.5266 245.93C-30.2143 245.774 -29.8239 245.852 -29.6678 246.164C-27.2475 250.615 -24.593 255.143 -21.8605 259.515C-21.7043 259.827 -21.7824 260.218 -22.0947 260.374C-22.0947 260.452 -22.1728 260.53 -22.3289 260.53ZM250.068 258.344C249.834 258.344 249.6 258.188 249.522 257.953C249.365 257.641 249.522 257.251 249.834 257.095C254.518 254.752 259.281 252.488 263.887 250.38C264.199 250.224 264.59 250.38 264.746 250.693C264.902 251.005 264.746 251.395 264.434 251.552C259.827 253.659 255.143 255.924 250.458 258.266C250.224 258.344 250.146 258.344 250.068 258.344ZM278.331 245.54C278.096 245.54 277.862 245.384 277.706 245.15C277.55 244.837 277.706 244.447 278.096 244.291C282.937 242.339 287.855 240.543 292.618 238.826C292.93 238.669 293.321 238.904 293.477 239.216C293.555 239.528 293.399 239.919 293.086 240.075C288.324 241.714 283.405 243.588 278.565 245.54C278.487 245.54 278.409 245.54 278.331 245.54ZM507.007 240.855C501.854 240.777 496.623 240.621 491.47 240.231C491.08 240.231 490.845 239.919 490.845 239.528C490.845 239.138 491.158 238.904 491.548 238.904C496.701 239.294 501.932 239.45 507.007 239.528C507.397 239.528 507.631 239.841 507.631 240.153C507.709 240.621 507.397 240.855 507.007 240.855ZM522.543 240.543C522.231 240.543 521.919 240.309 521.919 239.919C521.919 239.528 522.153 239.294 522.543 239.216C527.696 238.904 532.849 238.435 537.924 237.811C538.314 237.733 538.626 238.045 538.626 238.357C538.704 238.748 538.392 239.06 538.08 239.06C533.005 239.762 527.774 240.231 522.543 240.543ZM476.09 238.669H476.012C470.937 237.967 465.784 237.186 460.631 236.171C460.241 236.093 460.085 235.781 460.085 235.39C460.163 235.078 460.475 234.844 460.865 234.844C465.94 235.781 471.093 236.64 476.168 237.342C476.558 237.42 476.792 237.733 476.714 238.045C476.714 238.435 476.402 238.669 476.09 238.669ZM553.304 236.561C552.992 236.561 552.757 236.327 552.679 236.015C552.601 235.703 552.835 235.312 553.148 235.234C558.223 234.219 563.297 232.97 568.216 231.643C568.528 231.565 568.919 231.721 568.997 232.111C569.075 232.424 568.919 232.814 568.528 232.892C563.61 234.297 558.535 235.547 553.382 236.561H553.304ZM307.608 235.39C307.296 235.39 307.061 235.234 306.983 234.922C306.905 234.61 307.061 234.219 307.452 234.141C312.448 232.736 317.523 231.409 322.52 230.238C322.832 230.159 323.223 230.394 323.301 230.706C323.379 231.018 323.145 231.409 322.832 231.487C317.836 232.658 312.839 233.907 307.842 235.39C307.764 235.39 307.686 235.39 307.608 235.39ZM-37.0066 233.204C-37.2409 233.204 -37.4751 233.048 -37.6312 232.814C-39.8173 227.973 -41.7691 223.133 -43.4086 218.37C-43.5648 218.058 -43.3306 217.668 -43.0183 217.512C-42.706 217.355 -42.3156 217.59 -42.1595 217.902C-40.5199 222.664 -38.5681 227.505 -36.3821 232.267C-36.2259 232.58 -36.3821 232.97 -36.6944 233.126C-36.8505 233.126 -36.9286 233.204 -37.0066 233.204ZM445.641 232.892C445.563 232.892 445.563 232.892 445.485 232.892C440.41 231.643 435.336 230.55 430.339 229.613C430.027 229.535 429.792 229.223 429.792 228.832C429.87 228.442 430.183 228.286 430.573 228.286C435.57 229.223 440.723 230.316 445.797 231.565C446.11 231.643 446.344 232.033 446.266 232.346C446.188 232.736 445.875 232.892 445.641 232.892ZM337.822 228.52C337.51 228.52 337.276 228.286 337.198 227.973C337.12 227.583 337.354 227.271 337.744 227.193C342.819 226.334 348.05 225.631 353.125 225.085C353.515 225.085 353.827 225.319 353.827 225.631C353.827 226.022 353.593 226.334 353.281 226.334C348.206 226.88 343.053 227.583 337.978 228.442C337.9 228.52 337.9 228.52 337.822 228.52ZM583.128 228.208C582.894 228.208 582.581 228.051 582.503 227.817C582.347 227.505 582.581 227.115 582.894 226.958C587.734 225.163 592.575 223.211 597.181 221.025C597.493 220.869 597.884 221.025 598.04 221.337C598.196 221.65 598.04 222.04 597.728 222.196C593.043 224.382 588.203 226.334 583.362 228.13C583.284 228.208 583.206 228.208 583.128 228.208ZM415.115 227.193H415.037C409.884 226.49 404.731 226.022 399.656 225.631C399.266 225.631 399.031 225.319 399.031 224.929C399.031 224.538 399.344 224.304 399.734 224.304C404.887 224.694 410.04 225.241 415.193 225.865C415.583 225.944 415.817 226.256 415.739 226.568C415.739 226.958 415.427 227.193 415.115 227.193ZM368.661 225.241C368.349 225.241 368.037 225.007 368.037 224.616C368.037 224.226 368.271 223.992 368.661 223.914C373.814 223.679 378.967 223.601 384.198 223.679C384.588 223.679 384.822 223.992 384.822 224.304C384.822 224.616 384.51 224.929 384.198 224.929C378.967 224.929 373.814 225.007 368.661 225.241ZM611.234 215.248C611 215.248 610.766 215.091 610.688 214.935C610.532 214.623 610.61 214.233 610.922 214.076C615.372 211.578 619.822 208.846 624.038 205.957C624.35 205.723 624.741 205.801 624.975 206.113C625.209 206.425 625.131 206.816 624.819 206.972C620.525 209.86 616.075 212.593 611.625 215.169C611.468 215.169 611.39 215.248 611.234 215.248ZM-47.3123 203.927C-47.6246 203.927 -47.8588 203.693 -47.9369 203.458C-49.2641 198.306 -50.201 193.153 -50.9037 188.156C-50.9817 187.766 -50.6694 187.453 -50.3571 187.453C-49.9668 187.375 -49.6545 187.688 -49.6545 188C-49.0299 192.919 -48.015 197.993 -46.7658 203.146C-46.6877 203.458 -46.9219 203.849 -47.2342 203.927C-47.1561 203.927 -47.2342 203.927 -47.3123 203.927ZM636.92 197.837C636.764 197.837 636.53 197.759 636.452 197.603C636.218 197.291 636.296 196.9 636.53 196.666C640.512 193.465 644.415 190.03 648.163 186.439C648.397 186.204 648.865 186.204 649.1 186.439C649.334 186.673 649.334 187.141 649.1 187.375C645.352 190.967 641.448 194.402 637.389 197.603C637.233 197.759 637.076 197.837 636.92 197.837ZM659.327 176.445C659.171 176.445 659.015 176.367 658.937 176.289C658.703 176.055 658.625 175.664 658.859 175.352C662.294 171.527 665.573 167.467 668.618 163.407C668.852 163.095 669.242 163.095 669.555 163.251C669.867 163.485 669.867 163.875 669.711 164.188C666.588 168.326 663.309 172.385 659.874 176.211C659.718 176.367 659.483 176.445 659.327 176.445ZM-51.294 173.244C-51.6844 173.244 -51.9186 172.932 -51.9186 172.62C-51.9186 167.233 -51.4502 162.002 -50.5133 157.083C-50.4352 156.771 -50.1229 156.537 -49.7326 156.537C-49.3422 156.615 -49.186 156.927 -49.186 157.317C-50.0449 162.158 -50.5133 167.311 -50.5133 172.62C-50.5914 172.932 -50.9037 173.244 -51.294 173.244ZM677.987 151.618C677.831 151.618 677.752 151.618 677.674 151.54C677.362 151.384 677.284 150.915 677.44 150.681C680.173 146.387 682.749 141.859 685.169 137.331C685.326 137.018 685.716 136.862 686.028 137.096C686.34 137.252 686.497 137.643 686.262 137.955C683.842 142.561 681.266 147.09 678.455 151.462C678.377 151.54 678.143 151.618 677.987 151.618ZM-45.5947 142.874C-45.6728 142.874 -45.7508 142.874 -45.8289 142.796C-46.1412 142.64 -46.2973 142.249 -46.2193 141.937C-45.8289 140.922 -45.3605 139.907 -44.892 138.892C-44.7359 138.58 -44.3455 138.424 -44.0332 138.58C-43.7209 138.736 -43.5648 139.126 -43.7209 139.439C-44.1894 140.453 -44.5797 141.39 -45.0482 142.405C-45.1262 142.718 -45.3605 142.874 -45.5947 142.874ZM692.352 124.214C692.274 124.214 692.196 124.214 692.118 124.136C691.806 123.98 691.649 123.59 691.806 123.277C693.835 118.593 695.709 113.752 697.349 108.834C697.427 108.522 697.817 108.287 698.208 108.444C698.52 108.522 698.754 108.912 698.598 109.302C696.88 114.221 695.007 119.061 692.977 123.824C692.899 124.058 692.664 124.214 692.352 124.214ZM702.502 94.9369C702.423 94.9369 702.423 94.9369 702.345 94.9369C702.033 94.8588 701.799 94.4684 701.877 94.1561C703.204 89.2375 704.375 84.1628 705.312 79.088C705.39 78.7757 705.703 78.5415 706.093 78.5415C706.405 78.6196 706.639 78.9319 706.639 79.3223C705.703 84.397 704.532 89.5498 703.204 94.4684C703.048 94.7027 702.814 94.9369 702.502 94.9369ZM708.357 64.4884H708.279C707.889 64.4103 707.654 64.098 707.733 63.7857C708.357 58.711 708.826 53.5581 709.06 48.4053C709.06 48.0149 709.372 47.7807 709.762 47.7807C710.153 47.7807 710.387 48.093 710.387 48.4834C710.075 53.6362 709.606 58.8671 708.982 63.9419C708.904 64.2541 708.669 64.4884 708.357 64.4884ZM710.075 33.4934C709.684 33.4934 709.45 33.1811 709.45 32.8688C709.45 27.794 709.216 22.5631 708.904 17.4103C708.904 17.0199 709.138 16.7076 709.528 16.7076C709.919 16.7076 710.153 16.9419 710.231 17.3322C710.543 22.5631 710.777 27.794 710.777 32.8688C710.699 33.1811 710.465 33.4934 710.075 33.4934ZM708.045 2.57641C707.733 2.57641 707.42 2.34219 707.42 2.0299C706.796 -3.04485 706.015 -8.19768 705.078 -13.2724C705 -13.6628 705.234 -13.9751 705.625 -14.0532C706.015 -14.1312 706.327 -13.897 706.405 -13.5066C707.342 -8.4319 708.123 -3.201 708.747 1.87375C708.826 2.26411 708.513 2.57641 708.201 2.57641C708.045 2.57641 708.045 2.57641 708.045 2.57641ZM702.502 -27.9502C702.189 -27.9502 701.955 -28.1844 701.877 -28.4186C700.706 -33.4153 699.379 -38.412 697.973 -43.4086C697.895 -43.7209 698.051 -44.1113 698.442 -44.1894C698.754 -44.2674 699.144 -44.1113 699.223 -43.7209C700.706 -38.7243 702.033 -33.6495 703.204 -28.6528C703.282 -28.3405 703.048 -27.9502 702.736 -27.8721C702.58 -28.0282 702.58 -27.9502 702.502 -27.9502Z" fill="#243647"/>
<path d="M178.319 261.154C181.598 243.51 184.487 230.159 171.605 196.9C158.723 163.641 127.962 123.043 105.711 105.164" stroke="#39D2D1" stroke-width="1.6565" stroke-miterlimit="10" stroke-linecap="round" stroke-linejoin="round"/>
<path d="M175.977 209.158C176.836 187.063 175.43 170.043 163.641 153.57C151.852 137.096 141.234 125.229 107.116 106.414" stroke="#39D2D1" stroke-width="1.6565" stroke-miterlimit="10" stroke-linecap="round" stroke-linejoin="round"/>
<path d="M175.977 209.158C165.905 205.332 141.312 198.071 124.058 171.917C111.176 152.399 111.02 132.256 109.615 125.307C108.287 118.593 106.804 108.365 105.711 105.243" stroke="#39D2D1" stroke-width="1.6565" stroke-miterlimit="10" stroke-linecap="round" stroke-linejoin="round"/>
<path d="M170.902 166.686C170.59 172.073 169.262 178.007 164.968 182.066C157.005 177.538 142.171 174.884 131.163 181.286" stroke="#39D2D1" stroke-width="1.6565" stroke-miterlimit="10" stroke-linecap="round" stroke-linejoin="round"/>
<path d="M152.711 139.673C152.711 146.153 150.993 150.447 147.87 153.258C142.64 150.291 124.683 142.874 113.753 148.729" stroke="#39D2D1" stroke-width="1.6565" stroke-miterlimit="10" stroke-linecap="round" stroke-linejoin="round"/>
<path d="M129.914 120.154C132.412 125.932 130.851 130.694 130.851 130.694C130.851 130.694 121.872 125.229 109.771 126.01" stroke="#39D2D1" stroke-width="1.6565" stroke-miterlimit="10" stroke-linecap="round" stroke-linejoin="round"/>
<path d="M171.839 283.718C168.404 266.073 166.218 252.645 142.015 226.412C117.812 200.179 74.2475 173.713 47 165.281" stroke="#39D2D1" stroke-width="1.6565" stroke-miterlimit="10" stroke-linecap="round" stroke-linejoin="round"/>
<path d="M150.603 236.171C143.264 215.326 135.691 199.945 118.749 189.015C101.807 178.007 87.5199 170.902 48.8737 165.905" stroke="#39D2D1" stroke-width="1.6565" stroke-miterlimit="10" stroke-linecap="round" stroke-linejoin="round"/>
<path d="M150.603 236.171C139.829 236.327 114.299 238.591 88.691 220.556C69.5631 207.128 61.99 188.468 58.1644 182.535C54.495 176.757 49.2641 167.779 47.1561 165.281" stroke="#39D2D1" stroke-width="1.6565" stroke-miterlimit="10" stroke-linecap="round" stroke-linejoin="round"/>
<path d="M130.304 198.54C132.022 203.693 132.958 209.626 130.46 215.013C121.404 213.764 106.648 216.731 98.7625 226.724" stroke="#39D2D1" stroke-width="1.6565" stroke-miterlimit="10" stroke-linecap="round" stroke-linejoin="round"/>
<path d="M103.369 180.115C105.789 186.126 105.711 190.733 103.837 194.558C97.9036 193.699 78.4634 193.387 70.4219 202.834" stroke="#39D2D1" stroke-width="1.6565" stroke-miterlimit="10" stroke-linecap="round" stroke-linejoin="round"/>
<path d="M75.1063 170.355C79.5565 174.806 79.8688 179.802 79.8688 179.802C79.8688 179.802 69.485 178.007 58.5548 183.238" stroke="#39D2D1" stroke-width="1.6565" stroke-miterlimit="10" stroke-linecap="round" stroke-linejoin="round"/>
<path d="M109.458 80.4153C121.877 80.4153 131.944 70.3484 131.944 57.9302C131.944 45.5121 121.877 35.4452 109.458 35.4452C97.0403 35.4452 86.9734 45.5121 86.9734 57.9302C86.9734 70.3484 97.0403 80.4153 109.458 80.4153Z" fill="url(#paint0_linear)"/>
<path d="M109.458 80.3372C121.872 80.3372 131.944 70.2658 131.944 57.8522C131.944 55.9784 131.709 54.1827 131.319 52.4651C130.538 52.6993 129.836 53.2458 129.367 53.9485C128.508 55.3538 128.586 57.1495 127.806 58.6329C127.103 60.1163 124.605 60.9751 123.902 59.4917C123.434 58.5548 123.98 57.5399 124.292 56.5249C125.307 52.9336 121.248 49.0299 117.734 50.2791C115.47 51.0598 114.065 53.2458 113.284 55.51C112.503 57.7741 112.269 60.1163 111.566 62.3804C110.864 64.6445 109.38 66.8306 107.194 67.6113C104.93 68.392 101.963 67.0648 101.807 64.7226C101.495 61.2093 106.882 58.8671 106.023 55.51C105.477 53.4801 102.9 52.7774 100.948 53.4801C98.9967 54.1827 97.6694 55.9003 96.4203 57.5399C94 60.8189 91.6578 64.1761 89.3937 67.6113C92.8289 75.1844 100.636 80.3372 109.458 80.3372Z" fill="url(#paint1_linear)"/>
<path d="M663.777 401.686C682.965 401.686 698.52 386.131 698.52 366.944C698.52 347.756 682.965 332.201 663.777 332.201C644.59 332.201 629.035 347.756 629.035 366.944C629.035 386.131 644.59 401.686 663.777 401.686Z" fill="url(#paint2_linear)"/>
<path d="M698.598 366.944C698.598 363.899 698.208 360.854 697.427 358.043C695.553 358.746 693.836 360.073 692.664 361.635C690.557 364.367 689.463 367.646 687.746 370.613C686.809 372.253 685.716 373.814 684.311 374.985C682.749 376.312 680.407 375.141 680.641 373.111L682.125 357.887C682.281 356.404 681.344 354.686 680.329 353.593C678.455 351.563 674.942 352.422 673.068 354.374C667.135 360.542 666.276 363.821 661.123 377.171C660.264 379.357 659.718 381.777 658.312 383.573C656.517 385.915 653.003 387.243 650.583 384.744C649.334 383.495 648.944 381.699 649.1 379.904C649.568 375.844 652.613 372.877 653.706 369.052C654.721 365.46 652.925 360.385 648.397 361.4C647.226 361.635 646.211 362.337 645.352 363.118C640.277 368.193 635.593 373.658 631.377 379.435C636.452 392.395 649.022 401.53 663.777 401.53C682.983 401.686 698.598 386.15 698.598 366.944Z" fill="url(#paint3_linear)"/>
<path d="M331.108 425.576H86.505C80.1811 425.576 74.4817 421.829 72.0615 415.973L15.3023 280.907C7.10466 261.389 21.4701 239.684 42.706 239.684H252.957L331.108 425.576Z" fill="url(#paint4_linear)"/>
<path d="M160.753 256.782H53.1678C43.0964 256.782 36.2259 267.01 40.1296 276.379L97.1229 413.085H195.963L160.753 256.782Z" fill="url(#paint5_linear)"/>
<path d="M544.794 204.473H348.362C341.101 204.473 335.246 198.618 335.246 191.357V61.6777C335.246 54.4169 341.101 48.5615 348.362 48.5615H544.794C552.055 48.5615 557.91 54.4169 557.91 61.6777V191.279C557.988 198.54 552.133 204.473 544.794 204.473Z" fill="url(#paint6_linear)"/>
<path d="M544.794 48.4834H348.362C341.101 48.4834 335.246 54.3389 335.246 61.5997V67.299H557.988V61.6777C557.988 54.4169 552.133 48.4834 544.794 48.4834Z" fill="url(#paint7_linear)"/>
<path d="M363.196 157.864H390.678V151.93H363.196V157.864Z" fill="url(#paint8_linear)"/>
<path d="M390.756 157.864H418.238V151.93H390.756V157.864Z" fill="url(#paint9_linear)"/>
<path d="M415.349 150.993H442.674V145.06H415.349V150.993Z" fill="url(#paint10_linear)"/>
<path d="M445.797 123.512H473.123V117.578H445.797V123.512Z" fill="url(#paint11_linear)"/>
<path d="M472.967 136.159H500.449V130.226H472.967V136.159Z" fill="url(#paint12_linear)"/>
<path d="M502.947 136.159H530.507V130.226H502.947V136.159Z" fill="url(#paint13_linear)"/>
<path d="M527.228 153.96H528.399C532.146 153.96 535.269 150.915 535.269 147.09V105.867C535.269 102.12 532.224 98.9967 528.399 98.9967H527.228C523.48 98.9967 520.357 102.042 520.357 105.867V147.09C520.357 150.915 523.48 153.96 527.228 153.96Z" fill="url(#paint14_linear)"/>
<path d="M499.824 175.508H500.995C504.743 175.508 507.865 172.463 507.865 168.638V127.415C507.865 123.668 504.821 120.545 500.995 120.545H499.824C496.076 120.545 492.954 123.59 492.954 127.415V168.638C492.875 172.385 495.998 175.508 499.824 175.508Z" fill="url(#paint15_linear)"/>
<path d="M472.342 144.045H473.513C477.261 144.045 480.384 141 480.384 137.174V95.9518C480.384 92.2043 477.339 89.0814 473.513 89.0814H472.342C468.595 89.0814 465.472 92.1262 465.472 95.9518V137.174C465.472 141 468.595 144.045 472.342 144.045Z" fill="url(#paint16_linear)"/>
<path d="M444.86 165.047H446.032C449.779 165.047 452.902 162.002 452.902 158.176V116.953C452.902 113.206 449.857 110.083 446.032 110.083H444.86C441.113 110.083 437.99 113.128 437.99 116.953V158.176C438.146 162.002 441.113 165.047 444.86 165.047Z" fill="url(#paint17_linear)"/>
<path d="M417.535 185.111H418.706C422.453 185.111 425.576 182.066 425.576 178.241V137.018C425.576 133.271 422.532 130.148 418.706 130.148H417.535C413.787 130.148 410.664 133.193 410.664 137.018V178.241C410.664 182.066 413.787 185.111 417.535 185.111Z" fill="url(#paint18_linear)"/>
<path d="M390.053 175.508H391.224C394.972 175.508 398.095 172.463 398.095 168.638V127.415C398.095 123.668 395.05 120.545 391.224 120.545H390.053C386.306 120.545 383.183 123.59 383.183 127.415V168.638C383.261 172.385 386.306 175.508 390.053 175.508Z" fill="url(#paint19_linear)"/>
<path d="M362.65 196.9H363.821C367.568 196.9 370.691 193.855 370.691 190.03V148.807C370.691 145.06 367.646 141.937 363.821 141.937H362.65C358.902 141.937 355.779 144.982 355.779 148.807V190.03C355.701 193.855 358.824 196.9 362.65 196.9Z" fill="url(#paint20_linear)"/>
<path d="M330.561 258.344C357.028 257.563 374.282 261.701 388.414 270.601C402.545 279.502 450.95 304.251 450.95 304.251L529.726 349.377C529.726 349.377 525.744 398.485 493.89 423.547C462.037 448.608 427.06 417.769 413.475 408.947C399.89 400.047 330.561 358.277 330.561 358.277V258.344Z" fill="url(#paint21_linear)"/>
<path d="M327.907 256.782C346.02 263.262 351.251 349.377 342.897 369.754C334.543 390.131 307.92 413.085 307.92 413.085H96.9668C96.9668 413.085 89.706 395.753 86.505 388.023C84.397 380.216 120.545 305.812 150.993 290.978L327.907 256.782Z" fill="url(#paint22_linear)"/>
<path d="M313.698 236.015C328.297 251.239 328.532 256.002 328.453 264.355C328.375 272.709 323.613 288.87 275.13 326.424C255.846 326.97 243.354 317.055 219.307 312.605C195.261 308.154 159.347 307.686 151.228 290.978C143.108 274.271 151.306 239.762 185.892 231.487C220.478 223.211 313.698 236.015 313.698 236.015Z" fill="url(#paint23_linear)"/>
<path d="M219.229 312.605C195.183 308.154 159.269 307.686 151.15 290.978" stroke="#CCCCCC" stroke-width="2.429" stroke-miterlimit="10" stroke-linecap="round" stroke-linejoin="round"/>
<path d="M327.907 256.782C328.453 259.281 328.454 261.623 328.375 264.355C328.297 269.977 326.189 279.033 310.106 295.819" stroke="#CCCCCC" stroke-width="2.429" stroke-miterlimit="10" stroke-linecap="round" stroke-linejoin="round"/>
<path d="M193.153 264.824C222.508 267.869 239.919 275.051 268.571 293.164C282.468 289.807 294.648 272.397 294.648 262.56C294.648 252.723 258.344 248.272 255.065 247.336C251.786 246.399 197.369 233.829 191.826 237.264C188.234 239.45 179.568 242.963 183.159 255.377C183.94 258.032 190.186 264.512 193.153 264.824Z" fill="url(#paint24_linear)"/>
<path d="M253.659 162.548C264.051 162.548 272.475 154.124 272.475 143.733C272.475 133.341 264.051 124.917 253.659 124.917C243.268 124.917 234.844 133.341 234.844 143.733C234.844 154.124 243.268 162.548 253.659 162.548Z" fill="#243647"/>
<path d="M228.832 262.716C239.224 262.716 247.648 254.292 247.648 243.9C247.648 233.509 239.224 225.085 228.832 225.085C218.441 225.085 210.017 233.509 210.017 243.9C210.017 254.292 218.441 262.716 228.832 262.716Z" fill="#243647"/>
<path d="M198.774 234.766C209.166 234.766 217.59 226.342 217.59 215.95C217.59 205.559 209.166 197.135 198.774 197.135C188.383 197.135 179.958 205.559 179.958 215.95C179.958 226.342 188.383 234.766 198.774 234.766Z" fill="#243647"/>
<path d="M236.718 173.166C247.109 173.166 255.533 164.742 255.533 154.35C255.533 143.959 247.109 135.535 236.718 135.535C226.326 135.535 217.902 143.959 217.902 154.35C217.902 164.742 226.326 173.166 236.718 173.166Z" fill="#243647"/>
<path d="M209.704 188.234C223.071 188.234 233.907 177.398 233.907 164.032C233.907 150.665 223.071 139.829 209.704 139.829C196.338 139.829 185.502 150.665 185.502 164.032C185.502 177.398 196.338 188.234 209.704 188.234Z" fill="#243647"/>
<path d="M191.591 148.027C169.184 180.115 176.289 239.684 196.51 243.822C209.626 246.477 221.65 213.998 226.334 201.429C231.018 188.937 224.772 174.962 212.203 170.277C199.633 165.593 199.164 137.018 191.591 148.027Z" fill="#243647"/>
<path d="M278.409 155.99C274.739 165.749 279.658 176.601 289.417 180.271C299.176 183.94 317.367 208.767 321.037 199.086C324.706 189.327 312.449 148.729 302.689 145.06C292.93 141.312 282.156 146.231 278.409 155.99Z" fill="#243647"/>
<path d="M191.591 148.027C186.751 160.909 262.794 164.578 275.676 169.419C288.558 174.259 302.924 167.779 307.842 154.897C312.761 142.015 307.374 117.11 294.492 112.191C281.453 107.351 196.432 135.145 191.591 148.027Z" fill="#243647"/>
<path d="M279.033 260.218L280.439 286.06C280.439 286.06 275.988 291.915 268.493 293.164C259.905 288.948 239.45 276.223 239.45 276.223L240.856 239.762L279.033 260.218Z" fill="white"/>
<path d="M264.199 264.355C295.935 264.355 321.661 238.629 321.661 206.894C321.661 175.158 295.935 149.432 264.199 149.432C232.464 149.432 206.738 175.158 206.738 206.894C206.738 238.629 232.464 264.355 264.199 264.355Z" fill="white"/>
<path d="M215.482 169.887C215.248 182.223 225.085 192.294 237.342 192.528C249.6 192.762 305.656 178.865 305.656 154.507C305.656 142.171 250.38 148.183 238.123 147.949C225.865 147.714 215.56 157.552 215.482 169.887Z" fill="#243647"/>
<path d="M279.58 171.214C286.22 171.214 291.603 165.831 291.603 159.191C291.603 152.551 286.22 147.168 279.58 147.168C272.939 147.168 267.556 152.551 267.556 159.191C267.556 165.831 272.939 171.214 279.58 171.214Z" fill="#243647"/>
<path d="M254.987 179.88C261.627 179.88 267.01 174.497 267.01 167.857C267.01 161.217 261.627 155.834 254.987 155.834C248.346 155.834 242.963 161.217 242.963 167.857C242.963 174.497 248.346 179.88 254.987 179.88Z" fill="#243647"/>
<path d="M294.336 162.314C300.976 162.314 306.359 156.931 306.359 150.291C306.359 143.65 300.976 138.267 294.336 138.267C287.695 138.267 282.312 143.65 282.312 150.291C282.312 156.931 287.695 162.314 294.336 162.314Z" fill="#243647"/>
<path d="M265.292 166.374C271.933 166.374 277.316 160.991 277.316 154.35C277.316 147.71 271.933 142.327 265.292 142.327C258.652 142.327 253.269 147.71 253.269 154.35C253.269 160.991 258.652 166.374 265.292 166.374Z" fill="#243647"/>
<path d="M217.98 202.6C224.62 202.6 230.003 197.217 230.003 190.576C230.003 183.936 224.62 178.553 217.98 178.553C211.34 178.553 205.957 183.936 205.957 190.576C205.957 197.217 211.34 202.6 217.98 202.6Z" fill="#243647"/>
<path d="M215.56 185.346C222.2 185.346 227.583 179.963 227.583 173.322C227.583 166.682 222.2 161.299 215.56 161.299C208.92 161.299 203.537 166.682 203.537 173.322C203.537 179.963 208.92 185.346 215.56 185.346Z" fill="#243647"/>
<path d="M205.02 211.032C211.66 211.032 217.043 205.649 217.043 199.008C217.043 192.368 211.66 186.985 205.02 186.985C198.38 186.985 192.997 192.368 192.997 199.008C192.997 205.649 198.38 211.032 205.02 211.032Z" fill="#243647"/>
<path d="M249.912 164.968C256.552 164.968 261.935 159.585 261.935 152.945C261.935 146.305 256.552 140.922 249.912 140.922C243.272 140.922 237.889 146.305 237.889 152.945C237.889 159.585 243.272 164.968 249.912 164.968Z" fill="#243647"/>
<path d="M213.92 221.884C220.561 221.884 225.944 216.501 225.944 209.86C225.944 203.22 220.561 197.837 213.92 197.837C207.28 197.837 201.897 203.22 201.897 209.86C201.897 216.501 207.28 221.884 213.92 221.884Z" fill="#243647"/>
<path d="M201.897 218.761C199.555 224.929 202.678 231.877 208.924 234.219C215.091 236.561 222.04 233.439 224.382 227.193C226.724 221.025 233.048 179.802 226.88 177.46C220.635 175.196 204.239 212.593 201.897 218.761Z" fill="#243647"/>
<path d="M213.452 256.86C223.153 256.86 231.018 248.996 231.018 239.294C231.018 229.592 223.153 221.728 213.452 221.728C203.75 221.728 195.885 229.592 195.885 239.294C195.885 248.996 203.75 256.86 213.452 256.86Z" fill="white"/>
<path d="M190.967 381.699C179.412 396.611 172.151 413.163 172.151 413.163" stroke="#CCCCCC" stroke-width="2.429" stroke-miterlimit="10" stroke-linecap="round" stroke-linejoin="round"/>
<path d="M536.362 307.374C545.965 289.729 553.538 260.998 556.115 255.924C558.691 250.771 579.068 229.847 582.581 219.463C586.095 209.08 586.095 196.51 585.08 193.387C589.296 187.375 600.694 155.287 581.879 137.252C570.09 126.01 560.096 120.311 551.508 121.404C541.515 122.731 533.864 138.502 548.385 142.327C554.007 143.811 559.94 151.93 560.721 158.566C561.502 165.203 559.94 171.058 558.066 172.776C553.772 170.512 528.789 170.902 519.186 191.279C514.033 195.027 518.952 177.929 519.576 172.151C520.201 166.374 515.595 152.789 507.007 150.915C498.497 149.12 491.158 154.35 492.797 166.452C494.437 178.631 493.5 186.673 489.362 194.948C485.224 203.224 471.483 218.761 491.314 244.993C487.645 251.395 474.762 271.538 472.967 275.832C471.171 280.126 528.164 322.442 536.362 307.374Z" fill="white"/>
<path d="M551.04 244.213C546.043 239.45 539.095 239.606 535.972 240.231" stroke="#CCCCCC" stroke-width="2.9055" stroke-miterlimit="10" stroke-linecap="round" stroke-linejoin="round"/>
<path d="M562.673 221.259C548.932 212.593 522.231 212.437 516.766 212.905C511.223 213.374 500.136 218.136 507.553 230.003C514.97 241.87 525.822 250.458 531.053 253.581C536.284 256.704 550.025 248.116 538.626 239.919" stroke="#CCCCCC" stroke-width="2.9055" stroke-miterlimit="10" stroke-linecap="round" stroke-linejoin="round"/>
<path d="M576.023 203.458C566.342 194.012 552.679 190.42 541.671 189.405C530.741 188.39 518.796 189.327 514.267 197.135C509.739 204.864 508.412 210.485 510.208 214.076" stroke="#CCCCCC" stroke-width="2.9055" stroke-miterlimit="10" stroke-linecap="round" stroke-linejoin="round"/>
<path d="M472.967 266.385C457.821 289.885 443.065 314.869 443.065 314.869C443.065 314.869 526.213 349.377 533.473 350.392C540.812 351.407 556.973 309.638 557.52 302.377C558.066 295.116 472.967 266.385 472.967 266.385Z" fill="url(#paint25_linear)"/>
<path d="M472.967 266.385C461.646 283.405 423.781 347.113 423.781 347.113" stroke="#CCCCCC" stroke-width="2.429" stroke-miterlimit="10" stroke-linecap="round" stroke-linejoin="round"/>
<path d="M416.364 453.136H93.8438C89.784 453.136 86.505 449.857 86.505 445.797V432.993C86.505 428.934 89.784 425.655 93.8438 425.655H416.364C420.424 425.655 423.703 428.934 423.703 432.993V445.797C423.781 449.779 420.424 453.136 416.364 453.136Z" fill="url(#paint26_linear)"/>
</g>
<defs>
<linearGradient id="paint0_linear" x1="87.0125" y1="57.9302" x2="131.918" y2="57.9302" gradientUnits="userSpaceOnUse">
<stop stop-color="#015976"/>
<stop offset="1" stop-color="#042B42"/>
</linearGradient>
<linearGradient id="paint1_linear" x1="89.2516" y1="65.1892" x2="131.927" y2="65.1892" gradientUnits="userSpaceOnUse">
<stop stop-color="#4B3263"/>
<stop offset="1" stop-color="#042B42"/>
</linearGradient>
<linearGradient id="paint2_linear" x1="628.996" y1="366.944" x2="698.552" y2="366.944" gradientUnits="userSpaceOnUse">
<stop stop-color="#015976"/>
<stop offset="1" stop-color="#042B42"/>
</linearGradient>
<linearGradient id="paint3_linear" x1="631.338" y1="376.98" x2="698.559" y2="376.98" gradientUnits="userSpaceOnUse">
<stop stop-color="#4B3263"/>
<stop offset="1" stop-color="#042B42"/>
</linearGradient>
<linearGradient id="paint4_linear" x1="114.937" y1="217.947" x2="196.521" y2="406.395" gradientUnits="userSpaceOnUse">
<stop stop-color="#FFDE44"/>
<stop offset="0.9995" stop-color="#F49A1A"/>
<stop offset="1" stop-color="#F49A1A"/>
</linearGradient>
<linearGradient id="paint5_linear" x1="184.045" y1="306.137" x2="71.6461" y2="359.094" gradientUnits="userSpaceOnUse">
<stop stop-color="#5CB8B2"/>
<stop offset="1" stop-color="#41B6E6"/>
</linearGradient>
<linearGradient id="paint6_linear" x1="402.26" y1="24.0589" x2="490.97" y2="228.965" gradientUnits="userSpaceOnUse">
<stop stop-color="#4B3263"/>
<stop offset="1" stop-color="#042B42"/>
</linearGradient>
<linearGradient id="paint7_linear" x1="335.285" y1="57.8912" x2="558.027" y2="57.8912" gradientUnits="userSpaceOnUse">
<stop stop-color="#015976"/>
<stop offset="1" stop-color="#042B42"/>
</linearGradient>
<linearGradient id="paint8_linear" x1="379.935" y1="147.972" x2="375.299" y2="158.68" gradientUnits="userSpaceOnUse">
<stop stop-color="#5CB8B2"/>
<stop offset="1" stop-color="#41B6E6"/>
</linearGradient>
<linearGradient id="paint9_linear" x1="407.497" y1="147.967" x2="402.861" y2="158.675" gradientUnits="userSpaceOnUse">
<stop stop-color="#5CB8B2"/>
<stop offset="1" stop-color="#41B6E6"/>
</linearGradient>
<linearGradient id="paint10_linear" x1="432.007" y1="141.108" x2="427.371" y2="151.817" gradientUnits="userSpaceOnUse">
<stop stop-color="#5CB8B2"/>
<stop offset="1" stop-color="#41B6E6"/>
</linearGradient>
<linearGradient id="paint11_linear" x1="462.453" y1="113.631" x2="457.817" y2="124.34" gradientUnits="userSpaceOnUse">
<stop stop-color="#5CB8B2"/>
<stop offset="1" stop-color="#41B6E6"/>
</linearGradient>
<linearGradient id="paint12_linear" x1="489.67" y1="126.26" x2="485.034" y2="136.969" gradientUnits="userSpaceOnUse">
<stop stop-color="#FFDE44"/>
<stop offset="0.9995" stop-color="#F49A1A"/>
<stop offset="1" stop-color="#F49A1A"/>
</linearGradient>
<linearGradient id="paint13_linear" x1="519.729" y1="126.257" x2="515.093" y2="136.966" gradientUnits="userSpaceOnUse">
<stop stop-color="#FFDE44"/>
<stop offset="0.9995" stop-color="#F49A1A"/>
<stop offset="1" stop-color="#F49A1A"/>
</linearGradient>
<linearGradient id="paint14_linear" x1="537.376" y1="104.48" x2="522.621" y2="138.561" gradientUnits="userSpaceOnUse">
<stop stop-color="#FFDE44"/>
<stop offset="0.9995" stop-color="#F49A1A"/>
<stop offset="1" stop-color="#F49A1A"/>
</linearGradient>
<linearGradient id="paint15_linear" x1="509.906" y1="126" x2="495.152" y2="160.081" gradientUnits="userSpaceOnUse">
<stop stop-color="#FFDE44"/>
<stop offset="0.9995" stop-color="#F49A1A"/>
<stop offset="1" stop-color="#F49A1A"/>
</linearGradient>
<linearGradient id="paint16_linear" x1="482.48" y1="94.5879" x2="467.726" y2="128.67" gradientUnits="userSpaceOnUse">
<stop stop-color="#5CB8B2"/>
<stop offset="1" stop-color="#41B6E6"/>
</linearGradient>
<linearGradient id="paint17_linear" x1="455.022" y1="115.536" x2="440.267" y2="149.618" gradientUnits="userSpaceOnUse">
<stop stop-color="#5CB8B2"/>
<stop offset="1" stop-color="#41B6E6"/>
</linearGradient>
<linearGradient id="paint18_linear" x1="427.593" y1="135.658" x2="412.839" y2="169.74" gradientUnits="userSpaceOnUse">
<stop stop-color="#5CB8B2"/>
<stop offset="1" stop-color="#41B6E6"/>
</linearGradient>
<linearGradient id="paint19_linear" x1="400.207" y1="126.015" x2="385.452" y2="160.097" gradientUnits="userSpaceOnUse">
<stop stop-color="#5CB8B2"/>
<stop offset="1" stop-color="#41B6E6"/>
</linearGradient>
<linearGradient id="paint20_linear" x1="372.712" y1="147.437" x2="357.958" y2="181.519" gradientUnits="userSpaceOnUse">
<stop stop-color="#5CB8B2"/>
<stop offset="1" stop-color="#41B6E6"/>
</linearGradient>
<linearGradient id="paint21_linear" x1="471.392" y1="313.745" x2="354.47" y2="368.833" gradientUnits="userSpaceOnUse">
<stop stop-color="#015976"/>
<stop offset="1" stop-color="#042B42"/>
</linearGradient>
<linearGradient id="paint22_linear" x1="86.456" y1="334.934" x2="346.81" y2="334.934" gradientUnits="userSpaceOnUse">
<stop stop-color="#015976"/>
<stop offset="1" stop-color="#042B42"/>
</linearGradient>
<linearGradient id="paint23_linear" x1="148.298" y1="277.573" x2="328.422" y2="277.573" gradientUnits="userSpaceOnUse">
<stop stop-color="#015976"/>
<stop offset="1" stop-color="#042B42"/>
</linearGradient>
<linearGradient id="paint24_linear" x1="266.247" y1="248.473" x2="203.806" y2="277.892" gradientUnits="userSpaceOnUse">
<stop stop-color="#4B3263"/>
<stop offset="1" stop-color="#042B42"/>
</linearGradient>
<linearGradient id="paint25_linear" x1="443.026" y1="308.398" x2="557.483" y2="308.398" gradientUnits="userSpaceOnUse">
<stop stop-color="#015976"/>
<stop offset="1" stop-color="#042B42"/>
</linearGradient>
<linearGradient id="paint26_linear" x1="254.057" y1="426.634" x2="256.355" y2="453.637" gradientUnits="userSpaceOnUse">
<stop stop-color="#FFDE44"/>
<stop offset="0.9995" stop-color="#F49A1A"/>
<stop offset="1" stop-color="#F49A1A"/>
</linearGradient>
<clipPath id="clip0">
<rect width="771.362" height="470" fill="white"/>
</clipPath>
</defs>
</svg>
