<svg width="772" height="470" viewBox="0 0 772 470" fill="none" xmlns="http://www.w3.org/2000/svg">
<g clip-path="url(#clip0)">
<path d="M38.2558 429.636C37.2408 429.636 36.1478 429.636 35.1329 429.558C34.7425 429.558 34.5083 429.246 34.5083 428.855C34.5083 428.465 34.8206 428.231 35.2109 428.231C40.1295 428.387 45.3604 428.153 50.5913 427.528C50.9817 427.45 51.294 427.762 51.294 428.075C51.3721 428.465 51.0598 428.777 50.7475 428.777C46.5315 429.324 42.3156 429.636 38.2558 429.636ZM19.8305 427.684C19.7525 427.684 19.7525 427.684 19.6744 427.684C14.5216 426.591 9.5249 424.952 4.84052 422.844C4.52823 422.688 4.37208 422.297 4.52822 421.985C4.68437 421.673 5.07474 421.517 5.38703 421.673C9.99334 423.703 14.9119 425.342 19.9867 426.435C20.299 426.513 20.5332 426.826 20.4551 427.216C20.3771 427.45 20.0648 427.684 19.8305 427.684ZM65.8937 425.889C65.5814 425.889 65.3472 425.733 65.2691 425.42C65.191 425.108 65.3472 424.718 65.7375 424.64C70.5781 423.39 75.5747 421.751 80.4153 419.877C80.7276 419.721 81.1179 419.877 81.2741 420.267C81.4302 420.58 81.2741 420.97 80.8837 421.126C75.9651 423.078 70.9684 424.64 66.0498 425.967C65.9717 425.889 65.9717 425.889 65.8937 425.889ZM-8.35383 415.115C-8.50998 415.115 -8.58805 415.037 -8.7442 414.958C-12.8821 411.992 -16.7857 408.478 -20.3771 404.575C-20.6113 404.341 -20.6113 403.872 -20.3771 403.638C-20.1429 403.404 -19.6744 403.404 -19.4402 403.638C-15.8488 407.463 -12.0233 410.899 -7.96347 413.865C-7.65118 414.1 -7.5731 414.49 -7.80732 414.802C-7.96347 415.037 -8.11961 415.115 -8.35383 415.115ZM94.7807 414.646C94.5465 414.646 94.3123 414.49 94.2342 414.334C94.078 414.022 94.1561 413.631 94.5465 413.475C99.0747 411.133 103.603 408.478 107.897 405.668C108.209 405.434 108.6 405.59 108.756 405.824C108.99 406.136 108.834 406.527 108.6 406.683C104.306 409.493 99.7774 412.148 95.1711 414.568C94.9369 414.646 94.8588 414.646 94.7807 414.646ZM120.623 397.548C120.467 397.548 120.233 397.47 120.154 397.314C119.92 397.002 119.998 396.611 120.233 396.377C122.419 394.503 124.605 392.63 126.635 390.678C128.196 389.194 129.836 387.555 131.553 385.837C131.787 385.603 132.178 385.603 132.49 385.837C132.724 386.071 132.724 386.462 132.49 386.774C130.772 388.57 129.133 390.209 127.571 391.693C125.542 393.645 123.355 395.596 121.169 397.47C120.935 397.548 120.779 397.548 120.623 397.548ZM142.561 375.61C142.405 375.61 142.249 375.532 142.093 375.453C141.859 375.219 141.781 374.829 142.015 374.517C145.606 370.535 149.198 366.397 152.321 362.884C152.555 362.65 152.945 362.571 153.257 362.806C153.492 363.04 153.57 363.43 153.336 363.743C150.291 367.256 146.621 371.394 143.03 375.375C142.874 375.532 142.718 375.61 142.561 375.61ZM163.017 352.266C162.86 352.266 162.704 352.188 162.626 352.11C162.392 351.875 162.314 351.485 162.548 351.173C166.53 346.645 169.809 342.897 172.854 339.54C173.088 339.306 173.478 339.228 173.791 339.462C174.025 339.696 174.103 340.086 173.869 340.399C170.824 343.834 167.545 347.503 163.563 352.032C163.407 352.188 163.251 352.266 163.017 352.266ZM183.784 329.156C183.628 329.156 183.472 329.078 183.316 329C183.081 328.766 183.003 328.375 183.316 328.063C186.985 324.081 190.498 320.412 194.012 316.743C194.246 316.508 194.636 316.508 194.948 316.743C195.183 316.977 195.183 317.367 194.948 317.679C191.435 321.271 187.922 324.94 184.252 328.922C184.096 329.078 183.94 329.156 183.784 329.156ZM205.41 306.905C205.254 306.905 205.098 306.827 204.942 306.671C204.708 306.437 204.708 305.968 204.942 305.734C208.767 302.065 212.593 298.473 216.262 295.116C216.497 294.882 216.965 294.882 217.199 295.194C217.434 295.429 217.434 295.897 217.121 296.131C213.374 299.488 209.548 303.08 205.801 306.749C205.801 306.827 205.644 306.905 205.41 306.905ZM228.52 286.138C228.364 286.138 228.13 286.06 228.051 285.904C227.817 285.591 227.895 285.201 228.13 284.967C232.189 281.61 236.249 278.331 240.309 275.286C240.621 275.052 241.012 275.13 241.246 275.442C241.48 275.754 241.402 276.145 241.09 276.379C237.03 279.424 232.97 282.703 228.988 285.982C228.832 286.06 228.676 286.138 228.52 286.138ZM253.269 267.4C253.035 267.4 252.879 267.322 252.723 267.088C252.488 266.776 252.566 266.385 252.879 266.151C257.173 263.184 261.623 260.374 265.995 257.719C266.307 257.563 266.698 257.641 266.854 257.954C267.01 258.266 266.932 258.656 266.62 258.812C262.247 261.389 257.875 264.277 253.581 267.166C253.503 267.4 253.425 267.4 253.269 267.4ZM279.814 251.395C279.58 251.395 279.346 251.239 279.267 251.083C279.111 250.771 279.189 250.38 279.502 250.224C284.108 247.804 288.87 245.54 293.477 243.432C293.789 243.276 294.179 243.432 294.336 243.744C294.492 244.057 294.336 244.447 294.023 244.603C289.417 246.633 284.733 248.975 280.126 251.317C280.048 251.395 279.97 251.395 279.814 251.395ZM507.007 240.855C501.854 240.777 496.623 240.621 491.47 240.231C491.08 240.231 490.846 239.919 490.846 239.528C490.846 239.138 491.158 238.904 491.548 238.904C496.701 239.294 501.932 239.45 507.007 239.528C507.397 239.528 507.631 239.841 507.631 240.153C507.631 240.621 507.319 240.855 507.007 240.855ZM522.543 240.543C522.231 240.543 521.919 240.309 521.919 239.919C521.919 239.528 522.153 239.294 522.543 239.216C527.696 238.904 532.849 238.435 537.924 237.811C538.236 237.733 538.626 238.045 538.626 238.357C538.704 238.748 538.392 239.06 538.08 239.06C532.927 239.762 527.774 240.231 522.543 240.543ZM308.154 238.826C307.92 238.826 307.608 238.669 307.53 238.435C307.374 238.123 307.608 237.733 307.92 237.576C312.761 235.781 317.757 234.141 322.676 232.736C322.988 232.658 323.379 232.814 323.457 233.204C323.535 233.595 323.379 233.907 322.988 233.985C318.07 235.39 313.151 237.03 308.311 238.826C308.311 238.826 308.233 238.826 308.154 238.826ZM476.09 238.669H476.012C470.937 237.967 465.784 237.186 460.631 236.171C460.241 236.093 460.085 235.781 460.085 235.39C460.163 235 460.475 234.844 460.865 234.844C465.94 235.781 471.093 236.64 476.168 237.342C476.558 237.42 476.792 237.733 476.714 238.045C476.636 238.435 476.402 238.669 476.09 238.669ZM553.226 236.561C552.914 236.561 552.679 236.327 552.601 236.015C552.523 235.703 552.757 235.312 553.07 235.234C558.145 234.219 563.219 232.97 568.138 231.643C568.45 231.565 568.84 231.721 568.919 232.111C568.997 232.424 568.84 232.814 568.45 232.892C563.531 234.297 558.457 235.468 553.304 236.561C553.304 236.561 553.304 236.561 553.226 236.561ZM445.563 232.892C445.485 232.892 445.485 232.892 445.407 232.892C440.332 231.643 435.257 230.55 430.261 229.691C429.87 229.613 429.714 229.301 429.714 228.91C429.792 228.598 430.105 228.364 430.495 228.364C435.492 229.301 440.645 230.394 445.719 231.643C446.032 231.721 446.266 232.111 446.188 232.424C446.11 232.736 445.875 232.892 445.563 232.892ZM337.978 230.238C337.666 230.238 337.432 230.003 337.354 229.691C337.276 229.379 337.51 228.988 337.822 228.91C342.897 227.817 348.05 226.88 353.125 226.178C353.437 226.1 353.827 226.412 353.827 226.724C353.905 227.115 353.593 227.427 353.281 227.427C348.206 228.13 343.053 229.066 338.056 230.159C338.056 230.238 337.978 230.238 337.978 230.238ZM583.05 228.208C582.816 228.208 582.503 228.052 582.425 227.817C582.269 227.505 582.503 227.115 582.816 226.958C587.656 225.163 592.497 223.211 597.103 221.025C597.415 220.869 597.806 221.025 597.962 221.337C598.118 221.65 597.962 222.04 597.649 222.196C592.965 224.382 588.124 226.334 583.284 228.13C583.206 228.208 583.128 228.208 583.05 228.208ZM415.036 227.271H414.958C409.806 226.646 404.653 226.1 399.578 225.787C399.188 225.787 398.953 225.475 398.953 225.085C398.953 224.694 399.266 224.46 399.656 224.46C404.731 224.772 409.962 225.241 415.115 225.944C415.505 226.022 415.739 226.334 415.661 226.646C415.661 227.037 415.427 227.271 415.036 227.271ZM368.661 225.865C368.349 225.865 368.037 225.631 368.037 225.241C368.037 224.851 368.271 224.538 368.661 224.538C373.736 224.148 378.967 223.992 384.198 223.992C384.588 223.992 384.822 224.304 384.822 224.616C384.822 225.007 384.51 225.241 384.198 225.241C378.967 225.319 373.736 225.553 368.661 225.865ZM611.234 215.248C611 215.248 610.766 215.091 610.688 214.935C610.532 214.623 610.61 214.233 610.922 214.076C615.372 211.578 619.822 208.846 624.038 205.957C624.35 205.723 624.741 205.801 624.975 206.113C625.209 206.425 625.131 206.816 624.819 207.05C620.525 209.939 616.075 212.671 611.625 215.248C611.468 215.169 611.312 215.248 611.234 215.248ZM636.842 197.837C636.686 197.837 636.452 197.759 636.374 197.603C636.139 197.291 636.218 196.9 636.452 196.666C640.434 193.465 644.337 190.03 648.085 186.439C648.319 186.204 648.787 186.204 649.022 186.439C649.256 186.673 649.256 187.141 649.022 187.375C645.274 190.967 641.37 194.402 637.311 197.603C637.154 197.759 636.998 197.837 636.842 197.837ZM659.327 176.445C659.171 176.445 659.015 176.367 658.937 176.289C658.703 176.055 658.625 175.664 658.859 175.352C662.294 171.527 665.573 167.467 668.618 163.407C668.852 163.095 669.242 163.095 669.555 163.251C669.867 163.485 669.867 163.875 669.711 164.188C666.588 168.326 663.309 172.385 659.874 176.211C659.64 176.367 659.483 176.445 659.327 176.445ZM677.909 151.618C677.752 151.618 677.674 151.618 677.596 151.54C677.284 151.384 677.206 150.915 677.362 150.681C680.095 146.387 682.671 141.859 685.091 137.331C685.247 137.018 685.638 136.862 685.95 137.096C686.262 137.253 686.419 137.643 686.184 137.955C683.764 142.561 681.188 147.09 678.377 151.462C678.377 151.54 678.143 151.618 677.909 151.618ZM692.352 124.214C692.274 124.214 692.196 124.214 692.118 124.136C691.806 123.98 691.649 123.59 691.806 123.277C693.835 118.593 695.709 113.753 697.349 108.834C697.427 108.522 697.817 108.287 698.208 108.444C698.52 108.522 698.754 108.912 698.598 109.302C696.88 114.221 695.007 119.061 692.977 123.824C692.821 124.058 692.586 124.214 692.352 124.214ZM702.424 94.9369C702.346 94.9369 702.345 94.9369 702.267 94.9369C701.955 94.8588 701.721 94.4685 701.799 94.1562C703.126 89.2376 704.297 84.1628 705.234 79.0881C705.312 78.7758 705.624 78.5415 706.015 78.5415C706.327 78.6196 706.561 78.9319 706.561 79.3223C705.625 84.397 704.453 89.5499 703.126 94.4685C702.97 94.7027 702.736 94.9369 702.424 94.9369ZM708.279 64.4884H708.201C707.811 64.4103 707.576 64.098 707.654 63.7857C708.279 58.711 708.747 53.5582 708.982 48.4053C708.982 48.015 709.294 47.7808 709.684 47.7808C710.075 47.7808 710.309 48.093 710.309 48.4834C709.997 53.6362 709.528 58.8671 708.904 63.9419C708.904 64.2542 708.591 64.4884 708.279 64.4884ZM709.997 33.4934C709.606 33.4934 709.372 33.1811 709.372 32.8688C709.372 27.794 709.138 22.5631 708.826 17.4103C708.826 17.02 709.06 16.7077 709.45 16.7077C709.762 16.7077 710.153 16.9419 710.153 17.3322C710.465 22.5631 710.699 27.794 710.699 32.8688C710.699 33.1811 710.387 33.4934 709.997 33.4934ZM707.967 2.57644C707.654 2.57644 707.342 2.34222 707.342 2.02992C706.718 -3.04483 705.937 -8.19765 705 -13.2724C704.922 -13.6628 705.156 -13.9751 705.546 -14.0531C705.937 -14.1312 706.249 -13.897 706.327 -13.5066C707.264 -8.43187 708.045 -3.20097 708.669 1.87378C708.747 2.26414 708.435 2.57644 708.123 2.57644C708.045 2.57644 707.967 2.57644 707.967 2.57644ZM702.424 -27.9501C702.111 -27.9501 701.877 -28.1844 701.799 -28.4186C700.628 -33.4153 699.301 -38.4119 697.895 -43.4086C697.817 -43.7209 697.973 -44.1113 698.364 -44.1893C698.676 -44.2674 699.066 -44.1113 699.144 -43.7209C700.628 -38.7242 701.955 -33.6495 703.126 -28.6528C703.204 -28.3405 702.97 -27.9501 702.658 -27.8721C702.58 -28.0282 702.502 -27.9501 702.424 -27.9501Z" fill="#243647"/>
<path d="M79.088 352.734C81.3522 337.9 83.4601 326.658 71.8272 299.176C60.1943 271.694 33.4153 238.591 14.3654 224.226" stroke="#39D2D1" stroke-width="1.3852" stroke-miterlimit="10" stroke-linecap="round" stroke-linejoin="round"/>
<path d="M75.7309 309.326C75.887 290.9 74.2475 276.613 64.0199 263.184C53.7924 249.756 44.5797 240.075 15.6146 225.241" stroke="#39D2D1" stroke-width="1.3852" stroke-miterlimit="10" stroke-linecap="round" stroke-linejoin="round"/>
<path d="M75.7309 309.326C67.2209 306.359 46.4535 300.972 31.3854 279.502C20.1429 263.497 19.4402 246.711 18.1129 240.934C16.8638 235.39 15.3023 226.802 14.3654 224.226" stroke="#39D2D1" stroke-width="1.3852" stroke-miterlimit="10" stroke-linecap="round" stroke-linejoin="round"/>
<path d="M70.3439 273.958C70.2658 278.487 69.2508 283.483 65.8156 286.919C59.0233 283.327 46.6096 281.532 37.5532 287.153" stroke="#39D2D1" stroke-width="1.3852" stroke-miterlimit="10" stroke-linecap="round" stroke-linejoin="round"/>
<path d="M54.495 251.864C54.6512 257.329 53.3239 260.92 50.8256 263.34C46.3754 260.998 31.1512 255.299 22.1728 260.452" stroke="#39D2D1" stroke-width="1.3852" stroke-miterlimit="10" stroke-linecap="round" stroke-linejoin="round"/>
<path d="M34.8987 236.171C37.0847 240.934 35.9136 244.915 35.9136 244.915C35.9136 244.915 28.2624 240.543 18.191 241.558" stroke="#39D2D1" stroke-width="1.3852" stroke-miterlimit="10" stroke-linecap="round" stroke-linejoin="round"/>
<path d="M127.103 441.425C123.043 422.532 120.311 408.166 93.7658 380.45C67.2209 352.734 19.7525 325.331 -9.75913 316.899" stroke="#39D2D1" stroke-width="1.7818" stroke-miterlimit="10" stroke-linecap="round" stroke-linejoin="round"/>
<path d="M103.056 390.834C94.7026 368.583 86.1927 352.266 67.6894 340.789C49.186 329.39 33.6495 321.973 -7.96346 317.523" stroke="#39D2D1" stroke-width="1.7818" stroke-miterlimit="10" stroke-linecap="round" stroke-linejoin="round"/>
<path d="M103.056 390.834C91.5017 391.224 64.0199 394.269 36.0698 375.454C15.2243 361.478 6.63621 341.57 2.34219 335.246C-1.71761 329.156 -7.57309 319.553 -9.83721 316.977" stroke="#39D2D1" stroke-width="1.7818" stroke-miterlimit="10" stroke-linecap="round" stroke-linejoin="round"/>
<path d="M80.3372 350.782C82.289 356.247 83.4601 362.649 80.8056 368.505C71.0465 367.334 55.2757 370.847 47 381.777" stroke="#39D2D1" stroke-width="1.7818" stroke-miterlimit="10" stroke-linecap="round" stroke-linejoin="round"/>
<path d="M51.0598 331.576C53.7923 338.056 53.7923 342.975 51.9186 347.113C45.5166 346.332 24.593 346.488 16.1611 356.794" stroke="#39D2D1" stroke-width="1.7818" stroke-miterlimit="10" stroke-linecap="round" stroke-linejoin="round"/>
<path d="M20.3771 321.739C25.2176 326.424 25.686 331.811 25.686 331.811C25.686 331.811 14.4435 330.093 2.88869 335.949" stroke="#39D2D1" stroke-width="1.7818" stroke-miterlimit="10" stroke-linecap="round" stroke-linejoin="round"/>
<path d="M638.872 363.664C651.29 363.664 661.357 353.598 661.357 341.179C661.357 328.761 651.29 318.694 638.872 318.694C626.454 318.694 616.387 328.761 616.387 341.179C616.387 353.598 626.454 363.664 638.872 363.664Z" fill="url(#paint0_linear)"/>
<path d="M638.872 363.664C651.286 363.664 661.357 353.593 661.357 341.179C661.357 339.306 661.123 337.51 660.733 335.792C659.952 336.027 659.249 336.573 658.781 337.276C657.922 338.681 658 340.477 657.219 341.96C656.517 343.444 654.018 344.302 653.316 342.819C652.847 341.882 653.394 340.867 653.706 339.852C654.721 336.261 650.661 332.357 647.148 333.606C644.884 334.387 643.478 336.573 642.698 338.837C641.917 341.101 641.683 343.444 640.98 345.708C640.277 347.972 638.794 350.158 636.608 350.939C634.344 351.719 631.377 350.392 631.221 348.05C630.909 344.537 636.296 342.194 635.437 338.837C634.89 336.807 632.314 336.105 630.362 336.807C628.41 337.51 627.083 339.228 625.834 340.867C623.414 344.146 621.071 347.503 618.807 350.939C622.321 358.434 629.972 363.664 638.872 363.664Z" fill="url(#paint1_linear)"/>
<path d="M89.2375 111.02C108.425 111.02 123.98 95.4652 123.98 76.2774C123.98 57.0897 108.425 41.5349 89.2375 41.5349C70.0498 41.5349 54.495 57.0897 54.495 76.2774C54.495 95.4652 70.0498 111.02 89.2375 111.02Z" fill="url(#paint2_linear)"/>
<path d="M124.058 76.2774C124.058 73.2326 123.668 70.1877 122.887 67.3771C121.013 68.0798 119.296 69.407 118.125 70.9685C116.017 73.701 114.924 76.9801 113.206 79.9469C112.269 81.5864 111.176 83.1479 109.771 84.319C108.209 85.6462 105.867 84.4751 106.101 82.4452L107.585 67.221C107.741 65.7376 106.804 64.02 105.789 62.9269C103.915 60.897 100.402 61.7558 98.5282 63.7077C92.5947 69.8754 91.7359 73.1545 86.5831 86.505C85.7243 88.691 85.1777 91.1113 83.7724 92.907C81.9767 95.2492 78.4635 96.5764 76.0432 94.0781C74.794 92.8289 74.4037 91.0332 74.5598 89.2376C75.0282 85.1778 78.0731 82.211 79.1661 78.3854C80.1811 74.794 78.3854 69.7193 73.8571 70.7342C72.686 70.9685 71.6711 71.6711 70.8123 72.4519C65.7375 77.5266 61.0532 82.9917 56.8372 88.7691C61.912 101.729 74.4817 110.864 89.2375 110.864C108.444 111.02 124.058 95.4834 124.058 76.2774Z" fill="url(#paint3_linear)"/>
<path d="M394.581 391.146C408.322 368.349 414.568 364.601 420.814 369.286C427.06 373.97 418.55 399.422 410.196 408.635C427.684 388.023 441.738 371.159 456.103 365.226C470.468 359.292 486.083 370.847 470.468 389.585C454.854 408.322 450.482 398.641 422.063 418.94C437.99 410.508 456.806 403.95 476.012 408.947C495.14 413.943 507.319 422.375 500.449 436.429C493.578 450.482 479.213 441.425 472.967 438.302C466.721 435.179 449.233 427.372 437.678 427.997C426.123 428.621 416.442 432.056 416.442 432.056C416.442 432.056 439.864 425.811 453.605 445.797C467.346 465.784 451.965 468.282 444.548 464.847C437.053 461.412 424.874 450.872 417.066 449.623C409.259 448.374 396.143 449.545 391.458 450.794" stroke="#39D2D1" stroke-width="1.7818" stroke-miterlimit="10" stroke-linecap="round" stroke-linejoin="round"/>
<path d="M477.885 89.7059C458.836 89.7059 443.377 105.164 443.377 124.214C443.377 143.264 458.836 158.723 477.885 158.723C496.935 158.723 512.394 143.264 512.394 124.214H477.885V89.7059Z" fill="url(#paint4_linear)"/>
<path d="M475.387 84.319V126.4H517.468C517.468 103.213 498.653 84.319 475.387 84.319Z" fill="url(#paint5_linear)"/>
<path d="M114.143 409.806C102.978 432.993 99.1528 451.965 99.1528 451.965H327.048C327.048 451.965 314.322 386.384 304.251 364.523C294.257 342.663 284.264 303.47 284.264 303.47L125.542 376.937L114.143 409.806Z" fill="url(#paint6_linear)"/>
<path d="M359.605 163.641C408.869 211.422 415.973 267.322 425.264 298.239C428.075 291.447 432.525 276.769 432.525 276.769L490.533 286.84C490.533 286.84 483.194 368.973 456.025 379.201C414.1 394.972 341.726 317.914 342.897 264.746C344.068 211.578 359.605 163.641 359.605 163.641Z" fill="url(#paint7_linear)"/>
<path d="M294.492 320.802C335.558 318.46 361.01 279.97 359.527 260.061C358.043 240.153 345.473 221.181 352.734 208.611C362.571 191.669 366.475 171.37 359.527 163.641C352.656 155.99 301.674 158.957 284.264 168.872C266.854 178.787 231.877 176.445 207.518 171.136C183.159 165.827 112.816 310.028 116.641 338.837C120.467 367.646 218.37 347.425 230.472 333.997C242.573 320.568 294.492 320.802 294.492 320.802Z" fill="url(#paint8_linear)"/>
<path d="M204.083 163.641C173.088 164.344 155.6 172.463 135.301 208.611C115.002 244.759 77.1362 307.296 70.1096 339.071C63.0831 370.847 79.7907 413.553 114.221 409.806C148.651 406.058 183.159 380.606 201.116 370.066C219.073 359.527 174.649 305.812 174.649 305.812C174.649 305.812 194.402 270.289 215.56 233.282C236.718 196.276 222.586 163.173 204.083 163.641Z" fill="url(#paint9_linear)"/>
<path d="M352.734 208.611C345.083 220.947 358.043 240.153 359.527 260.061C361.01 279.97 335.558 318.46 294.492 320.802" stroke="#CCCCCC" stroke-width="2.1868" stroke-miterlimit="10" stroke-linecap="round" stroke-linejoin="round"/>
<path d="M282.547 376.859C283.64 374.751 285.045 372.799 286.762 371.237C287.621 370.457 288.636 369.832 289.651 369.754C290.666 369.676 291.525 370.301 291.993 371.237C291.291 371.94 290.744 372.721 290.198 373.502C289.495 374.673 288.948 375.844 288.714 377.327C288.558 378.03 288.558 378.889 288.87 379.747C289.027 380.216 289.339 380.684 289.807 380.918C290.276 381.231 290.744 381.387 291.213 381.387C291.759 381.465 292.306 381.231 292.696 380.997C293.164 380.762 293.477 380.372 293.633 380.06C294.101 379.357 294.257 378.732 294.414 378.03C294.648 376.703 294.57 375.453 294.336 374.126C294.257 373.814 294.179 373.58 294.179 373.267C294.336 373.111 294.492 373.033 294.726 372.877C295.585 372.409 296.365 372.096 297.068 372.096C297.224 372.096 297.458 372.174 297.615 372.174C297.771 372.252 297.927 372.33 298.005 372.33C298.239 372.487 298.395 372.643 298.551 372.877C298.942 373.423 299.176 374.36 299.254 375.297C299.41 376.312 299.332 377.327 299.254 378.498C299.176 379.591 299.02 380.684 298.786 381.777C298.63 382.636 298.473 383.495 298.239 384.354C293.867 392.551 291.915 401.061 291.915 407.854C291.915 418.784 295.897 434.008 307.686 445.173C310.419 450.794 309.95 463.91 311.902 465.862C314.01 467.97 335.246 467.736 336.729 466.487C338.135 465.316 337.51 460.397 338.915 459.304C342.663 459.85 346.801 460.163 351.173 460.163C357.184 460.163 362.571 459.694 367.568 458.835C368.349 460.085 367.724 465.394 369.13 466.565C370.613 467.736 391.849 468.048 393.957 465.94C395.909 463.988 393.957 451.965 397.392 445.485C401.842 441.503 405.277 436.897 407.776 431.9C411.523 431.041 418.862 432.056 420.346 430.651C423.39 427.84 424.327 393.176 420.97 390.365C419.018 388.726 411.523 390.6 409.728 388.57C407.385 382.714 403.794 377.093 398.953 372.252C399.422 359.995 411.133 344.614 403.95 343.912C386.696 342.428 370.535 352.11 365.148 355.779C360.776 355.076 356.091 354.686 351.095 354.686C328.375 354.686 313.073 364.133 303.782 375.922C303.704 375.531 303.704 375.219 303.626 374.829C303.392 373.502 302.924 372.018 301.831 370.691C301.284 369.988 300.581 369.442 299.645 369.051C299.176 368.895 298.786 368.739 298.395 368.661C297.927 368.583 297.537 368.583 297.146 368.583C295.507 368.661 294.101 369.364 293.008 370.222C292.618 369.754 292.228 369.286 291.681 368.973C291.056 368.661 290.354 368.505 289.651 368.661C288.324 368.895 287.309 369.676 286.45 370.535C284.654 372.643 283.483 374.751 282.547 376.859ZM291.135 377.796C291.447 376.781 292.071 375.688 292.774 374.751C292.774 375.688 292.774 376.703 292.54 377.639C292.384 378.108 292.228 378.576 291.993 378.889C291.837 379.045 291.759 379.123 291.681 379.123C291.603 379.123 291.525 379.123 291.447 379.123C291.291 379.123 291.213 379.045 291.213 378.967C291.213 378.889 291.135 378.889 291.135 378.811C291.056 378.654 291.056 378.186 291.135 377.796Z" fill="url(#paint10_linear)"/>
<path d="M390.678 366.787C390.522 367.568 397.236 370.457 397.939 369.988C398.641 369.52 399.344 359.839 404.887 349.455C405.746 347.972 391.927 358.433 390.678 366.787Z" fill="url(#paint11_linear)"/>
<path d="M393.176 393.254C387.164 394.113 389.272 406.136 394.894 405.277C400.359 404.575 398.251 392.473 393.176 393.254Z" fill="url(#paint12_linear)"/>
<path d="M419.721 425.108C418.862 425.108 418.159 418.237 418.159 409.806C418.159 401.374 418.862 394.503 419.721 394.503C420.58 394.503 421.282 401.374 421.282 409.806C421.282 418.237 420.58 425.108 419.721 425.108Z" fill="url(#paint13_linear)"/>
<path d="M323.457 370.066C323.613 369.988 349.065 361.166 362.493 364.914L363.821 359.995C348.831 355.935 322.442 365.07 321.817 365.226L322.598 367.646L323.457 370.066Z" fill="url(#paint14_linear)"/>
<path d="M294.492 333.294C310.262 335.402 320.724 332.513 321.349 330.64C322.052 328.766 326.267 317.601 314.244 313.385C302.221 309.169 294.492 320.802 294.492 320.802V333.294Z" fill="white"/>
<path d="M318.304 333.84C318.304 345.239 327.595 354.53 338.993 354.53C350.392 354.53 359.683 345.239 359.683 333.84C359.683 322.442 350.392 313.151 338.993 313.151C327.595 313.151 318.304 322.442 318.304 333.84Z" fill="url(#paint15_linear)"/>
<path d="M321.271 333.841C321.271 343.678 329.234 351.563 338.993 351.563C348.753 351.563 356.716 343.6 356.716 333.841C356.716 324.003 348.753 316.118 338.993 316.118C329.234 316.118 321.271 324.081 321.271 333.841Z" fill="url(#paint16_linear)"/>
<path d="M350.08 333.84H349.143H346.176H345.239H339.852V337.744H343.834C342.663 339.227 340.945 340.164 338.915 340.164C335.48 340.164 332.669 337.354 332.669 333.919C332.669 330.483 335.48 327.673 338.915 327.673C340.633 327.673 342.194 328.375 343.365 329.468L346.098 326.736C344.302 324.94 341.726 323.769 338.915 323.769C333.294 323.769 328.766 328.297 328.766 333.919C328.766 339.54 333.294 344.068 338.915 344.068C341.726 344.068 344.224 342.897 346.098 341.101V344.068H350.002L350.08 333.84Z" fill="white"/>
<path d="M174.65 305.812C205.176 305.031 245.462 296.6 245.462 296.6C245.462 296.6 250.458 285.357 258.812 286.997C258.812 281.766 264.824 270.367 274.817 272.865C275.286 259.983 285.279 259.046 297.068 260.686C308.857 262.325 326.346 280.595 338.525 298.942C350.704 317.211 340.555 325.799 332.435 319.709C324.316 313.62 314.869 301.83 311.746 295.975C315.571 301.83 318.46 332.279 298.395 330.249C298.551 331.967 288.714 338.603 282.625 329.078C278.721 334.309 269.04 332.591 266.307 329.937C249.444 341.101 228.052 354.608 201.194 370.066C194.246 370.066 180.817 359.605 176.055 343.912C170.98 327.36 174.65 305.812 174.65 305.812Z" fill="white"/>
<path d="M253.581 315.181C257.641 315.181 260.53 317.601 261.389 322.52C262.247 327.438 269.196 333.606 277.784 331.967C286.372 330.327 284.967 319.709 282.625 309.872C280.282 300.035 264.277 294.726 264.277 294.726" stroke="#CCCCCC" stroke-width="2.1868" stroke-miterlimit="10" stroke-linecap="round" stroke-linejoin="round"/>
<path d="M280.595 283.639C295.351 295.507 300.659 305.344 301.909 317.992C303.158 330.639 290.276 340.789 282.547 329" stroke="#CCCCCC" stroke-width="2.1868" stroke-miterlimit="10" stroke-linecap="round" stroke-linejoin="round"/>
<path d="M293.711 276.301C305.188 286.138 314.322 295.507 314.869 306.203C315.415 316.82 310.731 333.84 298.317 330.249" stroke="#CCCCCC" stroke-width="2.1868" stroke-miterlimit="10" stroke-linecap="round" stroke-linejoin="round"/>
<path d="M207.596 247.648C196.12 267.635 185.267 286.841 174.65 305.812" stroke="#CCCCCC" stroke-width="2.1868" stroke-miterlimit="10" stroke-linecap="round" stroke-linejoin="round"/>
<path d="M125.62 315.103C154.741 310.887 174.649 305.812 174.649 305.812" stroke="#CCCCCC" stroke-width="2.1868" stroke-miterlimit="10" stroke-linecap="round" stroke-linejoin="round"/>
<path d="M284.342 157.473C281.532 171.761 284.342 176.211 284.342 176.211C284.342 176.211 297.302 158.957 306.203 157.473C315.103 155.99 322.676 157.473 322.676 157.473C322.676 157.473 320.49 181.13 298.786 197.837C277.081 214.623 249.522 218.292 234.766 208.533C220.01 198.774 196.744 171.839 207.596 156.771C218.448 141.703 284.342 157.473 284.342 157.473Z" fill="white"/>
<path d="M322.676 135.066C327.36 138.033 334.777 146.855 327.048 158.488C319.319 170.121 308.935 162.392 301.831 169.34C294.726 176.289 300.191 184.096 288.87 182.144C277.55 180.193 280.048 159.191 287.855 150.369C295.819 141.39 322.676 135.066 322.676 135.066Z" fill="url(#paint17_linear)"/>
<path d="M275.13 162.392C305.485 162.392 330.093 137.784 330.093 107.429C330.093 77.0731 305.485 52.4651 275.13 52.4651C244.774 52.4651 220.166 77.0731 220.166 107.429C220.166 137.784 244.774 162.392 275.13 162.392Z" fill="white"/>
<path d="M279.736 70.1877C281.219 89.1594 266.151 98.6063 253.503 111.723C240.855 124.839 243.978 134.91 249.678 142.405C255.299 149.9 260.452 165.593 257.875 174.962C255.299 184.331 239.606 185.58 237.733 195.027C235.859 204.395 242.729 227.583 219.542 232.58C196.354 237.576 190.108 221.962 191.045 211.89C191.982 201.819 210.173 197.447 215.794 186.204C221.415 174.962 217.98 171.136 213.061 168.247C203.38 162.626 188.39 160.752 168.95 170.824C149.51 180.973 103.291 269.04 99.0747 276.145C85.49 273.88 51.6063 252.566 59.804 223.757C68.0017 194.948 86.4269 206.816 99.0747 188.703C111.723 170.59 103.603 158.644 121.794 149.822C139.985 141.078 153.179 154.194 164.734 147.948C176.289 141.703 186.282 127.884 191.045 102.198C195.807 76.5116 225.397 50.8256 253.503 49.5764C281.61 48.3272 309.404 45.1262 323.379 74.0913C335.012 98.2159 330.015 113.518 330.015 113.518C330.015 113.518 332.982 108.053 319.944 90.0182C304.407 68.392 279.736 70.1877 279.736 70.1877Z" fill="url(#paint18_linear)"/>
<path d="M244.213 124.214C253.483 124.214 260.998 116.699 260.998 107.429C260.998 98.1581 253.483 90.6428 244.213 90.6428C234.942 90.6428 227.427 98.1581 227.427 107.429C227.427 116.699 234.942 124.214 244.213 124.214Z" fill="white"/>
<path d="M490.533 286.84C491.939 279.033 500.214 217.824 500.214 217.824C500.214 217.824 517.39 218.136 523.558 215.091C534.098 209.938 543.701 189.015 548.854 178.943C554.007 168.872 552.992 166.296 551.274 164.656C551.586 162.626 553.694 157.708 549.166 155.912C544.716 154.116 540.656 156.536 538.626 159.113C536.596 161.689 527.462 172.698 525.822 175.118C525.978 172.698 525.666 172.229 523.87 171.292C522.075 170.355 516.688 171.448 511.847 175.899C507.085 180.349 501.776 186.595 500.527 188.703C490.611 189.639 471.405 191.591 464.535 196.041C457.664 200.492 438.224 258.734 432.447 276.691C450.091 294.726 490.533 286.84 490.533 286.84Z" fill="white"/>
<path d="M504.665 189.483C501.776 189.483 498.887 189.405 496.467 189.171C497.95 189.015 499.356 188.859 500.527 188.781C500.605 188.625 500.37 189.015 500.527 188.781C504.899 188.937 510.13 188.156 514.189 187.766L514.267 187.688C517 185.97 522.699 179.49 525.744 175.196C525.744 175.508 525.744 174.806 525.744 175.196C526.291 174.415 527.696 172.62 529.336 170.512C525.822 177.616 520.357 184.409 516.61 187.61C520.279 187.219 523.09 186.595 523.714 185.814C524.807 184.643 527.618 181.13 530.585 177.46C534.332 172.776 538.236 167.935 539.875 166.296C541.515 164.656 543.857 163.485 546.355 163.173C546.512 163.173 548.463 163.173 548.62 163.173C549.635 163.407 550.806 164.11 551.04 164.734C550.962 165.046 551.118 164.5 551.04 164.734C551.352 164.968 551.586 165.281 551.821 165.671C547.995 163.407 543.389 164.656 540.812 167.233C539.251 168.794 535.191 173.869 531.6 178.319C528.633 181.988 525.822 185.502 524.651 186.751C523.168 188.468 513.643 189.483 504.665 189.483Z" fill="#CCCCCC"/>
</g>
<defs>
<linearGradient id="paint0_linear" x1="616.437" y1="341.179" x2="661.342" y2="341.179" gradientUnits="userSpaceOnUse">
<stop stop-color="#015976"/>
<stop offset="1" stop-color="#042B42"/>
</linearGradient>
<linearGradient id="paint1_linear" x1="618.667" y1="348.516" x2="661.342" y2="348.516" gradientUnits="userSpaceOnUse">
<stop stop-color="#4B3263"/>
<stop offset="1" stop-color="#042B42"/>
</linearGradient>
<linearGradient id="paint2_linear" x1="54.495" y1="76.2774" x2="124.051" y2="76.2774" gradientUnits="userSpaceOnUse">
<stop stop-color="#015976"/>
<stop offset="1" stop-color="#042B42"/>
</linearGradient>
<linearGradient id="paint3_linear" x1="56.8372" y1="86.3138" x2="124.058" y2="86.3138" gradientUnits="userSpaceOnUse">
<stop stop-color="#4B3263"/>
<stop offset="1" stop-color="#042B42"/>
</linearGradient>
<linearGradient id="paint4_linear" x1="490.529" y1="95.0089" x2="470.956" y2="140.221" gradientUnits="userSpaceOnUse">
<stop stop-color="#015976"/>
<stop offset="1" stop-color="#042B42"/>
</linearGradient>
<linearGradient id="paint5_linear" x1="500.847" y1="95.1525" x2="476.976" y2="150.29" gradientUnits="userSpaceOnUse">
<stop stop-color="#5CB8B2"/>
<stop offset="1" stop-color="#41B6E6"/>
</linearGradient>
<linearGradient id="paint6_linear" x1="99.1528" y1="377.718" x2="327.048" y2="377.718" gradientUnits="userSpaceOnUse">
<stop stop-color="#5CB8B2"/>
<stop offset="1" stop-color="#41B6E6"/>
</linearGradient>
<linearGradient id="paint7_linear" x1="456.522" y1="287.678" x2="337.351" y2="256.199" gradientUnits="userSpaceOnUse">
<stop stop-color="#015976"/>
<stop offset="1" stop-color="#042B42"/>
</linearGradient>
<linearGradient id="paint8_linear" x1="116.491" y1="256.412" x2="363.045" y2="256.412" gradientUnits="userSpaceOnUse">
<stop stop-color="#015976"/>
<stop offset="1" stop-color="#042B42"/>
</linearGradient>
<linearGradient id="paint9_linear" x1="226.134" y1="286.836" x2="68.5294" y2="286.836" gradientUnits="userSpaceOnUse">
<stop stop-color="#015976"/>
<stop offset="1" stop-color="#042B42"/>
</linearGradient>
<linearGradient id="paint10_linear" x1="423.094" y1="405.622" x2="282.546" y2="405.622" gradientUnits="userSpaceOnUse">
<stop stop-color="#FFDE44"/>
<stop offset="0.9995" stop-color="#F49A1A"/>
<stop offset="1" stop-color="#F49A1A"/>
</linearGradient>
<linearGradient id="paint11_linear" x1="404.925" y1="359.676" x2="390.675" y2="359.676" gradientUnits="userSpaceOnUse">
<stop stop-color="#015976"/>
<stop offset="1" stop-color="#042B42"/>
</linearGradient>
<linearGradient id="paint12_linear" x1="398.114" y1="399.27" x2="389.542" y2="399.27" gradientUnits="userSpaceOnUse">
<stop stop-color="#015976"/>
<stop offset="1" stop-color="#042B42"/>
</linearGradient>
<linearGradient id="paint13_linear" x1="421.317" y1="409.806" x2="418.146" y2="409.806" gradientUnits="userSpaceOnUse">
<stop stop-color="#015976"/>
<stop offset="1" stop-color="#042B42"/>
</linearGradient>
<linearGradient id="paint14_linear" x1="363.821" y1="364.511" x2="321.817" y2="364.511" gradientUnits="userSpaceOnUse">
<stop stop-color="#015976"/>
<stop offset="1" stop-color="#042B42"/>
</linearGradient>
<linearGradient id="paint15_linear" x1="355.611" y1="321.161" x2="323.069" y2="345.991" gradientUnits="userSpaceOnUse">
<stop stop-color="#F49A1A"/>
<stop offset="0.000510365" stop-color="#F49A1A"/>
<stop offset="1" stop-color="#FFDE44"/>
</linearGradient>
<linearGradient id="paint16_linear" x1="321.271" y1="333.841" x2="356.784" y2="333.841" gradientUnits="userSpaceOnUse">
<stop stop-color="#F49A1A"/>
<stop offset="0.000510365" stop-color="#F49A1A"/>
<stop offset="1" stop-color="#FFDE44"/>
</linearGradient>
<linearGradient id="paint17_linear" x1="281.179" y1="158.758" x2="330.33" y2="158.758" gradientUnits="userSpaceOnUse">
<stop stop-color="#FFDE44"/>
<stop offset="0.9995" stop-color="#F49A1A"/>
<stop offset="1" stop-color="#F49A1A"/>
</linearGradient>
<linearGradient id="paint18_linear" x1="58.5413" y1="162.475" x2="331.082" y2="162.475" gradientUnits="userSpaceOnUse">
<stop stop-color="#FFDE44"/>
<stop offset="0.9995" stop-color="#F49A1A"/>
<stop offset="1" stop-color="#F49A1A"/>
</linearGradient>
<clipPath id="clip0">
<rect width="771.362" height="470" fill="white"/>
</clipPath>
</defs>
</svg>
