<svg width="772" height="470" viewBox="0 0 772 470" fill="none" xmlns="http://www.w3.org/2000/svg">
<g clip-path="url(#clip0)">
<path d="M38.3339 429.636C37.2408 429.636 36.1478 429.636 35.1329 429.558C34.7425 429.558 34.5083 429.246 34.5083 428.855C34.5083 428.465 34.8206 428.231 35.2109 428.231C36.2259 428.231 37.3189 428.309 38.3339 428.309C42.3156 428.309 46.4535 428.075 50.5913 427.528C50.9817 427.45 51.294 427.762 51.294 428.075C51.3721 428.465 51.0598 428.777 50.7475 428.777C46.5315 429.324 42.3937 429.636 38.3339 429.636ZM19.7525 427.684C19.6744 427.684 19.6744 427.684 19.5963 427.684C14.4435 426.513 9.44683 424.874 4.76244 422.844C4.45015 422.688 4.29401 422.297 4.45015 421.985C4.6063 421.673 4.99666 421.517 5.30896 421.673C9.91527 423.703 14.8339 425.342 19.9086 426.435C20.2209 426.513 20.4551 426.826 20.3771 427.216C20.3771 427.45 20.0648 427.684 19.7525 427.684ZM65.8937 425.889C65.5814 425.889 65.3472 425.732 65.2691 425.42C65.191 425.108 65.3472 424.718 65.7375 424.639C70.5781 423.39 75.5747 421.751 80.4153 419.877C80.7276 419.721 81.1179 419.877 81.2741 420.267C81.4302 420.658 81.2741 420.97 80.8837 421.126C75.9651 423.078 70.9684 424.639 66.0498 425.967C65.9717 425.889 65.9717 425.889 65.8937 425.889ZM-8.35383 415.036C-8.50998 415.036 -8.58805 414.958 -8.7442 414.88C-12.8821 411.914 -16.7857 408.4 -20.3771 404.497C-20.6113 404.262 -20.6113 403.794 -20.3771 403.56C-20.1429 403.326 -19.6744 403.326 -19.4402 403.56C-15.8488 407.385 -12.0233 410.82 -7.96347 413.787C-7.65118 414.022 -7.5731 414.412 -7.80732 414.724C-7.96347 414.958 -8.11961 415.036 -8.35383 415.036ZM94.7807 414.724C94.5465 414.724 94.3123 414.568 94.2342 414.412C94.078 414.1 94.1561 413.709 94.5465 413.553C99.1528 411.211 103.603 408.556 107.897 405.746C108.209 405.512 108.6 405.668 108.756 405.902C108.99 406.214 108.834 406.605 108.6 406.761C104.306 409.571 99.7774 412.226 95.1711 414.646C94.9369 414.646 94.8588 414.724 94.7807 414.724ZM120.623 397.626C120.467 397.626 120.233 397.548 120.154 397.392C119.92 397.08 119.998 396.689 120.233 396.455C122.497 394.581 124.605 392.629 126.635 390.756C128.196 389.272 129.836 387.633 131.475 385.915C131.709 385.681 132.1 385.681 132.412 385.915C132.646 386.149 132.646 386.54 132.412 386.852C130.694 388.57 129.055 390.209 127.493 391.693C125.463 393.644 123.277 395.596 121.013 397.47C120.935 397.548 120.779 397.626 120.623 397.626ZM142.561 375.688C142.405 375.688 142.249 375.61 142.093 375.531C141.859 375.297 141.781 374.907 142.015 374.595C145.606 370.613 149.198 366.475 152.321 362.962C152.555 362.727 152.945 362.649 153.257 362.884C153.492 363.118 153.57 363.508 153.336 363.82C150.291 367.334 146.621 371.472 143.03 375.453C142.874 375.609 142.718 375.688 142.561 375.688ZM163.017 352.344C162.86 352.344 162.704 352.266 162.626 352.188C162.392 351.953 162.314 351.563 162.548 351.251C166.452 346.801 169.731 343.053 172.854 339.618C173.088 339.384 173.478 339.306 173.791 339.54C174.025 339.774 174.103 340.164 173.869 340.477C170.746 343.912 167.545 347.659 163.563 352.11C163.407 352.266 163.251 352.344 163.017 352.344ZM183.784 329.156C183.628 329.156 183.472 329.078 183.316 329C183.081 328.766 183.003 328.375 183.316 328.063C186.985 324.081 190.498 320.412 194.012 316.82C194.246 316.586 194.636 316.586 194.948 316.82C195.183 317.055 195.183 317.445 194.948 317.757C191.435 321.349 187.922 325.018 184.252 329C184.096 329.078 183.94 329.156 183.784 329.156ZM205.41 306.905C205.254 306.905 205.098 306.827 204.942 306.671C204.708 306.437 204.708 305.968 204.942 305.734C208.767 302.065 212.593 298.473 216.262 295.116C216.497 294.882 216.965 294.882 217.199 295.194C217.434 295.507 217.434 295.897 217.121 296.131C213.374 299.488 209.626 303.08 205.801 306.749C205.801 306.905 205.644 306.905 205.41 306.905ZM228.52 286.138C228.364 286.138 228.13 286.06 228.051 285.904C227.817 285.591 227.895 285.201 228.13 284.967C232.189 281.61 236.249 278.33 240.309 275.286C240.621 275.051 241.012 275.129 241.246 275.442C241.48 275.754 241.402 276.144 241.09 276.379C237.03 279.423 232.97 282.703 228.988 285.982C228.832 286.138 228.676 286.138 228.52 286.138ZM253.269 267.478C253.035 267.478 252.879 267.4 252.723 267.166C252.488 266.854 252.566 266.463 252.879 266.229C257.173 263.262 261.623 260.452 265.995 257.797C266.307 257.641 266.698 257.719 266.854 258.031C267.01 258.344 266.932 258.734 266.62 258.89C262.247 261.467 257.875 264.355 253.581 267.244C253.503 267.4 253.425 267.478 253.269 267.478ZM279.892 251.473C279.658 251.473 279.424 251.317 279.345 251.161C279.189 250.849 279.267 250.458 279.58 250.302C284.186 247.882 288.87 245.618 293.555 243.51C293.867 243.354 294.257 243.51 294.414 243.822C294.57 244.134 294.414 244.525 294.101 244.681C289.417 246.711 284.733 249.053 280.204 251.395C280.048 251.473 279.97 251.473 279.892 251.473ZM507.007 240.933C501.854 240.855 496.623 240.699 491.47 240.309C491.08 240.309 490.846 239.997 490.846 239.606C490.846 239.216 491.158 238.982 491.548 238.982C496.701 239.372 501.932 239.528 507.007 239.606C507.397 239.606 507.631 239.919 507.631 240.231C507.631 240.621 507.319 240.933 507.007 240.933ZM522.543 240.543C522.231 240.543 521.919 240.309 521.919 239.918C521.919 239.528 522.153 239.294 522.543 239.216C527.696 238.904 532.849 238.435 537.924 237.811C538.236 237.732 538.626 238.045 538.626 238.357C538.704 238.747 538.392 239.06 538.08 239.06C532.927 239.762 527.774 240.231 522.543 240.543ZM308.154 238.904C307.92 238.904 307.608 238.747 307.53 238.513C307.374 238.201 307.608 237.811 307.92 237.654C312.761 235.859 317.757 234.219 322.676 232.814C322.988 232.736 323.379 232.892 323.457 233.282C323.535 233.673 323.379 233.985 322.988 234.063C318.07 235.468 313.151 237.108 308.311 238.904C308.311 238.826 308.233 238.904 308.154 238.904ZM476.09 238.669H476.012C470.937 237.967 465.784 237.186 460.631 236.171C460.241 236.093 460.085 235.781 460.085 235.39C460.163 235 460.475 234.844 460.865 234.844C465.94 235.781 471.093 236.639 476.168 237.342C476.558 237.42 476.792 237.732 476.714 238.045C476.636 238.435 476.402 238.669 476.09 238.669ZM553.226 236.639C552.914 236.639 552.679 236.405 552.601 236.093C552.523 235.781 552.757 235.39 553.07 235.312C558.145 234.297 563.219 233.048 568.06 231.721C568.372 231.643 568.762 231.799 568.84 232.189C568.919 232.502 568.762 232.892 568.372 232.97C563.453 234.375 558.301 235.624 553.226 236.639C553.304 236.639 553.382 236.639 553.226 236.639ZM445.563 232.892C445.485 232.892 445.485 232.892 445.407 232.892C440.332 231.643 435.257 230.55 430.261 229.691C429.87 229.613 429.714 229.301 429.714 228.91C429.714 228.52 430.105 228.364 430.495 228.364C435.492 229.301 440.645 230.394 445.719 231.565C446.032 231.643 446.266 232.033 446.188 232.345C446.11 232.736 445.875 232.892 445.563 232.892ZM337.978 230.237C337.666 230.237 337.432 230.003 337.354 229.691C337.276 229.379 337.51 228.988 337.822 228.91C342.897 227.817 348.05 226.88 353.125 226.178C353.515 226.1 353.827 226.412 353.827 226.724C353.905 227.115 353.593 227.427 353.281 227.427C348.206 228.129 343.053 229.066 338.056 230.159C338.056 230.237 337.978 230.237 337.978 230.237ZM583.128 228.208C582.894 228.208 582.581 228.051 582.503 227.817C582.347 227.505 582.581 227.115 582.894 226.958C587.734 225.163 592.497 223.211 597.181 221.025C597.493 220.869 597.884 221.025 598.04 221.337C598.196 221.649 598.04 222.04 597.728 222.196C593.043 224.382 588.203 226.334 583.362 228.129C583.206 228.208 583.128 228.208 583.128 228.208ZM415.036 227.271H414.958C409.806 226.646 404.653 226.1 399.578 225.787C399.188 225.787 398.953 225.475 398.953 225.085C398.953 224.694 399.266 224.46 399.656 224.46C404.731 224.772 409.962 225.241 415.115 225.943C415.505 226.021 415.739 226.334 415.661 226.646C415.661 227.036 415.427 227.271 415.036 227.271ZM368.661 225.943C368.349 225.943 368.037 225.709 368.037 225.319C368.037 224.928 368.271 224.616 368.661 224.616C373.814 224.226 378.967 224.07 384.198 224.07C384.588 224.07 384.822 224.382 384.822 224.694C384.822 225.085 384.51 225.319 384.198 225.319C378.967 225.397 373.736 225.553 368.661 225.943ZM611.234 215.247C611 215.247 610.766 215.091 610.688 214.935C610.532 214.623 610.61 214.232 610.922 214.076C615.372 211.578 619.822 208.845 624.038 205.957C624.35 205.722 624.741 205.801 624.975 206.113C625.209 206.425 625.131 206.816 624.819 206.972C620.525 209.86 616.075 212.593 611.546 215.169C611.468 215.247 611.312 215.247 611.234 215.247ZM636.92 197.837C636.764 197.837 636.53 197.759 636.452 197.603C636.218 197.291 636.296 196.9 636.53 196.666C640.512 193.465 644.415 190.03 648.163 186.438C648.397 186.204 648.865 186.204 649.1 186.438C649.334 186.673 649.334 187.141 649.1 187.375C645.352 190.967 641.448 194.402 637.389 197.603C637.154 197.837 636.998 197.837 636.92 197.837ZM659.327 176.445C659.171 176.445 659.015 176.367 658.937 176.289C658.703 176.055 658.625 175.664 658.859 175.352C662.294 171.526 665.573 167.467 668.618 163.407C668.852 163.095 669.242 163.095 669.555 163.251C669.867 163.485 669.867 163.875 669.711 164.188C666.588 168.325 663.309 172.385 659.874 176.211C659.64 176.367 659.483 176.445 659.327 176.445ZM677.909 151.696C677.752 151.696 677.674 151.696 677.596 151.618C677.284 151.462 677.206 150.993 677.362 150.759C680.095 146.465 682.671 141.937 685.091 137.409C685.247 137.096 685.638 136.94 685.95 137.174C686.262 137.33 686.419 137.721 686.184 138.033C683.764 142.639 681.188 147.168 678.377 151.54C678.377 151.54 678.143 151.696 677.909 151.696ZM692.352 124.214C692.274 124.214 692.196 124.214 692.118 124.136C691.806 123.98 691.649 123.59 691.806 123.277C693.835 118.593 695.709 113.752 697.349 108.834C697.427 108.521 697.817 108.287 698.208 108.443C698.52 108.521 698.754 108.912 698.598 109.302C696.88 114.221 695.007 119.061 692.977 123.824C692.821 124.136 692.586 124.214 692.352 124.214ZM702.502 94.9368C702.424 94.9368 702.424 94.9368 702.345 94.9368C702.033 94.8587 701.799 94.4683 701.877 94.156C703.204 89.2374 704.375 84.1627 705.312 79.0879C705.39 78.7757 705.703 78.5414 706.093 78.5414C706.405 78.6195 706.639 78.9318 706.639 79.3222C705.703 84.3969 704.532 89.5497 703.204 94.4683C703.048 94.7806 702.736 94.9368 702.502 94.9368ZM708.279 64.4883H708.201C707.811 64.4102 707.576 64.0979 707.654 63.7856C708.279 58.7109 708.747 53.558 708.982 48.4052C708.982 48.0149 709.294 47.7806 709.684 47.7806C710.075 47.7806 710.309 48.0929 710.309 48.4833C709.997 53.6361 709.528 58.867 708.904 63.9418C708.904 64.2541 708.591 64.4883 708.279 64.4883ZM710.075 33.5713C709.684 33.5713 709.45 33.259 709.45 32.9467C709.45 27.872 709.216 22.6411 708.904 17.4883C708.904 17.0979 709.138 16.7856 709.528 16.7856C709.919 16.7856 710.231 17.0198 710.231 17.4102C710.543 22.563 710.777 27.7939 710.777 32.9467C710.699 33.259 710.387 33.4933 710.075 33.5713ZM707.967 2.57631C707.654 2.57631 707.342 2.34209 707.342 2.0298C706.718 -3.04495 705.937 -8.19777 705 -13.2725C704.922 -13.6629 705.156 -13.9752 705.546 -14.0533C705.937 -14.1313 706.249 -13.8971 706.327 -13.5067C707.264 -8.35392 708.045 -3.2011 708.669 1.87366C708.747 2.26402 708.435 2.57631 708.123 2.57631C708.045 2.57631 708.045 2.57631 707.967 2.57631ZM702.502 -27.9503C702.189 -27.9503 701.955 -28.1845 701.877 -28.4187C700.706 -33.4154 699.379 -38.4121 697.973 -43.4087C697.895 -43.721 698.051 -44.1114 698.442 -44.1895C698.754 -44.2675 699.144 -44.1114 699.223 -43.721C700.628 -38.7244 702.033 -33.6496 703.204 -28.6529C703.282 -28.3406 703.048 -27.9503 702.736 -27.8722C702.58 -27.9503 702.502 -27.9503 702.502 -27.9503Z" fill="#243647"/>
<path d="M546.668 367.958C553.46 354.529 558.301 344.224 583.753 328.687C609.204 313.151 650.271 301.752 674.083 301.206" stroke="#39D2D1" stroke-width="1.3852" stroke-miterlimit="10" stroke-linecap="round" stroke-linejoin="round"/>
<path d="M574.618 334.543C585.236 319.475 594.839 308.779 611 303.86C627.161 298.942 640.277 296.365 672.444 301.206" stroke="#39D2D1" stroke-width="1.3852" stroke-miterlimit="10" stroke-linecap="round" stroke-linejoin="round"/>
<path d="M574.618 334.543C583.206 337.12 603.271 344.771 628.02 336.105C646.445 329.625 656.829 316.43 661.279 312.449C665.573 308.623 671.819 302.611 674.083 301.128" stroke="#39D2D1" stroke-width="1.3852" stroke-miterlimit="10" stroke-linecap="round" stroke-linejoin="round"/>
<path d="M599.601 308.935C597.025 312.683 594.917 317.289 595.776 322.129C603.349 323.222 614.513 328.922 618.573 338.759" stroke="#39D2D1" stroke-width="1.3852" stroke-miterlimit="10" stroke-linecap="round" stroke-linejoin="round"/>
<path d="M625.365 300.191C622.086 304.485 621.071 308.232 621.696 311.746C626.693 312.37 642.385 316.586 646.679 326.033" stroke="#39D2D1" stroke-width="1.3852" stroke-miterlimit="10" stroke-linecap="round" stroke-linejoin="round"/>
<path d="M650.427 298.864C645.821 301.44 644.493 305.422 644.493 305.422C644.493 305.422 653.238 306.359 660.811 312.995" stroke="#39D2D1" stroke-width="1.3852" stroke-miterlimit="10" stroke-linecap="round" stroke-linejoin="round"/>
<path d="M508.49 408.244C522.855 395.362 533.551 385.291 571.339 378.655C609.126 371.94 663.621 377.718 692.43 388.18" stroke="#39D2D1" stroke-width="1.7818" stroke-miterlimit="10" stroke-linecap="round" stroke-linejoin="round"/>
<path d="M557.676 381.465C577.507 368.427 593.98 360.151 615.684 361.791C637.389 363.43 654.252 366.631 690.556 387.477" stroke="#39D2D1" stroke-width="1.7818" stroke-miterlimit="10" stroke-linecap="round" stroke-linejoin="round"/>
<path d="M557.676 381.465C566.811 388.57 587.188 407.229 620.837 408.479C645.977 409.415 664.558 398.407 671.741 395.753C678.611 393.254 688.917 388.882 692.352 388.18" stroke="#39D2D1" stroke-width="1.7818" stroke-miterlimit="10" stroke-linecap="round" stroke-linejoin="round"/>
<path d="M599.601 362.494C594.761 365.773 590.076 370.301 588.749 376.469C597.337 381.309 608.033 393.411 608.267 407.151" stroke="#39D2D1" stroke-width="1.7818" stroke-miterlimit="10" stroke-linecap="round" stroke-linejoin="round"/>
<path d="M634.656 364.133C628.644 367.724 625.678 371.706 624.819 376.156C630.44 379.279 647.304 391.693 648.007 404.965" stroke="#39D2D1" stroke-width="1.7818" stroke-miterlimit="10" stroke-linecap="round" stroke-linejoin="round"/>
<path d="M665.261 374.283C658.546 375.22 655.033 379.279 655.033 379.279C655.033 379.279 665.105 384.51 671.038 396.065" stroke="#39D2D1" stroke-width="1.7818" stroke-miterlimit="10" stroke-linecap="round" stroke-linejoin="round"/>
<path d="M557.676 81.1962C570.094 81.1962 580.161 71.1293 580.161 58.7111C580.161 46.293 570.094 36.2261 557.676 36.2261C545.258 36.2261 535.191 46.293 535.191 58.7111C535.191 71.1293 545.258 81.1962 557.676 81.1962Z" fill="url(#paint0_linear)"/>
<path d="M557.676 81.196C570.09 81.196 580.161 71.1245 580.161 58.7109C580.161 56.8372 579.927 55.0415 579.537 53.3239C578.756 53.5581 578.053 54.1046 577.585 54.8073C576.726 56.2126 576.804 58.0083 576.023 59.4917C575.321 60.975 572.822 61.8339 572.12 60.3505C571.651 59.4136 572.198 58.3986 572.51 57.3837C573.525 53.7923 569.465 49.8887 565.952 51.1378C563.688 51.9186 562.282 54.1046 561.502 56.3687C560.721 58.6329 560.487 60.975 559.784 63.2392C559.081 65.5033 557.598 67.6893 555.412 68.4701C553.148 69.2508 550.181 67.9236 550.025 65.5814C549.713 62.0681 555.1 59.7259 554.241 56.3687C553.694 54.3388 551.118 53.6362 549.166 54.3388C547.214 55.0415 545.887 56.7591 544.638 58.3986C542.218 61.6777 539.875 65.0348 537.611 68.4701C541.125 75.9651 548.776 81.196 557.676 81.196Z" fill="url(#paint1_linear)"/>
<path d="M81.3522 161.377C100.54 161.377 116.095 145.822 116.095 126.635C116.095 107.447 100.54 91.8921 81.3522 91.8921C62.1644 91.8921 46.6096 107.447 46.6096 126.635C46.6096 145.822 62.1644 161.377 81.3522 161.377Z" fill="url(#paint2_linear)"/>
<path d="M116.173 126.635C116.173 123.59 115.782 120.545 115.002 117.735C113.128 118.437 111.41 119.764 110.239 121.326C108.131 124.058 107.038 127.338 105.321 130.304C104.384 131.944 103.291 133.505 101.885 134.676C100.324 136.004 97.9817 134.833 98.216 132.803L99.6993 117.578C99.8555 116.095 98.9186 114.377 97.9037 113.284C96.0299 111.254 92.5166 112.113 90.6429 114.065C84.7093 120.233 83.8505 123.512 78.6977 136.862C77.8389 139.048 77.2924 141.469 75.8871 143.264C74.0914 145.607 70.5781 146.934 68.1578 144.436C66.9087 143.186 66.5183 141.391 66.6744 139.595C67.1429 135.535 70.1877 132.568 71.2807 128.743C72.2957 125.151 70.5 120.077 65.9718 121.092C64.8007 121.326 63.7857 122.029 62.9269 122.809C57.8522 127.884 53.1678 133.349 48.9518 139.127C54.0266 152.087 66.5964 161.221 81.3522 161.221C100.558 161.377 116.173 145.841 116.173 126.635Z" fill="url(#paint3_linear)"/>
<path d="M117.266 350.236C112.113 324.159 107.507 318.46 100.012 320.724C92.5166 322.988 91.892 349.767 96.5764 361.322C87.1296 336.026 79.6345 315.337 68.1578 304.875C56.6811 294.413 38.0216 299.957 46.3754 322.91C54.7292 345.864 62.0681 338.212 81.8987 367.021C69.7973 353.671 54.3389 341.101 34.5864 339.305C14.8339 337.51 0.62458 341.179 2.34219 356.794C4.0598 372.408 20.6113 368.739 27.5598 367.88C34.5083 367.021 53.5581 365.694 64.2541 370.222C74.8721 374.751 82.8355 381.231 82.8355 381.231C82.8355 381.231 62.9269 367.412 43.1744 381.543C23.4219 395.674 37.0066 403.247 45.2043 402.545C53.402 401.842 68.4701 396.143 76.1993 397.548C84.0066 398.953 95.8737 404.653 99.8555 407.385" stroke="#39D2D1" stroke-width="1.7818" stroke-miterlimit="10" stroke-linecap="round" stroke-linejoin="round"/>
<path d="M300.894 120.779L271.772 96.0299L305.812 102.978L291.525 40.9103L329.39 85.4901L335.792 59.4136L349.221 78.0731L354.53 17.6445L368.427 78.0731L373.892 53.2459L384.588 78.0731L408.244 41.613V84.0847L440.41 60.1163L418.316 105.555L451.341 97.8256L418.316 114.689L444.939 118.593L415.349 130.616L367.022 146.465L350.626 165.749L300.894 120.779Z" fill="url(#paint4_linear)"/>
<path d="M411.758 451.809H93.4535C86.7392 451.809 81.3522 446.422 81.3522 439.708V267.478C81.3522 260.764 86.7392 255.377 93.4535 255.377H411.758C418.472 255.377 423.859 260.764 423.859 267.478V439.629C423.859 446.344 418.472 451.809 411.758 451.809Z" fill="url(#paint5_linear)"/>
<path d="M411.758 255.377H93.4535C86.7392 255.377 81.3522 260.764 81.3522 267.478V271.07H423.859V267.478C423.859 260.842 418.472 255.377 411.758 255.377Z" fill="url(#paint6_linear)"/>
<path d="M456.103 432.681C528.499 432.681 587.188 373.993 587.188 301.596C587.188 229.2 528.499 170.512 456.103 170.512C383.707 170.512 325.018 229.2 325.018 301.596C325.018 373.993 383.707 432.681 456.103 432.681Z" fill="url(#paint7_linear)"/>
<path d="M587.11 304.641C570.636 293.321 570.714 294.726 550.884 287.621C530.507 280.36 467.033 273.412 467.033 273.412L460.241 279.424L423.859 282.781C423.859 282.781 416.91 257.953 413.319 243.822C409.728 229.769 369.832 243.354 365.382 253.816C360.932 264.277 358.512 303.782 361.556 322.91C364.679 342.038 389.272 365.46 428.153 360.541C430.027 372.877 434.945 400.593 460.241 408.01C459.694 414.178 459.616 423.624 459.694 432.681C529.414 430.729 585.548 374.438 587.11 304.641Z" fill="url(#paint8_linear)"/>
<path d="M305.578 264.277C301.284 286.45 291.525 320.568 291.525 320.568L218.214 317.211L132.568 323.769C114.767 325.877 94.3123 331.654 81.3522 335.792V439.708C81.3522 446.422 86.7392 451.809 93.4535 451.809H225.631L242.573 397.626C242.573 397.626 319.865 403.247 336.729 386.618C353.593 369.91 355.154 282.234 354.374 268.415C354.14 263.34 348.128 258.5 340.399 255.455H311.434C308.467 257.329 306.359 260.218 305.578 264.277Z" fill="url(#paint9_linear)"/>
<path d="M214.935 261.233C223.386 261.233 230.238 254.382 230.238 245.93C230.238 237.479 223.386 230.628 214.935 230.628C206.484 230.628 199.633 237.479 199.633 245.93C199.633 254.382 206.484 261.233 214.935 261.233Z" fill="#243647"/>
<path d="M168.638 232.267C177.089 232.267 183.94 225.416 183.94 216.965C183.94 208.514 177.089 201.663 168.638 201.663C160.187 201.663 153.336 208.514 153.336 216.965C153.336 225.416 160.187 232.267 168.638 232.267Z" fill="#243647"/>
<path d="M149.9 313.776C158.352 313.776 165.203 306.924 165.203 298.473C165.203 290.022 158.352 283.171 149.9 283.171C141.449 283.171 134.598 290.022 134.598 298.473C134.598 306.924 141.449 313.776 149.9 313.776Z" fill="#243647"/>
<path d="M125.229 291.525C133.68 291.525 140.532 284.674 140.532 276.223C140.532 267.771 133.68 260.92 125.229 260.92C116.778 260.92 109.927 267.771 109.927 276.223C109.927 284.674 116.778 291.525 125.229 291.525Z" fill="#243647"/>
<path d="M143.498 230.628C151.95 230.628 158.801 223.777 158.801 215.326C158.801 206.875 151.95 200.023 143.498 200.023C135.047 200.023 128.196 206.875 128.196 215.326C128.196 223.777 135.047 230.628 143.498 230.628Z" fill="#243647"/>
<path d="M133.349 253.581C144.172 253.581 152.945 244.808 152.945 233.985C152.945 223.162 144.172 214.389 133.349 214.389C122.526 214.389 113.753 223.162 113.753 233.985C113.753 244.808 122.526 253.581 133.349 253.581Z" fill="#243647"/>
<path d="M128.821 277.081C139.643 277.081 148.417 268.308 148.417 257.485C148.417 246.662 139.643 237.889 128.821 237.889C117.998 237.889 109.224 246.662 109.224 257.485C109.224 268.308 117.998 277.081 128.821 277.081Z" fill="#243647"/>
<path d="M131.631 312.917C142.454 312.917 151.228 304.143 151.228 293.32C151.228 282.498 142.454 273.724 131.631 273.724C120.808 273.724 112.035 282.498 112.035 293.32C112.035 304.143 120.808 312.917 131.631 312.917Z" fill="#243647"/>
<path d="M203.302 247.023C211.754 247.023 218.605 240.172 218.605 231.721C218.605 223.27 211.754 216.418 203.302 216.418C194.851 216.418 188 223.27 188 231.721C188 240.172 194.851 247.023 203.302 247.023Z" fill="#243647"/>
<path d="M193.621 238.669C204.789 238.669 213.842 229.616 213.842 218.448C213.842 207.281 204.789 198.228 193.621 198.228C182.454 198.228 173.4 207.281 173.4 218.448C173.4 229.616 182.454 238.669 193.621 238.669Z" fill="#243647"/>
<path d="M192.919 308.076L198.54 328.297C198.54 328.297 196.042 333.684 190.342 335.948C182.847 334.074 164.422 327.594 164.422 327.594L159.191 298.473L192.919 308.076Z" fill="white"/>
<path d="M178.007 314.556C203.705 314.556 224.538 293.723 224.538 268.025C224.538 242.326 203.705 221.493 178.007 221.493C152.308 221.493 131.475 242.326 131.475 268.025C131.475 293.723 152.308 314.556 178.007 314.556Z" fill="white"/>
<path d="M156.068 256.704C166.029 256.704 174.103 248.63 174.103 238.669C174.103 228.709 166.029 220.634 156.068 220.634C146.108 220.634 138.033 228.709 138.033 238.669C138.033 248.63 146.108 256.704 156.068 256.704Z" fill="#243647"/>
<path d="M189.952 238.825C195.299 238.825 199.633 234.491 199.633 229.144C199.633 223.798 195.299 219.463 189.952 219.463C184.605 219.463 180.271 223.798 180.271 229.144C180.271 234.491 184.605 238.825 189.952 238.825Z" fill="#243647"/>
<path d="M170.043 246.164C175.39 246.164 179.724 241.83 179.724 236.483C179.724 231.137 175.39 226.802 170.043 226.802C164.697 226.802 160.362 231.137 160.362 236.483C160.362 241.83 164.697 246.164 170.043 246.164Z" fill="#243647"/>
<path d="M201.741 231.408C207.088 231.408 211.422 227.074 211.422 221.727C211.422 216.381 207.088 212.046 201.741 212.046C196.394 212.046 192.06 216.381 192.06 221.727C192.06 227.074 196.394 231.408 201.741 231.408Z" fill="#243647"/>
<path d="M178.163 235.078C183.51 235.078 187.844 230.744 187.844 225.397C187.844 220.05 183.51 215.716 178.163 215.716C172.816 215.716 168.482 220.05 168.482 225.397C168.482 230.744 172.816 235.078 178.163 235.078Z" fill="#243647"/>
<path d="M140.375 265.058C145.722 265.058 150.056 260.724 150.056 255.377C150.056 250.03 145.722 245.696 140.375 245.696C135.029 245.696 130.694 250.03 130.694 255.377C130.694 260.724 135.029 265.058 140.375 265.058Z" fill="#243647"/>
<path d="M138.267 251.161C143.614 251.161 147.949 246.827 147.949 241.48C147.949 236.133 143.614 231.799 138.267 231.799C132.921 231.799 128.586 236.133 128.586 241.48C128.586 246.827 132.921 251.161 138.267 251.161Z" fill="#243647"/>
<path d="M130.07 272.085C135.416 272.085 139.751 267.75 139.751 262.404C139.751 257.057 135.416 252.723 130.07 252.723C124.723 252.723 120.389 257.057 120.389 262.404C120.389 267.75 124.723 272.085 130.07 272.085Z" fill="#243647"/>
<path d="M165.827 234.219C171.174 234.219 175.508 229.885 175.508 224.538C175.508 219.191 171.174 214.857 165.827 214.857C160.481 214.857 156.146 219.191 156.146 224.538C156.146 229.885 160.481 234.219 165.827 234.219Z" fill="#243647"/>
<path d="M137.331 280.751C142.677 280.751 147.012 276.416 147.012 271.07C147.012 265.723 142.677 261.389 137.331 261.389C131.984 261.389 127.65 265.723 127.65 271.07C127.65 276.416 131.984 280.751 137.331 280.751Z" fill="#243647"/>
<path d="M136.94 291.447C142.287 291.447 146.621 287.112 146.621 281.766C146.621 276.419 142.287 272.084 136.94 272.084C131.593 272.084 127.259 276.419 127.259 281.766C127.259 287.112 131.593 291.447 136.94 291.447Z" fill="#243647"/>
<path d="M137.331 309.17C145.178 309.17 151.54 302.808 151.54 294.96C151.54 287.113 145.178 280.751 137.331 280.751C129.483 280.751 123.121 287.113 123.121 294.96C123.121 302.808 129.483 309.17 137.331 309.17Z" fill="white"/>
<path d="M194.636 314.166L218.292 317.211C218.292 317.211 213.296 346.176 180.661 347.503C147.949 348.83 132.724 323.769 132.724 323.769L194.636 314.166Z" fill="white"/>
<path d="M305.578 264.277C308.779 247.101 315.415 197.056 312.527 188C309.638 178.943 302.065 159.659 296.6 144.279C291.135 128.899 288.87 116.485 295.975 114.689C294.101 106.726 296.131 99.5431 300.581 102.9C300.269 94.7807 308.623 93.4534 310.262 100.558C313.541 93.9999 319.163 95.7956 322.676 102.276C326.189 108.756 333.45 126.322 333.45 126.322C333.45 126.322 338.447 122.731 342.194 125.62C345.864 128.508 357.887 162.704 359.917 171.839C361.947 180.973 361.713 196.432 353.359 199.867C353.125 221.337 353.046 252.254 354.374 268.259C355.076 271.538 332.669 273.568 326.502 273.178C309.169 272.085 305.578 264.277 305.578 264.277Z" fill="white"/>
<path d="M338.681 124.292C330.561 124.371 331.186 132.178 334.231 142.405C337.276 152.633 341.336 166.062 341.336 166.062" stroke="#CCCCCC" stroke-width="2.6786" stroke-miterlimit="10" stroke-linecap="round" stroke-linejoin="round"/>
<path d="M310.262 100.636C308.623 106.882 321.037 133.115 324.081 140.922" stroke="#CCCCCC" stroke-width="2.6786" stroke-miterlimit="10" stroke-linecap="round" stroke-linejoin="round"/>
<path d="M300.581 102.979C300.503 109.927 312.058 139.126 313.62 142.249" stroke="#CCCCCC" stroke-width="2.6786" stroke-miterlimit="10" stroke-linecap="round" stroke-linejoin="round"/>
<path d="M296.053 114.689C296.444 122.809 305.89 146.465 305.89 146.465" stroke="#CCCCCC" stroke-width="2.6786" stroke-miterlimit="10" stroke-linecap="round" stroke-linejoin="round"/>
<path d="M476.558 259.671L470.937 279.892C470.937 279.892 473.435 285.279 479.135 287.543C486.63 285.67 505.055 279.19 505.055 279.19L510.286 250.068L476.558 259.671Z" fill="white"/>
<path d="M461.1 247.102C461.1 258.578 451.653 258.578 444.86 275.052C438.068 291.525 450.091 295.507 444.86 305.969C439.63 316.43 426.123 313.932 422.141 325.955C418.159 337.901 424.171 342.897 422.141 347.425C420.111 351.954 410.196 357.887 414.178 369.364C418.159 380.841 445.563 386.306 451.575 373.346C457.586 360.386 450.56 350.392 453.605 342.429C456.649 334.465 464.613 337.432 468.595 329.937C472.576 322.442 470.625 318.46 475.075 314.01C479.525 309.56 486.083 306.047 487.566 298.552C489.05 291.057 490.767 281.532 487.566 273.646C484.365 265.605 461.1 247.102 461.1 247.102Z" fill="url(#paint10_linear)"/>
<path d="M491.47 266.152C517.169 266.152 538.002 245.319 538.002 219.62C538.002 193.921 517.169 173.088 491.47 173.088C465.771 173.088 444.939 193.921 444.939 219.62C444.939 245.319 465.771 266.152 491.47 266.152Z" fill="white"/>
<path d="M506.538 177.773C501.073 186.283 508.022 211.656 515.517 218.683C523.012 225.709 518.483 233.673 518.483 233.673C518.483 233.673 514.502 245.15 516.453 255.611C507.475 262.091 498.028 267.088 495.53 281.063C493.032 295.038 497.56 297.537 495.53 303.548C493.5 309.56 478.588 318.538 478.588 332.513C478.588 346.488 488.035 343.99 488.581 351.954C489.05 359.917 482.57 360.932 484.6 373.424C486.63 385.915 499.59 394.894 514.033 392.864C528.477 390.834 526.993 376.391 529.492 372.409C531.99 368.427 534.957 363.899 534.02 355.935C533.005 347.972 524.027 344.927 523.558 334.465C523.09 324.003 534.566 295.038 545.497 295.038C556.427 295.038 573.447 296.053 573.447 296.053C573.447 296.053 580.942 292.072 577.429 280.595C573.915 269.118 558.457 263.653 559.94 253.191C561.424 242.729 567.904 234.766 567.435 216.809C566.967 198.852 548.463 175.899 531.99 170.434C515.517 164.969 463.598 157.239 451.653 195.651C468.048 184.096 486.083 175.821 506.538 177.773Z" fill="url(#paint11_linear)"/>
<path d="M522.231 258.031C530.079 258.031 536.44 251.67 536.44 243.822C536.44 235.975 530.079 229.613 522.231 229.613C514.383 229.613 508.022 235.975 508.022 243.822C508.022 251.67 514.383 258.031 522.231 258.031Z" fill="white"/>
<path d="M413.319 243.822C411.055 206.659 408.947 173.322 410.743 164.031C412.538 154.741 417.613 134.598 421.282 118.671C424.952 102.744 425.576 90.1743 418.316 89.2375C419.174 81.1179 416.364 74.2474 412.382 78.1511C411.679 70.0315 403.248 69.7973 402.545 77.0581C398.563 70.9683 393.098 73.3886 390.444 80.2591C387.789 87.1295 382.636 105.477 382.636 105.477C382.636 105.477 377.171 102.51 373.892 105.789C370.613 109.068 362.806 144.513 361.869 153.804C360.932 163.095 363.04 178.397 371.784 180.817C371.16 194.636 367.88 244.447 365.46 253.816C365.148 257.095 387.711 256.47 393.723 255.299C410.743 251.942 413.319 243.822 413.319 243.822Z" fill="white"/>
<path d="M377.093 103.915C385.213 102.978 385.525 110.786 383.729 121.325C381.934 131.865 379.513 145.684 379.513 145.684" stroke="#CCCCCC" stroke-width="2.6786" stroke-miterlimit="10" stroke-linecap="round" stroke-linejoin="round"/>
<path d="M402.389 76.98C404.809 82.9916 395.674 110.551 393.566 118.671" stroke="#CCCCCC" stroke-width="2.6786" stroke-miterlimit="10" stroke-linecap="round" stroke-linejoin="round"/>
<path d="M412.304 78.0728C413.241 84.9432 405.355 115.314 404.106 118.593" stroke="#CCCCCC" stroke-width="2.6786" stroke-miterlimit="10" stroke-linecap="round" stroke-linejoin="round"/>
<path d="M418.238 89.1592C418.862 97.2788 412.382 121.872 412.382 121.872" stroke="#CCCCCC" stroke-width="2.6786" stroke-miterlimit="10" stroke-linecap="round" stroke-linejoin="round"/>
</g>
<defs>
<linearGradient id="paint0_linear" x1="535.244" y1="58.7187" x2="580.149" y2="58.7187" gradientUnits="userSpaceOnUse">
<stop stop-color="#015976"/>
<stop offset="1" stop-color="#042B42"/>
</linearGradient>
<linearGradient id="paint1_linear" x1="537.473" y1="66.0743" x2="580.149" y2="66.0743" gradientUnits="userSpaceOnUse">
<stop stop-color="#4B3263"/>
<stop offset="1" stop-color="#042B42"/>
</linearGradient>
<linearGradient id="paint2_linear" x1="46.6054" y1="126.605" x2="116.161" y2="126.605" gradientUnits="userSpaceOnUse">
<stop stop-color="#015976"/>
<stop offset="1" stop-color="#042B42"/>
</linearGradient>
<linearGradient id="paint3_linear" x1="49.0024" y1="136.777" x2="116.161" y2="136.777" gradientUnits="userSpaceOnUse">
<stop stop-color="#4B3263"/>
<stop offset="1" stop-color="#042B42"/>
</linearGradient>
<linearGradient id="paint4_linear" x1="415.443" y1="39.9503" x2="276.006" y2="157.547" gradientUnits="userSpaceOnUse">
<stop stop-color="#F49A1A"/>
<stop offset="0.000510365" stop-color="#F49A1A"/>
<stop offset="1" stop-color="#FFDE44"/>
</linearGradient>
<linearGradient id="paint5_linear" x1="81.3833" y1="353.59" x2="423.856" y2="353.59" gradientUnits="userSpaceOnUse">
<stop stop-color="#4B3263"/>
<stop offset="1" stop-color="#042B42"/>
</linearGradient>
<linearGradient id="paint6_linear" x1="81.3832" y1="263.245" x2="423.856" y2="263.245" gradientUnits="userSpaceOnUse">
<stop stop-color="#015976"/>
<stop offset="1" stop-color="#042B42"/>
</linearGradient>
<linearGradient id="paint7_linear" x1="548.295" y1="223.803" x2="307.77" y2="426.656" gradientUnits="userSpaceOnUse">
<stop stop-color="#015976"/>
<stop offset="1" stop-color="#042B42"/>
</linearGradient>
<linearGradient id="paint8_linear" x1="536.701" y1="256.508" x2="363.302" y2="402.749" gradientUnits="userSpaceOnUse">
<stop stop-color="#5CB8B2"/>
<stop offset="1" stop-color="#41B6E6"/>
</linearGradient>
<linearGradient id="paint9_linear" x1="331.122" y1="258.292" x2="34.2662" y2="508.653" gradientUnits="userSpaceOnUse">
<stop stop-color="#015976"/>
<stop offset="1" stop-color="#042B42"/>
</linearGradient>
<linearGradient id="paint10_linear" x1="413.291" y1="313.973" x2="489.377" y2="313.973" gradientUnits="userSpaceOnUse">
<stop stop-color="#F49A1A"/>
<stop offset="0.000510365" stop-color="#F49A1A"/>
<stop offset="1" stop-color="#FFDE44"/>
</linearGradient>
<linearGradient id="paint11_linear" x1="451.624" y1="279.396" x2="578.273" y2="279.396" gradientUnits="userSpaceOnUse">
<stop stop-color="#F49A1A"/>
<stop offset="0.000510365" stop-color="#F49A1A"/>
<stop offset="1" stop-color="#FFDE44"/>
</linearGradient>
<clipPath id="clip0">
<rect width="771.362" height="470" fill="white"/>
</clipPath>
</defs>
</svg>
