<svg width="26" height="26" viewBox="0 0 26 26" fill="none" xmlns="http://www.w3.org/2000/svg">
<path d="M25.255 12.5387H13.1696V17.3327H17.9695C17.0341 18.5719 15.7576 19.4865 14.3093 19.9551C12.8611 20.4237 11.3097 20.4242 9.86125 19.9564C8.41276 19.4887 7.13567 18.5749 6.19956 17.3363C5.26346 16.0978 4.71263 14.5931 4.62023 13.0221C4.52782 11.4511 4.89821 9.88807 5.68221 8.54061C6.46621 7.19316 7.62672 6.12501 9.00964 5.478C10.3926 4.831 11.9325 4.63575 13.4249 4.91819C14.9173 5.20063 16.2916 5.94739 17.3652 7.05931L20.6303 3.67176C18.9393 1.91759 16.7847 0.723337 14.4392 0.240127C12.0937 -0.243083 9.66282 0.0064745 7.45411 0.957218C5.24539 1.90796 3.35816 3.51715 2.03127 5.58113C0.704375 7.64512 -0.00253199 10.0711 6.81446e-06 12.5521C0.00254561 15.033 0.714415 17.4575 2.04553 19.5185C3.37664 21.5796 5.26716 23.1846 7.47782 24.1305C9.68848 25.0764 12.1199 25.3206 14.4644 24.8322C16.8089 24.3438 18.961 23.1448 20.6484 21.3869V25.0817H25.2671V12.5429L25.255 12.5387Z" fill="url(#paint0_linear)"/>
<defs>
<linearGradient id="paint0_linear" x1="0.737759" y1="22.6554" x2="41.6536" y2="-0.988234" gradientUnits="userSpaceOnUse">
<stop stop-color="#00B8B0"/>
<stop offset="1" stop-color="#0795CF"/>
</linearGradient>
</defs>
</svg>
