<svg width="17" height="17" viewBox="0 0 17 17" fill="none" xmlns="http://www.w3.org/2000/svg">
<path d="M13.4039 10.401C12.5377 10.401 11.7293 10.8052 11.2095 11.4404L6.12777 8.84177C6.12777 8.84177 6.12777 8.84177 6.07002 8.84177C6.12777 8.66853 6.12777 8.43754 6.12777 8.2643C6.12777 8.20655 6.12777 8.14881 6.12777 8.09106L11.4405 5.37693C11.9603 5.83891 12.5955 6.12765 13.3462 6.12765C14.9631 6.12765 16.2336 4.8572 16.2336 3.24028C16.2336 1.62335 14.9631 0.352905 13.3462 0.352905C11.7293 0.352905 10.4588 1.62335 10.4588 3.24028C10.4588 3.52901 10.5166 3.76 10.5743 4.04874L5.55029 6.64737C5.03057 5.89666 4.16436 5.43468 3.2404 5.43468C1.62347 5.43468 0.353027 6.70512 0.353027 8.32205C0.353027 9.93898 1.62347 11.2094 3.2404 11.2094C4.04886 11.2094 4.79958 10.8629 5.3193 10.2855C5.3193 10.2855 5.31931 10.2855 5.37705 10.2855L10.5166 12.9418C10.5166 13.0573 10.4588 13.1728 10.4588 13.3461C10.4588 14.963 11.7293 16.2334 13.3462 16.2334C14.9631 16.2334 16.2336 14.963 16.2336 13.3461C16.2913 11.7291 14.9631 10.401 13.4039 10.401Z" fill="#D783FF"/>
</svg>
