<svg width="16" height="16" viewBox="0 0 16 16" fill="none" xmlns="http://www.w3.org/2000/svg">
<path fill-rule="evenodd" clip-rule="evenodd" d="M8 16C10.1217 16 12.1566 15.1571 13.6569 13.6569C15.1571 12.1566 16 10.1217 16 8C16 5.87827 15.1571 3.84344 13.6569 2.34315C12.1566 0.842855 10.1217 0 8 0C5.87827 0 3.84344 0.842855 2.34315 2.34315C0.842855 3.84344 0 5.87827 0 8C0 10.1217 0.842855 12.1566 2.34315 13.6569C3.84344 15.1571 5.87827 16 8 16ZM11.707 7.293L8.707 4.293C8.51947 4.10553 8.26516 4.00021 8 4.00021C7.73484 4.00021 7.48053 4.10553 7.293 4.293L4.293 7.293C4.11084 7.4816 4.01005 7.7342 4.01233 7.9964C4.0146 8.2586 4.11977 8.50941 4.30518 8.69482C4.49059 8.88023 4.7414 8.9854 5.0036 8.98767C5.2658 8.98995 5.5184 8.88916 5.707 8.707L7 7.414V11C7 11.2652 7.10536 11.5196 7.29289 11.7071C7.48043 11.8946 7.73478 12 8 12C8.26522 12 8.51957 11.8946 8.70711 11.7071C8.89464 11.5196 9 11.2652 9 11V7.414L10.293 8.707C10.4816 8.88916 10.7342 8.98995 10.9964 8.98767C11.2586 8.9854 11.5094 8.88023 11.6948 8.69482C11.8802 8.50941 11.9854 8.2586 11.9877 7.9964C11.99 7.7342 11.8892 7.4816 11.707 7.293Z" fill="#5CD0FF"/>
</svg>
