<svg width="18" height="18" viewBox="0 0 18 18" fill="none" xmlns="http://www.w3.org/2000/svg">
<circle cx="9" cy="9" r="9" fill="#00A478"/>
<path d="M8.02988 8.70842V6.75356H5.43526V5.04004H12.6856V6.77769H10.091V8.70842H8.02988Z" fill="#FBFBFB"/>
<path fill-rule="evenodd" clip-rule="evenodd" d="M4.31982 8.92563C4.31982 8.27401 6.40521 7.74306 8.99982 7.74306C11.5944 7.74306 13.6798 8.27401 13.6798 8.92563C13.6798 9.57725 11.5944 10.1082 8.99982 10.1082C6.40521 10.1082 4.31982 9.57725 4.31982 8.92563ZM13.2918 8.92563C13.1221 8.68428 11.7157 7.93613 8.99982 7.93613C6.28397 7.93613 4.87754 8.66015 4.7078 8.92563C4.87754 9.16697 6.28397 9.52898 8.99982 9.52898C11.7399 9.52898 13.1221 9.16697 13.2918 8.92563Z" fill="#FBFBFB"/>
<path d="M10.091 9.31177V7.96026C9.75153 7.93613 9.3878 7.91199 9.02407 7.91199C8.68459 7.91199 8.36936 7.91199 8.05412 7.93613V9.28764C8.34511 9.28764 8.68459 9.31177 9.02407 9.31177C9.3878 9.33591 9.75153 9.33591 10.091 9.31177Z" fill="#FBFBFB"/>
<path d="M8.99982 10.1082C8.66034 10.1082 8.34511 10.1082 8.02988 10.0841V13.68H10.0668V10.0599C9.72729 10.0841 9.36355 10.1082 8.99982 10.1082Z" fill="#FBFBFB"/>
</svg>
